<svg width="161" height="200" viewBox="0 0 161 200" fill="none" xmlns="http://www.w3.org/2000/svg">
<path fill-rule="evenodd" clip-rule="evenodd" d="M156.522 0H160.87V4.34782H156.522V0ZM143.478 6.10352e-05H147.826V4.34788H143.478V6.10352e-05ZM134.783 6.10352e-05H130.435V4.34788H134.783V6.10352e-05ZM117.391 6.10352e-05H121.739V4.34788H117.391V6.10352e-05ZM108.696 6.10352e-05H104.348V4.34788H108.696V6.10352e-05ZM91.3042 6.10352e-05H95.6521V4.34788H91.3042V6.10352e-05ZM82.6087 6.10352e-05H78.2608V4.34788H82.6087V6.10352e-05ZM65.2173 6.10352e-05H69.5651V4.34788H65.2173V6.10352e-05ZM56.5217 6.10352e-05H52.1738V4.34788H56.5217V6.10352e-05ZM39.1304 6.10352e-05H43.4782V4.34788H39.1304V6.10352e-05ZM30.4347 6.10352e-05H26.0869V4.34788H30.4347V6.10352e-05ZM13.0434 6.10352e-05H17.3912V4.34788H13.0434V6.10352e-05ZM4.34779 6.10352e-05H-3.05176e-05V4.34788H4.34779V6.10352e-05ZM143.478 13.0435H147.826V17.3913H143.478V13.0435ZM156.522 13.0435H160.869V17.3913H156.522V13.0435ZM134.783 13.0435H130.435V17.3913H134.783V13.0435ZM117.391 13.0435H121.739V17.3913H117.391V13.0435ZM108.696 13.0435H104.348V17.3913H108.696V13.0435ZM91.3043 13.0435H95.6521V17.3913H91.3043V13.0435ZM82.6087 13.0435H78.2609V17.3913H82.6087V13.0435ZM65.2173 13.0435H69.5652V17.3913H65.2173V13.0435ZM56.5217 13.0435H52.1739V17.3913H56.5217V13.0435ZM39.1304 13.0435H43.4782V17.3913H39.1304V13.0435ZM30.4348 13.0435H26.0869V17.3913H30.4348V13.0435ZM13.0434 13.0435H17.3913V17.3913H13.0434V13.0435ZM4.34782 13.0435H0V17.3913H4.34782V13.0435ZM147.826 26.087H143.478V30.4349H147.826V26.087ZM160.869 26.087H156.522V30.4349H160.869V26.087ZM130.435 26.087H134.783V30.4349H130.435V26.087ZM121.739 26.087H117.391V30.4349H121.739V26.087ZM104.348 26.087H108.696V30.4349H104.348V26.087ZM95.6521 26.087H91.3043V30.4349H95.6521V26.087ZM78.2609 26.087H82.6087V30.4349H78.2609V26.087ZM69.5652 26.087H65.2173V30.4349H69.5652V26.087ZM52.1739 26.087H56.5217V30.4349H52.1739V26.087ZM43.4782 26.087H39.1304V30.4349H43.4782V26.087ZM26.0869 26.087H30.4348V30.4349H26.0869V26.087ZM17.3913 26.087H13.0434V30.4349H17.3913V26.087ZM0 26.087H4.34782V30.4349H0V26.087ZM156.522 39.1305H160.869V43.4783H156.522V39.1305ZM143.478 39.1305H147.826V43.4783H143.478V39.1305ZM134.783 39.1305H130.435V43.4783H134.783V39.1305ZM117.391 39.1305H121.739V43.4783H117.391V39.1305ZM108.696 39.1305H104.348V43.4783H108.696V39.1305ZM91.3043 39.1305H95.6521V43.4783H91.3043V39.1305ZM82.6087 39.1305H78.2609V43.4783H82.6087V39.1305ZM65.2173 39.1305H69.5652V43.4783H65.2173V39.1305ZM56.5217 39.1305H52.1739V43.4783H56.5217V39.1305ZM39.1304 39.1305H43.4782V43.4783H39.1304V39.1305ZM30.4348 39.1305H26.0869V43.4783H30.4348V39.1305ZM13.0434 39.1305H17.3913V43.4783H13.0434V39.1305ZM4.34782 39.1305H0V43.4783H4.34782V39.1305ZM160.869 52.1739H156.522V56.5217H160.869V52.1739ZM147.826 52.1739H143.478V56.5217H147.826V52.1739ZM130.435 52.1739H134.783V56.5217H130.435V52.1739ZM121.739 52.1739H117.391V56.5217H121.739V52.1739ZM104.348 52.1739H108.696V56.5217H104.348V52.1739ZM95.6521 52.1739H91.3043V56.5217H95.6521V52.1739ZM78.2609 52.1739H82.6087V56.5217H78.2609V52.1739ZM69.5652 52.1739H65.2173V56.5217H69.5652V52.1739ZM52.1739 52.1739H56.5217V56.5217H52.1739V52.1739ZM43.4782 52.1739H39.1304V56.5217H43.4782V52.1739ZM26.0869 52.1739H30.4348V56.5217H26.0869V52.1739ZM17.3913 52.1739H13.0434V56.5217H17.3913V52.1739ZM0 52.1739H4.34782V56.5217H0V52.1739ZM156.522 65.2174H160.869V69.5652H156.522V65.2174ZM143.478 65.2175H147.826V69.5653H143.478V65.2175ZM134.783 65.2175H130.435V69.5653H134.783V65.2175ZM117.391 65.2175H121.739V69.5653H117.391V65.2175ZM108.696 65.2175H104.348V69.5653H108.696V65.2175ZM91.3043 65.2175H95.6521V69.5653H91.3043V65.2175ZM82.6087 65.2175H78.2609V69.5653H82.6087V65.2175ZM65.2173 65.2175H69.5652V69.5653H65.2173V65.2175ZM56.5217 65.2175H52.1739V69.5653H56.5217V65.2175ZM39.1304 65.2175H43.4782V69.5653H39.1304V65.2175ZM30.4348 65.2175H26.0869V69.5653H30.4348V65.2175ZM13.0434 65.2175H17.3913V69.5653H13.0434V65.2175ZM4.34782 65.2175H0V69.5653H4.34782V65.2175ZM147.826 78.2609H143.478V82.6087H147.826V78.2609ZM160.869 78.2609H156.522V82.6087H160.869V78.2609ZM130.435 78.2609H134.783V82.6087H130.435V78.2609ZM121.739 78.2609H117.391V82.6087H121.739V78.2609ZM104.348 78.2609H108.696V82.6087H104.348V78.2609ZM95.6521 78.2609H91.3043V82.6087H95.6521V78.2609ZM78.2609 78.2609H82.6087V82.6087H78.2609V78.2609ZM69.5652 78.2609H65.2173V82.6087H69.5652V78.2609ZM52.1739 78.2609H56.5217V82.6087H52.1739V78.2609ZM43.4782 78.2609H39.1304V82.6087H43.4782V78.2609ZM26.0869 78.2609H30.4348V82.6087H26.0869V78.2609ZM17.3913 78.2609H13.0434V82.6087H17.3913V78.2609ZM0 78.2609H4.34782V82.6087H0V78.2609ZM156.522 91.3043H160.869V95.6522H156.522V91.3043ZM143.478 91.3043H147.826V95.6522H143.478V91.3043ZM134.783 91.3043H130.435V95.6522H134.783V91.3043ZM117.391 91.3043H121.739V95.6522H117.391V91.3043ZM108.696 91.3043H104.348V95.6522H108.696V91.3043ZM91.3043 91.3043H95.6521V95.6522H91.3043V91.3043ZM82.6087 91.3043H78.2609V95.6522H82.6087V91.3043ZM65.2173 91.3043H69.5652V95.6522H65.2173V91.3043ZM56.5217 91.3043H52.1739V95.6522H56.5217V91.3043ZM39.1304 91.3043H43.4782V95.6522H39.1304V91.3043ZM30.4348 91.3043H26.0869V95.6522H30.4348V91.3043ZM13.0434 91.3043H17.3913V95.6522H13.0434V91.3043ZM4.34782 91.3043H0V95.6522H4.34782V91.3043ZM160.869 104.348H156.522V108.696H160.869V104.348ZM147.826 104.348H143.478V108.696H147.826V104.348ZM130.435 104.348H134.783V108.696H130.435V104.348ZM121.739 104.348H117.391V108.696H121.739V104.348ZM104.348 104.348H108.696V108.696H104.348V104.348ZM95.6521 104.348H91.3043V108.696H95.6521V104.348ZM78.2609 104.348H82.6087V108.696H78.2609V104.348ZM69.5652 104.348H65.2173V108.696H69.5652V104.348ZM52.1739 104.348H56.5217V108.696H52.1739V104.348ZM43.4782 104.348H39.1304V108.696H43.4782V104.348ZM26.0869 104.348H30.4348V108.696H26.0869V104.348ZM17.3913 104.348H13.0434V108.696H17.3913V104.348ZM0 104.348H4.34782V108.696H0V104.348ZM143.478 117.391H147.826V121.739H143.478V117.391ZM156.522 117.391H160.869V121.739H156.522V117.391ZM134.783 117.391H130.435V121.739H134.783V117.391ZM117.391 117.391H121.739V121.739H117.391V117.391ZM108.696 117.391H104.348V121.739H108.696V117.391ZM91.3043 117.391H95.6521V121.739H91.3043V117.391ZM82.6087 117.391H78.2609V121.739H82.6087V117.391ZM65.2173 117.391H69.5652V121.739H65.2173V117.391ZM56.5217 117.391H52.1739V121.739H56.5217V117.391ZM39.1304 117.391H43.4782V121.739H39.1304V117.391ZM30.4348 117.391H26.0869V121.739H30.4348V117.391ZM13.0434 117.391H17.3913V121.739H13.0434V117.391ZM4.34782 117.391H0V121.739H4.34782V117.391ZM160.869 130.435H156.522V134.783H160.869V130.435ZM147.826 130.435H143.478V134.783H147.826V130.435ZM130.435 130.435H134.783V134.783H130.435V130.435ZM121.739 130.435H117.391V134.783H121.739V130.435ZM104.348 130.435H108.696V134.783H104.348V130.435ZM95.6521 130.435H91.3043V134.783H95.6521V130.435ZM78.2609 130.435H82.6087V134.783H78.2609V130.435ZM69.5652 130.435H65.2173V134.783H69.5652V130.435ZM52.1739 130.435H56.5217V134.783H52.1739V130.435ZM43.4782 130.435H39.1304V134.783H43.4782V130.435ZM26.0869 130.435H30.4348V134.783H26.0869V130.435ZM17.3913 130.435H13.0434V134.783H17.3913V130.435ZM0 130.435H4.34782V134.783H0V130.435ZM143.478 143.478H147.826V147.826H143.478V143.478ZM156.522 143.478H160.869V147.826H156.522V143.478ZM134.783 143.478H130.435V147.826H134.783V143.478ZM117.391 143.478H121.739V147.826H117.391V143.478ZM108.696 143.478H104.348V147.826H108.696V143.478ZM91.3043 143.478H95.6521V147.826H91.3043V143.478ZM82.6087 143.478H78.2609V147.826H82.6087V143.478ZM65.2173 143.478H69.5652V147.826H65.2173V143.478ZM56.5217 143.478H52.1739V147.826H56.5217V143.478ZM39.1304 143.478H43.4782V147.826H39.1304V143.478ZM30.4348 143.478H26.0869V147.826H30.4348V143.478ZM13.0434 143.478H17.3913V147.826H13.0434V143.478ZM4.34782 143.478H0V147.826H4.34782V143.478ZM160.869 156.522H156.522V160.87H160.869V156.522ZM147.826 156.522H143.478V160.87H147.826V156.522ZM130.435 156.522H134.783V160.87H130.435V156.522ZM121.739 156.522H117.391V160.87H121.739V156.522ZM104.348 156.522H108.696V160.87H104.348V156.522ZM95.6521 156.522H91.3043V160.87H95.6521V156.522ZM78.2609 156.522H82.6087V160.87H78.2609V156.522ZM69.5652 156.522H65.2173V160.87H69.5652V156.522ZM52.1739 156.522H56.5217V160.87H52.1739V156.522ZM43.4782 156.522H39.1304V160.87H43.4782V156.522ZM26.0869 156.522H30.4348V160.87H26.0869V156.522ZM17.3913 156.522H13.0434V160.87H17.3913V156.522ZM0 156.522H4.34782V160.87H0V156.522ZM156.522 169.565H160.869V173.913H156.522V169.565ZM143.478 169.565H147.826V173.913H143.478V169.565ZM134.783 169.565H130.435V173.913H134.783V169.565ZM117.391 169.565H121.739V173.913H117.391V169.565ZM108.696 169.565H104.348V173.913H108.696V169.565ZM91.3043 169.565H95.6521V173.913H91.3043V169.565ZM82.6087 169.565H78.2609V173.913H82.6087V169.565ZM65.2173 169.565H69.5652V173.913H65.2173V169.565ZM56.5217 169.565H52.1739V173.913H56.5217V169.565ZM39.1304 169.565H43.4782V173.913H39.1304V169.565ZM30.4348 169.565H26.0869V173.913H30.4348V169.565ZM13.0434 169.565H17.3913V173.913H13.0434V169.565ZM4.34782 169.565H0V173.913H4.34782V169.565ZM160.869 182.609H156.522V186.956H160.869V182.609ZM147.826 182.609H143.478V186.956H147.826V182.609ZM130.435 182.609H134.783V186.956H130.435V182.609ZM121.739 182.609H117.391V186.956H121.739V182.609ZM104.348 182.609H108.696V186.956H104.348V182.609ZM95.6521 182.609H91.3043V186.956H95.6521V182.609ZM78.2609 182.609H82.6087V186.956H78.2609V182.609ZM69.5652 182.609H65.2173V186.956H69.5652V182.609ZM52.1739 182.609H56.5217V186.956H52.1739V182.609ZM43.4782 182.609H39.1304V186.956H43.4782V182.609ZM26.0869 182.609H30.4348V186.956H26.0869V182.609ZM17.3913 182.609H13.0434V186.956H17.3913V182.609ZM0 182.609H4.34782V186.956H0V182.609ZM156.522 195.652H160.869V200H156.522V195.652ZM143.478 195.652H147.826V200H143.478V195.652ZM134.783 195.652H130.435V200H134.783V195.652ZM117.391 195.652H121.739V200H117.391V195.652ZM108.696 195.652H104.348V200H108.696V195.652ZM91.3043 195.652H95.6521V200H91.3043V195.652ZM82.6087 195.652H78.2609V200H82.6087V195.652ZM65.2173 195.652H69.5652V200H65.2173V195.652ZM56.5217 195.652H52.1739V200H56.5217V195.652ZM39.1304 195.652H43.4782V200H39.1304V195.652ZM30.4348 195.652H26.0869V200H30.4348V195.652ZM13.0434 195.652H17.3913V200H13.0434V195.652ZM4.34782 195.652H0V200H4.34782V195.652Z" fill="#3A50C5"/>
<path fill-rule="evenodd" clip-rule="evenodd" d="M156.522 0H160.87V4.34782H156.522V0ZM143.478 6.10352e-05H147.826V4.34788H143.478V6.10352e-05ZM134.783 6.10352e-05H130.435V4.34788H134.783V6.10352e-05ZM117.391 6.10352e-05H121.739V4.34788H117.391V6.10352e-05ZM108.696 6.10352e-05H104.348V4.34788H108.696V6.10352e-05ZM91.3042 6.10352e-05H95.6521V4.34788H91.3042V6.10352e-05ZM82.6087 6.10352e-05H78.2608V4.34788H82.6087V6.10352e-05ZM65.2173 6.10352e-05H69.5651V4.34788H65.2173V6.10352e-05ZM56.5217 6.10352e-05H52.1738V4.34788H56.5217V6.10352e-05ZM39.1304 6.10352e-05H43.4782V4.34788H39.1304V6.10352e-05ZM30.4347 6.10352e-05H26.0869V4.34788H30.4347V6.10352e-05ZM13.0434 6.10352e-05H17.3912V4.34788H13.0434V6.10352e-05ZM4.34779 6.10352e-05H-3.05176e-05V4.34788H4.34779V6.10352e-05ZM143.478 13.0435H147.826V17.3913H143.478V13.0435ZM156.522 13.0435H160.869V17.3913H156.522V13.0435ZM134.783 13.0435H130.435V17.3913H134.783V13.0435ZM117.391 13.0435H121.739V17.3913H117.391V13.0435ZM108.696 13.0435H104.348V17.3913H108.696V13.0435ZM91.3043 13.0435H95.6521V17.3913H91.3043V13.0435ZM82.6087 13.0435H78.2609V17.3913H82.6087V13.0435ZM65.2173 13.0435H69.5652V17.3913H65.2173V13.0435ZM56.5217 13.0435H52.1739V17.3913H56.5217V13.0435ZM39.1304 13.0435H43.4782V17.3913H39.1304V13.0435ZM30.4348 13.0435H26.0869V17.3913H30.4348V13.0435ZM13.0434 13.0435H17.3913V17.3913H13.0434V13.0435ZM4.34782 13.0435H0V17.3913H4.34782V13.0435ZM147.826 26.087H143.478V30.4349H147.826V26.087ZM160.869 26.087H156.522V30.4349H160.869V26.087ZM130.435 26.087H134.783V30.4349H130.435V26.087ZM121.739 26.087H117.391V30.4349H121.739V26.087ZM104.348 26.087H108.696V30.4349H104.348V26.087ZM95.6521 26.087H91.3043V30.4349H95.6521V26.087ZM78.2609 26.087H82.6087V30.4349H78.2609V26.087ZM69.5652 26.087H65.2173V30.4349H69.5652V26.087ZM52.1739 26.087H56.5217V30.4349H52.1739V26.087ZM43.4782 26.087H39.1304V30.4349H43.4782V26.087ZM26.0869 26.087H30.4348V30.4349H26.0869V26.087ZM17.3913 26.087H13.0434V30.4349H17.3913V26.087ZM0 26.087H4.34782V30.4349H0V26.087ZM156.522 39.1305H160.869V43.4783H156.522V39.1305ZM143.478 39.1305H147.826V43.4783H143.478V39.1305ZM134.783 39.1305H130.435V43.4783H134.783V39.1305ZM117.391 39.1305H121.739V43.4783H117.391V39.1305ZM108.696 39.1305H104.348V43.4783H108.696V39.1305ZM91.3043 39.1305H95.6521V43.4783H91.3043V39.1305ZM82.6087 39.1305H78.2609V43.4783H82.6087V39.1305ZM65.2173 39.1305H69.5652V43.4783H65.2173V39.1305ZM56.5217 39.1305H52.1739V43.4783H56.5217V39.1305ZM39.1304 39.1305H43.4782V43.4783H39.1304V39.1305ZM30.4348 39.1305H26.0869V43.4783H30.4348V39.1305ZM13.0434 39.1305H17.3913V43.4783H13.0434V39.1305ZM4.34782 39.1305H0V43.4783H4.34782V39.1305ZM160.869 52.1739H156.522V56.5217H160.869V52.1739ZM147.826 52.1739H143.478V56.5217H147.826V52.1739ZM130.435 52.1739H134.783V56.5217H130.435V52.1739ZM121.739 52.1739H117.391V56.5217H121.739V52.1739ZM104.348 52.1739H108.696V56.5217H104.348V52.1739ZM95.6521 52.1739H91.3043V56.5217H95.6521V52.1739ZM78.2609 52.1739H82.6087V56.5217H78.2609V52.1739ZM69.5652 52.1739H65.2173V56.5217H69.5652V52.1739ZM52.1739 52.1739H56.5217V56.5217H52.1739V52.1739ZM43.4782 52.1739H39.1304V56.5217H43.4782V52.1739ZM26.0869 52.1739H30.4348V56.5217H26.0869V52.1739ZM17.3913 52.1739H13.0434V56.5217H17.3913V52.1739ZM0 52.1739H4.34782V56.5217H0V52.1739ZM156.522 65.2174H160.869V69.5652H156.522V65.2174ZM143.478 65.2175H147.826V69.5653H143.478V65.2175ZM134.783 65.2175H130.435V69.5653H134.783V65.2175ZM117.391 65.2175H121.739V69.5653H117.391V65.2175ZM108.696 65.2175H104.348V69.5653H108.696V65.2175ZM91.3043 65.2175H95.6521V69.5653H91.3043V65.2175ZM82.6087 65.2175H78.2609V69.5653H82.6087V65.2175ZM65.2173 65.2175H69.5652V69.5653H65.2173V65.2175ZM56.5217 65.2175H52.1739V69.5653H56.5217V65.2175ZM39.1304 65.2175H43.4782V69.5653H39.1304V65.2175ZM30.4348 65.2175H26.0869V69.5653H30.4348V65.2175ZM13.0434 65.2175H17.3913V69.5653H13.0434V65.2175ZM4.34782 65.2175H0V69.5653H4.34782V65.2175ZM147.826 78.2609H143.478V82.6087H147.826V78.2609ZM160.869 78.2609H156.522V82.6087H160.869V78.2609ZM130.435 78.2609H134.783V82.6087H130.435V78.2609ZM121.739 78.2609H117.391V82.6087H121.739V78.2609ZM104.348 78.2609H108.696V82.6087H104.348V78.2609ZM95.6521 78.2609H91.3043V82.6087H95.6521V78.2609ZM78.2609 78.2609H82.6087V82.6087H78.2609V78.2609ZM69.5652 78.2609H65.2173V82.6087H69.5652V78.2609ZM52.1739 78.2609H56.5217V82.6087H52.1739V78.2609ZM43.4782 78.2609H39.1304V82.6087H43.4782V78.2609ZM26.0869 78.2609H30.4348V82.6087H26.0869V78.2609ZM17.3913 78.2609H13.0434V82.6087H17.3913V78.2609ZM0 78.2609H4.34782V82.6087H0V78.2609ZM156.522 91.3043H160.869V95.6522H156.522V91.3043ZM143.478 91.3043H147.826V95.6522H143.478V91.3043ZM134.783 91.3043H130.435V95.6522H134.783V91.3043ZM117.391 91.3043H121.739V95.6522H117.391V91.3043ZM108.696 91.3043H104.348V95.6522H108.696V91.3043ZM91.3043 91.3043H95.6521V95.6522H91.3043V91.3043ZM82.6087 91.3043H78.2609V95.6522H82.6087V91.3043ZM65.2173 91.3043H69.5652V95.6522H65.2173V91.3043ZM56.5217 91.3043H52.1739V95.6522H56.5217V91.3043ZM39.1304 91.3043H43.4782V95.6522H39.1304V91.3043ZM30.4348 91.3043H26.0869V95.6522H30.4348V91.3043ZM13.0434 91.3043H17.3913V95.6522H13.0434V91.3043ZM4.34782 91.3043H0V95.6522H4.34782V91.3043ZM160.869 104.348H156.522V108.696H160.869V104.348ZM147.826 104.348H143.478V108.696H147.826V104.348ZM130.435 104.348H134.783V108.696H130.435V104.348ZM121.739 104.348H117.391V108.696H121.739V104.348ZM104.348 104.348H108.696V108.696H104.348V104.348ZM95.6521 104.348H91.3043V108.696H95.6521V104.348ZM78.2609 104.348H82.6087V108.696H78.2609V104.348ZM69.5652 104.348H65.2173V108.696H69.5652V104.348ZM52.1739 104.348H56.5217V108.696H52.1739V104.348ZM43.4782 104.348H39.1304V108.696H43.4782V104.348ZM26.0869 104.348H30.4348V108.696H26.0869V104.348ZM17.3913 104.348H13.0434V108.696H17.3913V104.348ZM0 104.348H4.34782V108.696H0V104.348ZM143.478 117.391H147.826V121.739H143.478V117.391ZM156.522 117.391H160.869V121.739H156.522V117.391ZM134.783 117.391H130.435V121.739H134.783V117.391ZM117.391 117.391H121.739V121.739H117.391V117.391ZM108.696 117.391H104.348V121.739H108.696V117.391ZM91.3043 117.391H95.6521V121.739H91.3043V117.391ZM82.6087 117.391H78.2609V121.739H82.6087V117.391ZM65.2173 117.391H69.5652V121.739H65.2173V117.391ZM56.5217 117.391H52.1739V121.739H56.5217V117.391ZM39.1304 117.391H43.4782V121.739H39.1304V117.391ZM30.4348 117.391H26.0869V121.739H30.4348V117.391ZM13.0434 117.391H17.3913V121.739H13.0434V117.391ZM4.34782 117.391H0V121.739H4.34782V117.391ZM160.869 130.435H156.522V134.783H160.869V130.435ZM147.826 130.435H143.478V134.783H147.826V130.435ZM130.435 130.435H134.783V134.783H130.435V130.435ZM121.739 130.435H117.391V134.783H121.739V130.435ZM104.348 130.435H108.696V134.783H104.348V130.435ZM95.6521 130.435H91.3043V134.783H95.6521V130.435ZM78.2609 130.435H82.6087V134.783H78.2609V130.435ZM69.5652 130.435H65.2173V134.783H69.5652V130.435ZM52.1739 130.435H56.5217V134.783H52.1739V130.435ZM43.4782 130.435H39.1304V134.783H43.4782V130.435ZM26.0869 130.435H30.4348V134.783H26.0869V130.435ZM17.3913 130.435H13.0434V134.783H17.3913V130.435ZM0 130.435H4.34782V134.783H0V130.435ZM143.478 143.478H147.826V147.826H143.478V143.478ZM156.522 143.478H160.869V147.826H156.522V143.478ZM134.783 143.478H130.435V147.826H134.783V143.478ZM117.391 143.478H121.739V147.826H117.391V143.478ZM108.696 143.478H104.348V147.826H108.696V143.478ZM91.3043 143.478H95.6521V147.826H91.3043V143.478ZM82.6087 143.478H78.2609V147.826H82.6087V143.478ZM65.2173 143.478H69.5652V147.826H65.2173V143.478ZM56.5217 143.478H52.1739V147.826H56.5217V143.478ZM39.1304 143.478H43.4782V147.826H39.1304V143.478ZM30.4348 143.478H26.0869V147.826H30.4348V143.478ZM13.0434 143.478H17.3913V147.826H13.0434V143.478ZM4.34782 143.478H0V147.826H4.34782V143.478ZM160.869 156.522H156.522V160.87H160.869V156.522ZM147.826 156.522H143.478V160.87H147.826V156.522ZM130.435 156.522H134.783V160.87H130.435V156.522ZM121.739 156.522H117.391V160.87H121.739V156.522ZM104.348 156.522H108.696V160.87H104.348V156.522ZM95.6521 156.522H91.3043V160.87H95.6521V156.522ZM78.2609 156.522H82.6087V160.87H78.2609V156.522ZM69.5652 156.522H65.2173V160.87H69.5652V156.522ZM52.1739 156.522H56.5217V160.87H52.1739V156.522ZM43.4782 156.522H39.1304V160.87H43.4782V156.522ZM26.0869 156.522H30.4348V160.87H26.0869V156.522ZM17.3913 156.522H13.0434V160.87H17.3913V156.522ZM0 156.522H4.34782V160.87H0V156.522ZM156.522 169.565H160.869V173.913H156.522V169.565ZM143.478 169.565H147.826V173.913H143.478V169.565ZM134.783 169.565H130.435V173.913H134.783V169.565ZM117.391 169.565H121.739V173.913H117.391V169.565ZM108.696 169.565H104.348V173.913H108.696V169.565ZM91.3043 169.565H95.6521V173.913H91.3043V169.565ZM82.6087 169.565H78.2609V173.913H82.6087V169.565ZM65.2173 169.565H69.5652V173.913H65.2173V169.565ZM56.5217 169.565H52.1739V173.913H56.5217V169.565ZM39.1304 169.565H43.4782V173.913H39.1304V169.565ZM30.4348 169.565H26.0869V173.913H30.4348V169.565ZM13.0434 169.565H17.3913V173.913H13.0434V169.565ZM4.34782 169.565H0V173.913H4.34782V169.565ZM160.869 182.609H156.522V186.956H160.869V182.609ZM147.826 182.609H143.478V186.956H147.826V182.609ZM130.435 182.609H134.783V186.956H130.435V182.609ZM121.739 182.609H117.391V186.956H121.739V182.609ZM104.348 182.609H108.696V186.956H104.348V182.609ZM95.6521 182.609H91.3043V186.956H95.6521V182.609ZM78.2609 182.609H82.6087V186.956H78.2609V182.609ZM69.5652 182.609H65.2173V186.956H69.5652V182.609ZM52.1739 182.609H56.5217V186.956H52.1739V182.609ZM43.4782 182.609H39.1304V186.956H43.4782V182.609ZM26.0869 182.609H30.4348V186.956H26.0869V182.609ZM17.3913 182.609H13.0434V186.956H17.3913V182.609ZM0 182.609H4.34782V186.956H0V182.609ZM156.522 195.652H160.869V200H156.522V195.652ZM143.478 195.652H147.826V200H143.478V195.652ZM134.783 195.652H130.435V200H134.783V195.652ZM117.391 195.652H121.739V200H117.391V195.652ZM108.696 195.652H104.348V200H108.696V195.652ZM91.3043 195.652H95.6521V200H91.3043V195.652ZM82.6087 195.652H78.2609V200H82.6087V195.652ZM65.2173 195.652H69.5652V200H65.2173V195.652ZM56.5217 195.652H52.1739V200H56.5217V195.652ZM39.1304 195.652H43.4782V200H39.1304V195.652ZM30.4348 195.652H26.0869V200H30.4348V195.652ZM13.0434 195.652H17.3913V200H13.0434V195.652ZM4.34782 195.652H0V200H4.34782V195.652Z" fill="url(#paint0_linear)"/>
<defs>
<linearGradient id="paint0_linear" x1="-0.130438" y1="100" x2="160.87" y2="100" gradientUnits="userSpaceOnUse">
<stop stop-color="white"/>
<stop stop-color="white" stop-opacity="0.821562"/>
<stop offset="1" stop-color="white" stop-opacity="0"/>
</linearGradient>
</defs>
</svg>
