<svg width="216" height="174" viewBox="0 0 216 174" fill="none" xmlns="http://www.w3.org/2000/svg">
<path fill-rule="evenodd" clip-rule="evenodd" d="M215.307 168.43L215.307 173.108L210.626 173.108L210.626 168.43L215.307 168.43ZM215.307 159.073L215.307 154.394L210.626 154.394L210.626 159.073L215.307 159.073ZM215.307 140.358L215.307 145.037L210.626 145.037L210.626 140.358L215.307 140.358ZM215.307 131.001L215.307 126.322L210.626 126.322L210.626 131.001L215.307 131.001ZM215.307 112.287L215.307 116.965L210.626 116.965L210.626 112.287L215.307 112.287ZM215.307 102.929L215.307 98.2508L210.626 98.2508L210.626 102.929L215.307 102.929ZM215.307 84.2149L215.307 88.8935L210.626 88.8935L210.626 84.2149L215.307 84.2149ZM215.307 74.8578L215.307 70.1792L210.626 70.1792L210.626 74.8578L215.307 74.8578ZM215.307 56.1434L215.307 60.822L210.626 60.822L210.626 56.1434L215.307 56.1434ZM215.307 4.67871L215.307 0.000114087L210.626 0.000113883L210.626 4.67871L215.307 4.67871ZM215.307 18.7146L215.307 14.036L210.626 14.036L210.626 18.7146L215.307 18.7146ZM215.307 28.0718L215.307 32.7504L210.626 32.7504L210.626 28.0718L215.307 28.0718ZM215.307 46.7861L215.307 42.1075L210.626 42.1075L210.626 46.7861L215.307 46.7861ZM201.265 159.073L201.265 154.394L196.584 154.394L196.584 159.073L201.265 159.073ZM201.265 140.358L201.265 145.037L196.584 145.037L196.584 140.358L201.265 140.358ZM201.265 131.001L201.265 126.322L196.584 126.322L196.584 131.001L201.265 131.001ZM201.265 112.287L201.265 116.965L196.584 116.965L196.584 112.287L201.265 112.287ZM201.265 102.929L201.265 98.2508L196.584 98.2508L196.584 102.929L201.265 102.929ZM201.265 84.2149L201.265 88.8935L196.584 88.8935L196.584 84.2149L201.265 84.2149ZM201.265 74.8577L201.265 70.1791L196.584 70.1791L196.584 74.8577L201.265 74.8577ZM201.265 56.1434L201.265 60.822L196.584 60.822L196.584 56.1434L201.265 56.1434ZM201.265 4.67871L201.265 0.000113473L196.584 0.000113269L196.584 4.67871L201.265 4.67871ZM201.265 18.7146L201.265 14.036L196.584 14.036L196.584 18.7146L201.265 18.7146ZM201.265 28.0718L201.265 32.7504L196.584 32.7504L196.584 28.0718L201.265 28.0718ZM201.265 46.7861L201.265 42.1075L196.584 42.1075L196.584 46.7861L201.265 46.7861ZM201.265 168.43L201.265 173.108L196.584 173.108L196.584 168.43L201.265 168.43ZM187.223 173.108L187.223 168.43L182.543 168.43L182.543 173.108L187.223 173.108ZM187.223 154.394L187.223 159.073L182.543 159.073L182.543 154.394L187.223 154.394ZM187.223 145.037L187.223 140.358L182.543 140.358L182.543 145.037L187.223 145.037ZM187.223 126.322L187.223 131.001L182.543 131.001L182.543 126.322L187.223 126.322ZM187.223 116.965L187.223 112.287L182.543 112.287L182.543 116.965L187.223 116.965ZM187.223 98.2508L187.223 102.929L182.543 102.929L182.543 98.2508L187.223 98.2508ZM187.223 88.8935L187.223 84.2149L182.543 84.2149L182.543 88.8935L187.223 88.8935ZM187.223 70.1792L187.223 74.8578L182.543 74.8578L182.543 70.1792L187.223 70.1792ZM187.223 60.822L187.223 56.1434L182.543 56.1434L182.543 60.822L187.223 60.822ZM187.223 0.000112859L187.223 4.67871L182.543 4.67871L182.543 0.000112655L187.223 0.000112859ZM187.223 14.036L187.223 18.7146L182.543 18.7146L182.543 14.036L187.223 14.036ZM187.223 32.7504L187.223 28.0718L182.543 28.0718L182.543 32.7504L187.223 32.7504ZM187.223 42.1075L187.223 46.7861L182.543 46.7861L182.543 42.1075L187.223 42.1075ZM173.181 28.0718L173.181 32.7504L168.501 32.7504L168.501 28.0718L173.181 28.0718ZM173.181 18.7146L173.181 14.036L168.501 14.036L168.501 18.7146L173.181 18.7146ZM173.181 4.67871L173.181 0.000112245L168.501 0.000112041L168.501 4.67871L173.181 4.67871ZM173.181 46.7861L173.181 42.1075L168.501 42.1075L168.501 46.7861L173.181 46.7861ZM173.181 56.1434L173.181 60.822L168.501 60.822L168.501 56.1434L173.181 56.1434ZM173.181 74.8578L173.181 70.1792L168.501 70.1792L168.501 74.8578L173.181 74.8578ZM173.181 84.2149L173.181 88.8935L168.501 88.8935L168.501 84.2149L173.181 84.2149ZM173.181 102.929L173.181 98.2508L168.501 98.2508L168.501 102.929L173.181 102.929ZM173.181 112.287L173.181 116.965L168.501 116.965L168.501 112.287L173.181 112.287ZM173.181 131.001L173.181 126.322L168.501 126.322L168.501 131.001L173.181 131.001ZM173.181 140.358L173.181 145.037L168.501 145.037L168.501 140.358L173.181 140.358ZM173.181 159.073L173.181 154.394L168.501 154.394L168.501 159.073L173.181 159.073ZM173.181 168.43L173.181 173.108L168.501 173.108L168.501 168.43L173.181 168.43ZM159.14 173.108L159.14 168.43L154.459 168.43L154.459 173.108L159.14 173.108ZM159.14 154.394L159.14 159.073L154.459 159.073L154.459 154.394L159.14 154.394ZM159.14 145.037L159.14 140.358L154.459 140.358L154.459 145.037L159.14 145.037ZM159.14 126.322L159.14 131.001L154.459 131.001L154.459 126.322L159.14 126.322ZM159.14 116.965L159.14 112.287L154.459 112.287L154.459 116.965L159.14 116.965ZM159.14 98.2508L159.14 102.929L154.459 102.929L154.459 98.2508L159.14 98.2508ZM159.14 88.8935L159.14 84.2149L154.459 84.2149L154.459 88.8935L159.14 88.8935ZM159.14 70.1792L159.14 74.8578L154.459 74.8578L154.459 70.1792L159.14 70.1792ZM159.14 60.822L159.14 56.1434L154.459 56.1434L154.459 60.822L159.14 60.822ZM159.14 0.000114087L159.14 4.67871L154.459 4.67871L154.459 0.000113883L159.14 0.000114087ZM159.14 14.036L159.14 18.7146L154.459 18.7146L154.459 14.036L159.14 14.036ZM159.14 32.7504L159.14 28.0718L154.459 28.0718L154.459 32.7504L159.14 32.7504ZM159.14 42.1075L159.14 46.7861L154.459 46.7861L154.459 42.1075L159.14 42.1075ZM145.098 4.67871L145.098 0.000114087L140.417 0.000113883L140.417 4.67871L145.098 4.67871ZM145.098 18.7146L145.098 14.036L140.417 14.036L140.417 18.7146L145.098 18.7146ZM145.098 28.0718L145.098 32.7504L140.417 32.7504L140.417 28.0718L145.098 28.0718ZM145.098 46.7861L145.098 42.1075L140.417 42.1075L140.417 46.7861L145.098 46.7861ZM145.098 56.1434L145.098 60.822L140.417 60.822L140.417 56.1434L145.098 56.1434ZM145.098 74.8577L145.098 70.1791L140.417 70.1791L140.417 74.8577L145.098 74.8577ZM145.098 84.2149L145.098 88.8935L140.417 88.8935L140.417 84.2149L145.098 84.2149ZM145.098 102.929L145.098 98.2508L140.417 98.2508L140.417 102.929L145.098 102.929ZM145.098 112.287L145.098 116.965L140.417 116.965L140.417 112.287L145.098 112.287ZM145.098 131.001L145.098 126.322L140.417 126.322L140.417 131.001L145.098 131.001ZM145.098 140.358L145.098 145.037L140.417 145.037L140.417 140.358L145.098 140.358ZM145.098 159.073L145.098 154.394L140.417 154.394L140.417 159.073L145.098 159.073ZM145.098 168.43L145.098 173.108L140.417 173.108L140.417 168.43L145.098 168.43ZM131.056 173.108L131.056 168.43L126.376 168.43L126.376 173.108L131.056 173.108ZM131.056 154.394L131.056 159.073L126.376 159.073L126.376 154.394L131.056 154.394ZM131.056 145.037L131.056 140.358L126.376 140.358L126.376 145.037L131.056 145.037ZM131.056 126.322L131.056 131.001L126.376 131.001L126.376 126.322L131.056 126.322ZM131.056 116.965L131.056 112.287L126.376 112.287L126.376 116.965L131.056 116.965ZM131.056 98.2508L131.056 102.929L126.376 102.929L126.376 98.2508L131.056 98.2508ZM131.056 88.8935L131.056 84.2149L126.376 84.2149L126.376 88.8935L131.056 88.8935ZM131.056 70.1792L131.056 74.8578L126.376 74.8578L126.376 70.1792L131.056 70.1792ZM131.056 60.822L131.056 56.1434L126.376 56.1434L126.376 60.822L131.056 60.822ZM131.056 0.000114087L131.056 4.67871L126.376 4.67871L126.376 0.000113883L131.056 0.000114087ZM131.056 14.036L131.056 18.7146L126.376 18.7146L126.376 14.036L131.056 14.036ZM131.056 32.7504L131.056 28.0718L126.376 28.0718L126.376 32.7504L131.056 32.7504ZM131.056 42.1075L131.056 46.7861L126.376 46.7861L126.376 42.1075L131.056 42.1075ZM117.015 168.43L117.015 173.108L112.334 173.108L112.334 168.43L117.015 168.43ZM117.015 159.073L117.015 154.394L112.334 154.394L112.334 159.073L117.015 159.073ZM117.015 140.358L117.015 145.037L112.334 145.037L112.334 140.358L117.015 140.358ZM117.015 131.001L117.015 126.322L112.334 126.322L112.334 131.001L117.015 131.001ZM117.015 112.287L117.015 116.965L112.334 116.965L112.334 112.287L117.015 112.287ZM117.015 102.929L117.015 98.2508L112.334 98.2508L112.334 102.929L117.015 102.929ZM117.015 84.2149L117.015 88.8935L112.334 88.8935L112.334 84.2149L117.015 84.2149ZM117.015 74.8578L117.015 70.1792L112.334 70.1792L112.334 74.8578L117.015 74.8578ZM117.015 56.1434L117.015 60.822L112.334 60.822L112.334 56.1434L117.015 56.1434ZM117.015 4.67871L117.015 0.000114087L112.334 0.000113883L112.334 4.67871L117.015 4.67871ZM117.015 18.7146L117.015 14.036L112.334 14.036L112.334 18.7146L117.015 18.7146ZM117.015 28.0718L117.015 32.7504L112.334 32.7504L112.334 28.0718L117.015 28.0718ZM117.015 46.7861L117.015 42.1075L112.334 42.1075L112.334 46.7861L117.015 46.7861ZM102.973 173.108L102.973 168.43L98.2922 168.43L98.2922 173.108L102.973 173.108ZM102.973 154.394L102.973 159.073L98.2922 159.073L98.2922 154.394L102.973 154.394ZM102.973 145.037L102.973 140.358L98.2922 140.358L98.2922 145.037L102.973 145.037ZM102.973 126.322L102.973 131.001L98.2922 131.001L98.2922 126.322L102.973 126.322ZM102.973 116.965L102.973 112.287L98.2922 112.287L98.2922 116.965L102.973 116.965ZM102.973 98.2508L102.973 102.929L98.2922 102.929L98.2922 98.2508L102.973 98.2508ZM102.973 88.8935L102.973 84.2149L98.2922 84.2149L98.2922 88.8935L102.973 88.8935ZM102.973 70.1792L102.973 74.8578L98.2922 74.8578L98.2922 70.1792L102.973 70.1792ZM102.973 60.822L102.973 56.1434L98.2922 56.1434L98.2922 60.822L102.973 60.822ZM102.973 0.000114087L102.973 4.67871L98.2922 4.67871L98.2922 0.000113883L102.973 0.000114087ZM102.973 14.036L102.973 18.7146L98.2922 18.7146L98.2922 14.036L102.973 14.036ZM102.973 32.7504L102.973 28.0718L98.2922 28.0718L98.2922 32.7504L102.973 32.7504ZM102.973 42.1075L102.973 46.7861L98.2922 46.7861L98.2922 42.1075L102.973 42.1075ZM88.9311 112.287L88.9311 116.965L84.2505 116.965L84.2505 112.287L88.9311 112.287ZM88.9311 102.929L88.9311 98.2508L84.2505 98.2508L84.2505 102.929L88.9311 102.929ZM88.9311 84.2149L88.9311 88.8935L84.2505 88.8935L84.2505 84.2149L88.9311 84.2149ZM88.9311 74.8578L88.9311 70.1791L84.2505 70.1791L84.2505 74.8578L88.9311 74.8578ZM88.9311 56.1434L88.9311 60.822L84.2505 60.822L84.2505 56.1434L88.9311 56.1434ZM88.9311 4.67871L88.9311 0.000114087L84.2505 0.000113883L84.2505 4.67871L88.9311 4.67871ZM88.9311 18.7146L88.9311 14.036L84.2505 14.036L84.2505 18.7146L88.9311 18.7146ZM88.9311 28.0718L88.9311 32.7504L84.2505 32.7504L84.2505 28.0718L88.9311 28.0718ZM88.9311 46.7861L88.9311 42.1075L84.2505 42.1075L84.2505 46.7861L88.9311 46.7861ZM88.931 131.001L88.931 126.322L84.2505 126.322L84.2505 131.001L88.931 131.001ZM88.931 140.358L88.931 145.037L84.2505 145.037L84.2505 140.358L88.931 140.358ZM88.931 159.073L88.931 154.394L84.2505 154.394L84.2505 159.073L88.931 159.073ZM88.931 168.43L88.931 173.108L84.2505 173.108L84.2505 168.43L88.931 168.43ZM74.8893 0.000114087L74.8893 4.67871L70.2087 4.67871L70.2087 0.000113883L74.8893 0.000114087ZM74.8893 14.036L74.8893 18.7146L70.2087 18.7146L70.2087 14.036L74.8893 14.036ZM74.8893 32.7504L74.8893 28.0718L70.2087 28.0718L70.2087 32.7504L74.8893 32.7504ZM74.8893 42.1075L74.8893 46.7861L70.2087 46.7861L70.2087 42.1075L74.8893 42.1075ZM74.8893 60.822L74.8893 56.1434L70.2087 56.1434L70.2087 60.822L74.8893 60.822ZM74.8893 70.1791L74.8893 74.8578L70.2087 74.8578L70.2087 70.1791L74.8893 70.1791ZM74.8893 88.8935L74.8893 84.2149L70.2087 84.2149L70.2087 88.8935L74.8893 88.8935ZM74.8893 98.2508L74.8893 102.929L70.2087 102.929L70.2087 98.2508L74.8893 98.2508ZM74.8893 116.965L74.8893 112.287L70.2087 112.287L70.2087 116.965L74.8893 116.965ZM74.8893 126.322L74.8893 131.001L70.2087 131.001L70.2087 126.322L74.8893 126.322ZM74.8893 145.037L74.8893 140.358L70.2087 140.358L70.2087 145.037L74.8893 145.037ZM74.8893 154.394L74.8893 159.073L70.2087 159.073L70.2087 154.394L74.8893 154.394ZM74.8893 173.108L74.8893 168.43L70.2087 168.43L70.2087 173.108L74.8893 173.108ZM60.8476 74.8578L60.8476 70.1792L56.167 70.1792L56.167 74.8578L60.8476 74.8578ZM60.8476 56.1434L60.8476 60.822L56.167 60.822L56.167 56.1434L60.8476 56.1434ZM60.8476 46.7861L60.8476 42.1075L56.167 42.1075L56.167 46.7861L60.8476 46.7861ZM60.8476 28.0718L60.8476 32.7504L56.167 32.7504L56.167 28.0718L60.8476 28.0718ZM60.8476 18.7146L60.8476 14.036L56.167 14.036L56.167 18.7146L60.8476 18.7146ZM60.8475 4.67871L60.8475 0.000114087L56.1669 0.000113883L56.1669 4.67871L60.8475 4.67871ZM60.8476 84.2149L60.8476 88.8935L56.167 88.8935L56.167 84.2149L60.8476 84.2149ZM60.8476 102.929L60.8476 98.2508L56.167 98.2508L56.167 102.929L60.8476 102.929ZM60.8476 112.287L60.8476 116.965L56.167 116.965L56.167 112.287L60.8476 112.287ZM60.8476 131.001L60.8476 126.322L56.167 126.322L56.167 131.001L60.8476 131.001ZM60.8476 140.358L60.8476 145.037L56.167 145.037L56.167 140.358L60.8476 140.358ZM60.8476 159.073L60.8476 154.394L56.167 154.394L56.167 159.073L60.8476 159.073ZM60.8476 168.43L60.8476 173.108L56.167 173.108L56.167 168.43L60.8476 168.43ZM46.8058 4.67871L46.8058 0.000114087L42.1253 0.000113883L42.1253 4.67871L46.8058 4.67871ZM46.8058 18.7146L46.8058 14.036L42.1252 14.036L42.1252 18.7146L46.8058 18.7146ZM46.8058 28.0718L46.8058 32.7504L42.1252 32.7504L42.1252 28.0718L46.8058 28.0718ZM32.6806 32.7504L32.6806 28.0718L28 28.0718L28 32.7504L32.6806 32.7504ZM46.8058 42.1075L46.8058 46.7861L42.1252 46.7861L42.1252 42.1075L46.8058 42.1075ZM46.8058 60.822L46.8058 56.1434L42.1252 56.1434L42.1252 60.822L46.8058 60.822ZM46.8058 70.1791L46.8058 74.8578L42.1252 74.8577L42.1252 70.1791L46.8058 70.1791ZM46.8058 88.8935L46.8058 84.2149L42.1252 84.2149L42.1252 88.8935L46.8058 88.8935ZM46.8058 98.2508L46.8058 102.929L42.1252 102.929L42.1252 98.2508L46.8058 98.2508ZM46.8058 116.965L46.8058 112.287L42.1252 112.287L42.1252 116.965L46.8058 116.965ZM46.8058 126.322L46.8058 131.001L42.1252 131.001L42.1252 126.322L46.8058 126.322ZM46.8058 145.037L46.8058 140.358L42.1252 140.358L42.1252 145.037L46.8058 145.037ZM46.8058 154.394L46.8058 159.073L42.1252 159.073L42.1252 154.394L46.8058 154.394ZM46.8058 173.108L46.8058 168.43L42.1252 168.43L42.1252 173.108L46.8058 173.108ZM32.7641 168.43L32.7641 173.108L28.0836 173.108L28.0836 168.43L32.7641 168.43ZM32.7641 159.073L32.7641 154.394L28.0836 154.394L28.0836 159.073L32.7641 159.073ZM32.7641 140.358L32.7641 145.037L28.0836 145.037L28.0836 140.358L32.7641 140.358ZM32.7641 131.001L32.7641 126.322L28.0836 126.322L28.0836 131.001L32.7641 131.001ZM32.7641 112.287L32.7641 116.965L28.0836 116.965L28.0836 112.287L32.7641 112.287ZM32.7641 102.929L32.7641 98.2508L28.0836 98.2508L28.0836 102.929L32.7641 102.929ZM32.7641 84.2149L32.7641 88.8935L28.0836 88.8935L28.0836 84.2149L32.7641 84.2149ZM32.7641 74.8577L32.7641 70.1791L28.0836 70.1791L28.0836 74.8577L32.7641 74.8577ZM32.7641 56.1434L32.7641 60.822L28.0836 60.822L28.0836 56.1434L32.7641 56.1434ZM32.7641 9.88287e-05L32.7641 4.6787L28.0836 4.6787L28.0836 9.8624e-05L32.7641 9.88287e-05ZM32.7641 14.036L32.7641 18.7146L28.0836 18.7146L28.0836 14.036L32.7641 14.036ZM32.7641 46.7861L32.7641 42.1075L28.0836 42.1075L28.0836 46.7861L32.7641 46.7861ZM18.7224 9.88287e-05L18.7224 4.6787L14.0418 4.6787L14.0418 9.8624e-05L18.7224 9.88287e-05ZM18.7224 14.036L18.7224 18.7146L14.0418 18.7146L14.0418 14.036L18.7224 14.036ZM18.7223 32.7503L18.7223 28.0717L14.0418 28.0717L14.0418 32.7503L18.7223 32.7503ZM18.7223 42.1075L18.7223 46.7861L14.0418 46.7861L14.0418 42.1075L18.7223 42.1075ZM18.7223 60.822L18.7223 56.1434L14.0418 56.1434L14.0418 60.822L18.7223 60.822ZM18.7223 70.1791L18.7223 74.8577L14.0418 74.8577L14.0418 70.1791L18.7223 70.1791ZM18.7223 88.8935L18.7223 84.2149L14.0418 84.2149L14.0418 88.8935L18.7223 88.8935ZM18.7223 98.2508L18.7223 102.929L14.0418 102.929L14.0418 98.2508L18.7223 98.2508ZM18.7223 116.965L18.7223 112.287L14.0418 112.287L14.0418 116.965L18.7223 116.965ZM18.7223 126.322L18.7223 131.001L14.0418 131.001L14.0418 126.322L18.7223 126.322ZM18.7223 145.037L18.7223 140.358L14.0418 140.358L14.0418 145.037L18.7223 145.037ZM18.7223 154.394L18.7223 159.073L14.0418 159.073L14.0418 154.394L18.7223 154.394ZM18.7223 173.108L18.7223 168.43L14.0418 168.43L14.0418 173.108L18.7223 173.108ZM4.68057 74.8577L4.68057 70.1791L-3.06622e-06 70.1791L-3.27063e-06 74.8577L4.68057 74.8577ZM4.68057 56.1434L4.68057 60.822L-1.79162e-05 60.822L-1.77118e-05 56.1434L4.68057 56.1434ZM4.68057 46.7861L4.68057 42.1075L-1.70985e-05 42.1075L-1.73029e-05 46.7861L4.68057 46.7861ZM4.68057 28.0717L4.68057 32.7503L-1.66897e-05 32.7503L-1.64853e-05 28.0717L4.68057 28.0717ZM4.68057 18.7146L4.68057 14.036L-1.5872e-05 14.036L-1.60764e-05 18.7146L4.68057 18.7146ZM4.68056 4.6787L4.68056 9.88287e-05L-3.05176e-05 9.8624e-05L-3.0722e-05 4.6787L4.68056 4.6787ZM4.68055 84.2149L4.68055 88.8935L-1.91427e-05 88.8935L-1.89383e-05 84.2149L4.68055 84.2149ZM4.68055 102.929L4.68055 98.2508L-1.95515e-05 98.2508L-1.97559e-05 102.929L4.68055 102.929ZM4.68055 112.287L4.68055 116.965L-2.03692e-05 116.965L-2.01647e-05 112.287L4.68055 112.287ZM4.68055 131.001L4.68055 126.322L-2.0778e-05 126.322L-2.09824e-05 131.001L4.68055 131.001ZM4.68055 140.358L4.68055 145.037L-2.15956e-05 145.037L-2.13912e-05 140.358L4.68055 140.358ZM4.68055 159.073L4.68055 154.394L-2.20045e-05 154.394L-2.22089e-05 159.073L4.68055 159.073ZM4.68055 168.43L4.68055 173.108L-2.28221e-05 173.108L-2.26177e-05 168.43L4.68055 168.43Z" fill="white"/>
</svg>
