<svg width="459" height="300" viewBox="0 0 459 300" fill="none" xmlns="http://www.w3.org/2000/svg">
<path d="M459 0H159V300H459V0Z" fill="#F4ECE9"/>
<path d="M125.989 204.061C126.148 203.794 126.248 203.496 126.282 203.187C126.316 202.878 126.285 202.566 126.189 202.27C126.093 201.975 125.935 201.703 125.726 201.474C125.517 201.244 125.262 201.062 124.977 200.94L105.743 192.714C105.743 192.714 114.621 203.132 115.662 203.132C116.703 203.132 123.137 204.061 124.011 204.061H125.989Z" fill="#D6B391"/>
<path d="M120.814 223.783C120.798 224.047 120.721 224.303 120.59 224.533C120.459 224.762 120.278 224.959 120.06 225.107C119.841 225.255 119.592 225.351 119.332 225.387C119.071 225.424 118.805 225.4 118.555 225.318L115.68 224.377C115.68 224.377 114.133 219.053 114.823 219.763C115.513 220.472 120.814 223.783 120.814 223.783Z" fill="#D6B391"/>
<path d="M109.613 219.67L118.135 222.809L120.814 223.795L126.852 226.022L128.646 226.685L131.728 206.639L131.164 206.385L125.989 204.061L122.902 202.676L114.449 198.881L109.613 219.67Z" fill="#D6B391"/>
<path d="M120.814 223.282C122.212 224.373 124.264 225.082 126.852 225.509C124.799 212.512 131.728 206.127 131.728 206.127C129.898 205.084 127.972 204.22 125.978 203.548C120.28 209.294 120.814 223.282 120.814 223.282Z" fill="#4E4E4E"/>
<path d="M151.68 232.681C151.674 232.696 151.674 232.712 151.68 232.727C151.91 233.212 155.935 241.691 158.54 243.503C160.61 244.933 162.496 239.603 157.718 232.993C153.118 226.624 151.772 232.26 151.68 232.681Z" fill="white"/>
<path d="M154.003 214.11C154.022 214.105 154.042 214.105 154.061 214.11C158.592 215.038 161.294 212.073 159.678 210.689C158.063 209.304 154.072 210.331 147.816 208.001C141.56 205.67 136.46 203.386 128.996 208.087C121.533 212.789 124.609 226.051 130.572 231.161C135.04 234.986 137.311 236.515 139.335 236.197C140.013 236.088 138.007 229.483 137.403 228.958C137.396 228.952 137.39 228.944 137.386 228.936C137.382 228.927 137.38 228.918 137.38 228.909C137.38 228.899 137.382 228.89 137.386 228.882C137.39 228.873 137.396 228.866 137.403 228.86L154.003 214.11Z" fill="white"/>
<path d="M104.979 256.081L104.967 256.249L104.927 258.539L104.783 265.542L104.07 299.501H70.013L65.528 265.536L64.6023 258.539L63.7858 252.338L66.9138 252.62L72.4683 253.128L95.336 255.205L99.453 255.585L104.979 256.081Z" fill="#A38671"/>
<path d="M104.979 256.081L104.967 256.249L104.927 258.539L104.783 265.542L104.07 299.501H70.013L65.528 265.536L64.6023 258.539L63.7858 252.338L66.9138 252.62L72.4683 253.128L95.336 255.205L99.453 255.585L104.979 256.081Z" fill="url(#paint0_linear)"/>
<path d="M102.259 75.4224C102.259 75.4224 105.531 85.0385 99.4472 91.1474C93.3637 97.2563 94.1745 74.2283 94.1745 74.2283L102.259 75.4224Z" fill="#28282A"/>
<path d="M102.259 75.4224C102.259 75.4224 105.531 85.0385 99.4472 91.1474C93.3637 97.2563 94.1745 74.2283 94.1745 74.2283L102.259 75.4224Z" fill="#28282A"/>
<path d="M57.386 112.751C57.386 112.751 64.4987 110.236 71.1457 111.833C77.7927 113.431 62.5207 120.486 62.5207 120.486L57.386 112.751Z" fill="#FFD746"/>
<path d="M57.386 112.751C57.386 112.751 64.4987 110.236 71.1457 111.833C77.7927 113.431 62.5207 120.486 62.5207 120.486L57.386 112.751Z" fill="#A38671"/>
<path d="M93.5535 130.552C106.203 134.354 116.939 137.059 118.94 150.673C120.314 160.029 108.831 184.5 108.831 184.5L93.5535 130.552Z" fill="white"/>
<path d="M93.5535 130.552C106.203 134.354 116.939 137.059 118.94 150.673C120.314 160.029 108.831 184.5 108.831 184.5L93.5535 130.552Z" fill="#D6B391"/>
<path d="M133.478 214.183L130.86 226.475C130.568 227.849 131.441 229.201 132.81 229.494L162.039 235.759C163.409 236.053 164.756 235.177 165.049 233.803L167.667 221.511C167.959 220.137 167.086 218.785 165.717 218.491L136.488 212.226C135.118 211.933 133.771 212.809 133.478 214.183Z" fill="#231F20"/>
<path d="M133.99 211.785L131.25 224.653C130.951 226.055 131.842 227.434 133.239 227.734L162.367 233.977C163.765 234.277 165.14 233.383 165.438 231.981L168.178 219.113C168.477 217.711 167.586 216.332 166.189 216.032L137.061 209.789C135.664 209.489 134.289 210.383 133.99 211.785Z" fill="#4E4E4E"/>
<path d="M136.131 212.887L133.652 224.525C133.499 225.244 133.956 225.953 134.674 226.106L161.721 231.904C162.438 232.057 163.144 231.599 163.297 230.879L165.776 219.241C165.929 218.521 165.472 217.813 164.754 217.659L137.707 211.862C136.99 211.708 136.284 212.167 136.131 212.887Z" fill="#FFD746"/>
<path d="M139.169 213.721L136.766 225.009L160.259 230.045L162.663 218.757L139.169 213.721Z" fill="white"/>
<path d="M141.593 216.246L140.006 223.698L142.744 224.285L144.331 216.833L141.593 216.246Z" fill="#28282A"/>
<path d="M147.853 217.366L146.169 225.269L157.978 227.8L159.661 219.897L147.853 217.366Z" fill="#CFCCCC"/>
<path d="M163.786 222.667L162.965 226.52C162.792 227.333 163.309 228.133 164.119 228.307L164.125 228.308C164.936 228.481 165.733 227.963 165.906 227.15L166.727 223.297C166.9 222.484 166.383 221.684 165.573 221.51L165.567 221.509C164.757 221.335 163.959 221.853 163.786 222.667Z" fill="#4E4E4E"/>
<path d="M88.5854 126.872C91.5179 129.82 95.4049 131.129 99.2977 134.717C95.6752 142.078 82.8239 146.041 76.0274 144.852C69.7714 143.756 66.0167 136.2 62.2274 131.752C60.1077 129.2 57.5316 127.068 54.6317 125.464C54.1659 125.211 53.6887 124.968 53.2114 124.72C54.7428 123.823 56.142 122.717 57.3687 121.432C63.4637 114.977 64.0962 104.992 64.0962 94.4932L72.0427 100.198L88.5682 112.076C88.5682 112.076 86.3832 118.306 86.9582 123.036C87.0589 124.461 87.6316 125.811 88.5854 126.872Z" fill="white"/>
<path d="M59.6285 128.129C61.1005 130.177 59.9332 128.233 62.3597 129.831C68.3052 133.737 75.8837 137.509 81.6164 136.903C90.6784 135.934 88.5854 126.872 88.5854 126.872C90.5577 128.851 92.9554 130.091 95.4854 131.781C97.5497 137.907 97.2679 145.049 98.1937 151.394C100.011 163.894 103.696 176.014 104.76 188.641C105.824 201.269 105.571 213.896 105.703 226.483C105.812 236.353 105.479 246.206 104.961 256.053C102.357 256.116 99.6714 256.376 97.4002 257.725C97.0128 257.961 96.642 258.223 96.2904 258.51H67.6037C66.6894 250.163 65.5049 241.868 64.3779 233.532C63.1244 224.239 61.8192 214.958 60.583 205.67C59.295 195.962 58.996 186.109 58.812 176.326C58.6395 167.442 58.7487 158.547 58.4037 149.669C58.1334 142.568 57.3285 135.017 59.6285 128.129Z" fill="white"/>
<path d="M59.6285 128.129C61.1005 130.177 59.9332 128.233 62.3597 129.831C68.3052 133.737 75.8837 137.509 81.6164 136.903C90.6784 135.934 88.5854 126.872 88.5854 126.872C90.5577 128.851 92.9554 130.091 95.4854 131.781C97.5497 137.907 97.2679 145.049 98.1937 151.394C100.011 163.894 103.696 176.014 104.76 188.641C105.824 201.269 105.571 213.896 105.703 226.483C105.812 236.353 105.479 246.206 104.961 256.053C102.357 256.116 99.6714 256.376 97.4002 257.725C97.0128 257.961 96.642 258.223 96.2904 258.51H67.6037C66.6894 250.163 65.5049 241.868 64.3779 233.532C63.1244 224.239 61.8192 214.958 60.583 205.67C59.295 195.962 58.996 186.109 58.812 176.326C58.6395 167.442 58.7487 158.547 58.4037 149.669C58.1334 142.568 57.3285 135.017 59.6285 128.129Z" fill="#FFD746"/>
<path d="M59.6285 128.129C61.1005 130.177 59.9332 128.233 62.3597 129.831C68.3052 133.737 75.8837 137.509 81.6164 136.903C90.6784 135.934 88.5854 126.872 88.5854 126.872C90.5577 128.851 92.9554 130.091 95.4854 131.781C97.5497 137.907 97.2679 145.049 98.1937 151.394C100.011 163.894 103.696 176.014 104.76 188.641C105.824 201.269 105.571 213.896 105.703 226.483C105.812 236.353 105.479 246.206 104.961 256.053C102.357 256.116 99.6714 256.376 97.4002 257.725C97.0128 257.961 96.642 258.223 96.2904 258.51H67.6037C66.6894 250.163 65.5049 241.868 64.3779 233.532C63.1244 224.239 61.8192 214.958 60.583 205.67C59.295 195.962 58.996 186.109 58.812 176.326C58.6395 167.442 58.7487 158.547 58.4037 149.669C58.1334 142.568 57.3285 135.017 59.6285 128.129Z" fill="url(#paint1_radial)"/>
<path d="M103.846 245.808L99.453 255.585L98.7687 257.097L98.487 257.725L98.119 258.539L96.7735 261.538L94.945 263.084L77.649 277.708L71.232 299.501H37.6462L42.896 269.787L43.0512 265.536L43.2927 258.539L43.747 245.542L43.8332 243.154L45.4892 243.229L65.8155 244.123L70.7375 244.342L72.9397 244.44L96.3652 245.479L101.454 245.704L103.846 245.808Z" fill="#D6B391"/>
<path d="M103.846 245.808L99.453 255.585L98.7687 257.097L98.487 257.725L98.119 258.539L96.7735 261.538L94.945 263.084L77.649 277.708L71.232 299.501H37.6462L42.896 269.787L43.0512 265.536L43.2927 258.539L43.747 245.542L43.8332 243.154L45.4892 243.229L65.8155 244.123L70.7375 244.342L72.9397 244.44L96.3652 245.479L101.454 245.704L103.846 245.808Z" fill="url(#paint2_radial)"/>
<path d="M94.9507 258.539V265.542H107.963V255.562L94.9507 258.539Z" fill="white"/>
<path d="M94.9507 258.539V265.542H107.963V255.562L94.9507 258.539Z" fill="url(#paint3_linear)"/>
<path d="M96.7908 249.061L101.46 246.621V241.585H70.7375V249.061H96.7908Z" fill="#28282A"/>
<path d="M33.4487 188.249C40.9237 208.745 38.6237 238.793 37.1632 251.957C37.0692 252.785 37.1508 253.624 37.4027 254.419C37.6547 255.213 38.0713 255.945 38.6251 256.567C39.179 257.188 39.8576 257.685 40.6164 258.025C41.3753 258.365 42.1972 258.54 43.0282 258.539H72.1405C76.1195 195.281 73.7447 156.499 66.9655 136.465C66.5802 135.34 66.1892 134.273 65.781 133.269C65.4992 132.589 65.206 131.943 64.9357 131.314C62.7507 126.584 60.2265 123.336 57.4032 121.444C55.9497 122.974 54.2559 124.254 52.3892 125.234C29.9872 137.192 16.5035 141.611 33.4487 188.249Z" fill="url(#paint4_radial)"/>
<path d="M40.2107 257.818V265.53H72.1404V258.539H43.0282C42.0434 258.541 41.0742 258.293 40.2107 257.818Z" fill="white"/>
<path d="M40.2107 257.818V265.53H72.1404V258.539H43.0282C42.0434 258.541 41.0742 258.293 40.2107 257.818Z" fill="url(#paint5_linear)"/>
<path d="M88.5854 126.872C89.8271 128.051 91.2101 129.07 92.7024 129.906C114.731 136.713 116.007 170.897 116.019 201.823C116.019 201.246 116.019 200.023 115.944 198.667C116.151 206.622 116.099 214.963 115.771 223.408C115.664 226.42 115.515 229.438 115.323 232.465C114.909 239.283 114.317 246.102 113.546 252.793C113.357 254.376 112.596 255.834 111.407 256.891C110.218 257.948 108.683 258.53 107.095 258.527H94.9507C102.328 196.896 98.9527 143.37 88.5854 126.872Z" fill="#4E4E4E"/>
<path d="M33.4487 188.249C40.9237 208.745 38.6237 238.793 37.1632 251.957C37.0692 252.785 37.1508 253.624 37.4027 254.419C37.6547 255.213 38.0713 255.945 38.6251 256.567C39.179 257.188 39.8576 257.685 40.6164 258.025C41.3753 258.365 42.1972 258.54 43.0282 258.539H72.1405C76.1195 195.281 73.7447 156.499 66.9655 136.465C66.5802 135.34 66.1892 134.273 65.781 133.269C65.4992 132.589 65.206 131.943 64.9357 131.314C62.7507 126.584 60.2265 123.336 57.4032 121.444C55.9497 122.974 54.2559 124.254 52.3892 125.234C29.9872 137.192 16.5035 141.611 33.4487 188.249Z" fill="#4E4E4E"/>
<path d="M88.5854 126.872C89.8271 128.051 91.2101 129.07 92.7024 129.906C114.731 136.713 116.007 170.897 116.019 201.823C116.019 201.246 116.019 200.023 115.944 198.667C116.151 206.622 116.099 214.963 115.771 223.408C115.664 226.42 115.515 229.438 115.323 232.465C114.909 239.283 114.317 246.102 113.546 252.793C113.357 254.376 112.596 255.834 111.407 256.891C110.218 257.948 108.683 258.53 107.095 258.527H94.9507C102.328 196.896 98.9527 143.37 88.5854 126.872Z" fill="#4E4E4E"/>
<path d="M33.4487 188.249C40.9237 208.745 38.6237 238.793 37.1632 251.957C37.0692 252.785 37.1508 253.624 37.4027 254.419C37.6547 255.213 38.0713 255.945 38.6251 256.567C39.179 257.188 39.8576 257.685 40.6164 258.025C41.3753 258.365 42.1972 258.54 43.0282 258.539H72.1405C76.1195 195.281 73.7447 156.499 66.9655 136.465C66.5802 135.34 66.1892 134.273 65.781 133.269C65.4992 132.589 65.206 131.943 64.9357 131.314C62.7507 126.584 60.2265 123.336 57.4032 121.444C55.9497 122.974 54.2559 124.254 52.3892 125.234C29.9872 137.192 16.5035 141.611 33.4487 188.249Z" fill="url(#paint6_radial)"/>
<path d="M33.4487 188.249C40.9237 208.745 38.6237 238.793 37.1632 251.957C37.0692 252.785 37.1508 253.624 37.4027 254.419C37.6547 255.213 38.0713 255.945 38.6251 256.567C39.179 257.188 39.8576 257.685 40.6164 258.025C41.3753 258.365 42.1972 258.54 43.0282 258.539H72.1405C76.1195 195.281 73.7447 156.499 66.9655 136.465C66.5802 135.34 66.1892 134.273 65.781 133.269C65.4992 132.589 65.206 131.943 64.9357 131.314C62.7507 126.584 60.2265 123.336 57.4032 121.444C55.9497 122.974 54.2559 124.254 52.3892 125.234C29.9872 137.192 16.5035 141.611 33.4487 188.249Z" fill="url(#paint7_radial)"/>
<path d="M88.5854 126.872C89.8271 128.051 91.2101 129.07 92.7024 129.906C114.731 136.713 116.007 170.897 116.019 201.823C116.019 201.246 116.019 200.023 115.944 198.667C116.151 206.622 116.099 214.963 115.771 223.408C115.664 226.42 115.515 229.438 115.323 232.465C114.909 239.283 114.317 246.102 113.546 252.793C113.357 254.376 112.596 255.834 111.407 256.891C110.218 257.948 108.683 258.53 107.095 258.527H94.9507C102.328 196.896 98.9527 143.37 88.5854 126.872Z" fill="url(#paint8_radial)"/>
<path d="M49.359 136.777C41.309 129.422 33.0347 132.231 17.3775 157.163C1.72024 182.094 -3.06951 190.862 1.85249 199.954C6.77449 209.045 18.4585 201.419 28.1127 187.471C37.767 173.522 61.756 148.066 49.359 136.777Z" fill="white"/>
<path d="M1.87549 199.954C22.8975 227.942 40.0095 244.775 43.9022 240.876C47.795 236.976 57.34 230.919 52.372 225.935C47.404 220.951 30.6082 204.113 21.2472 185.048C11.8862 165.983 1.87549 199.954 1.87549 199.954Z" fill="white"/>
<path d="M17.3775 157.163C33.0348 132.231 41.286 129.422 49.359 136.777C61.756 148.066 37.79 173.522 28.1358 187.471C27.0835 188.993 26.0025 190.441 24.91 191.797C34.4723 207.983 48.002 221.545 52.372 225.935C57.34 230.919 47.772 236.97 43.9023 240.876C40.1188 244.671 23.8175 228.837 3.57751 202.226C2.88492 201.575 2.30234 200.815 1.85251 199.977C-3.04649 190.862 1.71451 182.094 17.3775 157.163Z" fill="#D6B391"/>
<path d="M17.3775 157.163C33.0348 132.231 41.286 129.422 49.359 136.777C61.756 148.066 37.79 173.522 28.1358 187.471C27.0835 188.993 26.0025 190.441 24.91 191.797C34.4723 207.983 48.002 221.545 52.372 225.935C57.34 230.919 47.772 236.97 43.9023 240.876C40.1188 244.671 23.8175 228.837 3.57751 202.226C2.88492 201.575 2.30234 200.815 1.85251 199.977C-3.04649 190.862 1.71451 182.094 17.3775 157.163Z" fill="url(#paint9_linear)"/>
<path d="M57.386 121.444C60.583 123.584 63.4005 127.46 65.7637 133.269V129.179C65.7637 126.404 65.1839 123.66 64.0618 121.123C62.9397 118.587 61.3002 116.314 59.249 114.452L57.386 112.762V121.444Z" fill="#D6B391"/>
<path d="M88.5855 128.268C88.8233 128.727 89.0843 129.174 89.3675 129.606C89.9936 130.58 90.5694 131.585 91.0925 132.617C91.6675 133.725 92.1677 134.925 92.6737 136.217L92.7427 131.089V130.829C92.7417 128.421 92.2465 126.038 91.2879 123.83C90.3294 121.622 88.928 119.635 87.171 117.994C86.496 121.481 86.9935 125.095 88.5855 128.268Z" fill="#FFD746"/>
<path d="M88.5855 128.268C88.8233 128.727 89.0843 129.174 89.3675 129.606C89.9936 130.58 90.5694 131.585 91.0925 132.617C91.6675 133.725 92.1677 134.925 92.6737 136.217L92.7427 131.089V130.829C92.7417 128.421 92.2465 126.038 91.2879 123.83C90.3294 121.622 88.928 119.635 87.171 117.994C86.496 121.481 86.9935 125.095 88.5855 128.268Z" fill="#D6B391"/>
<path d="M55.868 219.168L37.7325 243.16L42.1888 247.625L60.721 222.981C60.2693 222.007 59.5941 221.153 58.7507 220.491C57.9072 219.828 56.9194 219.375 55.868 219.168Z" fill="white"/>
<path d="M112.362 226.835L115.323 232.477C115.511 229.454 115.66 226.435 115.771 223.42H115.541L112.362 226.835Z" fill="white"/>
<path d="M115.771 223.42C115.771 223.42 117.41 227.014 115.323 232.477L115.771 223.42Z" fill="white"/>
<path d="M42.1888 247.625C42.1888 247.625 37.7325 247.129 37.7325 243.16L41.0848 244.204L42.1888 247.625Z" fill="white"/>
<path d="M64.838 102.212L67.713 106.607C67.9717 107.005 68.242 107.397 68.5352 107.761C71.2913 111.51 75.2113 114.233 79.6787 115.502C82.2323 116.282 84.9457 116.371 87.5447 115.762C88.8903 115.405 90.1564 114.796 91.2765 113.968C102.633 105.603 99.614 75.5032 97.36 71.4595L94.1457 74.2111C94.1457 74.2111 78.385 71.0153 71.1975 73.3054C64.01 75.5955 58.6165 83.1119 58.6165 83.1119C56.6385 90.1726 57.501 96.7603 64.838 102.212Z" fill="white"/>
<path d="M62.9578 105.655C64.3953 105.655 64.8495 103.083 65.0048 100.954C65.1083 99.5349 65.068 98.3177 65.1083 98.1735C62.6818 99.2119 57.4665 92.8665 59.9333 87.3575C60.698 85.6269 61.6583 85.0039 62.6185 84.9174C62.7508 83.1869 63.1935 81.8947 64.2745 81.3986C67.2185 80.0026 71.1113 78.2894 73.0893 77.4241L74.3543 76.8472C74.3543 76.8472 78.4828 74.6667 89.3043 77.1587C100.126 79.6507 104.197 75.8377 104.197 69.2962C104.197 60.1762 90.207 57.8399 78.0228 59.4897C65.8385 61.1395 60.6233 67.2138 59.7665 74.1418C47.427 86.5268 60.5715 105.655 62.9578 105.655Z" fill="#28282A"/>
<path d="M56.696 83.2042C56.696 89.9476 57.064 99.5061 61.572 101.802C63.7628 102.915 64.3493 104.409 64.6943 103.267C65.0393 102.125 65.1083 98.1735 65.1083 98.1735C62.6818 99.2119 57.4665 92.8665 59.9333 87.3575C60.698 85.627 61.6583 85.004 62.6185 84.9174C64.7575 84.7213 66.908 87.3575 66.908 87.3575C66.908 87.3575 74.613 85.627 73.0893 77.4241C73.0375 77.1472 72.9685 76.8472 72.8995 76.5588C70.657 67.6233 56.696 76.455 56.696 83.2042Z" fill="#28282A"/>
<path d="M86.9755 123.036C86.7799 120.6 86.974 118.148 87.5505 115.773C84.9515 116.383 82.2381 116.293 79.6845 115.514C75.2171 114.244 71.2971 111.521 68.541 107.772C67.5693 124.743 85.0263 123.249 86.9755 123.036Z" fill="url(#paint10_radial)"/>
<path d="M64.9185 131.314C65.2002 131.943 65.4935 132.589 65.7637 133.269C66.172 134.273 66.563 135.34 66.9482 136.465C70.9732 138.974 76.0677 140.918 81.8982 140.284C88.3785 139.563 90.7302 136.477 91.2535 132.941C90.6785 131.85 89.977 130.524 89.3905 129.612C89.1073 129.18 88.8463 128.733 88.6085 128.274C88.6085 128.274 90.3335 136.973 80.455 136.973C74.9982 136.967 69.116 133.99 64.9185 131.314Z" fill="#28282A"/>
<path d="M140.129 232.018C140.163 232.156 141.681 237.786 144.947 237.544C148.213 237.302 146.753 233.541 145.689 231.631C144.372 229.33 139.807 227.507 140.129 232.018Z" fill="white"/>
<path d="M146.292 232.82C147.316 237.435 149.443 238.588 151.197 238.444C154.561 238.213 152.951 234.406 151.945 232.433C150.605 229.78 145.263 228.199 146.292 232.82Z" fill="white"/>
<path d="M134.672 231.626C134.712 231.764 136.109 236.921 139.111 236.713C142.112 236.506 140.772 233.027 139.789 231.268C138.593 229.145 134.378 227.472 134.672 231.626Z" fill="white"/>
<path d="M90.4887 93.2876C90.4887 93.2876 91.564 98.2024 91.564 99.633C91.564 101.064 87.9185 101.012 87.9185 101.012C86.1934 101.012 87.056 101.958 88.5337 101.958C90.0115 101.958 92.1332 101.652 92.5587 100.325C92.9842 98.9985 91.8802 94.0318 91.1097 93.2645C90.3392 92.4973 90.4887 93.2876 90.4887 93.2876Z" fill="#231F20"/>
<path d="M59.7665 74.1476C59.7665 74.1476 68.0235 68.8175 73.095 77.4242L74.36 76.8473C74.36 76.8473 78.4885 74.6668 89.31 77.1588C92.76 77.9606 95.566 78.1106 97.7452 77.7357C102.115 75.359 104.95 71.7018 103.8 66.7754C101.379 59.7782 88.9535 58.0361 78.0285 59.4955C65.8327 61.1396 60.6232 67.2196 59.7665 74.1476Z" fill="#28282A"/>
<path d="M78.6552 91.3147C80.6555 91.8896 82.7686 91.9452 84.7962 91.4763C85.4344 91.3032 85.3367 90.2072 84.6409 90.2879C82.7471 90.5897 80.8192 90.6092 78.9197 90.3456C78.2987 90.236 78.0169 91.159 78.6552 91.3147Z" fill="#231F20"/>
<path d="M92.6334 91.6205C94.123 91.9238 95.6615 91.8883 97.1357 91.5167C97.7969 91.3263 97.4979 90.4264 96.8597 90.5129C95.5038 90.7415 94.1258 90.8093 92.7542 90.7148C92.2424 90.6687 92.1217 91.534 92.6334 91.6205Z" fill="#231F20"/>
<path d="M285.397 77.3303C285.397 77.3303 322.019 88.1521 303.05 140.432C303.05 140.432 302.268 134.664 299.991 130.43H301.532C299.759 139.866 295.23 148.56 288.52 155.407C277.411 166.552 251.426 147.799 251.426 147.799C251.426 147.799 231.56 148.774 223.251 140.432C223.251 140.432 231.169 139.117 233.297 132.114C233.297 132.114 226.678 134.081 221.049 130.43C221.049 130.43 230.18 124.269 224.332 113.603C224.332 113.603 220.923 115.668 220.089 122.365C211.245 106.271 218.881 61.34 255.906 61.34C292.93 61.34 286.984 90.5576 286.984 90.5576L278.48 82.0259L285.397 77.3303Z" fill="#28282A"/>
<path d="M214.621 173.584L236.453 185.836L231.428 198.7L201.959 182.768L214.621 173.584Z" fill="white"/>
<path d="M254.405 223.021L251.812 279.552L251.513 286.169L250.972 297.977H227.334C226.517 293.079 225.971 288.349 225.643 283.798C225.479 281.517 225.365 279.287 225.304 277.106C224.344 244.278 234.297 222.553 234.596 221.907L254.405 223.021Z" fill="white"/>
<path d="M254.405 223.021L251.812 279.552L251.513 286.169L250.972 297.977H227.334C226.517 293.079 225.971 288.349 225.643 283.798C225.479 281.517 225.365 279.287 225.304 277.106C224.344 244.278 234.297 222.553 234.596 221.907L254.405 223.021Z" fill="url(#paint11_linear)"/>
<path d="M210.199 179.555C210.199 179.555 202.845 185.94 188.872 181.326L211.815 177.374L210.199 179.555Z" fill="white"/>
<path d="M288.79 275.526C288.698 277.722 288.562 279.958 288.382 282.235C287.959 287.522 287.265 292.784 286.3 298H248.304C247.965 294.17 247.729 290.172 247.545 286.117C247.447 283.925 247.373 281.704 247.321 279.489C246.625 251.609 248.799 223.021 248.799 223.021H258.045L260.161 222.922L268.63 222.547L273.443 222.334L280.343 222.023H280.665L282.632 221.936C282.632 221.936 283.488 224.59 284.564 229.308C284.759 230.139 284.96 231.039 285.139 232.014C285.167 232.158 285.202 232.308 285.236 232.464C287.092 241.546 288.246 250.759 288.686 260.02C288.75 261.283 288.801 262.564 288.83 263.868C288.968 267.6 288.957 271.499 288.79 275.526Z" fill="white"/>
<path d="M206.295 181.418C206.295 181.418 190.103 183.148 186.837 180.449C183.571 177.749 192.891 177.778 192.891 177.778L206.295 181.418Z" fill="white"/>
<path d="M199.395 157.571C197.44 155.315 197.25 153.019 198.245 151.895C199.55 150.441 198.745 153.59 205.806 159.578C209.193 162.463 211.107 162.734 213.597 167.343C215.978 171.75 214.304 175.338 212.896 177.086C211.487 178.834 206.467 180.08 207.629 178.638C208.79 177.195 210.975 175.205 212.229 175.084C213.482 174.963 211.378 181.839 204.455 182.479C196.663 183.224 188.694 176.613 186.147 168.918C183.599 161.222 199.395 157.571 199.395 157.571Z" fill="white"/>
<path d="M272.759 221.919C272.759 221.919 302.084 238.474 305.534 276.189C305.534 276.189 287.577 286.203 253.686 286.203C219.796 286.203 211.268 278.491 211.268 278.491C211.268 278.491 219.957 236.634 234.625 221.919H272.759Z" fill="#FFD746"/>
<path d="M272.759 221.919C272.759 221.919 302.084 238.474 305.534 276.189C305.534 276.189 287.577 286.203 253.686 286.203C219.796 286.203 211.268 278.491 211.268 278.491C211.268 278.491 219.957 236.634 234.625 221.919H272.759Z" fill="url(#paint12_radial)"/>
<path d="M211.251 278.485C211.251 278.485 219.778 286.198 253.663 286.198C287.548 286.198 305.511 276.189 305.511 276.189C305.321 274.061 305.039 271.995 304.689 270C300.813 271.903 283.356 279.581 253.663 279.581C227.006 279.581 216.035 274.805 212.574 272.768C211.7 276.31 211.251 278.485 211.251 278.485Z" fill="#28282A"/>
<path d="M263.041 235.913C262.564 234.281 262.282 232.602 261.891 230.946L269.315 227.405L303.659 211.033L319.104 243.626L321.364 248.402L282.16 267.086C280.778 267.745 279.214 267.91 277.726 267.554C276.238 267.199 274.915 266.344 273.978 265.131C273.678 264.75 273.423 264.336 273.219 263.896L261.495 239.161C262.098 238.896 262.587 238.422 262.871 237.826C263.155 237.23 263.215 236.551 263.041 235.913Z" fill="#28282A"/>
<path d="M269.223 130.43C272.356 139.031 280.021 140.19 286.036 143.415C292.05 146.639 298.898 158.626 290.101 187.515C281.303 216.404 276.916 210.451 276.916 210.451H230.094C230.094 210.451 221.084 189.28 223.717 168.11C226.351 146.939 242.203 138.863 242.203 138.863L269.223 130.43Z" fill="#FFD746"/>
<path d="M269.223 130.43C272.356 139.031 280.021 140.19 286.036 143.415C292.05 146.639 298.898 158.626 290.101 187.515C281.303 216.404 276.916 210.451 276.916 210.451H230.094C230.094 210.451 221.084 189.28 223.717 168.11C226.351 146.939 242.203 138.863 242.203 138.863L269.223 130.43Z" fill="url(#paint13_radial)"/>
<path d="M246.481 152.529C249.402 153.031 255.394 151.756 258.131 151.3C269.395 149.374 274.725 138.385 274.725 138.385C274.15 137.94 273.863 137.087 273.23 136.689C264.519 128.209 270.93 110.396 270.93 110.396C272.08 111.988 276.962 110.972 276.364 104.425C275.68 97.3472 271.827 99.5162 270.442 100.497C268.819 100.103 267.4 99.1167 266.463 97.73C265.527 96.3432 265.139 94.6559 265.376 92.9977C262.455 91.4979 251.3 87.0965 243.923 95.6397C242.511 97.1264 241.596 99.0179 241.306 101.051C239.409 115.339 242.905 123.773 249.638 125.751C249.695 125.772 249.752 125.79 249.811 125.803C249.811 129.599 248.373 133.129 247.194 135.373C246.76 136.223 246.272 137.043 245.734 137.831C245.734 137.831 242.646 141.869 241.237 144.02C238.661 147.983 239.236 151.266 246.481 152.529Z" fill="white"/>
<path d="M247.206 135.379C266.785 136.077 264.531 119.937 264.531 119.937C264.531 119.937 258.62 127.436 250.656 125.988C250.375 125.943 250.097 125.883 249.822 125.809C249.822 129.605 248.385 133.135 247.206 135.379Z" fill="url(#paint14_radial)"/>
<path d="M234.602 221.919H278.986V210.451H234.602V221.919Z" fill="#28282A"/>
<path d="M243.037 102.441C243.681 102.161 244.374 102.013 245.076 102.004C245.778 101.995 246.474 102.126 247.125 102.389C247.488 102.51 247.873 101.985 247.488 101.754C246.759 101.365 245.942 101.174 245.117 101.199C244.292 101.225 243.488 101.466 242.784 101.899C242.474 102.124 242.663 102.614 243.037 102.441Z" fill="#231F20"/>
<path d="M253.445 102.873C255.382 101.795 257.056 102.118 258.993 102.995C259.056 103.027 259.129 103.034 259.197 103.014C259.265 102.994 259.323 102.948 259.358 102.887C259.394 102.825 259.404 102.753 259.388 102.683C259.371 102.614 259.329 102.554 259.269 102.516C257.654 100.924 254.802 101.022 253.1 102.36C252.898 102.55 253.186 103.006 253.445 102.873Z" fill="#231F20"/>
<path d="M245.97 153.688C251.415 153.715 256.795 152.498 261.702 150.129C268.975 146.61 273.696 141.719 275.444 138.286C274.218 137.951 273.101 137.301 272.201 136.4C271.95 136.912 271.67 137.409 271.362 137.888C271.287 138.015 271.206 138.148 271.126 138.263C271.045 138.379 270.936 138.552 270.838 138.684C270.631 138.99 270.413 139.29 270.171 139.584C270.028 139.775 269.872 139.965 269.717 140.161C269.562 140.357 269.309 140.634 269.102 140.865L268.613 141.384C268.412 141.592 268.211 141.8 267.998 142.001L267.963 142.036C267.58 142.421 267.183 142.784 266.773 143.126C266.434 143.42 266.089 143.703 265.727 143.986C265.152 144.441 264.536 144.891 263.91 145.324L263.099 145.849C261.862 146.631 260.582 147.342 259.264 147.978C258.574 148.306 257.878 148.612 257.165 148.901C256.935 148.999 256.693 149.085 256.463 149.177C255.75 149.449 255.037 149.691 254.336 149.904L253.623 150.118L252.91 150.314C252.41 150.447 251.915 150.562 251.421 150.666L250.788 150.787C250.575 150.833 250.351 150.868 250.133 150.908C249.661 150.983 249.178 151.046 248.712 151.093C248.552 151.117 248.391 151.132 248.229 151.139L247.574 151.191C247.275 151.191 246.999 151.191 246.7 151.231C246.468 151.246 246.236 151.246 246.004 151.231C245.7 151.207 245.398 151.157 245.101 151.081C240.501 149.824 242.997 142.146 246.073 137.392C244.768 137.842 243.48 138.338 242.221 138.881C241.655 139.932 241.152 141.017 240.714 142.128C238.253 148.347 238.972 153.688 245.97 153.688Z" fill="#A38671"/>
<path d="M272.684 113.609C273.796 113.609 274.697 112.705 274.697 111.59C274.697 110.475 273.796 109.571 272.684 109.571C271.573 109.571 270.672 110.475 270.672 111.59C270.672 112.705 271.573 113.609 272.684 113.609Z" fill="#FFD746"/>
<path d="M247.534 110.603C247.246 111.722 248.776 112.132 249.155 112.507C249.535 112.882 248.137 113.222 246.545 111.624C245.544 110.621 249.448 103.935 249.931 104.217C250.414 104.5 248.454 107.044 247.534 110.603Z" fill="#231F20"/>
<path d="M269.338 227.405L287.019 264.739L327.436 245.472C328.522 244.955 329.359 244.026 329.763 242.891C330.167 241.755 330.106 240.505 329.592 239.415L313.854 206.188L269.338 227.405Z" fill="#4E4E4E"/>
<path d="M269.332 227.405L284.759 259.968L285.501 261.537L287.019 264.739L321.364 248.373L327.436 245.489C328.294 245.081 329.003 244.412 329.462 243.578C329.921 242.744 330.108 241.786 329.994 240.839C329.976 240.686 329.949 240.534 329.914 240.384C329.847 240.053 329.741 239.732 329.598 239.426L329.281 238.751L313.86 206.194L303.682 211.045L269.332 227.405Z" fill="url(#paint15_linear)"/>
<path d="M258.413 232.614L269.338 227.422L299.399 236.946L305.356 234.108L314.038 207.573C314.04 207.559 314.04 207.546 314.038 207.532L314.216 206.99L314.17 206.898C314.253 206.266 314.143 205.624 313.854 205.057C313.566 204.489 313.113 204.023 312.555 203.719H312.526L312.29 203.604C312.203 203.559 312.112 203.521 312.02 203.488L311.796 203.413C311.645 203.357 311.489 203.315 311.33 203.286C311.119 203.242 310.906 203.211 310.692 203.194H310.49C310.335 203.183 310.18 203.183 310.025 203.194L309.708 203.223C309.539 203.245 309.372 203.28 309.208 203.327C309.07 203.361 308.938 203.402 308.806 203.448C308.655 203.501 308.507 203.563 308.363 203.633L260.638 226.395C259.523 226.926 258.663 227.879 258.246 229.044C257.829 230.209 257.889 231.493 258.413 232.614Z" fill="#4E4E4E"/>
<path d="M258.413 232.614L269.338 227.422L299.399 236.946L305.356 234.108L314.038 207.572C314.04 207.559 314.04 207.545 314.038 207.532C314.101 207.325 314.145 207.112 314.17 206.897C314.253 206.266 314.143 205.624 313.854 205.056C313.566 204.489 313.113 204.023 312.555 203.719H312.526L312.29 203.604C312.203 203.559 312.112 203.521 312.02 203.488L311.796 203.413C311.64 203.367 311.491 203.321 311.33 203.286C311.119 203.241 310.906 203.211 310.692 203.194H310.49C310.335 203.182 310.18 203.182 310.025 203.194L309.708 203.223C309.539 203.245 309.372 203.28 309.208 203.327C309.07 203.361 308.938 203.402 308.806 203.448C308.655 203.501 308.507 203.563 308.363 203.632L260.638 226.395C259.523 226.926 258.663 227.878 258.246 229.044C257.829 230.209 257.889 231.492 258.413 232.614Z" fill="#4E4E4E"/>
<path d="M258.413 232.614L269.338 227.422L299.399 236.946L305.356 234.108L314.038 207.572C314.04 207.559 314.04 207.545 314.038 207.532C314.101 207.325 314.145 207.112 314.17 206.897C314.253 206.266 314.143 205.624 313.854 205.056C313.566 204.489 313.113 204.023 312.555 203.719H312.526L312.29 203.604C312.203 203.559 312.112 203.521 312.02 203.488L311.796 203.413C311.64 203.367 311.491 203.321 311.33 203.286C311.119 203.241 310.906 203.211 310.692 203.194H310.49C310.335 203.182 310.18 203.182 310.025 203.194L309.708 203.223C309.539 203.245 309.372 203.28 309.208 203.327C309.07 203.361 308.938 203.402 308.806 203.448C308.655 203.501 308.507 203.563 308.363 203.632L260.638 226.395C259.523 226.926 258.663 227.878 258.246 229.044C257.829 230.209 257.889 231.492 258.413 232.614Z" fill="url(#paint16_linear)"/>
<path d="M262.788 225.334L269.338 227.405L299.399 236.928L305.356 234.09L314.038 207.555C314.04 207.542 314.04 207.528 314.038 207.515C314.101 207.307 314.145 207.095 314.17 206.88C314.253 206.249 314.143 205.607 313.854 205.039C313.566 204.472 313.113 204.005 312.555 203.702H312.526L311.313 207.405L301.86 234.794L273.029 225.657L267.687 223.967L266.486 223.586L262.788 225.334Z" fill="white"/>
<path d="M262.788 225.334L269.338 227.405L299.399 236.928L305.356 234.09L314.038 207.555C314.04 207.542 314.04 207.528 314.038 207.515C314.101 207.307 314.145 207.095 314.17 206.88C314.253 206.249 314.143 205.607 313.854 205.039C313.566 204.472 313.113 204.005 312.555 203.702H312.526L311.313 207.405L301.86 234.794L273.029 225.657L267.687 223.967L266.486 223.586L262.788 225.334Z" fill="white"/>
<path d="M262.788 225.334L269.338 227.405L299.399 236.928L305.356 234.09L314.038 207.555C314.04 207.542 314.04 207.528 314.038 207.515C314.101 207.307 314.145 207.095 314.17 206.88C314.253 206.249 314.143 205.607 313.854 205.039C313.566 204.472 313.113 204.005 312.555 203.702H312.526L311.313 207.405L301.86 234.794L273.029 225.657L267.687 223.967L266.486 223.586L262.788 225.334Z" fill="url(#paint17_radial)"/>
<path d="M258.413 232.614L270.488 229.799L269.338 227.405L262.788 225.334L260.626 226.366C260.072 226.63 259.575 227.001 259.163 227.458C258.751 227.915 258.434 228.449 258.228 229.029C258.023 229.61 257.933 230.225 257.965 230.84C257.996 231.455 258.149 232.058 258.413 232.614Z" fill="#28282A"/>
<path d="M301.763 237.976L304.375 236.731C305.798 236.053 306.404 234.347 305.728 232.921C305.053 231.495 303.352 230.889 301.929 231.568L299.317 232.813C297.895 233.491 297.289 235.197 297.964 236.623C298.64 238.049 300.341 238.655 301.763 237.976Z" fill="#FFD746"/>
<path d="M245.866 137.404C243.175 142.751 239.305 151.196 247.557 151.196C255.808 151.196 268.125 144.903 273.231 134.866C278.337 124.828 275.433 138.286 275.433 138.286C270.321 145.837 260.316 154.271 246.303 154.271C232.29 154.271 244.659 134.704 244.659 134.704L245.866 137.404Z" fill="#323031"/>
<path d="M263.07 218.06C263.645 217.189 264.22 216.358 264.795 215.585C260.339 176.359 268.245 149.824 278.722 143.64C281.683 141.909 284.667 142.025 287.347 144.026L288.525 142.44C285.202 139.954 281.361 139.775 277.71 141.932C266.779 148.381 257.694 174.899 263.07 218.06Z" fill="#4E4E4E"/>
<path d="M277.871 163.178C283.201 171.133 285.38 174.34 295.017 192.863C304.654 211.385 318.017 206.424 315.792 194.847C313.94 185.202 302.912 161.932 292.476 149.524C290.839 147.513 288.999 145.678 286.984 144.049C286.777 143.882 286.57 143.726 286.369 143.576C279.607 138.702 268.234 148.785 277.871 163.178Z" fill="white"/>
<path d="M259.195 241.428C260.471 234.615 261.46 230.243 261.46 230.243H268.55C268.55 233.467 269.125 236.109 269.867 240.413C270.608 244.716 274.978 247.277 274.076 242.143C273.522 238.477 273.354 234.763 273.575 231.062C281.194 225.322 280.832 218.902 280.832 218.902C280.832 218.902 282.695 218.267 285.972 216.952C295.134 213.253 304.069 209.016 312.733 204.261C320.15 200.223 310.019 180.443 302.015 183.252C294.011 186.062 294.436 191.767 294.436 191.767L274.145 206.851L269.292 210.451L268.142 211.305C265.238 213.445 256.935 228.033 256.429 230.577C255.612 234.708 255.313 242.593 254.497 245.651C253.68 248.708 258.045 247.704 259.195 241.428Z" fill="white"/>
<path d="M264.37 227.514C265.64 227.624 269.217 227.231 270.384 227.681C270.643 227.779 269.332 232.515 269.568 232.544C269.641 236.316 269.969 240.078 270.551 243.804C271.459 248.933 267.423 247.294 266.348 243.06C264.674 236.473 265.715 230.987 265.715 227.762C265.744 227.681 264.324 227.601 264.37 227.514Z" fill="white"/>
<path d="M260.592 229.781C261.868 229.885 262.006 227.33 263.174 227.774C263.432 227.872 265.52 227.307 265.761 227.336C265.79 228.68 265.295 239.651 266.089 244.151C266.997 249.273 263.122 247.456 261.966 243.239C260.81 239.023 260.483 233.243 260.483 230.018C260.524 229.941 260.56 229.862 260.592 229.781Z" fill="white"/>
<path d="M329.92 240.366C330.146 241.373 330.023 242.427 329.573 243.355C329.122 244.283 328.371 245.029 327.441 245.472L321.369 248.356L282.166 267.04C281.071 267.57 279.852 267.79 278.642 267.677C277.431 267.564 276.274 267.123 275.295 266.4L329.92 240.366Z" fill="white"/>
<path d="M275.295 266.4C276.272 267.12 277.425 267.561 278.631 267.677C279.838 267.793 281.053 267.579 282.149 267.058L321.352 248.373L287.019 264.739L285.501 261.537L275.295 266.4Z" fill="#CFCCCC"/>
<path d="M286.984 144.049C288.999 145.678 290.839 147.513 292.476 149.524C291.941 146.882 290.814 144.061 288.508 142.44L286.984 144.049Z" fill="#4E4E4E"/>
<path d="M269.303 210.451H269.332C279.21 210.451 280.832 218.913 280.832 218.913C280.832 218.913 282.695 218.279 285.973 216.964C285.789 216.3 285.582 215.631 285.398 214.962C285.398 214.962 283.397 207.249 274.168 206.851L269.303 210.451Z" fill="#28282A"/>
<path d="M184.345 149.447L174.815 159.413C173.813 160.461 173.847 162.126 174.892 163.132L197.432 184.824C198.477 185.83 200.137 185.795 201.139 184.747L210.669 174.781C211.671 173.733 211.637 172.067 210.592 171.062L188.052 149.37C187.007 148.364 185.347 148.399 184.345 149.447Z" fill="#231F20"/>
<path d="M185.708 148.024L176.178 157.989C175.176 159.038 175.21 160.703 176.255 161.709L198.795 183.401C199.84 184.406 201.5 184.372 202.502 183.323L212.032 173.358C213.034 172.309 213 170.644 211.955 169.638L189.415 147.946C188.37 146.941 186.71 146.975 185.708 148.024Z" fill="#4E4E4E"/>
<path d="M187.013 150.175L178.379 159.204C177.878 159.729 177.895 160.561 178.418 161.064L199.352 181.211C199.874 181.713 200.704 181.696 201.205 181.172L209.839 172.143C210.34 171.619 210.323 170.786 209.801 170.283L188.867 150.137C188.344 149.634 187.514 149.651 187.013 150.175Z" fill="#FFD746"/>
<path d="M189.724 153.153L181.437 161.82L199.541 179.243L207.828 170.576L189.724 153.153Z" fill="white"/>
<path d="M190.535 156.412L184.724 162.49L192.989 170.445L198.801 164.367L190.535 156.412Z" fill="#CFCCCC"/>
<path d="M201.6 167.443L196.342 172.942L198.748 175.259L204.007 169.76L201.6 167.443Z" fill="#28282A"/>
<path d="M182.977 151.71L180.059 154.762C179.487 155.359 179.507 156.309 180.103 156.882L180.207 156.982C180.802 157.556 181.749 157.536 182.32 156.938L185.238 153.887C185.81 153.289 185.79 152.34 185.194 151.766L185.09 151.666C184.495 151.093 183.548 151.113 182.977 151.71Z" fill="#4E4E4E"/>
<path d="M189.7 175.69C188.232 176.004 186.905 176.789 185.922 177.928C185.106 179.082 186.497 182.179 190.103 179.912C193.892 177.53 191.258 175.378 189.7 175.69Z" fill="white"/>
<path d="M187.435 172.159C186.198 172.419 185.083 172.453 183.502 174.38C182.559 175.534 184.445 179.168 188.245 176.307C191.345 173.994 188.677 171.905 187.435 172.159Z" fill="white"/>
<path d="M184.755 168.917C183.829 168.985 182.928 169.25 182.112 169.695C181.296 170.139 180.584 170.753 180.023 171.496C179.08 172.65 180.598 175.747 184.767 173.428C189.125 170.988 186.29 168.773 184.755 168.917Z" fill="white"/>
<path d="M181.782 165.981C179.856 166.391 178.568 166.904 177.309 168.433C176.366 169.587 177.884 172.684 182.053 170.36C186.411 167.925 183.818 165.549 181.782 165.981Z" fill="white"/>
<path d="M383.763 49.9728C389.895 49.9728 394.866 44.9857 394.866 38.8337C394.866 32.6818 389.895 27.6947 383.763 27.6947C377.631 27.6947 372.66 32.6818 372.66 38.8337C372.66 44.9857 377.631 49.9728 383.763 49.9728Z" fill="white"/>
<path d="M415.641 43.6448H352L362.942 34.7727L365.76 32.4942L379.698 21.1936H387.943L401.881 32.4942L404.699 34.7727L415.641 43.6448Z" fill="#D6B391"/>
<path d="M415.641 43.6447H352L362.942 34.7727H404.699L415.641 43.6447Z" fill="#28282A"/>
<path d="M387.817 19.515H379.698V21.1879H387.817V19.515Z" fill="#28282A"/>
<path d="M383.757 0V20.3572" stroke="#28282A" stroke-width="3.44" stroke-miterlimit="10"/>
<path d="M415.635 44H352V118.022H415.635V44Z" fill="url(#paint18_linear)"/>
<path d="M351.189 162.932C345.802 170.173 342.528 178.774 341.735 187.775C340.942 196.775 342.66 205.819 346.697 213.896C350.733 221.973 356.93 228.764 364.594 233.51C372.258 238.255 381.087 240.769 390.094 240.769C399.1 240.769 407.929 238.255 415.593 233.51C423.257 228.764 429.454 221.973 433.491 213.896C437.528 205.819 439.245 196.775 438.452 187.775C437.659 178.774 434.385 170.173 428.998 162.932H351.189Z" fill="white"/>
<path d="M430.269 193.759C430.273 199.324 429.129 204.829 426.909 209.928C424.688 215.027 421.439 219.61 417.367 223.388C413.294 227.166 408.486 230.057 403.245 231.879C398.005 233.701 392.444 234.415 386.915 233.975C381.386 233.536 376.007 231.953 371.117 229.326C366.228 226.699 361.933 223.084 358.504 218.711C355.076 214.337 352.586 209.298 351.194 203.912C349.801 198.525 349.535 192.908 350.413 187.414C356.628 183.376 362.81 180.024 368.732 180.024C383.337 180.024 404.624 195.207 430.119 190.252C430.211 191.4 430.269 192.571 430.269 193.759Z" fill="url(#paint19_radial)"/>
<path d="M404.204 203.416C402.826 203.418 401.465 203.119 400.214 202.541C398.962 201.962 397.852 201.117 396.959 200.064C397.851 199.01 398.96 198.163 400.211 197.583C401.461 197.002 402.823 196.701 404.201 196.701C405.579 196.701 406.941 197.002 408.191 197.583C409.442 198.163 410.552 199.01 411.443 200.064C410.552 201.117 409.442 201.962 408.192 202.54C406.942 203.119 405.581 203.418 404.204 203.416Z" fill="#28282A"/>
<path d="M411.46 200.064L417.251 196.701V203.416L411.46 200.064Z" fill="#28282A"/>
<path d="M401.525 200.97C401.953 200.97 402.301 200.621 402.301 200.191C402.301 199.761 401.953 199.412 401.525 199.412C401.096 199.412 400.748 199.761 400.748 200.191C400.748 200.621 401.096 200.97 401.525 200.97Z" fill="white"/>
<path d="M414.215 226C407.256 231.241 398.79 234.075 390.088 234.075C381.386 234.075 372.919 231.241 365.961 226H414.215Z" fill="#D6B391"/>
<path d="M414.215 226C407.256 231.241 398.79 234.075 390.088 234.075C381.386 234.075 372.919 231.241 365.961 226H414.215Z" fill="url(#paint20_linear)"/>
<path d="M381.279 196.626V225.999H365.961C359.469 221.099 354.602 214.348 351.994 206.629V196.626H381.279Z" fill="#D6B391"/>
<path d="M381.279 196.626V225.999H365.961C359.469 221.099 354.602 214.348 351.994 206.629V196.626H381.279Z" fill="url(#paint21_linear)"/>
<path d="M396.033 205.256H366.26V226H396.033V205.256Z" fill="white"/>
<path d="M378.76 205.256H366.26V226H378.76V205.256Z" fill="#CFCCCC"/>
<path d="M393.515 207.407H387.126V213.816H393.515V207.407Z" fill="#FFD746"/>
<path d="M381.279 196.32H351.994V200.104H381.279V196.32Z" fill="#4E4E4E"/>
<path d="M395.148 259.555H387.408V298.914H395.148V259.555Z" fill="#4E4E4E"/>
<path d="M435.024 244.684C433.874 250.758 430.545 256.307 425.582 260.836C424.731 261.605 423.831 262.357 422.88 263.091C414.864 269.2 403.652 272.99 391.255 272.99C378.858 272.99 367.68 269.2 359.63 263.091C358.675 262.364 357.767 261.614 356.916 260.836C351.965 256.296 348.607 250.747 347.48 244.684H435.024Z" fill="#D6B391"/>
<path d="M435.024 244.684C433.874 250.758 430.545 256.307 425.582 260.836C424.731 261.605 423.831 262.357 422.88 263.091C414.864 269.2 403.652 272.99 391.255 272.99C378.858 272.99 367.68 269.2 359.63 263.091C358.675 262.364 357.767 261.614 356.916 260.836C351.965 256.296 348.607 250.747 347.48 244.684H435.024Z" fill="url(#paint22_linear)"/>
<path d="M438.025 237.635H341V249.437H438.025V237.635Z" fill="#323031"/>
<path d="M428.998 158H351.155V162.932H428.998V158Z" fill="#4E4E4E"/>
<defs>
<linearGradient id="paint0_linear" x1="8153.26" y1="20177.5" x2="5649.53" y2="23728.2" gradientUnits="userSpaceOnUse">
<stop stop-color="#896F5D"/>
<stop offset="1" stop-color="#A38671" stop-opacity="0"/>
</linearGradient>
<radialGradient id="paint1_radial" cx="0" cy="0" r="1" gradientUnits="userSpaceOnUse" gradientTransform="translate(7704.71 54161.7) scale(6920.52 19107.3)">
<stop stop-color="#F9BE50"/>
<stop offset="0.98" stop-color="#FFD746" stop-opacity="0"/>
</radialGradient>
<radialGradient id="paint2_radial" cx="0" cy="0" r="1" gradientUnits="userSpaceOnUse" gradientTransform="translate(70.3062 240.604) scale(47.3052 47.4578)">
<stop stop-color="#907562"/>
<stop offset="0.29" stop-color="#957A66" stop-opacity="0.71"/>
<stop offset="1" stop-color="#A38671" stop-opacity="0"/>
</radialGradient>
<linearGradient id="paint3_linear" x1="3334.87" y1="4561.55" x2="2448.65" y2="4570.54" gradientUnits="userSpaceOnUse">
<stop stop-color="#808080"/>
<stop offset="1" stop-color="#D0D0D0" stop-opacity="0"/>
</linearGradient>
<radialGradient id="paint4_radial" cx="0" cy="0" r="1" gradientUnits="userSpaceOnUse" gradientTransform="translate(-33024.4 22709.2) rotate(180) scale(20005.8 56839.6)">
<stop stop-color="#323031" stop-opacity="0.98"/>
<stop offset="1" stop-color="#4E4E4E" stop-opacity="0"/>
</radialGradient>
<linearGradient id="paint5_linear" x1="1501.32" y1="3590.79" x2="5200.49" y2="4004.94" gradientUnits="userSpaceOnUse">
<stop stop-color="#808080"/>
<stop offset="1" stop-color="#D0D0D0" stop-opacity="0"/>
</linearGradient>
<radialGradient id="paint6_radial" cx="0" cy="0" r="1" gradientUnits="userSpaceOnUse" gradientTransform="translate(-33024.4 22709.2) rotate(180) scale(20005.8 56839.6)">
<stop stop-color="#323031" stop-opacity="0.98"/>
<stop offset="1" stop-color="#4E4E4E" stop-opacity="0"/>
</radialGradient>
<radialGradient id="paint7_radial" cx="0" cy="0" r="1" gradientUnits="userSpaceOnUse" gradientTransform="translate(-33024.4 22709.2) rotate(180) scale(20005.8 56839.6)">
<stop stop-color="#323031" stop-opacity="0.98"/>
<stop offset="1" stop-color="#4E4E4E" stop-opacity="0"/>
</radialGradient>
<radialGradient id="paint8_radial" cx="0" cy="0" r="1" gradientUnits="userSpaceOnUse" gradientTransform="translate(-18705.7 21818.4) rotate(180) scale(11393.9 54584.3)">
<stop stop-color="#323031" stop-opacity="0.98"/>
<stop offset="1" stop-color="#4E4E4E" stop-opacity="0"/>
</radialGradient>
<linearGradient id="paint9_linear" x1="8508.31" y1="43157.1" x2="3154.72" y2="39230.7" gradientUnits="userSpaceOnUse">
<stop stop-color="#907562"/>
<stop offset="1" stop-color="#A38671" stop-opacity="0"/>
</linearGradient>
<radialGradient id="paint10_radial" cx="0" cy="0" r="1" gradientUnits="userSpaceOnUse" gradientTransform="translate(86.8605 101.473) rotate(180) scale(21.8385 21.9089)">
<stop stop-color="#808080"/>
<stop offset="0.14" stop-color="#848484" stop-opacity="0.95"/>
<stop offset="0.34" stop-color="#8F8F8F" stop-opacity="0.81"/>
<stop offset="0.57" stop-color="#A2A2A2" stop-opacity="0.58"/>
<stop offset="0.82" stop-color="#BBBBBB" stop-opacity="0.26"/>
<stop offset="1" stop-color="#D0D0D0" stop-opacity="0"/>
</radialGradient>
<linearGradient id="paint11_linear" x1="11905.3" y1="28259.7" x2="9493.41" y2="38661.3" gradientUnits="userSpaceOnUse">
<stop stop-color="#808080"/>
<stop offset="1" stop-color="#D0D0D0" stop-opacity="0"/>
</linearGradient>
<radialGradient id="paint12_radial" cx="0" cy="0" r="1" gradientUnits="userSpaceOnUse" gradientTransform="translate(287.318 230.681) scale(97.7213 98.0363)">
<stop stop-color="#F9BE50"/>
<stop offset="0.98" stop-color="#FFD746" stop-opacity="0"/>
</radialGradient>
<radialGradient id="paint13_radial" cx="0" cy="0" r="1" gradientUnits="userSpaceOnUse" gradientTransform="translate(34642.6 22994.8) scale(5915.16 6703.17)">
<stop stop-color="#F9BE50"/>
<stop offset="0.98" stop-color="#FFD746" stop-opacity="0"/>
</radialGradient>
<radialGradient id="paint14_radial" cx="0" cy="0" r="1" gradientUnits="userSpaceOnUse" gradientTransform="translate(-6047.79 3051.67) rotate(180) scale(484.344 430.374)">
<stop stop-color="#808080"/>
<stop offset="1" stop-color="#D0D0D0" stop-opacity="0"/>
</radialGradient>
<linearGradient id="paint15_linear" x1="296.058" y1="215.873" x2="304.684" y2="259.196" gradientUnits="userSpaceOnUse">
<stop stop-color="#323031" stop-opacity="0.98"/>
<stop offset="1" stop-color="#4E4E4E" stop-opacity="0"/>
</linearGradient>
<linearGradient id="paint16_linear" x1="17374.1" y1="11897.5" x2="16503.7" y2="14247.5" gradientUnits="userSpaceOnUse">
<stop stop-color="#323031" stop-opacity="0.98"/>
<stop offset="1" stop-color="#4E4E4E" stop-opacity="0"/>
</linearGradient>
<radialGradient id="paint17_radial" cx="0" cy="0" r="1" gradientUnits="userSpaceOnUse" gradientTransform="translate(-17100.3 12302.2) rotate(180) scale(3274.73 2116.55)">
<stop stop-color="#808080"/>
<stop offset="1" stop-color="#D0D0D0" stop-opacity="0"/>
</radialGradient>
<linearGradient id="paint18_linear" x1="384.873" y1="-55.0746" x2="383.75" y2="88.7407" gradientUnits="userSpaceOnUse">
<stop stop-color="#808080"/>
<stop offset="1" stop-color="#D0D0D0" stop-opacity="0"/>
</linearGradient>
<radialGradient id="paint19_radial" cx="0" cy="0" r="1" gradientUnits="userSpaceOnUse" gradientTransform="translate(64540.6 12556.7) scale(24859.2 16728.2)">
<stop stop-color="#808080"/>
<stop offset="1" stop-color="#D0D0D0" stop-opacity="0"/>
</radialGradient>
<linearGradient id="paint20_linear" x1="362.631" y1="230.037" x2="406.958" y2="230.037" gradientUnits="userSpaceOnUse">
<stop stop-color="#896F5D"/>
<stop offset="1" stop-color="#A38671" stop-opacity="0"/>
</linearGradient>
<linearGradient id="paint21_linear" x1="18323.2" y1="11313.9" x2="18323.2" y2="10353.1" gradientUnits="userSpaceOnUse">
<stop stop-color="#896F5D"/>
<stop offset="1" stop-color="#A38671" stop-opacity="0"/>
</linearGradient>
<linearGradient id="paint22_linear" x1="391.266" y1="237.104" x2="391.266" y2="262.024" gradientUnits="userSpaceOnUse">
<stop stop-color="#907562"/>
<stop offset="1" stop-color="#A38671" stop-opacity="0"/>
</linearGradient>
</defs>
</svg>
