<svg width="426" height="300" viewBox="0 0 426 300" fill="none" xmlns="http://www.w3.org/2000/svg">
<path d="M360 0H0V300H360V0Z" fill="#F4ECE9"/>
<path d="M380.31 124.864C380.31 124.864 388.635 104.001 404.452 94.2895C420.269 84.5783 428.519 88.8378 424.953 96.1523C421.387 103.467 406.235 125.298 390.691 134.73C375.147 144.162 380.31 124.864 380.31 124.864Z" fill="#F4ECE9"/>
<path d="M380.31 124.864C380.31 124.864 388.635 104.001 404.452 94.2895C420.269 84.5783 428.519 88.8378 424.953 96.1523C421.387 103.467 406.235 125.298 390.691 134.73C375.147 144.162 380.31 124.864 380.31 124.864Z" fill="white"/>
<path d="M425.009 96.1772C424.235 97.7272 423.38 99.236 422.449 100.697C416.597 110.173 403.812 126.832 390.765 134.755C388.02 136.419 385.92 137.189 384.317 137.325C376.862 137.946 380.353 124.907 380.353 124.907C380.353 124.907 388.684 104.044 404.501 94.3268C420.318 84.6094 428.519 88.8317 425.009 96.1772Z" fill="url(#paint0_linear)"/>
<path d="M422.418 100.673C416.566 110.148 403.781 126.807 390.734 134.73C387.988 136.394 385.889 137.164 384.286 137.301C384.36 136.978 384.41 136.798 384.41 136.798C384.41 136.798 392.741 115.941 408.558 106.23C414.199 102.759 418.889 101.07 422.418 100.673Z" fill="url(#paint1_linear)"/>
<path d="M240.268 262.112C239.121 259.592 237.528 257.301 235.565 255.35C231.496 251.419 225.407 250.277 220.189 248.65C213.287 246.489 206.521 243.9 199.688 241.435C186.697 236.728 173.663 232.233 160.623 227.688C154.482 225.604 148.487 223.115 142.675 220.237C141.371 219.579 140.041 218.877 138.768 218.088C133.112 224.96 126.586 231.067 119.354 236.256C118.732 236.71 118.142 237.169 117.565 237.629L30 300H181L199.824 279.1C207.845 269.643 212.467 266.29 220.562 264.999C221.73 264.875 223.047 264.719 224.494 264.539C224.885 264.483 225.289 264.44 225.706 264.378C225.935 264.378 226.178 264.328 226.426 264.291L227.172 264.185C227.93 264.092 228.7 263.974 229.508 263.856L230.321 263.745L231.154 263.62L232.34 263.44C232.57 263.403 232.831 263.366 233.086 263.316L234.484 263.105C236.323 262.795 238.261 262.478 240.268 262.112Z" fill="url(#paint2_linear)"/>
<path d="M350.527 189.278C345.613 189.681 339.376 192.631 334.375 199.411C332.303 202.24 330.631 205.341 329.405 208.626L328.162 209.209C321.459 212.227 311.885 216.008 304.859 216.586C304.859 216.586 295.894 216.766 263.316 199.517C253.556 194.344 246.48 188.079 241.342 181.628C229.315 166.533 227.849 150.414 227.402 144.956C226.867 138.431 234.422 122.603 247.698 112.929H247.741C250.319 111.023 253.098 109.405 256.029 108.105C274.455 100.139 279.139 78.4374 271.883 79.0335C264.627 79.6296 250.021 89.8065 234.77 95.5562C219.518 101.306 213.287 114.184 190.095 124.05C190.095 124.05 168.209 129.21 161.214 151.662C155.343 170.501 158.729 196.102 135.792 221.603C143.576 227.39 152.125 232.078 160.866 236.287C180.522 245.756 201.054 253.748 221.214 262.087L226.538 264.272L227.159 264.179C227.917 264.086 228.688 263.968 229.495 263.85L230.309 263.738L231.141 263.614L232.328 263.434C232.558 263.397 232.819 263.36 233.074 263.31L234.471 263.099C236.304 262.807 238.242 262.478 240.249 262.124L241.224 261.95L243.79 261.484C244.517 261.348 245.256 261.211 246.002 261.062C246.747 260.913 247.505 260.77 248.263 260.621L250.562 260.162L252.631 259.733C255.06 259.212 257.557 258.665 260.086 258.069C260.899 257.871 261.707 257.684 262.521 257.479C267.112 256.374 271.765 255.132 276.375 253.754L276.518 253.71C277.437 253.425 278.338 253.164 279.239 252.872C280.208 252.574 281.171 252.251 282.14 251.947L284.358 251.214C285.128 250.947 285.886 250.687 286.644 250.407C292.985 248.234 299.157 245.594 305.107 242.509C305.107 242.509 319.315 236.778 331.622 229.346C337.419 225.837 342.805 221.95 346.042 218.113C356.187 206.129 357.765 188.694 350.527 189.278Z" fill="white"/>
<path d="M350.527 189.278C345.613 189.681 339.376 192.631 334.375 199.411C332.303 202.24 330.631 205.341 329.405 208.626L328.162 209.209C321.459 212.227 311.885 216.008 304.859 216.586C304.859 216.586 295.894 216.766 263.316 199.517C253.556 194.344 246.48 188.079 241.342 181.628C229.315 166.533 227.849 150.414 227.402 144.956C226.867 138.431 234.422 122.603 247.698 112.929H247.741C250.319 111.023 253.098 109.405 256.029 108.105C274.455 100.139 279.139 78.4374 271.883 79.0335C264.627 79.6296 250.021 89.8065 234.77 95.5562C219.518 101.306 213.287 114.184 190.095 124.05C190.095 124.05 168.209 129.21 161.214 151.662C156.039 168.278 158.064 190.159 142.874 212.587C143.756 213.096 144.67 213.543 145.533 213.978C149.13 215.791 152.783 217.436 156.529 218.902C163.643 221.671 170.942 223.906 178.161 226.353C192.152 231.14 205.937 236.511 219.915 241.342C225.507 243.285 231.514 244.446 236.627 247.551C240.926 250.19 243.883 254.201 246.076 258.672C246.424 259.379 246.741 260.094 247.045 260.814L248.288 260.572L250.587 260.112L252.655 259.684C255.084 259.162 257.582 258.616 260.11 258.02C260.924 257.821 261.732 257.635 262.546 257.43C267.137 256.325 271.79 255.083 276.4 253.704L276.542 253.661C277.462 253.375 278.363 253.114 279.263 252.823C280.233 252.525 281.196 252.202 282.165 251.897L284.383 251.165C285.153 250.898 285.911 250.637 286.669 250.358C293 248.2 299.163 245.576 305.108 242.509C305.108 242.509 319.315 236.778 331.622 229.346C337.419 225.837 342.805 221.95 346.042 218.113C356.187 206.129 357.765 188.694 350.527 189.278Z" fill="white"/>
<path d="M350.527 189.278C345.619 189.681 339.376 192.631 334.375 199.405C332.301 202.23 330.628 205.329 329.405 208.613C328.988 208.812 328.566 209.004 328.131 209.197C322.695 211.649 315.383 214.599 309.065 215.934C306.425 220.032 304.381 224.577 302.442 228.973C300.249 233.978 295.82 240.77 295.801 246.868C299.063 245.496 302.194 244.03 305.12 242.484C305.12 242.484 319.334 236.747 331.629 229.315C337.425 225.806 342.811 221.919 346.054 218.088C356.193 206.129 357.771 188.694 350.527 189.278Z" fill="#F4ECE9"/>
<path d="M354.994 196.797C354.994 197.083 354.994 197.368 354.938 197.666C354.83 198.984 354.622 200.292 354.317 201.578C352.882 207.668 350.032 213.335 345.998 218.119C342.743 221.95 337.369 225.837 331.573 229.346C319.875 236.418 306.437 241.956 305.157 242.472L305.07 242.515C303.19 243.509 301.233 244.469 299.199 245.396C298.069 245.899 296.919 246.408 295.745 246.899C295.745 240.814 300.193 234.009 302.386 229.01C304.331 224.589 306.362 220.05 309.009 215.971C315.333 214.611 322.652 211.668 328.094 209.184L328.498 209.004L329.367 208.601C329.641 207.874 329.939 207.166 330.243 206.483C331.343 203.974 332.721 201.596 334.35 199.392C335.467 197.88 336.725 196.476 338.108 195.201C342.271 191.364 346.806 189.57 350.533 189.265C353.671 189.017 355.162 192.171 354.994 196.797Z" fill="white"/>
<path d="M354.994 196.797C354.994 197.083 354.994 197.368 354.938 197.666C354.83 198.984 354.622 200.292 354.317 201.578C352.882 207.668 350.032 213.335 345.998 218.119C342.743 221.95 337.369 225.837 331.573 229.346C319.875 236.418 306.437 241.956 305.157 242.472L305.07 242.515C303.19 243.509 301.233 244.469 299.199 245.396C298.069 245.899 296.919 246.408 295.745 246.899C295.745 240.814 300.193 234.009 302.386 229.01C304.331 224.589 306.362 220.05 309.009 215.971C315.333 214.611 322.652 211.668 328.094 209.184L328.498 209.004L329.367 208.601C329.641 207.874 329.939 207.166 330.243 206.483C331.343 203.974 332.721 201.596 334.35 199.392C335.467 197.88 336.725 196.476 338.108 195.201C342.271 191.364 346.806 189.57 350.533 189.265C353.671 189.017 355.162 192.171 354.994 196.797Z" fill="url(#paint3_linear)"/>
<path d="M362.045 158.555C362.045 158.555 370.55 137.773 386.454 128.192C402.358 118.611 410.565 122.951 406.955 130.235C403.346 137.518 387.982 159.219 372.364 168.514C356.746 177.809 362.045 158.555 362.045 158.555Z" fill="#F4ECE9"/>
<path d="M362.045 158.555C362.045 158.555 370.55 137.773 386.454 128.192C402.358 118.611 410.565 122.951 406.955 130.235C403.346 137.518 387.982 159.219 372.364 168.514C356.746 177.809 362.045 158.555 362.045 158.555Z" fill="white"/>
<path d="M406.993 130.228C405.847 132.428 404.576 134.559 403.184 136.611C396.785 146.223 384.628 161.206 372.364 168.514C368.289 170.948 365.63 171.426 363.94 170.805C359.15 169.073 362.076 158.555 362.076 158.555C362.076 158.555 370.581 137.772 386.479 128.198C402.377 118.623 410.571 122.951 406.993 130.228Z" fill="url(#paint4_linear)"/>
<path d="M403.159 136.611C396.785 146.223 384.628 161.206 372.364 168.514C368.289 170.948 365.63 171.426 363.94 170.805C366.338 165.67 374.433 150.054 387.597 142.119C394.22 138.139 399.5 136.537 403.159 136.611Z" fill="url(#paint5_linear)"/>
<path d="M374.147 152.271C367.413 152.824 358.175 158.188 352.987 171.625C347.21 174.289 338.748 177.797 331.728 179.119C325.665 188.297 322.832 198.827 320.415 209.458C323.304 208.216 326.087 206.899 328.703 205.509C328.703 205.509 359.467 193.09 369.643 181.113C379.819 169.135 381.397 151.675 374.147 152.271Z" fill="#F4ECE9"/>
<path d="M378.626 158.89C378.626 159.511 378.626 160.132 378.546 160.79C378.465 161.448 378.415 162.131 378.297 162.839C378.247 163.094 378.204 163.361 378.16 163.628C377.924 164.858 377.615 166.073 377.235 167.266C377.141 167.546 377.054 167.825 376.968 168.104C376.533 169.409 376.025 170.688 375.445 171.936C375.443 171.958 375.443 171.981 375.445 172.004C374.982 173.03 374.458 174.049 373.874 175.059C373.582 175.58 373.252 176.096 372.96 176.611C372.482 177.375 371.973 178.132 371.426 178.871L370.885 179.616C370.513 180.101 370.121 180.585 369.724 181.057L369.668 181.131C369.046 181.86 368.386 182.557 367.692 183.218C367.444 183.46 367.183 183.696 366.928 183.938C366.673 184.18 366.394 184.41 366.127 184.652L365.282 185.366C364.996 185.608 364.704 185.844 364.406 186.08C363.785 186.577 363.163 187.061 362.492 187.552C362.2 187.769 361.871 187.986 361.592 188.173C361.312 188.359 360.921 188.657 360.573 188.893C360.225 189.129 359.952 189.334 359.597 189.563C358.355 190.414 357.007 191.258 355.665 192.047L355.367 192.227C349.967 195.473 344.404 198.439 338.699 201.112C332.896 203.851 328.709 205.54 328.709 205.54C326.081 206.924 323.304 208.247 320.409 209.495C322.838 198.859 325.658 188.328 331.728 179.151C338.301 177.909 346.122 174.767 351.838 172.184L352.987 171.662C354.161 168.548 355.729 165.598 357.653 162.883C358.792 161.281 360.086 159.796 361.517 158.449C361.772 158.201 362.039 157.952 362.306 157.729C366.307 154.239 370.575 152.594 374.147 152.302C376.234 152.128 377.595 153.469 378.216 155.742C378.489 156.769 378.627 157.827 378.626 158.89Z" fill="white"/>
<path d="M378.626 158.89C378.626 159.511 378.626 160.132 378.546 160.79C378.465 161.448 378.415 162.131 378.297 162.839C378.247 163.094 378.204 163.361 378.16 163.628C377.924 164.858 377.615 166.073 377.235 167.266C377.141 167.546 377.054 167.825 376.968 168.104C376.533 169.409 376.025 170.688 375.445 171.936C375.443 171.958 375.443 171.981 375.445 172.004C374.982 173.03 374.458 174.049 373.874 175.059C373.582 175.58 373.252 176.096 372.96 176.611C372.482 177.375 371.973 178.132 371.426 178.871L370.885 179.616C370.513 180.101 370.121 180.585 369.724 181.057L369.668 181.131C369.046 181.86 368.386 182.557 367.692 183.218C367.444 183.46 367.183 183.696 366.928 183.938C366.673 184.18 366.394 184.41 366.127 184.652L365.282 185.366C364.996 185.608 364.704 185.844 364.406 186.08C363.785 186.577 363.163 187.061 362.492 187.552C362.2 187.769 361.871 187.986 361.592 188.173C361.312 188.359 360.921 188.657 360.573 188.893C360.225 189.129 359.952 189.334 359.597 189.563C358.355 190.414 357.007 191.258 355.665 192.047L355.367 192.227C349.967 195.473 344.404 198.439 338.699 201.112C332.896 203.851 328.709 205.54 328.709 205.54C326.081 206.924 323.304 208.247 320.409 209.495C322.838 198.859 325.658 188.328 331.728 179.151C338.301 177.909 346.122 174.767 351.838 172.184L352.987 171.662C354.161 168.548 355.729 165.598 357.653 162.883C358.792 161.281 360.086 159.796 361.517 158.449C361.772 158.201 362.039 157.952 362.306 157.729C366.307 154.239 370.575 152.594 374.147 152.302C376.234 152.128 377.595 153.469 378.216 155.742C378.489 156.769 378.627 157.827 378.626 158.89Z" fill="url(#paint6_linear)"/>
<path d="M416.933 81.9705L338.108 195.208L330.237 206.508L328.485 209.029L327.665 210.203L316.414 226.39L305.729 241.764C305.561 242.006 305.381 242.236 305.201 242.472C304.002 244.068 302.569 245.475 300.951 246.644C298.293 248.562 295.213 249.814 291.97 250.296C288.727 250.778 285.416 250.475 282.314 249.414C280.531 248.803 278.843 247.944 277.3 246.862L272.989 243.869L265.018 238.33C264.913 238.25 264.838 238.206 264.807 238.175L262.198 236.368L214.772 203.391C214.772 203.36 214.691 203.342 214.66 203.298C210.257 200.189 207.264 195.466 206.333 190.159C205.402 184.852 206.608 179.393 209.69 174.972L210.659 173.581L232.055 142.845L320.502 15.706L320.875 15.172C323.933 10.7749 328.598 7.75489 333.863 6.76299C339.129 5.77109 344.574 6.88671 349.024 9.8694L407.508 50.5396L411.857 53.551C416.299 56.6485 419.328 61.3818 420.28 66.7108C421.232 72.0398 420.028 77.5284 416.933 81.9705Z" fill="black"/>
<path d="M412.584 78.9652L301.38 238.759C299.853 240.964 297.906 242.846 295.649 244.297C293.393 245.748 290.872 246.74 288.231 247.215C285.59 247.69 282.882 247.638 280.261 247.064C277.64 246.49 275.158 245.404 272.958 243.869L264.987 238.33C264.882 238.25 264.807 238.206 264.776 238.175L262.167 236.368L214.74 203.391C214.74 203.36 214.66 203.341 214.629 203.298L210.423 200.38C205.977 197.286 202.942 192.555 201.985 187.226C201.027 181.897 202.226 176.407 205.316 171.96L228.259 139.02L230.912 135.214L244.921 115.096L245.579 114.146L316.545 12.1605C319.64 7.71713 324.374 4.68407 329.706 3.72813C335.038 2.7722 340.532 3.97166 344.979 7.0628L349.024 9.86936L407.508 50.5395C409.709 52.0728 411.586 54.0243 413.032 56.2826C414.479 58.541 415.466 61.062 415.937 63.7016C416.408 66.3412 416.355 69.0478 415.779 71.6668C415.204 74.2857 414.118 76.7657 412.584 78.9652Z" fill="#28282A"/>
<path d="M403.717 54.1302L342.321 11.4753C335.164 6.50258 325.328 8.27063 320.353 15.4243L210.674 173.124C205.698 180.278 207.467 190.108 214.625 195.081L276.021 237.736C283.178 242.709 293.014 240.941 297.989 233.787L407.668 76.0869C412.644 68.9332 410.875 59.1028 403.717 54.1302Z" fill="#FFD301"/>
<path d="M403.717 54.1302L342.321 11.4753C335.164 6.50258 325.328 8.27063 320.353 15.4243L210.674 173.124C205.698 180.278 207.467 190.108 214.625 195.081L276.021 237.736C283.178 242.709 293.014 240.941 297.989 233.787L407.668 76.0869C412.644 68.9332 410.875 59.1028 403.717 54.1302Z" fill="#FFD400"/>
<path d="M374.439 31.3967L344.675 13.2659L345.166 27.0006C345.188 27.6407 345.359 28.2669 345.665 28.8295C345.971 29.3921 346.404 29.8756 346.93 30.2418L365.99 43.5046L385.062 56.7674C385.589 57.1349 386.193 57.3745 386.829 57.4672C387.464 57.5599 388.112 57.5032 388.722 57.3014L401.768 52.955L374.439 31.3967Z" fill="#28282A"/>
<path d="M396.341 83.8755L317.589 29.1094L220.045 169.226L298.797 223.992L396.341 83.8755Z" fill="white"/>
<path d="M336.019 146.539L279.337 107.121L270.605 119.665L327.286 159.082L336.019 146.539Z" fill="black"/>
<path d="M311.936 181.137L255.254 141.719L245.319 155.99L302.001 195.408L311.936 181.137Z" fill="black"/>
<path d="M351.069 124.917L294.388 85.499L285.656 98.0423L342.337 137.46L351.069 124.917Z" fill="#D0D0D0"/>
<path d="M334.814 26.7447L329.195 22.8409L325.289 28.4569L330.908 32.3607L334.814 26.7447Z" fill="black"/>
<path d="M293.739 127.695C294.614 127.695 295.323 126.986 295.323 126.112C295.323 125.237 294.614 124.528 293.739 124.528C292.864 124.528 292.154 125.237 292.154 126.112C292.154 126.986 292.864 127.695 293.739 127.695Z" fill="white"/>
<path d="M303.256 134.314C304.131 134.314 304.84 133.605 304.84 132.731C304.84 131.856 304.131 131.147 303.256 131.147C302.381 131.147 301.672 131.856 301.672 132.731C301.672 133.605 302.381 134.314 303.256 134.314Z" fill="white"/>
<path d="M312.78 140.933C313.655 140.933 314.364 140.224 314.364 139.35C314.364 138.475 313.655 137.766 312.78 137.766C311.905 137.766 311.196 138.475 311.196 139.35C311.196 140.224 311.905 140.933 312.78 140.933Z" fill="white"/>
<path d="M380.066 41.1094L362.931 29.1938C362.047 28.5788 360.831 28.7967 360.216 29.6806L360.035 29.9405C359.42 30.8244 359.638 32.0395 360.522 32.6545L377.657 44.5702C378.541 45.1852 379.757 44.9672 380.372 44.0833L380.553 43.8234C381.168 42.9395 380.95 41.7244 380.066 41.1094Z" fill="white"/>
<path d="M325.621 77.6179L331.598 81.7718L340.985 71.9924L334.952 67.8011L325.621 77.6179Z" fill="black"/>
<path d="M342.382 82.076C342.382 82.076 346.11 84.4045 348.837 81.7407C351.08 79.5241 349.458 77.2577 348.477 76.5685L346.135 74.9417C345.346 74.3891 345.687 73.6688 346.296 73.5632C346.905 73.4577 347.967 73.6998 348.527 72.8988C349.086 72.0979 348.632 71.3838 347.359 70.4959C345.849 69.4465 345.01 70.2289 344.743 70.6139C344.24 71.3341 344.905 71.9488 344.439 72.6194C343.818 73.526 341.861 71.9985 341.475 71.7253L345.893 67.1367L353.758 72.5822C356.013 74.1531 359.349 79.8221 356.069 84.51C352.788 89.198 346.321 91.9983 338.276 86.4038L342.382 82.076Z" fill="black"/>
<path d="M340.985 71.9923C338.773 70.4586 338.848 69.7818 339.463 68.8877C340.078 67.9936 341.239 68.9808 341.656 68.3785C342.072 67.7762 341.687 67.2298 340.966 66.7269C340.245 66.2239 339.351 66.2488 339.102 66.6834C338.854 67.1181 339.817 67.7017 338.891 68.5151C337.649 69.6266 335.511 68.1612 334.977 67.7886C334.443 67.4161 337.748 71.7066 337.748 71.7066L340.985 71.9923Z" fill="black"/>
<path d="M320.154 83.3923L323.652 79.5054L325.093 80.5113L321.608 84.3982L320.154 83.3923Z" fill="black"/>
<path d="M332.915 92.2654L336.412 88.3846L337.649 89.2415L334.157 93.1285L332.915 92.2654Z" fill="black"/>
<path d="M328.759 89.3719L331.449 86.3915L332.554 87.1614L329.877 90.148L328.759 89.3719Z" fill="black"/>
<path d="M330.908 90.8682L333.107 88.4404L333.697 89.794L332.026 91.6444L330.908 90.8682Z" fill="black"/>
<path d="M339.779 97.034L343.283 93.1594L344.594 94.066L341.096 97.9529L339.779 97.034Z" fill="black"/>
<path d="M337.617 95.5376L341.128 91.6569L342.438 92.5696L338.935 96.4504L337.617 95.5376Z" fill="black"/>
<path d="M323.59 82.1816L324.074 82.5169C324.165 82.6039 324.274 82.6704 324.392 82.712C324.511 82.7537 324.637 82.7694 324.763 82.7582C324.888 82.7471 325.009 82.7092 325.119 82.6473C325.228 82.5853 325.323 82.5006 325.397 82.3989C325.646 82.0512 325.397 81.7221 325.05 81.4862L324.285 80.9584L325.093 80.5114L326.336 81.3682C327.106 81.9022 327.199 82.43 326.727 83.1068C326.532 83.376 326.249 83.5694 325.928 83.6542C325.606 83.7391 325.265 83.7102 324.963 83.5725C324.608 83.3241 325.286 83.3179 325.317 83.5104C325.443 83.725 325.509 83.9693 325.509 84.2182C325.509 84.4671 325.443 84.7115 325.317 84.9261C324.869 85.547 323.733 85.8637 322.552 85.0378L320.9 83.8954L322.061 83.6035L322.142 83.8954L322.676 84.2679C322.772 84.3514 322.884 84.4134 323.006 84.4496C323.127 84.4859 323.255 84.4954 323.381 84.4778C323.506 84.4601 323.627 84.4156 323.733 84.3472C323.84 84.2788 323.931 84.1883 324 84.0816C324.273 83.6967 324 83.3303 323.583 83.0261L322.894 82.548L323.59 82.1816Z" fill="black"/>
<path d="M326.472 84.9075C326.802 84.3362 327.752 83.8209 329.125 84.7771C330.498 85.7333 329.616 86.6398 329.075 87.1676C328.535 87.6954 328.454 87.9065 328.752 88.1176L327.907 88.782C327.907 88.782 326.789 88.1114 327.168 87.5402C327.429 87.1552 328.224 86.0624 328.442 85.7519C328.659 85.4415 327.764 84.6032 326.472 84.9075Z" fill="black"/>
<path d="M328.224 86.0872L328.063 86.5777C327.41 86.5777 326.454 85.9568 326.131 86.4411C326.013 86.6088 326.006 86.9193 326.416 87.2049C326.826 87.4905 327.485 87.1366 327.845 86.6212L327.671 87.2421C327.516 87.3609 327.347 87.461 327.168 87.5402C326.897 87.5953 326.617 87.5893 326.348 87.5228C326.079 87.4562 325.829 87.3306 325.615 87.1552C325.211 86.8944 324.845 86.4163 325.205 85.9134C325.888 84.9509 327.945 86.4722 328.224 86.0872Z" fill="black"/>
<path d="M332.188 87.5649C332.768 87.5344 333.342 87.7007 333.815 88.0368C334.263 88.3473 334.48 88.9185 333.697 89.794C332.915 90.6695 332.151 89.5022 332.151 89.5022C332.697 88.8813 332.697 88.4528 332.349 88.3287C332.147 88.2665 331.931 88.2651 331.727 88.3247C331.524 88.3843 331.343 88.5023 331.206 88.664C330.33 89.6326 332.076 87.4221 332.076 87.4221L332.188 87.5649Z" fill="black"/>
<path d="M335.903 91.1849L337.978 90.9303L339.55 92.0231L336.996 92.3957L336.971 95.0843L335.4 93.9914L335.362 91.7872L335.903 91.1849Z" fill="black"/>
<path d="M343.774 94.9788L344.451 95.4507C344.577 95.5262 344.685 95.6293 344.766 95.7521C344.846 95.875 344.898 96.0145 344.917 96.1602C344.936 96.3059 344.922 96.454 344.876 96.5935C344.83 96.733 344.752 96.8603 344.65 96.9657C344.553 97.1595 344.413 97.329 344.241 97.4618C344.07 97.5946 343.871 97.6873 343.659 97.7332C343.447 97.779 343.227 97.7768 343.016 97.7268C342.805 97.6767 342.607 97.58 342.438 97.4438L341.569 96.8229L341.097 97.9406L342.339 98.7974C342.974 99.1316 343.709 99.2201 344.405 99.046C345.101 98.8718 345.708 98.4473 346.11 97.8536C347.116 96.4131 346.11 95.1402 345.377 94.6063L343.414 93.2402L343.774 94.9788Z" fill="black"/>
<path d="M269.373 157.412L270.945 158.505L267.46 163.503L269.094 164.64L267.982 166.229L264.782 164.006L269.373 157.412Z" fill="#FFD400"/>
<path d="M271.964 162.212C273.051 160.647 274.536 160.703 275.629 161.467C275.927 161.656 276.182 161.906 276.376 162.2C276.569 162.495 276.698 162.828 276.754 163.176C276.809 163.524 276.789 163.88 276.696 164.221C276.603 164.561 276.438 164.877 276.213 165.149L274.424 167.713C273.318 169.303 271.858 169.222 270.765 168.458C269.671 167.695 269.056 166.391 270.181 164.776L271.964 162.212ZM274.585 164.075C274.896 163.628 274.784 163.28 274.492 163.081C274.2 162.883 273.84 162.895 273.529 163.342L271.79 165.826C271.693 165.966 271.655 166.139 271.685 166.306C271.716 166.474 271.811 166.623 271.951 166.72C272.091 166.817 272.264 166.855 272.432 166.824C272.6 166.794 272.749 166.698 272.846 166.558L274.585 164.075Z" fill="#FFD400"/>
<path d="M278.431 168.39L280.599 169.899L279.723 171.141C278.363 173.09 276.853 172.674 275.996 172.085C275.138 171.495 274.132 170.271 275.548 168.235L277.145 165.937C278.425 164.075 279.934 164.453 280.873 165.093C281.599 165.602 282.736 166.856 281.239 168.961L279.748 167.881C280.226 167.217 280.077 166.9 279.785 166.701C279.493 166.502 279.164 166.478 278.804 166.962L277.039 169.501C276.71 169.98 276.834 170.327 277.133 170.538C277.204 170.589 277.286 170.625 277.373 170.642C277.459 170.659 277.548 170.657 277.634 170.637C277.72 170.617 277.8 170.579 277.87 170.526C277.94 170.472 277.998 170.405 278.04 170.327L278.139 170.191L277.481 169.731L278.431 168.39Z" fill="#FFD400"/>
<path d="M283.942 167.539L285.532 168.651L280.941 175.245L279.35 174.134L283.942 167.539Z" fill="#FFD400"/>
<path d="M286.128 173.792L286.066 173.755L283.699 177.151L282.214 176.12L286.805 169.526L288.489 170.7L287.532 174.593L287.594 174.636L289.732 171.563L291.204 172.587L286.613 179.182L285.004 178.058L286.128 173.792Z" fill="#FFD400"/>
<path d="M369.717 181.038C366.481 184.875 361.138 188.75 355.373 192.264C349.645 190.19 347.632 181.883 351.875 172.128C353.465 168.583 355.557 165.285 358.088 162.336C363.058 155.568 369.27 152.619 374.166 152.215C381.372 151.613 379.807 169.061 369.717 181.038Z" fill="#F4ECE9"/>
<path d="M378.626 158.89C378.626 159.511 378.626 160.132 378.546 160.79C378.465 161.448 378.409 162.137 378.297 162.839C378.247 163.094 378.204 163.361 378.16 163.628C377.924 164.795 377.62 166.018 377.235 167.266C377.141 167.546 377.055 167.825 376.968 168.104C376.526 169.407 376.018 170.685 375.445 171.935C375.443 171.958 375.443 171.981 375.445 172.004C374.967 173.028 374.451 174.047 373.874 175.059C373.582 175.58 373.252 176.096 372.96 176.611C372.476 177.375 371.966 178.132 371.426 178.871L370.886 179.616C370.513 180.101 370.121 180.585 369.724 181.057C369.103 181.771 368.432 182.491 367.692 183.218C367.444 183.46 367.183 183.696 366.928 183.938C366.673 184.18 366.394 184.41 366.127 184.652L365.282 185.366C364.996 185.608 364.704 185.844 364.406 186.08C363.785 186.577 363.163 187.061 362.492 187.552C362.2 187.769 361.871 187.986 361.592 188.173C361.312 188.359 360.921 188.657 360.573 188.893C360.225 189.129 359.952 189.334 359.597 189.563C358.355 190.414 357.007 191.258 355.665 192.047C355.572 192.115 355.472 192.177 355.379 192.233C354.205 191.78 353.149 191.067 352.288 190.149C351.428 189.231 350.786 188.131 350.409 186.931C349.055 183.174 349.365 177.903 351.869 172.128C353.369 168.786 355.319 165.665 357.665 162.851L358.094 162.336C359.122 160.938 360.27 159.631 361.523 158.431C361.778 158.182 362.045 157.934 362.312 157.71C366.307 154.171 370.6 152.507 374.172 152.215C376.247 152.047 377.589 153.364 378.216 155.618C378.493 156.686 378.631 157.786 378.626 158.89Z" fill="white"/>
<path d="M378.626 158.89C378.626 159.511 378.626 160.132 378.546 160.79C378.465 161.448 378.409 162.137 378.297 162.839C378.247 163.094 378.204 163.361 378.16 163.628C377.924 164.795 377.62 166.018 377.235 167.266C377.141 167.546 377.055 167.825 376.968 168.104C376.526 169.407 376.018 170.685 375.445 171.935C375.443 171.958 375.443 171.981 375.445 172.004C374.967 173.028 374.451 174.047 373.874 175.059C373.582 175.58 373.252 176.096 372.96 176.611C372.476 177.375 371.966 178.132 371.426 178.871L370.886 179.616C370.513 180.101 370.121 180.585 369.724 181.057C369.103 181.771 368.432 182.491 367.692 183.218C367.444 183.46 367.183 183.696 366.928 183.938C366.673 184.18 366.394 184.41 366.127 184.652L365.282 185.366C364.996 185.608 364.704 185.844 364.406 186.08C363.785 186.577 363.163 187.061 362.492 187.552C362.2 187.769 361.871 187.986 361.592 188.173C361.312 188.359 360.921 188.657 360.573 188.893C360.225 189.129 359.952 189.334 359.597 189.563C358.355 190.414 357.007 191.258 355.665 192.047C355.572 192.115 355.472 192.177 355.379 192.233C354.205 191.78 353.149 191.067 352.288 190.149C351.428 189.231 350.786 188.131 350.409 186.931C349.055 183.174 349.365 177.903 351.869 172.128C353.369 168.786 355.319 165.665 357.665 162.851L358.094 162.336C359.122 160.938 360.27 159.631 361.523 158.431C361.778 158.182 362.045 157.934 362.312 157.71C366.307 154.171 370.6 152.507 374.172 152.215C376.247 152.047 377.589 153.364 378.216 155.618C378.493 156.686 378.631 157.786 378.626 158.89Z" fill="url(#paint7_linear)"/>
<path d="M346.017 218.119C342.761 221.951 337.388 225.837 331.591 229.346C325.832 227.278 323.807 218.97 328.088 209.209C329.692 205.662 331.799 202.364 334.344 199.417C339.369 192.643 345.613 189.694 350.496 189.29C357.771 188.694 356.193 206.129 346.017 218.119Z" fill="#F4ECE9"/>
<path d="M354.994 196.797C354.994 197.083 354.994 197.368 354.938 197.666C354.83 198.984 354.622 200.292 354.317 201.578C352.882 207.668 350.032 213.335 345.998 218.119C342.743 221.95 337.369 225.837 331.573 229.346C328.721 228.327 326.783 225.769 326.075 222.261C325.404 218.933 325.832 214.748 327.653 210.203C327.783 209.874 327.914 209.544 328.069 209.209C329.673 205.662 331.78 202.364 334.325 199.417C335.442 197.904 336.701 196.501 338.083 195.226C338.743 194.616 339.436 194.041 340.158 193.506C343.145 191.163 346.728 189.703 350.502 189.29C352.583 189.116 353.95 190.445 354.571 192.718C354.919 194.048 355.061 195.424 354.994 196.797Z" fill="white"/>
<path d="M354.994 196.797C354.994 197.083 354.994 197.368 354.938 197.666C354.83 198.984 354.622 200.292 354.317 201.578C352.882 207.668 350.032 213.335 345.998 218.119C342.743 221.95 337.369 225.837 331.573 229.346C328.721 228.327 326.783 225.769 326.075 222.261C325.404 218.933 325.832 214.748 327.653 210.203C327.783 209.874 327.914 209.544 328.069 209.209C329.673 205.662 331.78 202.364 334.325 199.417C335.442 197.904 336.701 196.501 338.083 195.226C338.743 194.616 339.436 194.041 340.158 193.506C343.145 191.163 346.728 189.703 350.502 189.29C352.583 189.116 353.95 190.445 354.571 192.718C354.919 194.048 355.061 195.424 354.994 196.797Z" fill="url(#paint8_linear)"/>
<path d="M275.058 82.3741C275.139 83.1129 275.139 83.8583 275.058 84.597C274.436 91.4271 268.224 102.802 255.998 108.093C255.482 108.316 254.966 108.546 254.469 108.794C247.754 112.029 242.1 116.99 237.696 122.305C232.987 128.018 229.75 134.14 228.234 138.971L217.809 153.947C204.098 147.521 191.667 138.555 181.777 127.347C184.407 125.925 187.192 124.808 190.077 124.019C213.256 114.122 219.499 101.262 234.745 95.5252C249.99 89.7879 264.565 79.6111 271.84 79.015C273.728 78.8846 274.803 80.2009 275.058 82.3741Z" fill="white"/>
<path d="M217.872 153.923L228.265 139.021L217.841 153.997C217.841 153.997 217.865 153.923 217.872 153.923Z" fill="url(#paint9_radial)"/>
<path d="M230.918 135.171C230.116 136.499 229.23 137.775 228.265 138.989L230.918 135.171Z" fill="white"/>
<path d="M275.064 84.597C274.443 91.4271 268.23 102.802 256.004 108.093C255.488 108.316 254.973 108.546 254.476 108.794C235.944 116.245 243.132 98.2386 260.589 87.062C271.374 80.1512 274.362 80.8528 275.058 82.3865C275.303 83.1026 275.305 83.8795 275.064 84.597Z" fill="url(#paint10_radial)"/>
<path d="M354.994 196.797C355.008 197.088 354.989 197.38 354.938 197.666C354.941 197.691 354.941 197.716 354.938 197.741C354.764 198.691 354.59 200.001 354.317 201.578C352.882 207.668 350.032 213.335 345.998 218.119C342.743 221.95 337.369 225.837 331.573 229.346C319.875 236.418 306.437 241.956 305.157 242.472C305.344 242.242 305.518 242.006 305.685 241.764L312.519 231.941L314.346 229.315C314.346 229.315 332.523 224.651 342.594 209.687C350.682 197.71 354.764 192.649 354.994 196.797Z" fill="url(#paint11_linear)"/>
<path d="M245.579 114.103L244.921 115.053C236.273 122.293 230.464 131.998 228.265 138.983L205.31 171.954C203.376 174.729 202.165 177.942 201.784 181.303C201.403 184.663 201.866 188.065 203.129 191.203C200.861 189.376 199.141 186.958 198.159 184.217C189.114 160.976 206.403 143.292 219.282 132.389C229.315 123.926 240.926 116.835 245.579 114.103Z" fill="url(#paint12_radial)"/>
<path d="M378.626 158.89C378.626 159.511 378.626 160.132 378.546 160.79C378.465 161.448 378.415 162.131 378.297 162.839C378.247 163.094 378.204 163.361 378.16 163.628C377.924 164.858 377.615 166.073 377.235 167.266C377.141 167.546 377.054 167.825 376.968 168.104C376.533 169.409 376.025 170.688 375.445 171.935C375.443 171.958 375.443 171.981 375.445 172.004C374.982 173.03 374.458 174.049 373.874 175.059C373.582 175.58 373.252 176.096 372.96 176.611C372.482 177.375 371.973 178.132 371.426 178.871L370.885 179.616C370.513 180.101 370.121 180.585 369.724 181.057L369.668 181.131C369.046 181.86 368.386 182.557 367.692 183.218C367.444 183.46 367.183 183.696 366.928 183.938C366.673 184.18 366.394 184.41 366.127 184.652L365.282 185.366C364.996 185.608 364.704 185.844 364.406 186.08C363.785 186.577 363.163 187.061 362.492 187.552C362.2 187.769 361.871 187.986 361.592 188.172C361.312 188.359 360.921 188.657 360.573 188.893C360.225 189.129 359.952 189.334 359.597 189.563C358.355 190.414 357.007 191.258 355.665 192.047C355.572 192.115 355.472 192.177 355.379 192.233L354.634 192.68C354.012 190.408 352.646 189.079 350.564 189.253C346.79 189.665 343.207 191.126 340.221 193.469L340.562 191.706C340.562 191.706 344.868 189.936 350.378 186.955C355.889 183.975 362.685 179.939 367.624 175.388C374.731 168.843 378.452 161.728 378.185 155.723C378.188 155.705 378.188 155.686 378.185 155.667C378.466 156.719 378.614 157.802 378.626 158.89Z" fill="url(#paint13_linear)"/>
<path d="M282.277 249.414C280.493 248.803 278.806 247.944 277.263 246.862L272.952 243.869L265.969 238.989C265.939 239.005 265.908 239.017 265.876 239.026C250.344 244.999 226.426 251.041 202.092 250.916C198.855 254.723 177.602 273.015 155.84 291.45C166.146 292.158 176.409 292.561 186.467 294.834L199.843 279.063C207.863 269.606 212.485 266.253 220.58 264.962C221.748 264.837 223.065 264.682 224.513 264.502C224.904 264.446 225.308 264.403 225.724 264.341C225.954 264.341 226.196 264.291 226.445 264.254L227.19 264.148C227.948 264.055 228.719 263.937 229.526 263.819L230.34 263.701L231.173 263.583L232.359 263.403C232.589 263.366 232.85 263.329 233.105 263.279L234.502 263.068C236.335 262.776 238.273 262.447 240.28 262.093L241.255 261.919L243.821 261.453C244.548 261.317 245.287 261.18 246.033 261.031C246.778 260.882 247.536 260.739 248.294 260.59L250.593 260.131L252.662 259.702C255.091 259.181 257.588 258.634 260.117 258.038C260.924 257.84 261.738 257.653 262.552 257.448C267.143 256.343 271.796 255.101 276.406 253.723L276.549 253.679C277.468 253.394 278.369 253.133 279.27 252.841C280.239 252.543 281.202 252.22 282.171 251.916L284.389 251.183L282.277 249.414Z" fill="url(#paint14_linear)"/>
<defs>
<linearGradient id="paint0_linear" x1="386.02" y1="127.661" x2="409.313" y2="105.808" gradientUnits="userSpaceOnUse">
<stop stop-color="#808080"/>
<stop offset="1" stop-color="#D0D0D0" stop-opacity="0"/>
</linearGradient>
<linearGradient id="paint1_linear" x1="22187.2" y1="9159.51" x2="23422.1" y2="8133.8" gradientUnits="userSpaceOnUse">
<stop stop-color="#808080"/>
<stop offset="1" stop-color="#D0D0D0" stop-opacity="0"/>
</linearGradient>
<linearGradient id="paint2_linear" x1="160.53" y1="232.916" x2="133.436" y2="285.824" gradientUnits="userSpaceOnUse">
<stop stop-color="white"/>
<stop offset="1" stop-color="#F4ECE9"/>
</linearGradient>
<linearGradient id="paint3_linear" x1="25134.5" y1="23026.8" x2="28198.8" y2="21560.7" gradientUnits="userSpaceOnUse">
<stop stop-color="#808080"/>
<stop offset="1" stop-color="#D0D0D0" stop-opacity="0"/>
</linearGradient>
<linearGradient id="paint4_linear" x1="24018" y1="14464.3" x2="27368.5" y2="12936.8" gradientUnits="userSpaceOnUse">
<stop stop-color="#808080"/>
<stop offset="1" stop-color="#D0D0D0" stop-opacity="0"/>
</linearGradient>
<linearGradient id="paint5_linear" x1="22534.7" y1="11211" x2="22247.2" y2="8936.2" gradientUnits="userSpaceOnUse">
<stop stop-color="#808080"/>
<stop offset="1" stop-color="#D0D0D0" stop-opacity="0"/>
</linearGradient>
<linearGradient id="paint6_linear" x1="28765.4" y1="20100.1" x2="29901.9" y2="18112.6" gradientUnits="userSpaceOnUse">
<stop stop-color="#808080"/>
<stop offset="1" stop-color="#D0D0D0" stop-opacity="0"/>
</linearGradient>
<linearGradient id="paint7_linear" x1="14840.9" y1="14364.5" x2="15741.6" y2="13242.3" gradientUnits="userSpaceOnUse">
<stop stop-color="#808080"/>
<stop offset="1" stop-color="#D0D0D0" stop-opacity="0"/>
</linearGradient>
<linearGradient id="paint8_linear" x1="12578.6" y1="16062.5" x2="14244.2" y2="15496.9" gradientUnits="userSpaceOnUse">
<stop stop-color="#808080"/>
<stop offset="1" stop-color="#D0D0D0" stop-opacity="0"/>
</linearGradient>
<radialGradient id="paint9_radial" cx="0" cy="0" r="1" gradientUnits="userSpaceOnUse" gradientTransform="translate(3752.28 3609.94) rotate(-4.5715) scale(136.057 195.468)">
<stop stop-color="#808080"/>
<stop offset="1" stop-color="#D0D0D0" stop-opacity="0"/>
</radialGradient>
<radialGradient id="paint10_radial" cx="0" cy="0" r="1" gradientUnits="userSpaceOnUse" gradientTransform="translate(13996.5 4814.83) rotate(-4.57149) scale(1738.71 1602.67)">
<stop stop-color="#808080"/>
<stop offset="1" stop-color="#D0D0D0" stop-opacity="0"/>
</radialGradient>
<linearGradient id="paint11_linear" x1="21102.4" y1="19257.6" x2="25819" y2="16934.4" gradientUnits="userSpaceOnUse">
<stop stop-color="#808080"/>
<stop offset="1" stop-color="#D0D0D0" stop-opacity="0"/>
</linearGradient>
<radialGradient id="paint12_radial" cx="0" cy="0" r="1" gradientUnits="userSpaceOnUse" gradientTransform="translate(19929.6 21840.2) rotate(-4.5715) scale(5571.55 8602.43)">
<stop stop-color="#808080"/>
<stop offset="1" stop-color="#D0D0D0" stop-opacity="0"/>
</radialGradient>
<linearGradient id="paint13_linear" x1="21883.5" y1="13198" x2="20151.9" y2="11920.6" gradientUnits="userSpaceOnUse">
<stop stop-color="#808080"/>
<stop offset="1" stop-color="#D0D0D0" stop-opacity="0"/>
</linearGradient>
<linearGradient id="paint14_linear" x1="51374.9" y1="22064.5" x2="41223.4" y2="31390.4" gradientUnits="userSpaceOnUse">
<stop stop-color="#808080"/>
<stop offset="1" stop-color="#D0D0D0" stop-opacity="0"/>
</linearGradient>
</defs>
</svg>
