<svg width="460" height="300" viewBox="0 0 460 300" fill="none" xmlns="http://www.w3.org/2000/svg">
<path d="M378.852 0H80.5434V300H378.852V0Z" fill="#F4ECE9"/>
<path d="M7.0212 154.314C7.0212 154.314 0 154.854 0 150.658C0 146.461 5.5575 146.789 9.40543 150.658C13.2534 154.526 7.0212 154.314 7.0212 154.314Z" fill="white"/>
<path d="M14.5742 127.974C14.5742 127.974 11.6753 130.848 7.99893 130.078C4.32252 129.308 6.62099 123.714 15.6662 124.95C24.7114 126.186 14.5742 127.974 14.5742 127.974Z" fill="white"/>
<path d="M24.5456 126.773C20.3889 122.588 15.0258 117.937 11.8354 119.616C7.05548 122.151 12.5329 135.177 23.8824 132.751C35.2318 130.325 24.5456 126.773 24.5456 126.773Z" fill="#CFCCCC"/>
<path d="M24.5456 126.773C20.3889 122.588 15.0258 117.937 11.8354 119.616C7.05548 122.151 12.5329 135.177 23.8824 132.751C35.2318 130.325 24.5456 126.773 24.5456 126.773Z" fill="url(#paint0_linear)"/>
<path d="M32.8189 147.887C32.8189 147.887 37.3644 143.57 41.3953 144.271C45.4262 144.972 46.1238 153.325 33.0705 156.406C20.0173 159.487 32.8189 147.887 32.8189 147.887Z" fill="#CFCCCC"/>
<path d="M32.8189 147.887C32.8189 147.887 37.3644 143.57 41.3953 144.271C45.4262 144.972 46.1238 153.325 33.0705 156.406C20.0173 159.487 32.8189 147.887 32.8189 147.887Z" fill="url(#paint1_linear)"/>
<path d="M22.9104 158.637C20.6234 144.03 14.5342 129.204 22.2472 121.61C29.9602 114.017 39.5315 129.733 35.8894 144.846C32.2473 159.959 26.5754 182.102 22.9104 158.637Z" fill="white"/>
<path d="M22.9104 158.637C20.6234 144.03 14.5342 129.204 22.2472 121.61C29.9602 114.017 39.5315 129.733 35.8894 144.846C32.2473 159.959 26.5754 182.102 22.9104 158.637Z" fill="url(#paint2_linear)"/>
<path d="M23.3106 160.976C23.3106 160.976 25.2832 152.526 21.9098 146.708C18.5364 140.891 15.5976 140.741 11.9498 140.741C4.95715 140.741 4.20243 151.721 15.4718 163.051C26.7412 174.382 23.3106 160.976 23.3106 160.976Z" fill="#CFCCCC"/>
<path d="M23.3106 160.976C23.3106 160.976 25.2832 152.526 21.9098 146.708C18.5364 140.891 15.5976 140.741 11.9498 140.741C4.95715 140.741 4.20243 151.721 15.4718 163.051C26.7412 174.382 23.3106 160.976 23.3106 160.976Z" fill="url(#paint3_linear)"/>
<path d="M43.042 191.627H37.7875V267.565H43.042V191.627Z" fill="#4E4E4E"/>
<path d="M108.651 197.123L85.1921 268.41H199.492L176.033 197.123" stroke="#4E4E4E" stroke-width="2.11" stroke-miterlimit="10"/>
<path d="M62.5848 197.123L39.1255 268.41H153.426L129.967 197.123" stroke="#28282A" stroke-width="2.11" stroke-miterlimit="10" stroke-linecap="round"/>
<path d="M181.688 197.123H114.306L78.594 85.7053H90.601L108.526 141.552H145.558C151.006 141.553 156.31 143.302 160.701 146.543C165.092 149.784 168.34 154.349 169.973 159.574L181.688 197.123Z" fill="#A38671"/>
<path d="M181.688 197.123H114.306L78.594 85.7053H90.601L108.526 141.552H145.558C151.006 141.553 156.31 143.302 160.701 146.543C165.092 149.784 168.34 154.349 169.973 159.574L181.688 197.123Z" fill="url(#paint4_linear)"/>
<path d="M38.8568 85.7053L86.9017 85.665L113.78 151.187L52.3331 147.266L38.8568 85.7053Z" fill="#A38671"/>
<path d="M38.8568 85.7053L86.9017 85.665L113.78 151.187L52.3331 147.266L38.8568 85.7053Z" fill="url(#paint5_linear)"/>
<path d="M201.168 220.117C184.65 190.523 174.712 165.931 168.978 153.727C168.171 155.255 167.468 156.835 166.874 158.458C165.29 162.408 163.409 166.248 162.002 170.271C160.416 174.722 159.403 179.359 158.989 184.068C160.956 187.408 164.255 192.26 169.818 199.209C182.917 215.564 194.701 235.241 197.354 241.656L219.99 225.906C219.99 225.906 205.342 227.607 201.168 220.117Z" fill="white"/>
<path d="M202.814 222.192L190.99 229.826C184.607 219.168 177.54 208.939 169.835 199.204C164.266 192.254 160.973 187.408 159.006 184.068C159.421 179.359 160.433 174.722 162.019 170.272C163.426 166.248 165.307 162.408 166.896 158.458C167.489 156.834 168.19 155.251 168.995 153.722C174.712 165.931 184.672 190.512 201.185 220.117C201.612 220.893 202.162 221.594 202.814 222.192V222.192Z" fill="#28282A"/>
<path d="M128.897 150.807L130.55 158.395L91.5215 156.452L102.293 142.615C102.293 142.615 125.65 143.897 126.307 144.564C126.965 145.231 128.897 150.807 128.897 150.807Z" fill="white"/>
<path d="M235.685 219.306L237.766 221.479L205.862 252.401C204.912 251.973 204.016 251.434 203.192 250.797C199.504 248.037 195.65 243.082 194.415 239.231C194.272 238.781 194.29 238.296 194.465 237.858C194.641 237.42 194.963 237.058 195.376 236.834L203.798 232.332C204.343 232.039 204.814 231.623 205.175 231.118C205.536 230.613 205.777 230.031 205.879 229.418L206.622 224.819C206.764 224.388 207.011 224 207.342 223.692C207.673 223.383 208.077 223.164 208.515 223.054L229.939 217.68C230.954 217.421 232.02 217.435 233.028 217.721C234.036 218.006 234.953 218.553 235.685 219.306V219.306Z" fill="#FFD746"/>
<path d="M235.685 219.306L237.766 221.479L205.862 252.401C204.912 251.973 204.016 251.434 203.192 250.797C199.504 248.037 195.65 243.082 194.415 239.231C194.272 238.781 194.29 238.296 194.465 237.858C194.641 237.42 194.963 237.058 195.376 236.834L203.798 232.332C204.343 232.039 204.814 231.623 205.175 231.118C205.536 230.613 205.777 230.031 205.879 229.418L206.622 224.819C206.764 224.388 207.011 224 207.342 223.692C207.673 223.383 208.077 223.164 208.515 223.054L229.939 217.68C230.954 217.421 232.02 217.435 233.028 217.721C234.036 218.006 234.953 218.553 235.685 219.306V219.306Z" fill="#FFD400"/>
<path d="M235.685 219.306L237.909 221.606L206.119 252.538C205.084 252.059 204.102 251.469 203.192 250.779L235.685 219.306Z" fill="white"/>
<path d="M175.244 114.408L174.421 111.223L179.515 109.142C179.515 109.142 183.438 107.417 183.826 109.464C184.146 111.326 181.408 112.654 175.313 114.063L175.244 114.408Z" fill="white"/>
<path d="M173.363 125.146L173.083 122.168L178.177 120.231C178.177 120.231 182.38 118.592 182.751 120.53C183.071 122.254 179.83 124.077 173.735 125.416L173.363 125.146Z" fill="white"/>
<path d="M175.118 121.817L174.335 118.627L179.224 116.552C179.224 116.552 182.946 114.827 183.323 116.908C183.632 118.771 181.036 120.093 175.187 121.507L175.118 121.817Z" fill="white"/>
<path d="M95.5981 83.4116C95.5981 83.4116 90.1549 118.345 77.3018 107.883C64.4486 97.4207 64.1971 80.7788 64.1971 80.7788C63.0589 82.2212 62.047 83.7599 61.1725 85.3776C57.2502 62.7515 65.9867 49.8576 73.3452 45.2473C74.7615 44.3748 76.2589 43.6432 77.8164 43.0628C77.8164 43.0628 81.1269 32.5431 94.9692 30.3184C113.34 27.3522 137.851 45.2645 129.618 77.6631C129.618 77.6631 128.131 72.0181 125.718 71.5467C125.718 71.5467 123.957 80.2442 131.402 87.9932C131.402 87.9932 125.753 89.8212 121.825 88.1656C121.825 88.1656 121.287 91.7757 125.867 93.46C127.199 92.8047 112.442 104.284 80.5551 92.9714L95.5981 83.4116Z" fill="#28282A"/>
<path d="M175.439 118.092L174.621 114.902L179.715 112.827C179.715 112.827 183.632 111.068 184.026 113.149C184.346 115.011 181.602 116.333 175.513 117.747L175.439 118.092Z" fill="white"/>
<path d="M140.241 124.352C137.88 123.203 126.868 100.536 118.549 95.7479C109.892 90.7697 99.5375 87.4241 88.4568 90.7697C88.4568 90.7697 125.45 140.96 136.29 141.782C147.131 142.604 169.321 129.71 169.321 129.71V117.719C169.321 117.719 142.614 125.514 140.241 124.352Z" fill="#FFD746"/>
<path d="M169.326 117.719V129.716C169.326 129.716 147.142 142.604 136.296 141.788C128.743 141.213 108.514 116.701 96.9246 101.864C94.9635 99.3522 93.2482 97.1218 91.8874 95.334C89.8291 92.6265 88.5712 90.9192 88.4568 90.7869C95.8897 88.5393 103.025 89.3096 109.52 91.5687C110.572 91.9309 111.613 92.3333 112.625 92.7702C114.657 93.6473 116.635 94.6455 118.549 95.7594C126.868 100.548 137.88 123.203 140.241 124.364C142.602 125.525 169.326 117.719 169.326 117.719Z" fill="#FFD400"/>
<path d="M109.183 103.796C106.827 104.204 101.996 103.169 99.7948 102.807C90.7153 101.243 86.4214 92.3678 86.4214 92.3678C86.8717 91.9963 87.3412 91.649 87.8279 91.3273C94.8491 84.4808 89.4689 69.7646 89.4689 69.7646C88.5197 71.0523 84.6089 70.2303 85.0949 64.9474C85.6667 59.2276 88.7484 60.9809 89.8634 61.7685C91.1676 61.4492 92.3067 60.6528 93.0584 59.5346C93.81 58.4164 94.1203 57.0568 93.9286 55.721C96.2842 54.5081 105.272 50.9555 111.219 57.8537C112.358 59.0553 113.096 60.5848 113.328 62.2284C114.855 73.7656 112.042 80.5776 106.61 82.1699C106.566 82.1904 106.52 82.2058 106.473 82.2159C106.561 84.9224 107.284 87.5695 108.583 89.9419C108.921 90.6271 109.303 91.2895 109.726 91.9251C109.726 91.9251 112.213 95.2075 113.351 96.9263C115.484 100.117 115.021 102.773 109.183 103.796Z" fill="white"/>
<path d="M108.6 89.9419C92.8193 90.5168 94.6375 77.4734 94.6375 77.4734C94.6375 77.4734 99.4003 83.5151 105.821 82.3596C106.044 82.3194 106.267 82.2791 106.49 82.2159C106.578 84.9223 107.301 87.5695 108.6 89.9419V89.9419Z" fill="url(#paint6_radial)"/>
<path d="M111.956 63.3263C112.259 63.4643 112.414 63.0676 112.162 62.8894C111.595 62.54 110.947 62.3456 110.282 62.3255C109.617 62.3053 108.958 62.4601 108.371 62.7745C108.062 62.9584 108.371 63.3781 108.663 63.2861C109.187 63.072 109.748 62.9653 110.314 62.9723C110.879 62.9792 111.437 63.0995 111.956 63.3263Z" fill="#231F20"/>
<path d="M103.534 63.6942C103.757 63.8035 104.003 63.4355 103.831 63.2861C102.351 62.1881 99.8862 62.1019 98.4911 63.3781C98.2453 63.539 98.4912 63.8839 98.737 63.769C100.407 63.0676 101.853 62.8147 103.534 63.6942V63.6942Z" fill="#231F20"/>
<path d="M133.717 146.323C133.609 149.129 133.426 150.807 133.426 150.807H91.7502C90.7096 149.387 89.755 147.905 88.8914 146.369C86.8388 143.001 83.4311 137.172 77.8736 127.135C63.8426 101.841 73.4939 95.5697 82.5963 92.5344C86.4557 91.2468 88.474 90.7697 88.474 90.7697C91.8302 97.5529 101.567 102.594 109.057 102.75C114.432 102.865 112.534 96.1503 109.806 91.9251C113.237 95.3742 127.251 104.066 131.224 119.518C133.872 129.963 133.952 140.54 133.717 146.323Z" fill="#FFD746"/>
<path d="M133.521 146.554C133.412 149.359 133.229 151.037 133.229 151.037H91.5534C90.5128 149.617 89.5582 148.135 88.6946 146.6C86.642 143.231 83.2343 137.402 77.6768 127.365C63.6459 102.072 73.2972 95.8 82.3996 92.7648C83.686 92.3336 84.7724 91.9945 85.6414 91.7301C87.3567 91.2127 88.2772 91 88.2772 91C88.4774 91.4081 88.7061 91.8048 88.9519 92.2014C89.0148 92.3049 89.0777 92.4084 89.1463 92.5061C89.2149 92.6038 89.295 92.736 89.375 92.8453C89.5466 93.0867 89.7181 93.3281 89.9125 93.5638C90.0279 93.7257 90.152 93.8811 90.2841 94.0295C90.4385 94.2192 90.61 94.4089 90.7758 94.6043L91.1703 95.024C91.3247 95.1907 91.4963 95.3631 91.6621 95.5183L91.6964 95.5528C91.9994 95.8575 92.3196 96.1277 92.6569 96.4323C92.9943 96.737 93.2287 96.898 93.4917 97.1222C93.9662 97.4958 94.4522 97.858 94.9611 98.2029C95.1784 98.3523 95.3956 98.4903 95.6129 98.6283C96.6088 99.2647 97.6417 99.8406 98.7061 100.353C99.2779 100.623 99.8496 100.876 100.393 101.1C100.581 101.181 100.776 101.25 100.965 101.324C101.536 101.543 102.108 101.744 102.68 101.899C102.874 101.962 103.063 102.02 103.252 102.072C103.44 102.123 103.629 102.181 103.823 102.227C104.229 102.336 104.624 102.428 105.024 102.514C105.196 102.549 105.361 102.589 105.533 102.612L106.065 102.71C106.442 102.767 106.831 102.825 107.208 102.859C107.345 102.859 107.471 102.888 107.603 102.894C107.734 102.899 107.951 102.928 108.129 102.94C108.306 102.951 108.598 102.94 108.832 102.968C109.022 102.98 109.213 102.98 109.404 102.968C109.647 102.953 109.889 102.913 110.124 102.848C113.869 101.899 112.068 96.0069 109.592 92.1612C110.427 92.9947 111.879 94.1444 113.663 95.6103C119.232 100.209 128.003 108.05 131.011 119.754C133.675 130.193 133.755 140.771 133.521 146.554Z" fill="#FFD400"/>
<path d="M109.606 104.716C105.217 104.738 100.88 103.755 96.9246 101.841C91.0641 99.0015 87.239 94.259 85.8267 91.494C87.542 90.9766 88.4625 90.7639 88.4625 90.7639C88.6627 91.1721 88.8914 91.5687 89.1372 91.9654C89.2001 92.0688 89.263 92.1723 89.3316 92.27C89.4002 92.3678 89.4803 92.5 89.5603 92.6092C89.7318 92.8506 89.9034 93.0921 90.0978 93.3278C90.2922 93.5634 90.3379 93.6382 90.4694 93.7934C90.6009 93.9486 90.7953 94.1728 90.9611 94.3682L91.3556 94.7879L91.8474 95.2822L91.8817 95.3167C92.1847 95.6214 92.5049 95.8916 92.8422 96.1963C93.1796 96.5009 93.414 96.6619 93.677 96.8861C94.1515 97.2597 94.6375 97.6219 95.1464 97.9668C95.3637 98.1163 95.5809 98.2542 95.7982 98.3922C96.7941 99.0286 97.827 99.6045 98.8914 100.117C99.4632 100.381 100.006 100.634 100.578 100.864C100.767 100.945 100.961 101.014 101.15 101.088C101.722 101.307 102.293 101.502 102.865 101.663L103.437 101.836L104.009 101.991C104.415 102.1 104.809 102.192 105.209 102.278L105.718 102.376L106.25 102.474C106.627 102.531 107.016 102.589 107.393 102.623C107.531 102.623 107.656 102.652 107.788 102.658C107.919 102.663 108.137 102.692 108.314 102.704C108.491 102.715 108.783 102.704 109.017 102.732C109.45 102.745 109.883 102.698 110.304 102.594C114.009 101.583 112.019 95.3742 109.526 91.54C110.578 91.9021 111.619 92.3045 112.631 92.7414C113.085 93.5906 113.49 94.4659 113.843 95.3627C115.81 100.421 115.232 104.716 109.606 104.716Z" fill="#323031"/>
<path d="M107.262 150.807H91.7502C90.7096 149.387 89.7549 147.905 88.8914 146.369C86.8388 143.001 83.4311 137.172 77.8736 127.135C74.5574 121.151 72.5562 116.213 71.5842 112.189C77.3018 107.906 90.4123 108.101 90.4123 108.101C90.4123 108.101 89.709 124.772 105.352 146.616C106.57 148.284 107.171 149.686 107.262 150.807Z" fill="url(#paint7_radial)"/>
<path d="M148.526 242.496C149.033 240.541 149.54 238.625 150.047 236.747C145.141 237.322 140.235 237.932 135.318 238.409C135.067 239.771 134.786 241.122 134.478 242.479C133.134 248.354 131.848 252.935 130.916 255.332L158.086 259.782C158.086 259.782 146.365 250.802 148.526 242.496Z" fill="white"/>
<path d="M133.717 146.323C133.609 149.129 133.426 151.416 133.426 151.416H92.3563C92.3563 151.416 91.1613 150.134 88.88 146.369L133.717 146.323Z" fill="#323031"/>
<path d="M169.481 175.698C165.255 188.345 157.154 209.327 148.526 242.496H134.478C136.765 232.499 137.382 222.6 138.554 209.43C140.584 186.661 143.792 184.137 143.792 184.137L123.037 185.77L105.009 156.452H166.296C172.951 156.452 173.706 163.028 169.481 175.698Z" fill="#4E4E4E"/>
<path d="M169.481 175.698C165.255 188.345 157.154 209.327 148.526 242.496H134.478C136.765 232.499 137.382 222.6 138.554 209.43C140.584 186.661 143.792 184.137 143.792 184.137L123.037 185.77L105.009 156.452H166.296C172.951 156.452 173.706 163.028 169.481 175.698Z" fill="url(#paint8_radial)"/>
<path d="M129.949 197.123H62.5848L30.5662 97.1736C30.1433 95.8571 30.0361 94.4587 30.2534 93.0926C30.4706 91.7265 31.0062 90.4314 31.8163 89.3131C32.6264 88.1948 33.688 87.285 34.9146 86.658C36.1412 86.031 37.4979 85.7045 38.8739 85.7053V85.7053L56.7642 141.552H93.8142C99.2631 141.552 104.57 143.3 108.963 146.541C113.356 149.782 116.606 154.348 118.24 159.574L129.949 197.123Z" fill="#D6B391"/>
<path d="M129.949 197.123H62.5848L30.5662 97.1736C30.1433 95.8571 30.0361 94.4587 30.2534 93.0926C30.4706 91.7265 31.0062 90.4314 31.8163 89.3131C32.6264 88.1948 33.688 87.285 34.9146 86.658C36.1412 86.031 37.4979 85.7045 38.8739 85.7053V85.7053L56.7642 141.552H93.8142C99.2631 141.552 104.57 143.3 108.963 146.541C113.356 149.782 116.606 154.348 118.24 159.574L129.949 197.123Z" fill="url(#paint9_linear)"/>
<path d="M129.949 197.123H62.5848L30.5662 97.1736C30.1433 95.8571 30.0361 94.4587 30.2534 93.0926C30.4706 91.7265 31.0062 90.4314 31.8163 89.3131C32.6264 88.1948 33.688 87.285 34.9146 86.658C36.1412 86.031 37.4979 85.7045 38.8739 85.7053V85.7053L56.7642 141.552H93.8142C99.2631 141.552 104.57 143.3 108.963 146.541C113.356 149.782 116.606 154.348 118.24 159.574L129.949 197.123Z" fill="url(#paint10_radial)"/>
<path d="M52.9678 140.264C53.4834 140.216 54.0006 140.339 54.4411 140.612C54.8815 140.886 55.2214 141.297 55.4092 141.782H55.4492C57.9282 140.357 60.3032 138.757 62.5562 136.993C64.071 135.851 65.6539 134.803 67.2961 133.855C68.7712 133.038 71.0411 132.653 72.2932 131.601C72.5165 131.413 72.7672 131.26 73.0365 131.147C72.825 131.147 73.2481 131.147 73.0365 131.147C77.7249 126.64 87.2676 114.81 90.3894 108.078C94.2145 99.8236 87.6107 93.7071 81.4757 93.6612C72.1217 93.5462 62.8135 112.827 56.7299 124.703C53.2537 131.486 51.9157 136.614 52.4475 140.31L52.9678 140.264Z" fill="#FFD400"/>
<path d="M97.6393 137.062C97.6393 137.062 107.685 145.553 111.299 146.323C114.912 147.094 108.611 149.859 105.329 146.559C102.048 143.259 97.6393 137.062 97.6393 137.062Z" fill="white"/>
<path d="M97.6393 137.062C97.6393 137.062 107.685 145.553 111.299 146.323C114.912 147.094 108.611 149.859 105.329 146.559C102.048 143.259 97.6393 137.062 97.6393 137.062Z" fill="url(#paint11_radial)"/>
<path d="M116.45 160.114C114.941 158.596 111.47 155.256 109.257 150.152C107.045 145.047 100.001 138.212 96.2156 136.189C93.9858 134.987 87.1647 132.952 79.6346 131.826C77.4162 131.498 75.1406 131.251 72.8993 131.13H72.4362H72.3733C71.4756 131.13 70.6008 131.159 69.7375 131.199C68.9885 133.205 67.8506 134.993 66.913 136.947C67.1703 140.254 67.2276 143.573 67.0845 146.887C68.1537 146.795 69.2515 146.68 70.3607 146.547C79.2401 145.478 88.8514 143.334 88.8514 143.334C88.8514 143.334 91.1899 149.226 96.0212 152.262C96.0212 152.262 97.8566 158.757 100.275 159.735C101.264 160.131 101.905 160.051 102.265 159.763C102.734 161.022 103.831 162.494 105.781 162.494C105.939 162.503 106.096 162.456 106.223 162.36C106.349 162.264 106.438 162.126 106.473 161.971C106.929 162.449 107.478 162.827 108.086 163.082C108.694 163.337 109.348 163.464 110.006 163.454C111.819 163.454 107.285 155.768 107.285 154.296C107.285 154.296 109.177 158.269 112.499 160.493C115.821 162.718 117.371 161.051 116.45 160.114Z" fill="white"/>
<path d="M70.698 131.159C69.8118 131.187 68.9427 131.228 68.0965 131.302C65.2663 131.544 63.7626 128.428 61.527 129.101C56.8386 130.538 52.6533 136.493 52.3788 139.414C52.426 140.517 52.6741 141.602 53.1107 142.615C53.2427 142.913 53.3956 143.202 53.5681 143.478C54.3436 144.712 55.4438 145.707 56.7471 146.352C58.4223 147.226 61.9672 147.312 66.1125 146.996H66.3183L67.2045 146.915C66.69 141.178 67.5933 136.263 70.698 131.159Z" fill="#FFD400"/>
<path d="M165.01 108.901C165.01 108.901 177.737 105.687 180.476 103.192C183.214 100.697 181.751 107.452 177.171 108.193C172.591 108.935 165.01 108.901 165.01 108.901Z" fill="white"/>
<path d="M70.3892 146.536C68.9941 146.703 67.6219 146.846 66.3012 146.95H66.0953C63.997 138.678 66.467 133.556 68.0965 131.268C69.4801 131.145 70.9153 131.086 72.4018 131.09H72.4647H72.9278C71.2983 133.251 68.5939 138.235 70.3892 146.536Z" fill="#323031"/>
<path d="M173.975 156.452H143.923C143.693 156.457 143.465 156.412 143.255 156.319C143.044 156.226 142.857 156.088 142.705 155.914C142.554 155.74 142.442 155.535 142.378 155.313C142.314 155.092 142.298 154.858 142.334 154.63L147.874 109.102C147.945 108.606 148.189 108.152 148.561 107.819C148.934 107.487 149.411 107.298 149.909 107.285H179.944C180.174 107.278 180.402 107.322 180.613 107.414C180.824 107.506 181.012 107.644 181.164 107.817C181.316 107.991 181.428 108.196 181.492 108.418C181.555 108.64 181.57 108.873 181.533 109.102L175.993 154.63C175.923 155.124 175.683 155.577 175.314 155.91C174.945 156.244 174.471 156.435 173.975 156.452V156.452Z" fill="#28282A"/>
<path d="M179.121 110.688L174.169 151.359C174.107 151.795 173.893 152.195 173.566 152.488C173.238 152.78 172.818 152.947 172.38 152.957H146.37C146.168 152.963 145.967 152.924 145.782 152.843C145.596 152.762 145.431 152.641 145.297 152.488C145.164 152.336 145.065 152.155 145.008 151.96C144.952 151.765 144.938 151.56 144.97 151.359L149.921 110.688C149.983 110.252 150.197 109.851 150.524 109.557C150.852 109.264 151.272 109.096 151.711 109.084H177.703C177.907 109.077 178.11 109.115 178.297 109.195C178.485 109.276 178.652 109.397 178.788 109.55C178.923 109.704 179.023 109.885 179.081 110.082C179.138 110.279 179.152 110.486 179.121 110.688V110.688Z" fill="white"/>
<path d="M179.121 110.688L178.72 113.953H149.561L149.955 110.688C150.017 110.252 150.231 109.851 150.558 109.557C150.886 109.264 151.306 109.096 151.745 109.084H177.737C177.938 109.082 178.137 109.124 178.32 109.207C178.504 109.289 178.667 109.411 178.798 109.564C178.93 109.717 179.027 109.896 179.083 110.09C179.138 110.285 179.151 110.489 179.121 110.688V110.688Z" fill="#FFD400"/>
<path d="M174.387 149.416L174.152 151.359C174.09 151.795 173.876 152.195 173.549 152.488C173.221 152.78 172.801 152.947 172.363 152.957H146.37C146.168 152.963 145.967 152.924 145.782 152.843C145.596 152.762 145.431 152.641 145.297 152.488C145.164 152.336 145.065 152.156 145.008 151.96C144.952 151.765 144.938 151.56 144.97 151.359L145.21 149.416H174.387Z" fill="#FFD400"/>
<path d="M171.859 130.584H152.843L154.392 117.862H173.409L171.859 130.584Z" fill="#C6C6C6"/>
<path d="M152.448 134.493H171.471L170.802 139.96H151.785L152.448 134.493Z" fill="#C6C6C6"/>
<path d="M170.127 144.553H162.202L162.471 142.328H170.396L170.127 144.553Z" fill="#28282A"/>
<path d="M159.143 144.553H151.219L151.488 142.328H159.412L159.143 144.553Z" fill="#C6C6C6"/>
<path d="M180.413 119.823C178.36 120.714 178.698 123.042 180.613 122.415C182.528 121.789 182.443 118.932 180.413 119.823Z" fill="white"/>
<path d="M180.893 112.522C178.252 113.953 179.361 116.5 181.854 115.396C184.347 114.293 183.489 111.091 180.893 112.522Z" fill="white"/>
<path d="M180.693 108.843C178.057 110.274 179.161 112.815 181.654 111.717C184.146 110.619 183.295 107.406 180.693 108.843Z" fill="white"/>
<path d="M180.573 116.27C177.937 117.701 179.046 120.248 181.539 119.144C184.032 118.041 183.174 114.839 180.573 116.27Z" fill="white"/>
<path d="M173.941 266.002V269.019H129.624C129.235 268.049 128.961 267.036 128.806 266.002C128.057 261.437 128.703 255.183 130.475 251.544C130.68 251.121 131.027 250.783 131.455 250.591C131.882 250.399 132.363 250.364 132.814 250.492L142.014 253.108C142.608 253.276 143.233 253.305 143.841 253.192C144.449 253.08 145.022 252.828 145.518 252.458L149.235 249.664C149.635 249.452 150.082 249.345 150.534 249.354C150.986 249.363 151.428 249.488 151.819 249.716L170.95 260.793C171.859 261.322 172.614 262.081 173.139 262.995C173.664 263.909 173.94 264.946 173.941 266.002V266.002Z" fill="#FFD746"/>
<path d="M173.941 266.002V269.019H129.624C129.235 268.049 128.961 267.036 128.806 266.002C128.057 261.437 128.703 255.183 130.475 251.544C130.68 251.121 131.027 250.783 131.455 250.591C131.882 250.399 132.363 250.364 132.814 250.492L142.014 253.108C142.608 253.276 143.233 253.305 143.841 253.192C144.449 253.08 145.022 252.828 145.518 252.458L149.235 249.664C149.635 249.452 150.082 249.345 150.534 249.354C150.986 249.363 151.428 249.488 151.819 249.716L170.95 260.793C171.859 261.322 172.614 262.081 173.139 262.995C173.664 263.909 173.94 264.946 173.941 266.002V266.002Z" fill="#FFD400"/>
<path d="M173.941 266.001V269.353H129.715C129.296 268.271 128.991 267.148 128.806 266.001H173.941Z" fill="white"/>
<path d="M70.0977 183.171C69.3372 187.304 67.0559 191.075 63.694 194.162C63.1222 194.691 62.5047 195.203 61.8586 195.691C56.4155 199.848 48.8111 202.423 40.4062 202.423C32.0014 202.423 24.397 199.848 18.9538 195.691C18.3077 195.203 17.696 194.691 17.1128 194.162C13.7565 191.075 11.4752 187.304 10.7148 183.171H70.0977Z" fill="white"/>
<path d="M70.0977 183.171C69.3372 187.304 67.0559 191.075 63.694 194.162C63.1222 194.691 62.5047 195.203 61.8586 195.691C56.4155 199.848 48.8111 202.423 40.4062 202.423C32.0014 202.423 24.397 199.848 18.9538 195.691C18.3077 195.203 17.696 194.691 17.1128 194.162C13.7565 191.075 11.4752 187.304 10.7148 183.171H70.0977Z" fill="url(#paint12_linear)"/>
<path d="M72.1331 178.377H6.30081V186.402H72.1331V178.377Z" fill="#323031"/>
<path d="M55.695 269.307H25.5119L31.5496 260.604H49.6573L55.695 269.307Z" fill="#4E4E4E"/>
<path d="M72.1331 170.766H26.8727V178.377H72.1331V170.766Z" fill="#FFD400"/>
<path d="M3.68784 160.976C3.68784 161.246 3.68784 161.517 3.68784 161.787C3.68784 166.263 5.45645 170.556 8.60459 173.721C11.7527 176.886 16.0225 178.664 20.4747 178.664C24.9268 178.664 29.1966 176.886 32.3448 173.721C35.4929 170.556 37.2615 166.263 37.2615 161.787C37.2615 161.518 37.2615 161.248 37.2615 160.976H3.68784Z" fill="#D6B391"/>
<path d="M3.68784 160.976C3.68784 161.246 3.68784 161.517 3.68784 161.787C3.68784 166.263 5.45645 170.556 8.60459 173.721C11.7527 176.886 16.0225 178.664 20.4747 178.664C24.9268 178.664 29.1966 176.886 32.3448 173.721C35.4929 170.556 37.2615 166.263 37.2615 161.787C37.2615 161.518 37.2615 161.248 37.2615 160.976H3.68784Z" fill="url(#paint13_linear)"/>
<path d="M23.8823 130.9C24.3813 130.9 24.7857 130.493 24.7857 129.992C24.7857 129.49 24.3813 129.083 23.8823 129.083C23.3834 129.083 22.979 129.49 22.979 129.992C22.979 130.493 23.3834 130.9 23.8823 130.9Z" fill="#CFCCCC"/>
<path d="M32.5273 136.821C33.0263 136.821 33.4307 136.414 33.4307 135.913C33.4307 135.411 33.0263 135.005 32.5273 135.005C32.0284 135.005 31.624 135.411 31.624 135.913C31.624 136.414 32.0284 136.821 32.5273 136.821Z" fill="#CFCCCC"/>
<path d="M25.5576 146.024C26.0565 146.024 26.4609 145.618 26.4609 145.116C26.4609 144.615 26.0565 144.208 25.5576 144.208C25.0586 144.208 24.6542 144.615 24.6542 145.116C24.6542 145.618 25.0586 146.024 25.5576 146.024Z" fill="#CFCCCC"/>
<path d="M10.1029 147.628C10.6019 147.628 11.0063 147.222 11.0063 146.72C11.0063 146.218 10.6019 145.812 10.1029 145.812C9.60401 145.812 9.19955 146.218 9.19955 146.72C9.19955 147.222 9.60401 147.628 10.1029 147.628Z" fill="white"/>
<path d="M15.3517 123.795C15.8507 123.795 16.2551 123.388 16.2551 122.887C16.2551 122.385 15.8507 121.978 15.3517 121.978C14.8528 121.978 14.4484 122.385 14.4484 122.887C14.4484 123.388 14.8528 123.795 15.3517 123.795Z" fill="white"/>
<path d="M38.7824 150.451C39.2813 150.451 39.6858 150.044 39.6858 149.542C39.6858 149.041 39.2813 148.634 38.7824 148.634C38.2835 148.634 37.879 149.041 37.879 149.542C37.879 150.044 38.2835 150.451 38.7824 150.451Z" fill="white"/>
<path d="M20.326 155.245C20.8249 155.245 21.2294 154.838 21.2294 154.337C21.2294 153.835 20.8249 153.428 20.326 153.428C19.8271 153.428 19.4226 153.835 19.4226 154.337C19.4226 154.838 19.8271 155.245 20.326 155.245Z" fill="white"/>
<path d="M39.6858 159.643H1.53235V165.908H39.6858V159.643Z" fill="#323031"/>
<path d="M88.0623 72.3629C88.9591 72.3629 89.6861 71.632 89.6861 70.7304C89.6861 69.8287 88.9591 69.0978 88.0623 69.0978C87.1655 69.0978 86.4385 69.8287 86.4385 70.7304C86.4385 71.632 87.1655 72.3629 88.0623 72.3629Z" fill="#FFD400"/>
<path d="M108.331 69.9314C108.566 70.8396 107.331 71.173 107.028 71.472C106.725 71.7709 107.851 72.0468 109.132 70.7591C109.938 69.9486 106.793 64.5508 106.399 64.7807C106.004 65.0106 107.594 67.0629 108.331 69.9314Z" fill="#231F20"/>
<path d="M72.1388 171.99H52.3331V176.905H72.1388V171.99Z" fill="white"/>
<path d="M50.6864 170.766H26.8727V178.377H50.6864V170.766Z" fill="#FFD746"/>
<path d="M50.6864 170.766H26.8727V178.377H50.6864V170.766Z" fill="#FFD400"/>
<path d="M367.916 21H315.211H262.512V62.8089V104.629V146.438H315.211H367.916H420.616V104.629V62.8089V21H367.916Z" fill="#CFCCCC"/>
<path d="M367.916 21H315.211H262.512V62.8089V104.629V146.438H315.211H367.916H420.616V104.629V62.8089V21H367.916Z" fill="url(#paint14_radial)"/>
<path d="M367.916 21H315.211V58.7045H367.916V21Z" fill="#D6B391"/>
<path d="M315.211 21H262.512V58.7045H315.211V21Z" fill="#D6B391"/>
<path d="M420.616 21H367.916V58.7045H420.616V21Z" fill="#D6B391"/>
<path d="M420.616 58.7045H367.916V96.4147H420.616V58.7045Z" fill="#D6B391"/>
<path d="M367.916 58.7045H315.211V96.4147H367.916V58.7045Z" fill="#D6B391"/>
<path d="M315.211 58.7045H262.512V96.4147H315.211V58.7045Z" fill="#D6B391"/>
<path d="M315.211 96.4089H262.512V134.113H315.211V96.4089Z" fill="#D6B391"/>
<path d="M367.916 96.4089H315.211V134.113H367.916V96.4089Z" fill="#D6B391"/>
<path d="M420.616 96.4089H367.916V134.113H420.616V96.4089Z" fill="#D6B391"/>
<path d="M420.616 21H367.916V58.7045H420.616V21Z" fill="#D6B391"/>
<path d="M367.916 21H315.211V58.7045H367.916V21Z" fill="#CFCCCC"/>
<path d="M367.916 21H315.211V58.7045H367.916V21Z" fill="white"/>
<path d="M315.211 21H262.512V58.7045H315.211V21Z" fill="white"/>
<path d="M315.211 21V47.2132C294.922 50.2484 272.68 41.1428 272.68 21H315.211Z" fill="white"/>
<path d="M315.211 47.2132V58.7102H262.512V21H278.275C278.275 41.1428 294.922 50.2484 315.211 47.2132Z" fill="#4E4E4E"/>
<path d="M420.616 58.7045H367.916V96.4147H420.616V58.7045Z" fill="white"/>
<path d="M420.616 58.7045H367.916V96.4147H420.616V58.7045Z" fill="#4E4E4E"/>
<path d="M367.916 58.7045H315.211V96.4147H367.916V58.7045Z" fill="#D6B391"/>
<path d="M315.211 58.7045H262.512V96.4147H315.211V58.7045Z" fill="white"/>
<path d="M315.211 96.4089H262.512V134.113H315.211V96.4089Z" fill="#4E4E4E"/>
<path d="M367.916 96.4089H315.211V134.113H367.916V96.4089Z" fill="white"/>
<path d="M420.616 96.4089H367.916V134.113H420.616V96.4089Z" fill="#D6B391"/>
<path d="M420.616 58.7045V96.4262C400.292 96.4262 386.055 88.5565 373.494 66.6547C371.986 64.0276 370.153 61.0154 367.916 58.7505V58.7217L420.616 58.7045Z" fill="white"/>
<path d="M367.922 21V58.7045C355.46 46.0922 332.442 44.6379 315.246 47.2074V21H367.922Z" fill="#4E4E4E"/>
<path d="M288.986 96.4262H262.512V70.098C265.989 70.0973 269.432 70.7778 272.644 72.1006C275.856 73.4234 278.775 75.3627 281.234 77.8077C283.692 80.2526 285.642 83.1553 286.972 86.3499C288.302 89.5446 288.987 92.9685 288.986 96.4262V96.4262Z" fill="#D6B391"/>
<path d="M420.616 21H367.916V58.7045H420.616V21Z" fill="url(#paint15_linear)"/>
<path d="M367.916 58.7045H315.211V96.4147H367.916V58.7045Z" fill="url(#paint16_linear)"/>
<path d="M420.616 96.4089H367.916V134.113H420.616V96.4089Z" fill="url(#paint17_linear)"/>
<path d="M288.986 96.4262H262.512V70.098C265.989 70.0973 269.432 70.7778 272.644 72.1006C275.856 73.4234 278.775 75.3627 281.234 77.8077C283.692 80.2526 285.642 83.1553 286.972 86.3499C288.302 89.5446 288.987 92.9685 288.986 96.4262V96.4262Z" fill="url(#paint18_linear)"/>
<path d="M384.573 176.147C384.573 176.147 392.852 171.819 402.057 178.171C411.263 184.523 411.297 202.562 411.297 202.562L400.874 188.857L384.573 176.147Z" fill="#323031"/>
<path d="M459.92 222.975C459.747 225.259 459.73 227.552 459.868 229.839C459.871 229.856 459.871 229.873 459.868 229.89C455.343 225.146 450.305 220.925 444.848 217.307L445.42 206.592C451.366 206.592 460.977 207.385 459.92 222.975Z" fill="#FFD400"/>
<path d="M407.804 220.026L406.66 219.221C405.842 216.715 404.11 213.346 401.326 217.014C401.12 217.29 400.929 217.577 400.754 217.876C400.734 217.905 400.717 217.936 400.702 217.968V217.968C400.468 218.359 400.211 218.796 399.959 219.296C391.669 235.449 380.759 242.865 379.707 243.566L379.627 243.623C367.62 220.279 373.658 208.184 381.445 206.103C389.233 204.022 392.252 208.184 392.252 208.184C399.622 206.678 405.522 208.184 408.587 212.972C408.614 213.009 408.638 213.048 408.661 213.087C408.67 213.094 408.677 213.103 408.681 213.113C408.686 213.123 408.689 213.134 408.69 213.145C408.724 213.202 408.747 213.26 408.781 213.329C408.907 213.581 408.987 213.853 409.016 214.134C409.033 214.209 409.044 214.286 409.05 214.364C409.199 216.123 408.393 218.543 407.804 220.026Z" fill="#FFD400"/>
<path d="M409.753 223.348C408.77 218.859 403.647 217.692 400.674 217.991C403.207 214.093 406.391 211.61 408.015 212.495C408.535 212.777 410.874 215.979 410.76 227.309C410.754 227.602 409.793 222.992 409.753 223.348Z" fill="#323031"/>
<path d="M411.28 202.55C410.497 201.401 407.987 198.797 401.423 198.222C390.702 197.267 383.795 189.863 381.594 182.672C381.336 181.815 381.001 180.984 380.594 180.189C378.227 175.688 375.316 174.797 369.21 178.28C372.069 176.354 379.364 172.997 390.851 178.389C405.545 185.282 407.472 195.945 411.28 202.55Z" fill="#FFD400"/>
<path d="M411.571 203.028C411.476 202.878 411.385 202.723 411.297 202.562C411.402 202.709 411.494 202.865 411.571 203.028V203.028Z" fill="#FFD746"/>
<path d="M459.919 229.954C459.902 229.934 459.887 229.913 459.874 229.89C455.349 225.146 450.311 220.925 444.854 217.307C439.301 213.545 433.358 210.401 427.129 207.931C427.129 207.931 430.903 198.831 439.965 202.476C441.738 203.183 443.573 204.666 445.391 206.592C452.492 214.122 459.199 228.436 459.851 229.839L459.919 229.954Z" fill="#323031"/>
<path d="M411.857 253.425C411.857 228.177 409.525 218.813 409.525 218.813" stroke="#323031" stroke-width="1.1" stroke-miterlimit="10"/>
<path d="M430.268 204.057C430.268 204.057 414.202 219.986 414.202 255.793" stroke="#323031" stroke-width="1.1" stroke-miterlimit="10"/>
<path d="M424.591 228.459C417.918 230.695 413.207 242.974 413.207 255.793" stroke="#323031" stroke-width="1.1" stroke-miterlimit="10"/>
<path d="M429.062 227.154C434.865 225.462 441.082 225.952 446.552 228.534C455.757 232.868 455.791 245.204 455.791 245.204L429.062 227.154Z" fill="#323031"/>
<path d="M455.774 245.193C451.892 242.405 446.975 243.313 439.073 241.129C431.171 238.944 426.734 227.792 421.589 229.781C423.596 228.212 426.054 226.573 429.067 226.573C441.16 226.55 450.851 235.783 455.774 245.193Z" fill="#FFD400"/>
<path d="M428.964 263.249C428.964 268.911 422.315 273.498 414.099 273.498C405.883 273.498 399.233 268.9 399.233 263.249C399.233 260.662 400.634 258.294 402.932 256.489H425.231C427.569 258.294 428.964 260.662 428.964 263.249Z" fill="#FFD400"/>
<path d="M379.679 243.566L379.599 243.623C367.592 220.279 373.63 208.184 381.417 206.103C389.204 204.022 392.223 208.184 392.223 208.184C380.571 211.277 377.889 225.493 379.679 243.566Z" fill="#323031"/>
<path d="M408.798 195.066C408.798 195.066 416.3 206.948 412.967 253.701" stroke="#323031" stroke-width="1.1" stroke-miterlimit="10"/>
<path d="M402.961 256.489V253.212H425.368V256.489H402.961Z" fill="#28282A"/>
<path d="M426.203 273.343C429.162 273.343 431.56 270.932 431.56 267.957C431.56 264.982 429.162 262.571 426.203 262.571C423.244 262.571 420.845 264.982 420.845 267.957C420.845 270.932 423.244 273.343 426.203 273.343Z" fill="#4E4E4E"/>
<path d="M437.752 273.142H392.721" stroke="#28282A" stroke-width="2.11" stroke-miterlimit="10"/>
<path d="M380.594 180.189C378.066 175.561 368.249 179.188 367.872 179.326C368.285 178.939 368.73 178.589 369.204 178.28V178.28C375.316 174.797 378.238 175.688 380.594 180.189Z" fill="#323031"/>
<defs>
<linearGradient id="paint0_linear" x1="2281.33" y1="3335.83" x2="1851.1" y2="3082.85" gradientUnits="userSpaceOnUse">
<stop stop-color="#808080"/>
<stop offset="1" stop-color="#D0D0D0" stop-opacity="0"/>
</linearGradient>
<linearGradient id="paint1_linear" x1="2113.45" y1="3553.4" x2="2605.03" y2="3553.4" gradientUnits="userSpaceOnUse">
<stop stop-color="#808080"/>
<stop offset="1" stop-color="#D0D0D0" stop-opacity="0"/>
</linearGradient>
<linearGradient id="paint2_linear" x1="1681.18" y1="14061.6" x2="2275.16" y2="13835.5" gradientUnits="userSpaceOnUse">
<stop stop-color="#808080"/>
<stop offset="1" stop-color="#D0D0D0" stop-opacity="0"/>
</linearGradient>
<linearGradient id="paint3_linear" x1="1785.76" y1="7845.98" x2="1495.61" y2="7215.08" gradientUnits="userSpaceOnUse">
<stop stop-color="#808080"/>
<stop offset="1" stop-color="#D0D0D0" stop-opacity="0"/>
</linearGradient>
<linearGradient id="paint4_linear" x1="99.4518" y1="180.912" x2="134.707" y2="136.028" gradientUnits="userSpaceOnUse">
<stop stop-color="#896F5D"/>
<stop offset="1" stop-color="#A38671" stop-opacity="0"/>
</linearGradient>
<linearGradient id="paint5_linear" x1="12486.6" y1="7357.9" x2="15273" y2="17036.6" gradientUnits="userSpaceOnUse">
<stop stop-color="#896F5D"/>
<stop offset="1" stop-color="#A38671" stop-opacity="0"/>
</linearGradient>
<radialGradient id="paint6_radial" cx="0" cy="0" r="1" gradientUnits="userSpaceOnUse" gradientTransform="translate(3738.7 1823.03) scale(316.289 281.581)">
<stop stop-color="#808080"/>
<stop offset="1" stop-color="#D0D0D0" stop-opacity="0"/>
</radialGradient>
<radialGradient id="paint7_radial" cx="0" cy="0" r="1" gradientUnits="userSpaceOnUse" gradientTransform="translate(7790.11 9190.18) scale(1749.64 2094.35)">
<stop stop-color="#F9BE50"/>
<stop offset="0.98" stop-color="#FFD746" stop-opacity="0"/>
</radialGradient>
<radialGradient id="paint8_radial" cx="0" cy="0" r="1" gradientUnits="userSpaceOnUse" gradientTransform="translate(67.9993 151.669) scale(115.827 116.453)">
<stop stop-color="#323031" stop-opacity="0.98"/>
<stop offset="1" stop-color="#4E4E4E" stop-opacity="0"/>
</radialGradient>
<linearGradient id="paint9_linear" x1="52.1902" y1="218.732" x2="94.0985" y2="108.993" gradientUnits="userSpaceOnUse">
<stop stop-color="#907562"/>
<stop offset="0.08" stop-color="#937764" stop-opacity="0.87"/>
<stop offset="0.29" stop-color="#987D69" stop-opacity="0.56"/>
<stop offset="0.5" stop-color="#9D816C" stop-opacity="0.32"/>
<stop offset="0.69" stop-color="#A0846F" stop-opacity="0.14"/>
<stop offset="0.86" stop-color="#A28570" stop-opacity="0.04"/>
<stop offset="1" stop-color="#A38671" stop-opacity="0"/>
</linearGradient>
<radialGradient id="paint10_radial" cx="0" cy="0" r="1" gradientUnits="userSpaceOnUse" gradientTransform="translate(127.971 52.9273) scale(146.748 147.541)">
<stop offset="0.22" stop-color="#D6B391"/>
<stop offset="0.47" stop-color="#D6B391" stop-opacity="0.99"/>
<stop offset="0.58" stop-color="#D4B190" stop-opacity="0.96"/>
<stop offset="0.66" stop-color="#D1AE8E" stop-opacity="0.9"/>
<stop offset="0.74" stop-color="#CCAB8B" stop-opacity="0.81"/>
<stop offset="0.8" stop-color="#C7A687" stop-opacity="0.7"/>
<stop offset="0.85" stop-color="#C0A083" stop-opacity="0.57"/>
<stop offset="0.91" stop-color="#B8987E" stop-opacity="0.41"/>
<stop offset="0.95" stop-color="#AE9078" stop-opacity="0.22"/>
<stop offset="1" stop-color="#A38671" stop-opacity="0"/>
</radialGradient>
<radialGradient id="paint11_radial" cx="0" cy="0" r="1" gradientUnits="userSpaceOnUse" gradientTransform="translate(4213.73 2789.32) scale(685.302 514.92)">
<stop stop-color="#808080"/>
<stop offset="1" stop-color="#D0D0D0" stop-opacity="0"/>
</radialGradient>
<linearGradient id="paint12_linear" x1="8466.25" y1="6291.36" x2="8466.25" y2="6967.87" gradientUnits="userSpaceOnUse">
<stop stop-color="#808080"/>
<stop offset="1" stop-color="#D0D0D0" stop-opacity="0"/>
</linearGradient>
<linearGradient id="paint13_linear" x1="3612.52" y1="6058.03" x2="3612.52" y2="5227.21" gradientUnits="userSpaceOnUse">
<stop stop-color="#907562"/>
<stop offset="0.08" stop-color="#937764" stop-opacity="0.87"/>
<stop offset="0.29" stop-color="#987D69" stop-opacity="0.56"/>
<stop offset="0.5" stop-color="#9D816C" stop-opacity="0.32"/>
<stop offset="0.69" stop-color="#A0846F" stop-opacity="0.14"/>
<stop offset="0.86" stop-color="#A28570" stop-opacity="0.04"/>
<stop offset="1" stop-color="#A38671" stop-opacity="0"/>
</linearGradient>
<radialGradient id="paint14_radial" cx="0" cy="0" r="1" gradientUnits="userSpaceOnUse" gradientTransform="translate(162.813 140.994) scale(316.473 314.731)">
<stop stop-color="#808080"/>
<stop offset="1" stop-color="#D0D0D0" stop-opacity="0"/>
</radialGradient>
<linearGradient id="paint15_linear" x1="35338.1" y1="15683.4" x2="35338.1" y2="-2250.69" gradientUnits="userSpaceOnUse">
<stop stop-color="#907562"/>
<stop offset="0.08" stop-color="#937764" stop-opacity="0.87"/>
<stop offset="0.29" stop-color="#987D69" stop-opacity="0.56"/>
<stop offset="0.5" stop-color="#9D816C" stop-opacity="0.32"/>
<stop offset="0.69" stop-color="#A0846F" stop-opacity="0.14"/>
<stop offset="0.86" stop-color="#A28570" stop-opacity="0.04"/>
<stop offset="1" stop-color="#A38671" stop-opacity="0"/>
</linearGradient>
<linearGradient id="paint16_linear" x1="30483.6" y1="15723.5" x2="30483.6" y2="-2213.33" gradientUnits="userSpaceOnUse">
<stop stop-color="#907562"/>
<stop offset="0.08" stop-color="#937764" stop-opacity="0.87"/>
<stop offset="0.29" stop-color="#987D69" stop-opacity="0.56"/>
<stop offset="0.5" stop-color="#9D816C" stop-opacity="0.32"/>
<stop offset="0.69" stop-color="#A0846F" stop-opacity="0.14"/>
<stop offset="0.86" stop-color="#A28570" stop-opacity="0.04"/>
<stop offset="1" stop-color="#A38671" stop-opacity="0"/>
</linearGradient>
<linearGradient id="paint17_linear" x1="35338.1" y1="15758.8" x2="35338.1" y2="-2175.28" gradientUnits="userSpaceOnUse">
<stop stop-color="#907562"/>
<stop offset="0.08" stop-color="#937764" stop-opacity="0.87"/>
<stop offset="0.29" stop-color="#987D69" stop-opacity="0.56"/>
<stop offset="0.5" stop-color="#9D816C" stop-opacity="0.32"/>
<stop offset="0.69" stop-color="#A0846F" stop-opacity="0.14"/>
<stop offset="0.86" stop-color="#A28570" stop-opacity="0.04"/>
<stop offset="1" stop-color="#A38671" stop-opacity="0"/>
</linearGradient>
<linearGradient id="paint18_linear" x1="12401.9" y1="11006.8" x2="12401.9" y2="-1516.17" gradientUnits="userSpaceOnUse">
<stop stop-color="#907562"/>
<stop offset="0.08" stop-color="#937764" stop-opacity="0.87"/>
<stop offset="0.29" stop-color="#987D69" stop-opacity="0.56"/>
<stop offset="0.5" stop-color="#9D816C" stop-opacity="0.32"/>
<stop offset="0.69" stop-color="#A0846F" stop-opacity="0.14"/>
<stop offset="0.86" stop-color="#A28570" stop-opacity="0.04"/>
<stop offset="1" stop-color="#A38671" stop-opacity="0"/>
</linearGradient>
</defs>
</svg>
