<svg width="460" height="300" viewBox="0 0 460 300" fill="none" xmlns="http://www.w3.org/2000/svg">
<path d="M320 0H0V300H320V0Z" fill="#F4ECE9"/>
<path d="M455.141 26.6034H143.841V274H455.141V26.6034Z" fill="white"/>
<path d="M449.339 27.4908H149.643V268.9H449.339V27.4908Z" fill="#353535"/>
<path d="M449.339 27.4908H149.643V268.9H449.339V27.4908Z" fill="url(#paint0_linear)"/>
<path d="M149.838 27.4908L189.621 69.829V268.9H149.838V27.4908Z" fill="#4E4E4E"/>
<path d="M258.237 156.002L287.701 268.9H280.602L253.373 164.546L251.468 157.262L255.472 156.517L258.237 156.002Z" fill="#A38671"/>
<path d="M269.051 184.626H211.715V189.608H269.051V184.626Z" fill="white"/>
<path d="M228.555 184.626H211.715V189.608H228.555V184.626Z" fill="#CFCCCC"/>
<path d="M278.208 212.942H220.872V217.924H278.208V212.942Z" fill="white"/>
<path d="M237.712 212.942H220.872V217.924H237.712V212.942Z" fill="#CFCCCC"/>
<path d="M283.969 243.714H227.269V248.754H283.969V243.714Z" fill="white"/>
<path d="M242.842 243.714H227.269V248.754H242.842V243.714Z" fill="#CFCCCC"/>
<path d="M238.514 268.9H231.414L205.299 168.74L204.763 166.705L202.864 159.422L206.862 158.676L207.086 158.629L209.633 158.162L238.514 268.9Z" fill="#A38671"/>
<path d="M207.552 156.002L207.086 158.629L205.299 168.74L187.545 268.9H180.446L200.464 155.99L207.552 156.002Z" fill="#A38671"/>
<path d="M201.974 156.002L207.227 176.142L213.66 173.615L209.067 156.002H201.974Z" fill="#A38671"/>
<path d="M261.993 156.002H197.145V162.865H261.993V156.002Z" fill="white"/>
<path d="M213.66 156.002H197.145V162.865H213.66V156.002Z" fill="#CFCCCC"/>
<path d="M449.145 27.4908L409.356 67.9594V268.9H449.145V27.4908Z" fill="#4E4E4E"/>
<path d="M385.658 131.632H314.147V268.9H385.658V131.632Z" fill="#A38671"/>
<path d="M385.658 131.632H314.147V268.9H385.658V131.632Z" fill="url(#paint1_linear)"/>
<path d="M187.917 69.9058H411.06L425.294 55.6235L293.981 51.0205L173.683 55.6235L187.917 69.9058Z" fill="#28282A"/>
<path d="M390.552 247.589C390.541 247.956 390.444 248.316 390.27 248.64C390.096 248.963 389.85 249.241 389.55 249.453C387.392 250.914 385.157 253.091 382.757 255.464L381.118 257.067C380.835 257.343 380.552 257.615 380.269 257.884C379.992 258.162 379.679 258.434 379.408 258.7L379.373 258.742C379.119 258.984 378.848 259.233 378.588 259.469C375.558 262.262 372.208 264.93 368.376 266.711C368.223 266.794 368.057 266.859 367.898 266.93L367.208 267.226C366.019 267.709 364.792 268.094 363.541 268.379C363.298 268.439 363.052 268.487 362.804 268.521C362.35 268.61 361.896 268.687 361.43 268.746L361.017 268.788C360.846 268.788 360.669 268.817 360.492 268.823C360.203 268.859 359.903 268.87 359.62 268.888H358.812H321.181H320.373L319.754 268.853C319.61 268.849 319.466 268.838 319.324 268.817H319.005L318.569 268.77C317.891 268.687 317.236 268.586 316.6 268.444C316.488 268.444 316.381 268.403 316.275 268.373L315.78 268.255L315.391 268.149C315.226 268.107 315.066 268.066 314.913 268.013C313.798 267.678 312.711 267.252 311.664 266.741L311.075 266.451L310.485 266.125C310.273 266.013 310.072 265.889 309.895 265.77C309.718 265.652 309.441 265.504 309.217 265.362C308.993 265.22 308.887 265.149 308.728 265.037C308.569 264.924 308.339 264.782 308.138 264.64C307.938 264.498 307.761 264.374 307.584 264.238C307.407 264.102 307.224 263.978 307.059 263.841H307.03L306.44 263.356C306.257 263.208 306.08 263.066 305.909 262.919C305.738 262.771 305.561 262.629 305.385 262.463C304.671 261.871 303.987 261.203 303.321 260.546L302.926 260.15C300.874 258.079 299.034 255.913 297.307 253.967C297.094 253.736 296.888 253.5 296.676 253.281L296.015 252.565C295.526 252.044 295.036 251.547 294.553 251.08C294.388 250.92 294.229 250.766 294.064 250.618C293.898 250.47 293.639 250.234 293.421 250.056L292.796 249.553C292.516 249.319 292.294 249.024 292.146 248.69C291.997 248.356 291.927 247.993 291.939 247.628C291.952 247.263 292.047 246.906 292.218 246.583C292.389 246.261 292.631 245.981 292.925 245.767C299.612 241.252 307.018 229.792 318.422 226.952C320.145 226.519 321.916 226.298 323.693 226.296H361.341C363.652 226.292 365.949 226.657 368.146 227.378C378.376 230.757 383.954 241.181 389.638 245.601C389.936 245.837 390.174 246.14 390.333 246.485C390.492 246.831 390.567 247.209 390.552 247.589Z" fill="white"/>
<path d="M390.546 247.589C390.541 247.958 390.447 248.32 390.273 248.644C390.098 248.969 389.848 249.246 389.544 249.453C387.392 250.914 385.163 253.091 382.751 255.464L381.118 257.067C380.835 257.343 380.552 257.615 380.269 257.884C379.992 258.162 379.679 258.434 379.414 258.7L379.373 258.742L378.588 259.475C375.558 262.262 372.209 264.93 368.382 266.711L367.904 266.93C367.674 267.036 367.438 267.131 367.208 267.226C366.02 267.712 364.793 268.098 363.541 268.379C363.299 268.433 363.051 268.486 362.804 268.527C362.35 268.61 361.896 268.687 361.43 268.746L361.017 268.788C360.846 268.788 360.669 268.823 360.492 268.829C360.203 268.859 359.903 268.87 359.614 268.882C359.325 268.894 359.083 268.882 358.818 268.882H321.181C320.916 268.882 320.639 268.882 320.367 268.882C320.096 268.882 319.955 268.882 319.778 268.847H319.595H319.347L319.035 268.817L318.593 268.77C317.931 268.696 317.274 268.587 316.623 268.445C316.511 268.445 316.399 268.403 316.299 268.374L315.804 268.255L315.414 268.149C315.249 268.107 315.09 268.066 314.937 268.013C313.821 267.678 312.735 267.252 311.688 266.741L311.098 266.457C310.886 266.35 310.686 266.238 310.479 266.125C310.273 266.013 310.072 265.889 309.89 265.77C309.707 265.652 309.435 265.504 309.217 265.362L308.716 265.031C308.522 264.906 308.333 264.782 308.126 264.64L307.566 264.238C307.389 264.114 307.213 263.978 307.042 263.847L306.44 263.356C306.257 263.208 306.08 263.066 305.909 262.919L305.385 262.469C304.671 261.848 303.987 261.203 303.321 260.546L302.926 260.15C300.868 258.079 299.04 255.913 297.301 253.967C297.094 253.73 296.882 253.5 296.676 253.275C296.469 253.05 296.239 252.79 296.015 252.565C295.526 252.038 295.036 251.547 294.553 251.074L294.064 250.618C293.845 250.423 293.639 250.228 293.421 250.056C293.209 249.879 293.008 249.713 292.796 249.559C292.507 249.328 292.279 249.03 292.13 248.691C291.981 248.352 291.916 247.982 291.941 247.613L390.546 247.589Z" fill="url(#paint2_linear)"/>
<path d="M331.447 226.278V238.543H318.41V226.935C320.134 226.501 321.904 226.28 323.681 226.278H331.447Z" fill="#4E4E4E"/>
<path d="M368.134 227.361V238.01H341.229V226.296H361.866C364.002 226.292 366.122 226.659 368.134 227.378V227.361Z" fill="#CFCCCC"/>
<path d="M368.311 203.139H341.235V268.9H368.311H432.022V203.139H368.311Z" fill="#D6B391"/>
<path d="M408.925 203.139H399.108V268.9H408.925H432.022V203.139H408.925Z" fill="#A38671"/>
<path d="M408.925 203.139H399.108H368.311H341.235V268.9H368.311H399.108H408.925H432.022V203.139H408.925Z" fill="url(#paint3_linear)"/>
<path d="M457.435 33.9753H141.547V48.2577H457.435V33.9753Z" fill="white"/>
<path opacity="0.48" d="M457.435 33.9753H141.547V48.2577H457.435V33.9753Z" fill="url(#paint4_linear)"/>
<path d="M363.376 203.139H419.409V166.238H363.376V203.139Z" fill="white"/>
<path d="M363.376 203.139H419.409V166.238H363.376V203.139Z" fill="url(#paint5_linear)"/>
<path d="M363.376 203.139H419.409V197.826H363.376V203.139Z" fill="#4E4E4E"/>
<path d="M384.001 174.237H398.778C399.458 174.237 400.01 173.683 400.01 173C400.01 172.317 399.458 171.764 398.778 171.764H384.001C383.321 171.764 382.769 172.317 382.769 173C382.769 173.683 383.321 174.237 384.001 174.237Z" fill="#28282A"/>
<path d="M377.215 203.139H363.411V221.917H377.215V203.139Z" fill="white"/>
<path d="M345.286 142.128H326.193V161.286H345.286V142.128Z" fill="white"/>
<path d="M454.929 36.2354H138.139V50.4349H454.929V36.2354Z" fill="#EFEFEF"/>
<path d="M454.929 50.4348H138.139V64.6343H454.929V50.4348Z" fill="white"/>
<path d="M454.929 64.6344H138.139V78.8339H454.929V64.6344Z" fill="#EFEFEF"/>
<path d="M138.139 93.0275V78.828H454.935V93.0275" fill="white"/>
<path opacity="0.85" d="M454.929 64.6344H138.139V78.8339H454.929V64.6344Z" fill="url(#paint6_linear)"/>
<path opacity="0.48" d="M454.929 78.828H138.139V93.0275H454.929V78.828Z" fill="url(#paint7_linear)"/>
<path d="M459.08 78.6445H134V93.2109H459.08V78.6445Z" fill="white"/>
<path opacity="0.48" d="M454.929 36.2354H138.139V50.4349H454.929V36.2354Z" fill="url(#paint8_linear)"/>
<path d="M454.929 50.4348H138.139V64.6343H454.929V50.4348Z" fill="white"/>
<path d="M460 93.0275H134V97.6068H460V93.0275Z" fill="black"/>
<path d="M303.468 83.4073H289.612C288.352 83.4073 287.33 84.4325 287.33 85.697C287.33 86.9616 288.352 87.9867 289.612 87.9867H303.468C304.729 87.9867 305.75 86.9616 305.75 85.697C305.75 84.4325 304.729 83.4073 303.468 83.4073Z" fill="black"/>
<path d="M460 50.9022H134V25H460V50.9022Z" fill="white"/>
<path d="M460 50.9022H134V25H460V50.9022Z" fill="white"/>
<path d="M460 50.9022H134V54.5468H460V50.9022Z" fill="#CFCCCC"/>
<path d="M184.568 210.404H184.562C175.824 210.404 168.742 217.511 168.742 226.278V226.284C168.742 235.051 175.824 242.158 184.562 242.158H184.568C193.305 242.158 200.388 235.051 200.388 226.284V226.278C200.388 217.511 193.305 210.404 184.568 210.404Z" fill="white"/>
<path d="M184.568 210.404H184.562C175.824 210.404 168.742 217.511 168.742 226.278V226.284C168.742 235.051 175.824 242.158 184.562 242.158H184.568C193.305 242.158 200.388 235.051 200.388 226.284V226.278C200.388 217.511 193.305 210.404 184.568 210.404Z" fill="url(#paint9_linear)"/>
<path d="M161.813 268.9V219.415H224.286V268.9" fill="#D6B391"/>
<path d="M161.813 268.9V219.415H224.286V268.9" fill="url(#paint10_linear)"/>
<path d="M161.813 268.9V219.415H180.446V268.9" fill="#A38671"/>
<path d="M204.067 252.955H185.764V264.226H204.067V252.955Z" fill="#FFD400"/>
<path d="M211.679 230.408H191.956C191.739 230.412 191.523 230.373 191.322 230.292C191.12 230.211 190.937 230.091 190.784 229.937C190.63 229.783 190.509 229.6 190.428 229.398C190.346 229.197 190.307 228.98 190.311 228.763C190.307 228.545 190.346 228.328 190.428 228.126C190.509 227.924 190.63 227.741 190.784 227.587C190.937 227.433 191.12 227.311 191.321 227.23C191.523 227.148 191.739 227.108 191.956 227.112H211.679C211.896 227.108 212.112 227.148 212.313 227.23C212.515 227.311 212.698 227.433 212.851 227.587C213.005 227.741 213.126 227.924 213.207 228.126C213.288 228.328 213.328 228.545 213.324 228.763C213.328 228.98 213.288 229.197 213.207 229.398C213.126 229.6 213.005 229.783 212.851 229.937C212.697 230.091 212.514 230.211 212.313 230.292C212.112 230.373 211.896 230.412 211.679 230.408Z" fill="#28282A"/>
<path d="M388.943 242.844V264.303C388.943 265.522 389.425 266.691 390.284 267.554C391.144 268.416 392.309 268.9 393.524 268.9H417.393C419.922 268.9 422.699 266.841 422.192 264.303V231.561C422.192 231.532 422.192 231.508 422.192 231.496C422.173 230.344 421.724 229.241 420.933 228.406C420.143 227.57 419.069 227.062 417.923 226.982H406.437C406.084 226.981 405.734 227.051 405.409 227.187C405.083 227.323 404.787 227.523 404.538 227.775L399.344 233.029H398.754C398.276 233.029 397.802 233.123 397.36 233.307C396.918 233.491 396.516 233.76 396.177 234.099L390.01 240.282C389.334 240.963 388.951 241.883 388.943 242.844ZM408.259 229.396H413.566C413.276 229.945 413.099 230.547 413.046 231.166C412.993 231.785 413.066 232.409 413.259 232.999H403.524L407.31 229.201C407.858 228.68 407.522 229.396 408.259 229.396Z" fill="#28282A"/>
<path d="M387.062 236.732L388.783 238.46L392.203 235.188L389.945 232.922L387.062 236.732Z" fill="#28282A"/>
<path d="M385.658 242.844V264.303C385.658 265.522 386.141 266.691 387 267.554C387.859 268.416 389.025 268.9 390.24 268.9H414.816C416.031 268.9 417.196 268.416 418.055 267.554C418.915 266.691 419.397 265.522 419.397 264.303V231.561C419.397 231.413 419.397 231.265 419.397 231.123V230.993C419.397 230.899 419.397 230.798 419.356 230.703C419.315 230.609 419.356 230.573 419.309 230.502L419.256 230.301C419.256 230.23 419.215 230.159 419.191 230.088C419.167 230.017 419.191 230.029 419.191 229.999C418.889 229.162 418.351 228.43 417.643 227.895C416.934 227.359 416.085 227.042 415.199 226.982H403.642C403.289 226.981 402.94 227.051 402.614 227.187C402.288 227.323 401.992 227.523 401.744 227.775L396.549 233.029H395.476C394.997 233.029 394.523 233.123 394.081 233.307C393.639 233.491 393.237 233.76 392.899 234.099L386.725 240.282C386.048 240.962 385.664 241.882 385.658 242.844ZM405.464 229.396H410.771C410.416 230.062 410.23 230.806 410.228 231.561V232.999H400.735L403.512 230.212C404.03 229.691 404.732 229.398 405.464 229.396Z" fill="#4E4E4E"/>
<path d="M389.451 230.839L384.423 235.884L386.245 237.712L391.273 232.667L389.451 230.839Z" fill="white"/>
<path d="M409.309 243.276H395.747V259.954H409.309V243.276Z" fill="#FFD400"/>
<path d="M208.065 133.171H212.67V127.804H208.065V133.171Z" fill="#4E4E4E"/>
<path d="M216.573 156.038H204.191C203.409 156.038 202.659 155.726 202.106 155.171C201.553 154.617 201.243 153.864 201.243 153.079V138.839C201.243 137.63 201.48 136.434 201.94 135.318C202.401 134.202 203.077 133.187 203.928 132.333C204.779 131.479 205.79 130.801 206.903 130.339C208.015 129.876 209.207 129.638 210.411 129.638C212.843 129.638 215.175 130.608 216.895 132.333C218.614 134.058 219.58 136.399 219.58 138.839V153.079C219.58 153.864 219.27 154.617 218.717 155.171C218.164 155.726 217.414 156.038 216.632 156.038H216.573Z" fill="#4E4E4E"/>
<path d="M216.573 156.038H204.191C203.409 156.038 202.659 155.726 202.106 155.171C201.553 154.617 201.243 153.864 201.243 153.079V138.839C201.243 137.63 201.48 136.434 201.94 135.318C202.401 134.202 203.077 133.187 203.928 132.333C204.779 131.479 205.79 130.801 206.903 130.339C208.015 129.876 209.207 129.638 210.411 129.638C212.843 129.638 215.175 130.608 216.895 132.333C218.614 134.058 219.58 136.399 219.58 138.839V153.079C219.58 153.864 219.27 154.617 218.717 155.171C218.164 155.726 217.414 156.038 216.632 156.038H216.573Z" fill="#4E4E4E"/>
<path d="M216.573 156.038H204.191C203.409 156.038 202.659 155.726 202.106 155.171C201.553 154.617 201.243 153.864 201.243 153.079V138.839C201.243 137.63 201.48 136.434 201.94 135.318C202.401 134.202 203.077 133.187 203.928 132.333C204.779 131.479 205.79 130.801 206.903 130.339C208.015 129.876 209.207 129.638 210.411 129.638C212.843 129.638 215.175 130.608 216.895 132.333C218.614 134.058 219.58 136.399 219.58 138.839V153.079C219.58 153.864 219.27 154.617 218.717 155.171C218.164 155.726 217.414 156.038 216.632 156.038H216.573Z" fill="url(#paint11_linear)"/>
<path d="M207.363 127.804H213.383V126.047H207.363V127.804Z" fill="#FFD400"/>
<path d="M201.207 149.447H212.67V140.318H201.207V149.447Z" fill="#FFD400"/>
<path d="M373.494 131.603H349.908C349.908 128.551 351.117 125.624 353.267 123.466C355.418 121.308 358.335 120.095 361.377 120.095H362.026C365.067 120.095 367.984 121.308 370.135 123.466C372.286 125.624 373.494 128.551 373.494 131.603Z" fill="#FFD400"/>
<path d="M377.792 131.603H349.908V129.869H376.065C376.523 129.869 376.962 130.052 377.286 130.377C377.61 130.702 377.792 131.143 377.792 131.603Z" fill="#FFD400"/>
<path d="M357.792 128.438H365.605V123.651H357.792V128.438Z" fill="#4E4E4E"/>
<path d="M184.752 135.099H144.884V157.498H184.752V135.099Z" fill="#D6B391"/>
<path d="M184.752 135.099H144.884V157.498H184.752V135.099Z" fill="url(#paint12_linear)"/>
<path d="M184.752 135.099H144.884V141.051H184.752V135.099Z" fill="white"/>
<path d="M171.461 138.069H158.423V144.615H171.461V138.069Z" fill="white"/>
<path d="M184.752 135.099H144.884V141.046H158.424V144.621H171.461V141.046H184.752V135.099Z" fill="url(#paint13_linear)"/>
<defs>
<linearGradient id="paint0_linear" x1="299.488" y1="64.7527" x2="299.488" y2="333.082" gradientUnits="userSpaceOnUse">
<stop stop-color="#353535" stop-opacity="0"/>
<stop offset="1"/>
</linearGradient>
<linearGradient id="paint1_linear" x1="349.902" y1="258.635" x2="349.902" y2="136.993" gradientUnits="userSpaceOnUse">
<stop stop-color="#907562"/>
<stop offset="1" stop-color="#A38671" stop-opacity="0"/>
</linearGradient>
<linearGradient id="paint2_linear" x1="341.235" y1="212.451" x2="341.235" y2="313.404" gradientUnits="userSpaceOnUse">
<stop stop-color="#808080"/>
<stop offset="1" stop-color="#D0D0D0" stop-opacity="0"/>
</linearGradient>
<linearGradient id="paint3_linear" x1="50092.4" y1="32036.9" x2="50092.4" y2="25062.9" gradientUnits="userSpaceOnUse">
<stop stop-color="#907562"/>
<stop offset="1" stop-color="#A38671" stop-opacity="0"/>
</linearGradient>
<linearGradient id="paint4_linear" x1="126563" y1="1692.73" x2="126563" y2="973.182" gradientUnits="userSpaceOnUse">
<stop stop-color="#808080"/>
<stop offset="1" stop-color="#D0D0D0" stop-opacity="0"/>
</linearGradient>
<linearGradient id="paint5_linear" x1="31521.9" y1="15223.7" x2="31521.9" y2="10677.1" gradientUnits="userSpaceOnUse">
<stop stop-color="#808080"/>
<stop offset="1" stop-color="#D0D0D0" stop-opacity="0"/>
</linearGradient>
<linearGradient id="paint6_linear" x1="296.54" y1="109.209" x2="296.54" y2="65.1136" gradientUnits="userSpaceOnUse">
<stop stop-color="#808080"/>
<stop offset="1" stop-color="#D0D0D0" stop-opacity="0"/>
</linearGradient>
<linearGradient id="paint7_linear" x1="125337" y1="2799.73" x2="125337" y2="2088.62" gradientUnits="userSpaceOnUse">
<stop stop-color="#808080"/>
<stop offset="1" stop-color="#D0D0D0" stop-opacity="0"/>
</linearGradient>
<linearGradient id="paint8_linear" x1="125337" y1="2002.44" x2="125337" y2="944.152" gradientUnits="userSpaceOnUse">
<stop stop-color="#808080"/>
<stop offset="1" stop-color="#D0D0D0" stop-opacity="0"/>
</linearGradient>
<linearGradient id="paint9_linear" x1="5622.92" y1="13207.5" x2="7766.85" y2="11588.4" gradientUnits="userSpaceOnUse">
<stop stop-color="#808080"/>
<stop offset="1" stop-color="#D0D0D0" stop-opacity="0"/>
</linearGradient>
<linearGradient id="paint10_linear" x1="13887" y1="28911.9" x2="13887" y2="19423.6" gradientUnits="userSpaceOnUse">
<stop stop-color="#907562"/>
<stop offset="1" stop-color="#A38671" stop-opacity="0"/>
</linearGradient>
<linearGradient id="paint11_linear" x1="209.085" y1="164.972" x2="212.415" y2="116.145" gradientUnits="userSpaceOnUse">
<stop stop-color="#353535" stop-opacity="0"/>
<stop offset="1" stop-color="#787878"/>
</linearGradient>
<linearGradient id="paint12_linear" x1="11933.1" y1="7219.2" x2="11933.1" y2="5339.26" gradientUnits="userSpaceOnUse">
<stop stop-color="#907562"/>
<stop offset="1" stop-color="#A38671" stop-opacity="0"/>
</linearGradient>
<linearGradient id="paint13_linear" x1="11933.1" y1="2788.29" x2="11933.1" y2="2250.42" gradientUnits="userSpaceOnUse">
<stop stop-color="#808080"/>
<stop offset="1" stop-color="#D0D0D0" stop-opacity="0"/>
</linearGradient>
</defs>
</svg>
