<svg width="461" height="313" viewBox="0 0 461 313" fill="none" xmlns="http://www.w3.org/2000/svg">
<path d="M417.976 0H92.9756V313H417.976V0Z" fill="#F4ECE9"/>
<path d="M348.272 25.027H260.884V101.819H348.272V25.027Z" fill="#E8DBD5"/>
<path d="M348.272 25.027H260.884V101.819H348.272V25.027Z" fill="url(#paint0_linear)"/>
<path d="M348.666 91.9515H261.278V103.468H348.666V91.9515Z" fill="#A38671"/>
<path d="M348.666 91.9515H261.278V103.468H348.666V91.9515Z" fill="url(#paint1_radial)"/>
<path d="M333.221 25.027C320.876 25.1586 302.138 34.8196 295.668 63.3573C292.299 78.1152 273.223 91.3559 260.884 92.4844V25.027H333.221Z" fill="white"/>
<path d="M225.954 116.182H105.17V282.199H225.954V116.182Z" fill="#A38671"/>
<path d="M145.411 116.182H91.7381V277.716H145.411V116.182Z" fill="#D6B391"/>
<path d="M145.43 116.182H91.7694V277.71H105.17V282.211H225.954V116.182H145.43Z" fill="url(#paint2_linear)"/>
<path d="M225.954 116V282.029H105.17V277.528H91.7694V116H225.954Z" fill="url(#paint3_radial)"/>
<path d="M172.425 116.182H219.748C219.748 116.182 222.523 104.396 206.816 104.396C206.816 104.396 205.428 105.787 206.816 105.787H208.197C208.197 105.787 203.578 95.7251 190.777 95.7251C177.976 95.7251 170.313 106.609 170.313 114.922L172.425 116.182Z" fill="#323031"/>
<path d="M206.747 104.396L210.441 99.6309L211.766 105.982L206.747 104.396Z" fill="#323031"/>
<path d="M211.897 105.718L215.591 100.885L216.847 107.242L211.897 105.718Z" fill="#323031"/>
<path d="M225.229 116.182H214.354L219.835 113.003C219.879 113.066 225.229 112.878 225.229 116.182Z" fill="#323031"/>
<path d="M165.3 142.525C164.778 142.518 164.278 142.316 163.897 141.959C163.516 141.601 163.282 141.114 163.241 140.592C163.199 140.07 163.353 139.552 163.673 139.139C163.993 138.725 164.455 138.446 164.968 138.356C167.468 137.892 169.056 137.033 169.787 135.711C171.3 132.927 169.519 128.031 167.675 123.661C164.768 116.646 169.65 111.875 172.625 110.351C172.873 110.196 173.151 110.094 173.441 110.052C173.73 110.011 174.025 110.03 174.307 110.108C174.589 110.187 174.852 110.323 175.079 110.509C175.305 110.695 175.491 110.926 175.624 111.187C175.757 111.449 175.834 111.735 175.851 112.028C175.868 112.321 175.824 112.614 175.722 112.889C175.619 113.165 175.461 113.415 175.257 113.626C175.054 113.837 174.808 114.002 174.537 114.113C174.006 114.382 169.456 117.028 171.568 122.125C173.812 127.686 175.856 133.447 173.481 137.798C172.093 140.306 169.518 141.898 165.693 142.563C165.562 142.463 165.431 142.525 165.3 142.525Z" fill="#323031"/>
<path d="M134.66 185.094H18.864V282.211H134.66V185.094Z" fill="#A38671"/>
<path d="M51.1159 108.239H45.3722V191.056H51.1159V108.239Z" fill="#323031"/>
<path d="M63.6485 185.094H0V282.211H63.6485V185.094Z" fill="#D6B391"/>
<path d="M63.7173 185.094H18.9702H0.0250244V282.211H18.9702H63.7173H134.804V185.094H63.7173Z" fill="url(#paint4_linear)"/>
<path d="M79.8247 108.634L67.2175 108.897H64.9049L51.1101 109.16L45.3722 109.292L17.8451 109.825L19.364 104.928L20.0265 102.941L27.8771 78.5097L28.5396 76.5223L29.3335 74.14H68.3364L69.1302 76.5223L69.7927 78.5097L77.9121 102.941L78.5684 104.991L79.8247 108.634Z" fill="#FFD400"/>
<path d="M67.2174 108.696H64.9049V136.3H67.2174V108.696Z" fill="#323031"/>
<path d="M214.647 127.51H185.526V149.428H214.647V127.51Z" fill="white"/>
<path d="M66.0297 138.619C67.9247 138.619 69.461 137.079 69.461 135.178C69.461 133.277 67.9247 131.736 66.0297 131.736C64.1347 131.736 62.5984 133.277 62.5984 135.178C62.5984 137.079 64.1347 138.619 66.0297 138.619Z" fill="#4E4E4E"/>
<path d="M45.5909 195.193C45.5934 194.967 45.5512 194.741 45.4667 194.531C45.3822 194.32 45.2571 194.129 45.0986 193.967C44.94 193.805 44.7512 193.676 44.5428 193.587C44.3345 193.499 44.1108 193.452 43.8845 193.451H16.3512C15.9092 193.477 15.494 193.672 15.1904 193.995C14.8868 194.319 14.7178 194.746 14.7178 195.19C14.7178 195.635 14.8868 196.062 15.1904 196.385C15.494 196.709 15.9092 196.903 16.3512 196.93H43.9033C44.3559 196.922 44.787 196.735 45.103 196.41C45.419 196.085 45.5943 195.648 45.5909 195.193Z" fill="#323031"/>
<path d="M131.891 126.89C131.875 126.428 131.678 125.992 131.344 125.676C131.009 125.359 130.564 125.187 130.104 125.197H103.852C103.622 125.183 103.391 125.216 103.175 125.295C102.958 125.373 102.76 125.495 102.592 125.654C102.425 125.812 102.291 126.003 102.2 126.215C102.108 126.427 102.061 126.656 102.061 126.887C102.061 127.118 102.108 127.346 102.2 127.558C102.291 127.77 102.425 127.961 102.592 128.119C102.76 128.278 102.958 128.4 103.175 128.478C103.391 128.557 103.622 128.59 103.852 128.576H130.104C130.563 128.588 131.008 128.417 131.343 128.102C131.678 127.786 131.875 127.35 131.891 126.89Z" fill="#323031"/>
<path d="M84.1126 249.974C90.363 249.974 95.7947 244.878 95.7947 238.52V234.684C95.7963 233.178 95.5022 231.688 94.929 230.297C94.3559 228.905 93.515 227.641 92.4544 226.576C91.3938 225.511 90.1344 224.667 88.7481 224.09C87.3618 223.514 85.8758 223.217 84.3751 223.217C78.1246 223.217 72.6929 228.314 72.6929 234.671V238.508C72.6921 240.013 72.9869 241.503 73.5603 242.894C74.1337 244.285 74.9747 245.549 76.0351 246.613C77.0955 247.678 78.3546 248.523 79.7405 249.1C81.1265 249.676 82.6121 249.974 84.1126 249.974Z" fill="white"/>
<path d="M71.5051 256.263C71.9737 256.265 72.438 256.174 72.8714 255.996C73.3047 255.817 73.6984 255.554 74.0297 255.221C74.361 254.889 74.6234 254.494 74.8015 254.059C74.9797 253.625 75.0701 253.159 75.0676 252.689V233.091C75.0676 231.104 73.7489 229.518 71.7676 229.518C69.7926 229.518 67.9426 231.104 67.9426 233.091V252.683C67.9393 253.153 68.0291 253.62 68.2069 254.055C68.3847 254.491 68.6469 254.886 68.9783 255.219C69.3097 255.552 69.7037 255.816 70.1374 255.995C70.5712 256.174 71.0361 256.265 71.5051 256.263Z" fill="#666666"/>
<path d="M61.7356 256.263C62.2044 256.265 62.6691 256.174 63.1028 255.996C63.5365 255.817 63.9306 255.554 64.2624 255.222C64.5942 254.89 64.8571 254.495 65.036 254.06C65.2148 253.625 65.306 253.159 65.3044 252.689V233.091C65.3044 231.104 63.9794 229.518 62.0044 229.518C60.0231 229.518 58.1731 231.104 58.1731 233.091V252.683C58.1706 253.153 58.261 253.619 58.4391 254.054C58.6172 254.489 58.8794 254.885 59.2106 255.217C59.5419 255.55 59.9355 255.814 60.3689 255.993C60.8023 256.173 61.2668 256.264 61.7356 256.263Z" fill="#666666"/>
<path d="M100.22 235.21H21.2141V282.807H100.22V235.21Z" fill="white"/>
<path d="M100.483 235.21H60.7483V282.807H100.483V235.21Z" fill="#CFCCCC"/>
<path d="M21.2766 235.279H100.283V282.876H21.2766V235.279Z" fill="url(#paint5_radial)"/>
<path d="M30.3898 244.213H48.1411C48.3415 244.216 48.5405 244.179 48.7263 244.104C48.9121 244.029 49.0809 243.916 49.2226 243.774C49.3644 243.632 49.4761 243.463 49.5512 243.277C49.6264 243.09 49.6634 242.891 49.66 242.69C49.6625 242.489 49.6249 242.29 49.5495 242.104C49.474 241.918 49.3623 241.749 49.2207 241.607C49.0792 241.465 48.9107 241.353 48.7253 241.277C48.5399 241.201 48.3413 241.164 48.1411 241.166H30.3898C30.1894 241.163 29.9904 241.2 29.8046 241.275C29.6187 241.351 29.45 241.463 29.3082 241.605C29.1665 241.747 29.0548 241.916 28.9796 242.103C28.9045 242.289 28.8675 242.489 28.8709 242.69C28.8666 242.891 28.903 243.091 28.9778 243.278C29.0527 243.464 29.1644 243.634 29.3063 243.776C29.4482 243.919 29.6173 244.031 29.8035 244.106C29.9897 244.181 30.1891 244.217 30.3898 244.213Z" fill="#28282A"/>
<path d="M208.791 216.942H114.077V282.744H208.791V216.942Z" fill="white"/>
<path d="M201.059 224.534H121.947V276.249H201.059V224.534Z" fill="#FFD400"/>
<path d="M121.997 276.186L156.256 250.369L164.837 258.952L201.134 224.471V276.174L121.997 276.186Z" fill="#323031"/>
<path d="M185.204 250.115L177.784 257.558L185.204 265.001L192.625 257.558L185.204 250.115Z" fill="white"/>
<path d="M154.544 260.235L150.809 263.98L154.544 267.726L158.278 263.98L154.544 260.235Z" fill="white"/>
<path d="M138.367 248.915C142.706 248.915 146.223 245.387 146.223 241.034C146.223 236.682 142.706 233.154 138.367 233.154C134.027 233.154 130.51 236.682 130.51 241.034C130.51 245.387 134.027 248.915 138.367 248.915Z" fill="#323031"/>
<path d="M121.997 276.186L156.918 248.451L163.187 254.739L201.071 224.484L181.532 247.855L172.888 259.309L163.319 261.892L153.812 254.081L121.997 276.186Z" fill="#323031"/>
<path d="M247.737 261.754H208.728V282.738H247.737V261.754Z" fill="url(#paint6_radial)"/>
<path d="M234.561 234.671L250.794 236.583L234.561 234.671Z" fill="#FFD746"/>
<path d="M250.638 235.743L242.518 166.888L226.217 168.812L234.399 237.662L250.638 235.743Z" fill="#323031"/>
<path d="M255.675 278.462L250.85 237.743L234.624 239.712L239.387 280.374L255.675 278.462Z" fill="#323031"/>
<path d="M237.979 176.955L229.917 177.915L231.738 193.299L239.8 192.339L237.979 176.955Z" fill="white"/>
<path d="M234.561 234.671L250.794 236.583L234.561 234.671Z" fill="#FFD746"/>
<path d="M255.675 278.462L250.85 237.743L234.624 239.712L239.387 280.374L255.675 278.462Z" fill="#323031"/>
<path d="M242.499 166.9L226.211 168.812L234.386 237.687L250.613 235.718L242.499 166.9Z" fill="#323031"/>
<path d="M250.85 237.743L234.624 239.712L239.387 280.374L255.675 278.462L250.85 237.743Z" fill="#323031"/>
<path d="M242.499 166.9L226.211 168.812L234.386 237.687L250.613 235.718L242.499 166.9Z" fill="url(#paint7_linear)"/>
<path d="M250.85 237.743L234.624 239.712L239.387 280.374L255.675 278.462L250.85 237.743Z" fill="url(#paint8_linear)"/>
<path d="M237.979 176.955L229.917 177.915L231.738 193.299L239.8 192.339L237.979 176.955Z" fill="white"/>
<path d="M247.737 255.93H208.728V262.814H247.737V255.93Z" fill="#323031"/>
<path d="M134.741 158.625H97.7011V185.081H134.741V158.625Z" fill="white"/>
<path d="M98.4387 158.612H134.804V185.094H98.4387H74.0118V158.612H98.4387Z" fill="url(#paint9_radial)"/>
<path d="M98.3887 158.625H73.9681V185.081H98.3887V158.625Z" fill="#CFCCCC"/>
<path d="M98.4387 158.612H74.0118V185.094H98.4387H134.804V158.612H98.4387Z" fill="url(#paint10_radial)"/>
<path d="M73.9681 158.6H134.741V165.233H73.9681V158.6Z" fill="#323031"/>
<path d="M247.737 261.754H208.728V282.738H247.737V261.754Z" fill="#FFD400"/>
<path d="M233.873 260.501H221.66V267.516H233.873V260.501Z" fill="#323031"/>
<path d="M80.5498 109.756H17.9764L19.564 104.859L78.7684 104.928L80.5498 109.756Z" fill="#4E4E4E"/>
<path d="M211.166 110.094C211.604 110.094 211.96 109.738 211.96 109.298C211.96 108.858 211.604 108.502 211.166 108.502C210.727 108.502 210.372 108.858 210.372 109.298C210.372 109.738 210.727 110.094 211.166 110.094Z" fill="white"/>
<path d="M216.385 110.094C216.823 110.094 217.179 109.738 217.179 109.298C217.179 108.858 216.823 108.502 216.385 108.502C215.947 108.502 215.591 108.858 215.591 109.298C215.591 109.738 215.947 110.094 216.385 110.094Z" fill="white"/>
<path d="M69.2615 76.4596H28.671L29.4648 74.0773H68.4677L69.2615 76.4596Z" fill="#4E4E4E"/>
<path d="M272.059 134.852C272.059 134.852 270.741 135.316 269.753 135.648C269.477 135.742 269.177 135.741 268.902 135.644C268.627 135.548 268.392 135.362 268.234 135.115L268.297 134.589L272.047 134.852H272.059Z" fill="#231F20"/>
<path d="M277.342 133.592C277.291 133.409 277.205 133.237 277.088 133.087C276.97 132.938 276.824 132.813 276.659 132.721C276.493 132.629 276.31 132.571 276.121 132.55C275.933 132.53 275.742 132.547 275.56 132.601L265.791 135.981C265.613 136.054 265.451 136.162 265.315 136.298C265.179 136.435 265.071 136.596 264.997 136.775C264.923 136.953 264.885 137.144 264.885 137.337C264.885 137.53 264.923 137.721 264.997 137.899L274.173 164.312C274.221 164.496 274.307 164.669 274.424 164.819C274.541 164.969 274.687 165.095 274.853 165.187C275.019 165.28 275.203 165.338 275.392 165.357C275.581 165.377 275.772 165.358 275.954 165.302L285.723 161.929C286.073 161.769 286.35 161.483 286.497 161.127C286.644 160.771 286.651 160.372 286.517 160.011L277.342 133.592Z" fill="#D0D0D0"/>
<path d="M273.384 132.802L273.316 133.266C273.301 133.621 273.17 133.961 272.945 134.235C272.719 134.509 272.41 134.702 272.066 134.783L269.891 135.448C269.598 135.529 269.291 135.541 268.992 135.484C268.694 135.426 268.413 135.3 268.172 135.115L267.709 134.783L273.384 132.802Z" fill="#231F20"/>
<path d="M394.764 153.39C352.385 177.214 328.69 164.675 330.74 165.239C336.809 161.729 335.159 156.763 335.159 156.763C330.015 160.074 321.564 158.882 321.564 158.882C330.209 146.106 325.59 134.257 325.59 134.257C322.289 135.51 321.564 143.855 321.564 143.855C302.025 100.095 332.321 68.7803 359.067 68.4543C379.2 68.1847 386.457 82.2467 386.457 82.2467C388.808 82.6814 391.111 83.3471 393.332 84.234C404.883 88.936 420.397 104.954 420.397 137.924C418.762 135.85 416.951 133.922 414.984 132.163C414.984 132.163 418.678 155.729 403.039 173.672C387.4 191.614 371.162 143.617 371.162 143.617L394.764 153.39Z" fill="#323031"/>
<path d="M266.253 139.485C266.253 139.485 261.253 135.247 258.997 135.053C257.122 134.921 255.828 137.767 258.597 140.15C260.184 141.473 262.691 143.391 264.603 144.714C265.922 145.711 266.916 146.438 266.916 146.438L266.253 139.485Z" fill="white"/>
<path d="M281.198 169.408C269.91 166.763 263.903 163.189 264.497 159.741C265.222 155.904 273.01 159.114 273.01 159.114L282.448 163.001L281.923 168.894L281.198 169.408Z" fill="white"/>
<path d="M278.467 161.465C267.179 158.82 262.159 156.368 262.753 152.926C263.484 149.083 270.679 152.262 270.679 152.262L280.117 156.105L278.598 161.992L278.467 161.465Z" fill="white"/>
<path d="M276.879 154.513C265.591 151.867 260.509 149.416 261.103 145.974C261.834 142.137 269.091 145.347 269.091 145.347L278.53 149.184L277.011 155.077L276.879 154.513Z" fill="white"/>
<path d="M371.399 294.267C371.399 299.427 369.887 306.141 367.768 313H327.077C327.127 297.17 328.727 278.569 334.24 262.419H334.284C335.728 263.028 371.399 277.528 371.399 294.267Z" fill="#323031"/>
<path d="M279.192 131.805C278.962 131.114 278.482 130.533 277.847 130.178C277.212 129.824 276.468 129.719 275.76 129.887L264.141 133.924C262.822 134.457 262.228 136.112 262.691 137.636L272.323 165.572C272.555 166.263 273.036 166.842 273.672 167.197C274.308 167.552 275.052 167.656 275.76 167.49L287.374 163.453C288.693 162.989 289.286 161.334 288.824 159.741L279.192 131.805Z" fill="#231F20"/>
<path d="M371.399 294.267C371.399 299.427 369.887 306.141 367.768 313H327.077C327.127 297.17 328.727 278.569 334.24 262.419H334.284C335.728 263.028 371.399 277.528 371.399 294.267Z" fill="url(#paint11_radial)"/>
<path d="M295.425 164.048L281.199 169.408C281.199 169.408 282.911 137.303 283.243 133.047C283.574 128.79 287.068 127.818 286.937 130C286.805 132.181 286.474 135.824 294.068 144.695C301.431 153.723 295.425 164.048 295.425 164.048Z" fill="white"/>
<path d="M347.11 156.5C347.11 156.5 343.216 193.971 331.265 211.714C319.314 229.456 302.357 233.844 299.588 227.268C297.537 222.302 286.462 188.147 283.28 177.289C283.018 176.424 282.824 175.502 282.624 174.637C282.555 174.374 282.493 174.11 282.424 173.847C282.424 173.778 282.361 173.646 282.361 173.578C282.282 173.388 282.236 173.187 282.224 172.982V172.919C282.161 172.518 282.03 172.192 281.961 171.86C281.856 171.368 281.724 170.883 281.567 170.405C281.567 170.267 281.499 170.205 281.499 170.136C281.436 169.872 281.367 169.672 281.367 169.609V169.54L295.425 164.048L298.856 171.922L311.926 198.473C311.826 198.341 326.908 163.321 347.11 156.5Z" fill="#F2C831"/>
<path d="M347.11 156.5C347.11 156.5 343.216 193.971 331.265 211.714C319.314 229.456 302.357 233.844 299.588 227.268C297.537 222.302 286.462 188.147 283.28 177.289C283.018 176.424 282.824 175.502 282.624 174.637C282.555 174.374 282.493 174.11 282.424 173.847C282.424 173.778 282.361 173.646 282.361 173.578C282.282 173.388 282.236 173.187 282.224 172.982V172.919C282.161 172.518 282.03 172.192 281.961 171.86C281.856 171.368 281.724 170.883 281.567 170.405C281.567 170.267 281.499 170.205 281.499 170.136C281.436 169.872 281.367 169.672 281.367 169.609V169.54L295.425 164.048L298.856 171.922L311.926 198.473C311.826 198.341 326.908 163.321 347.11 156.5Z" fill="#FFD400"/>
<path opacity="0.53" d="M402.727 313H362.099V305.257L361.636 304.919L360.967 304.43C342.978 291.114 335.034 277.428 334.29 262.426C334.29 261.993 334.253 261.548 334.246 261.103H394.77C394.939 261.454 395.107 261.811 395.27 262.162C402.833 278.463 404.108 296.625 402.727 313Z" fill="#353535"/>
<path d="M402.277 313H361.649V304.724L360.98 304.43C340.722 295.277 334.578 278.099 334.259 262.426H334.303L368.312 261.379L377.206 261.103L379.356 261.04L381.5 260.971L383.644 260.909L394.27 260.583H394.382L394.545 260.915C394.545 260.915 394.545 260.959 394.576 260.977V261.046L394.613 261.109C394.782 261.46 394.945 261.818 395.107 262.169C402.545 278.494 403.708 296.643 402.277 313Z" fill="#4E4E4E"/>
<path d="M402.277 313H361.649V304.724L360.98 304.43C340.722 295.277 334.578 278.099 334.259 262.426H334.303L368.312 261.379L377.206 261.103L379.356 261.04L381.5 260.971L383.644 260.909L394.27 260.583H394.382L394.545 260.915C394.545 260.915 394.545 260.959 394.576 260.977V261.046L394.613 261.109C394.782 261.46 394.945 261.818 395.107 262.169C402.545 278.494 403.708 296.643 402.277 313Z" fill="url(#paint12_radial)"/>
<path d="M334.103 172.719C330.277 171.001 314.101 185.433 308.957 211.977C308.101 216.61 303.482 231.97 317.145 225.481C322.737 221.914 327.524 217.217 331.202 211.688C338.197 201.357 342.453 184.216 344.728 171.766C340.241 173.314 338.703 174.775 334.103 172.719Z" fill="#FFD400"/>
<path d="M396.939 157.76C403.014 163.848 408.69 199.532 394.764 227.073C380.838 254.614 386.313 182.317 386.313 177.289C386.313 172.261 396.939 157.76 396.939 157.76Z" fill="#F2C831"/>
<path d="M403.208 192.843L397.401 191.125C397.456 191.182 397.501 191.248 397.532 191.32C397.47 191.784 397.339 192.316 397.27 192.78C394.564 206.347 388.519 217.231 386.775 228.992C384.463 219.324 385.525 195.689 386.05 183.909C386.182 180.467 386.382 178.079 386.382 177.22C386.382 172.205 397.007 157.691 397.007 157.691C399.314 160.011 401.558 166.468 402.683 175.17C403.37 181.034 403.545 186.948 403.208 192.843Z" fill="url(#paint13_linear)"/>
<path d="M397.532 191.257C397.47 191.721 397.339 192.247 397.27 192.711C394.564 206.416 388.357 217.406 386.707 229.324C385.657 237.33 386.575 245.737 391.926 255.655C392.12 256.056 392.388 256.451 392.651 256.909C393.376 258.232 394.101 259.623 394.826 260.946H334.328C334.259 259.291 334.259 257.504 334.259 255.649V254.395C334.259 235.794 332.215 223.675 326.408 208.385C320.708 193.094 340.378 159.24 347.11 156.5H389.482C389.482 156.5 401.295 168.882 397.532 191.257Z" fill="#F2C831"/>
<path d="M389.413 154.851C389.019 155.315 388.557 155.842 388.032 156.437C386.057 158.778 383.916 160.971 381.625 163.001C377.931 166.311 373.312 169.822 368.293 172.004L365.255 169.753L365.192 169.684L363.011 168.098L352.191 160.218L351.066 159.428L350.866 159.296L350.21 158.832L348.335 157.44L347.547 156.813L347.085 156.481L347.679 156.281C348.219 156.076 348.77 155.9 349.329 155.754C350.185 155.491 351.041 155.221 351.966 154.958L353.417 154.563C353.485 154.563 353.617 154.494 353.685 154.494C358.11 153.266 362.638 152.448 367.211 152.049C372.679 151.712 378.166 152.134 383.519 153.303C383.65 153.303 383.713 153.372 383.844 153.372C384.569 153.566 385.363 153.704 386.157 153.898C386.819 154.099 387.544 154.231 388.269 154.525C388.663 154.584 389.047 154.693 389.413 154.851Z" fill="#F2C831"/>
<path d="M434.429 185.295C434.07 187.46 433.11 189.481 431.66 191.125C431.147 191.658 430.862 192.372 430.866 193.113C427.897 195.62 417.465 195.758 416.49 195.495C397.739 190.793 389.563 189.47 389.563 189.47L387.119 187.552C387.25 186.624 386.988 185.495 386.063 184.041C380.581 175.101 384.281 162.857 391.407 159.083C393.719 157.877 396.408 157.616 398.907 158.356C409.402 162.788 423.991 174.706 433.91 182.85C434.145 183.65 434.318 184.468 434.429 185.295Z" fill="#F2C831"/>
<path d="M406.577 193.094C406.046 204.215 400.239 216.127 394.763 227.054C390.469 235.524 388.032 234.534 386.707 228.904C386.707 229.036 386.644 229.173 386.644 229.305C377.731 229.832 366.58 211.362 373.374 204.541C379.05 198.849 383.375 189.784 385.194 185.878C385.719 184.68 385.982 183.953 385.982 183.953C388.626 187.715 392.52 189.514 396.739 190.906C398.457 191.439 400.239 191.965 402.02 192.429L406.577 193.094Z" fill="url(#paint14_linear)"/>
<path d="M391.988 255.736C386.644 245.806 385.657 237.399 386.775 229.405C386.773 229.313 386.797 229.221 386.844 229.142C388.163 234.571 390.594 235.499 394.826 227.092C400.308 216.165 406.114 204.253 406.646 193.131L402.089 192.467C400.57 192.072 399.12 191.608 397.601 191.144C400.308 174.725 394.632 163.666 391.463 159.033C392.595 158.419 393.838 158.039 395.118 157.914C396.399 157.789 397.692 157.922 398.92 158.306C395.871 156.979 392.739 155.852 389.544 154.933C389.144 155.328 388.682 155.923 388.219 156.45L347.166 156.588C340.834 158.437 320.764 193.131 326.446 208.353C332.128 223.575 334.328 235.725 334.328 254.345V255.599C334.328 257.479 334.328 259.241 334.396 260.896H394.895C394.232 259.567 393.507 258.181 392.713 256.852C392.435 256.506 392.192 256.132 391.988 255.736Z" fill="#F9BE50"/>
<path d="M394.826 261.034H334.328C334.259 259.379 334.259 257.592 334.259 255.736V254.483C334.259 249.517 334.128 245.016 333.803 240.847H386.8C387.463 245.48 389.113 250.382 392.013 255.812C392.213 256.207 392.476 256.602 392.738 257.066C393.445 258.294 394.17 259.711 394.826 261.034Z" fill="white"/>
<path d="M330.077 240.778L330.871 245.605H384.794L378.193 240.709L330.077 240.778Z" fill="#323031"/>
<path d="M406.577 193.094C406.046 204.215 400.239 216.127 394.764 227.054C394.139 228.177 393.639 229.173 393.176 229.963C389.944 235.129 387.963 233.806 386.775 229.105C386.786 229.198 386.762 229.292 386.707 229.368C386.137 233.166 386.16 237.031 386.775 240.822H333.778C332.853 229.173 330.609 219.707 326.383 208.447C325.381 205.445 325.065 202.254 325.458 199.112C326.846 182.185 342.028 158.205 347.041 156.745L388.163 156.481C388.688 155.886 389.151 155.359 389.482 154.958C392.689 155.84 395.824 156.97 398.858 158.337C397.629 157.955 396.337 157.823 395.056 157.948C393.776 158.073 392.533 158.452 391.401 159.064C394.57 163.697 400.245 174.737 397.539 191.169C398.995 191.633 400.508 192.097 402.027 192.492L406.577 193.094Z" fill="#F9BE50"/>
<path d="M399.908 240.972H330.077C330.077 240.972 324.452 217.011 325.458 199.131L376.543 203.639C376.543 203.639 386.05 219.124 392.651 230.183C396.014 235.813 398.589 240.314 399.908 240.972Z" fill="#F9BE50"/>
<path d="M392.845 230.446C392.982 230.246 393.045 230.114 393.176 229.92C393.774 228.987 394.305 228.013 394.764 227.004C400.239 216.083 406.014 204.165 406.577 193.044L402.02 192.379C400.502 191.984 399.051 191.52 397.533 191.056C400.239 174.637 394.564 163.716 391.395 159.083C393.576 157.892 396.607 157.76 398.989 158.287C395.872 156.941 392.674 155.794 389.413 154.851C389.019 155.246 388.494 155.842 388.032 156.375L347.704 156.306C341.566 157.766 326.846 182.06 325.458 199.006V199.206C324.471 217.149 330.077 240.778 330.077 240.778H399.908C398.589 240.314 396.082 235.944 392.845 230.446Z" fill="#FFD400"/>
<path d="M403.87 192.912L383.406 186.354L372.256 215.619L403.87 192.912Z" fill="url(#paint15_radial)"/>
<path d="M394.763 262.419H334.234C334.171 259.379 334.171 257.655 334.171 255.736H391.926C392.12 256.131 392.388 256.533 392.651 256.99C393.65 258.67 394.363 260.505 394.763 262.419Z" fill="#353535"/>
<path d="M455.681 197.282H368.293V262.156H455.681V197.282Z" fill="#D6B391"/>
<path d="M456.012 197.282H418.984V262.093H456.012V197.282Z" fill="#A38671"/>
<path d="M455.949 197.344H455.681V197.282H368.293V262.156H455.681H455.949V197.344Z" fill="url(#paint16_linear)"/>
<path d="M460.368 193.044H363.611V203.438H460.368V193.044Z" fill="#D6B391"/>
<path d="M460.368 193.044H363.611V203.438H460.368V193.044Z" fill="#323031"/>
<path d="M397.401 212.441H373.706V228.923H397.401V212.441Z" fill="white"/>
<path d="M446.905 249.781C446.904 252.727 446.344 255.646 445.255 258.382C442.417 265.598 432.979 266.394 428.554 266.394C424.128 266.394 419.803 265.93 416.94 264.407C415.753 263.811 416.215 261.761 419.515 261.761C421.097 261.761 423.541 261.692 425.585 261.63H425.653C429.479 261.498 433.11 257.241 430.204 251.699C427.297 246.157 422.816 252.495 419.647 251.699C416.478 250.903 416.609 248.784 418.19 248.188C419.772 247.593 426.841 245.411 429.81 242.496C430.335 241.969 430.735 241.505 431.26 240.972C431.26 240.91 431.329 240.841 431.26 240.772H444.792C444.855 240.772 446.905 244.351 446.905 249.781Z" fill="white"/>
<path d="M446.905 249.781C446.904 252.727 446.344 255.646 445.255 258.382C442.417 265.598 432.979 266.394 428.554 266.394C424.128 266.394 419.803 265.93 416.94 264.407C415.753 263.811 416.215 261.761 419.515 261.761C421.097 261.761 423.541 261.692 425.585 261.63H425.653C429.479 261.498 433.11 257.241 430.204 251.699C427.297 246.157 422.816 252.495 419.647 251.699C416.478 250.903 416.609 248.784 418.19 248.188C419.772 247.593 426.841 245.411 429.81 242.496C430.335 241.969 430.735 241.505 431.26 240.972C431.26 240.91 431.329 240.841 431.26 240.772H444.792C444.855 240.772 446.905 244.351 446.905 249.781Z" fill="url(#paint17_linear)"/>
<path d="M444.855 197.545V240.772H431.26V240.972C431.129 239.123 430.929 237.004 430.735 234.885C430.666 234.22 430.604 233.562 430.535 232.897C430.01 227.255 429.479 220.917 428.885 215.218C428.291 208.798 427.697 203.175 427.435 200.128L403.277 192.912L402.089 192.58L397.601 191.257L397.457 191.213V191.15C397.257 191.081 397.057 191.081 396.864 191.019C392.638 189.69 388.675 187.84 386.1 184.066C380.625 175.126 384.319 162.882 391.451 159.108C393.763 157.902 396.451 157.641 398.951 158.381C401.681 159.59 404.327 160.983 406.871 162.55C411.621 165.528 416.703 169.239 421.653 172.875C430.166 178.969 439.673 185.922 442.28 188.498C442.911 189.434 443.441 190.434 443.861 191.483C444.49 193.443 444.825 195.486 444.855 197.545Z" fill="#F2C831"/>
<path d="M444.855 197.545V240.772H431.26V240.972C431.198 239.718 431.066 238.327 430.929 236.866C430.866 236.208 430.797 235.543 430.735 234.816C430.672 234.089 430.604 233.493 430.535 232.828C430.01 227.186 429.479 220.848 428.885 215.155C428.291 208.736 427.697 203.106 427.435 200.059L403.277 192.843L402.089 192.517L397.601 191.213L397.47 191.15V191.081C397.27 191.019 397.07 191.019 396.876 190.95C392.651 189.627 388.688 187.771 386.113 183.997C380.637 175.063 384.331 162.813 391.463 159.039C393.776 157.835 396.464 157.575 398.964 158.312C401.693 159.524 404.338 160.917 406.883 162.481C409.258 163.942 411.702 165.659 414.209 167.383C416.715 169.107 419.159 170.957 421.666 172.813C430.179 178.9 439.686 185.853 442.292 188.436C442.923 189.369 443.454 190.367 443.873 191.414C444.492 193.4 444.823 195.465 444.855 197.545Z" fill="#FFD400"/>
<path d="M427.46 239.317C426.972 239.982 426.71 240.176 427.46 239.317V239.317Z" fill="#434775"/>
<path d="M444.855 236.866V240.772H444.398L431.272 240.972C431.21 239.718 431.079 238.327 430.941 236.866H444.855Z" fill="#323031"/>
<path d="M296.825 167.227L282.236 173.12C282.236 173.12 281.186 169.477 281.186 169.408L295.437 163.979L296.825 167.227Z" fill="#323031"/>
<path d="M386.313 153.986C386.313 153.986 377.731 165.371 365.261 169.81C362.168 170.923 358.909 171.504 355.623 171.527C347.11 171.527 348.748 164.38 350.935 159.346C351.663 157.69 352.524 156.097 353.51 154.582C353.51 154.582 356.679 151.867 355.423 144.582C347.241 143.792 341.497 134.852 340.834 118.038C340.766 115.662 341.436 113.324 342.753 111.349C349.816 102.014 363.08 102.942 366.711 104.07C366.711 106.716 368.824 111.286 373.968 111.593C375.356 110.201 379.319 106.954 381.469 114.903C383.45 122.251 378.106 124.37 376.468 122.778C376.468 122.778 372.437 144.889 384.057 152.832C384.829 153.175 385.583 153.56 386.313 153.986Z" fill="white"/>
<path d="M352.454 156.237C353.079 155.177 353.442 154.513 353.442 154.513C353.442 154.513 356.611 151.798 355.361 144.519C355.754 144.572 356.151 144.593 356.548 144.582C365.924 144.582 371.13 134.852 371.13 134.852C371.13 134.852 377.337 153.854 352.454 156.237Z" fill="url(#paint18_radial)"/>
<path d="M430.735 234.816L427.46 200.617C428.085 207.143 429.678 222.898 430.735 234.816Z" fill="#F2C831"/>
<path d="M274.241 164.976C274.472 165.668 274.951 166.248 275.586 166.603C276.221 166.958 276.965 167.062 277.673 166.895L291.205 162.13C292.524 161.666 293.118 160.011 292.655 158.418L283.017 130.483C282.787 129.791 282.307 129.211 281.672 128.856C281.037 128.501 280.293 128.397 279.586 128.564L266.053 133.329C264.734 133.862 264.141 135.517 264.603 137.04L274.241 164.976Z" fill="#4E4E4E"/>
<path d="M342.885 118.489C343.668 118.278 344.486 118.225 345.291 118.332C346.095 118.44 346.871 118.706 347.572 119.116C347.966 119.317 348.491 118.79 348.097 118.489C347.331 117.916 346.428 117.553 345.479 117.436C344.53 117.319 343.566 117.453 342.685 117.825C342.291 118.025 342.422 118.621 342.885 118.489Z" fill="#231F20"/>
<path d="M268.828 164.255C273.447 166.236 275.491 161.672 270.609 159.089C265.728 156.506 264.272 162.324 268.828 164.255Z" fill="white"/>
<path d="M265.134 150.463C269.753 152.513 271.797 147.817 266.916 145.165C262.034 142.513 260.509 148.488 265.134 150.463Z" fill="white"/>
<path d="M267.109 157.628C271.734 159.679 273.778 154.977 268.891 152.331C264.003 149.685 262.559 155.509 267.109 157.628Z" fill="white"/>
<path d="M355.361 118.239C357.861 117.179 359.911 117.706 362.236 118.897C362.567 119.097 362.961 118.634 362.629 118.37C360.754 116.383 357.286 116.383 355.042 117.775C354.779 117.969 355.042 118.37 355.373 118.239H355.361Z" fill="#231F20"/>
<path d="M350.935 121.68C349.879 123.994 349.548 126.777 348.891 129.204C348.861 129.275 348.857 129.355 348.882 129.429C348.906 129.503 348.956 129.565 349.023 129.605C349.645 130.167 350.39 130.575 351.198 130.796C351.292 130.83 351.395 130.827 351.488 130.788C351.58 130.749 351.654 130.676 351.696 130.585C351.738 130.493 351.744 130.39 351.713 130.294C351.682 130.199 351.616 130.118 351.529 130.069C351.004 129.805 350.541 129.473 350.079 129.204C349.616 128.934 350.01 129.536 350.01 129.341C349.948 128.715 350.341 128.012 350.473 127.417C350.935 125.63 351.598 123.655 351.66 121.724C351.598 121.392 351.035 121.392 350.935 121.662V121.68Z" fill="#231F20"/>
<path d="M378.787 126.577C380.354 126.577 381.625 125.302 381.625 123.73C381.625 122.159 380.354 120.884 378.787 120.884C377.22 120.884 375.95 122.159 375.95 123.73C375.95 125.302 377.22 126.577 378.787 126.577Z" fill="#FFD400"/>
<path d="M388.494 154.45C388.456 154.485 388.408 154.506 388.357 154.513C386.301 157.505 384.031 160.342 381.563 163.001C376.018 168.957 367.043 175.778 354.829 175.778C342.222 175.778 345.191 163.597 348.36 157.503C348.691 156.845 349.285 156.049 349.61 155.522C350.466 155.252 351.06 154.726 351.985 154.462C352.448 154.331 353.235 154.331 353.704 154.193C352.735 155.892 351.852 157.639 351.06 159.428C349.079 164.324 347.698 171.076 355.548 171.54C358.84 171.663 362.116 171.02 365.118 169.659C374.625 165.622 381.888 156.092 383.869 153.359C384.2 152.895 384.4 152.632 384.4 152.632L388.494 154.45Z" fill="#323031"/>
<path d="M289.486 160.606L277.804 164.706C277.437 164.804 277.046 164.756 276.714 164.571C276.382 164.387 276.134 164.08 276.023 163.716L266.822 137.297C266.681 136.936 266.685 136.533 266.833 136.175C266.981 135.816 267.261 135.529 267.616 135.373L279.323 131.279C279.69 131.181 280.08 131.229 280.413 131.414C280.745 131.599 280.993 131.905 281.104 132.269L290.28 158.688C290.414 159.049 290.407 159.448 290.259 159.804C290.112 160.16 289.836 160.447 289.486 160.606Z" fill="white"/>
<path d="M289.486 160.606L277.804 164.706C277.437 164.804 277.046 164.756 276.714 164.571C276.382 164.387 276.134 164.08 276.023 163.716L266.822 137.297C266.681 136.936 266.685 136.533 266.833 136.175C266.981 135.816 267.261 135.529 267.616 135.373L279.323 131.279C279.69 131.181 280.08 131.229 280.413 131.414C280.745 131.599 280.993 131.905 281.104 132.269L290.28 158.688C290.414 159.049 290.407 159.448 290.259 159.804C290.112 160.16 289.836 160.447 289.486 160.606Z" fill="#FFD400"/>
<path d="M276.823 131.743L276.754 132.207C276.739 132.562 276.609 132.904 276.384 133.179C276.158 133.453 275.849 133.647 275.504 133.73L273.329 134.388C273.037 134.47 272.729 134.482 272.431 134.424C272.133 134.367 271.852 134.241 271.61 134.056L271.148 133.73L276.823 131.743Z" fill="#4E4E4E"/>
<path d="M274.504 133.993C274.504 133.993 273.185 134.457 272.192 134.783C271.917 134.877 271.619 134.877 271.345 134.781C271.071 134.686 270.837 134.501 270.679 134.257L270.742 133.73L274.492 133.993H274.504Z" fill="#4E4E4E"/>
<path d="M280.214 135.212L268.885 139.221L276.68 161.385L288.008 157.377L280.214 135.212Z" fill="white"/>
<path d="M283.631 151.192L276.475 153.724L277.506 156.656L284.662 154.125L283.631 151.192Z" fill="#1B1B1B"/>
<path d="M279.106 137.721L271.325 140.474L274.794 150.335L282.574 147.582L279.106 137.721Z" fill="#CFCCCC"/>
<defs>
<linearGradient id="paint0_linear" x1="304.575" y1="-49.0634" x2="304.575" y2="69.4574" gradientUnits="userSpaceOnUse">
<stop stop-color="#907562"/>
<stop offset="1" stop-color="#A38671" stop-opacity="0"/>
</linearGradient>
<radialGradient id="paint1_radial" cx="0" cy="0" r="1" gradientUnits="userSpaceOnUse" gradientTransform="translate(223 97.5813) scale(304.26 305.176)">
<stop offset="0.22" stop-color="#D6B391"/>
<stop offset="1" stop-color="#A38671" stop-opacity="0"/>
</radialGradient>
<linearGradient id="paint2_linear" x1="47370.5" y1="-167783" x2="25896.4" y2="-211868" gradientUnits="userSpaceOnUse">
<stop stop-color="#907562"/>
<stop offset="1" stop-color="#A38671" stop-opacity="0"/>
</linearGradient>
<radialGradient id="paint3_radial" cx="0" cy="0" r="1" gradientUnits="userSpaceOnUse" gradientTransform="translate(55255.2 216734) scale(21794.3 26966.5)">
<stop offset="0.22" stop-color="#D6B391"/>
<stop offset="1" stop-color="#A38671" stop-opacity="0"/>
</radialGradient>
<linearGradient id="paint4_linear" x1="18858.3" y1="-97612.9" x2="18858.3" y2="-108921" gradientUnits="userSpaceOnUse">
<stop stop-color="#907562"/>
<stop offset="1" stop-color="#A38671" stop-opacity="0"/>
</linearGradient>
<radialGradient id="paint5_radial" cx="0" cy="0" r="1" gradientUnits="userSpaceOnUse" gradientTransform="translate(127.852 275.787) rotate(174.272) scale(104.316 54.1765)">
<stop stop-color="#808080"/>
<stop offset="1" stop-color="#D0D0D0" stop-opacity="0"/>
</radialGradient>
<radialGradient id="paint6_radial" cx="0" cy="0" r="1" gradientUnits="userSpaceOnUse" gradientTransform="translate(191.458 288.499) scale(49.2975 49.4458)">
<stop stop-color="#F9BE50"/>
<stop offset="0.98" stop-color="#FFD746" stop-opacity="0"/>
</radialGradient>
<linearGradient id="paint7_linear" x1="247.189" y1="207.643" x2="234.322" y2="209.763" gradientUnits="userSpaceOnUse">
<stop stop-color="#0D0D0D" stop-opacity="0.98"/>
<stop offset="1" stop-color="#323031" stop-opacity="0"/>
</linearGradient>
<linearGradient id="paint8_linear" x1="15358.3" y1="97917.9" x2="14861.2" y2="97958.1" gradientUnits="userSpaceOnUse">
<stop stop-color="#0D0D0D" stop-opacity="0.98"/>
<stop offset="1" stop-color="#323031" stop-opacity="0"/>
</linearGradient>
<radialGradient id="paint9_radial" cx="0" cy="0" r="1" gradientUnits="userSpaceOnUse" gradientTransform="translate(8279.72 -30591.2) scale(11.5505 5.03147)">
<stop stop-color="#808080"/>
<stop offset="1" stop-color="#D0D0D0" stop-opacity="0"/>
</radialGradient>
<radialGradient id="paint10_radial" cx="0" cy="0" r="1" gradientUnits="userSpaceOnUse" gradientTransform="translate(7147.17 -31148.6) scale(5208.06 2268.66)">
<stop stop-color="#808080"/>
<stop offset="1" stop-color="#D0D0D0" stop-opacity="0"/>
</radialGradient>
<radialGradient id="paint11_radial" cx="0" cy="0" r="1" gradientUnits="userSpaceOnUse" gradientTransform="translate(26532 21948.8) scale(3755.41 4285.69)">
<stop stop-color="#0D0D0D" stop-opacity="0.98"/>
<stop offset="1" stop-color="#323031" stop-opacity="0"/>
</radialGradient>
<radialGradient id="paint12_radial" cx="0" cy="0" r="1" gradientUnits="userSpaceOnUse" gradientTransform="translate(421.228 327.012) scale(67.1613 67.3634)">
<stop stop-color="#323031" stop-opacity="0.98"/>
<stop offset="1" stop-color="#4E4E4E" stop-opacity="0"/>
</radialGradient>
<linearGradient id="paint13_linear" x1="385.313" y1="193.338" x2="403.389" y2="193.338" gradientUnits="userSpaceOnUse">
<stop offset="0.22" stop-color="#F3B032"/>
<stop offset="1" stop-color="#FFD301" stop-opacity="0"/>
</linearGradient>
<linearGradient id="paint14_linear" x1="24821.8" y1="58825.8" x2="23200.9" y2="58558.3" gradientUnits="userSpaceOnUse">
<stop offset="0.22" stop-color="#F3B032"/>
<stop offset="1" stop-color="#FFD301" stop-opacity="0"/>
</linearGradient>
<radialGradient id="paint15_radial" cx="0" cy="0" r="1" gradientUnits="userSpaceOnUse" gradientTransform="translate(404.295 191.207) scale(21.5141 21.5789)">
<stop offset="0.21" stop-color="#F9BE50"/>
<stop offset="1" stop-color="#F9BE50" stop-opacity="0"/>
</radialGradient>
<linearGradient id="paint16_linear" x1="61076.6" y1="-83739.7" x2="61248.5" y2="-71255.9" gradientUnits="userSpaceOnUse">
<stop stop-color="#907562"/>
<stop offset="1" stop-color="#A38671" stop-opacity="0"/>
</linearGradient>
<linearGradient id="paint17_linear" x1="24191.9" y1="-28033.8" x2="22826.8" y2="-27626.9" gradientUnits="userSpaceOnUse">
<stop stop-color="#808080"/>
<stop offset="1" stop-color="#D0D0D0" stop-opacity="0"/>
</linearGradient>
<radialGradient id="paint18_radial" cx="0" cy="0" r="1" gradientUnits="userSpaceOnUse" gradientTransform="translate(23948.6 -6336.45) rotate(55.2767) scale(556.509 567.901)">
<stop stop-color="#808080"/>
<stop offset="1" stop-color="#D0D0D0" stop-opacity="0"/>
</radialGradient>
</defs>
</svg>
