<svg width="1440" height="180" viewBox="0 0 1440 180" fill="none" xmlns="http://www.w3.org/2000/svg">
<mask id="mask0" mask-type="alpha" maskUnits="userSpaceOnUse" x="0" y="0" width="1440" height="180">
<rect width="1440" height="180" fill="#FFD400"/>
</mask>
<g mask="url(#mask0)">
<g opacity="0.1">
<path d="M1120.55 -0.582859L969.97 -151.162L894.628 -75.8194L1045.21 74.7593L1120.55 -0.582859Z" fill="#C7A500"/>
<path d="M871.767 248.199L721.188 97.6201L645.846 172.962L796.425 323.541L871.767 248.199Z" fill="#C7A500"/>
<path d="M871.855 -75.8362L796.412 -151.28L646.035 -0.902696L721.478 74.5406L871.855 -75.8362Z" fill="#C7A500"/>
<path d="M1120.67 172.975L1045.22 97.5312L894.846 247.908L970.289 323.351L1120.67 172.975Z" fill="#C7A500"/>
</g>
<g opacity="0.1">
<path d="M1516.76 248.199L1366.18 97.6201L1290.84 172.962L1441.42 323.541L1516.76 248.199Z" fill="#C7A500"/>
<path d="M1516.85 -75.8362L1441.4 -151.28L1291.03 -0.902696L1366.47 74.5406L1516.85 -75.8362Z" fill="#C7A500"/>
</g>
<g opacity="0.1">
<path d="M471.917 -0.582859L321.338 -151.162L245.996 -75.8194L396.574 74.7593L471.917 -0.582859Z" fill="#C7A500"/>
<path d="M223.135 248.199L72.5559 97.6201L-2.7863 172.962L147.792 323.541L223.135 248.199Z" fill="#C7A500"/>
<path d="M223.223 -75.8362L147.779 -151.28L-2.59758 -0.902696L72.8457 74.5406L223.223 -75.8362Z" fill="#C7A500"/>
<path d="M472.034 172.975L396.59 97.5312L246.213 247.908L321.657 323.351L472.034 172.975Z" fill="#C7A500"/>
</g>
</g>
</svg>
