<svg width="161" height="200" viewBox="0 0 161 200" fill="none" xmlns="http://www.w3.org/2000/svg">
<path fill-rule="evenodd" clip-rule="evenodd" d="M4.34782 0H0V4.34782H4.34782V0ZM17.3914 6.10352e-05H13.0435V4.34788H17.3914V6.10352e-05ZM26.087 6.10352e-05H30.4348V4.34788H26.087V6.10352e-05ZM43.4783 6.10352e-05H39.1305V4.34788H43.4783V6.10352e-05ZM52.174 6.10352e-05H56.5218V4.34788H52.174V6.10352e-05ZM69.5653 6.10352e-05H65.2174V4.34788H69.5653V6.10352e-05ZM78.2609 6.10352e-05H82.6087V4.34788H78.2609V6.10352e-05ZM95.6522 6.10352e-05H91.3044V4.34788H95.6522V6.10352e-05ZM104.348 6.10352e-05H108.696V4.34788H104.348V6.10352e-05ZM121.739 6.10352e-05H117.391V4.34788H121.739V6.10352e-05ZM130.435 6.10352e-05H134.783V4.34788H130.435V6.10352e-05ZM147.826 6.10352e-05H143.478V4.34788H147.826V6.10352e-05ZM156.522 6.10352e-05H160.87V4.34788H156.522V6.10352e-05ZM17.3913 13.0435H13.0435V17.3913H17.3913V13.0435ZM4.34786 13.0435H3.18216e-05V17.3913H4.34786V13.0435ZM26.087 13.0435H30.4348V17.3913H26.087V13.0435ZM43.4783 13.0435H39.1304V17.3913H43.4783V13.0435ZM52.1739 13.0435H56.5218V17.3913H52.1739V13.0435ZM69.5652 13.0435H65.2174V17.3913H69.5652V13.0435ZM78.2608 13.0435H82.6087V17.3913H78.2608V13.0435ZM95.6522 13.0435H91.3043V17.3913H95.6522V13.0435ZM104.348 13.0435H108.696V17.3913H104.348V13.0435ZM121.739 13.0435H117.391V17.3913H121.739V13.0435ZM130.435 13.0435H134.783V17.3913H130.435V13.0435ZM147.826 13.0435H143.478V17.3913H147.826V13.0435ZM156.522 13.0435H160.87V17.3913H156.522V13.0435ZM13.0435 26.087H17.3913V30.4349H13.0435V26.087ZM3.18216e-05 26.087H4.34786V30.4349H3.18216e-05V26.087ZM30.4348 26.087H26.087V30.4349H30.4348V26.087ZM39.1304 26.087H43.4783V30.4349H39.1304V26.087ZM56.5218 26.087H52.1739V30.4349H56.5218V26.087ZM65.2174 26.087H69.5652V30.4349H65.2174V26.087ZM82.6087 26.087H78.2608V30.4349H82.6087V26.087ZM91.3043 26.087H95.6522V30.4349H91.3043V26.087ZM108.696 26.087H104.348V30.4349H108.696V26.087ZM117.391 26.087H121.739V30.4349H117.391V26.087ZM134.783 26.087H130.435V30.4349H134.783V26.087ZM143.478 26.087H147.826V30.4349H143.478V26.087ZM160.87 26.087H156.522V30.4349H160.87V26.087ZM4.34786 39.1305H3.18216e-05V43.4783H4.34786V39.1305ZM17.3913 39.1305H13.0435V43.4783H17.3913V39.1305ZM26.087 39.1305H30.4348V43.4783H26.087V39.1305ZM43.4783 39.1305H39.1304V43.4783H43.4783V39.1305ZM52.1739 39.1305H56.5218V43.4783H52.1739V39.1305ZM69.5652 39.1305H65.2174V43.4783H69.5652V39.1305ZM78.2608 39.1305H82.6087V43.4783H78.2608V39.1305ZM95.6522 39.1305H91.3043V43.4783H95.6522V39.1305ZM104.348 39.1305H108.696V43.4783H104.348V39.1305ZM121.739 39.1305H117.391V43.4783H121.739V39.1305ZM130.435 39.1305H134.783V43.4783H130.435V39.1305ZM147.826 39.1305H143.478V43.4783H147.826V39.1305ZM156.522 39.1305H160.87V43.4783H156.522V39.1305ZM3.18216e-05 52.1739H4.34786V56.5217H3.18216e-05V52.1739ZM13.0435 52.1739H17.3913V56.5217H13.0435V52.1739ZM30.4348 52.1739H26.087V56.5217H30.4348V52.1739ZM39.1304 52.1739H43.4783V56.5217H39.1304V52.1739ZM56.5218 52.1739H52.1739V56.5217H56.5218V52.1739ZM65.2174 52.1739H69.5652V56.5217H65.2174V52.1739ZM82.6087 52.1739H78.2608V56.5217H82.6087V52.1739ZM91.3043 52.1739H95.6522V56.5217H91.3043V52.1739ZM108.696 52.1739H104.348V56.5217H108.696V52.1739ZM117.391 52.1739H121.739V56.5217H117.391V52.1739ZM134.783 52.1739H130.435V56.5217H134.783V52.1739ZM143.478 52.1739H147.826V56.5217H143.478V52.1739ZM160.87 52.1739H156.522V56.5217H160.87V52.1739ZM4.34786 65.2174H3.18216e-05V69.5652H4.34786V65.2174ZM17.3913 65.2175H13.0435V69.5653H17.3913V65.2175ZM26.087 65.2175H30.4348V69.5653H26.087V65.2175ZM43.4783 65.2175H39.1304V69.5653H43.4783V65.2175ZM52.1739 65.2175H56.5218V69.5653H52.1739V65.2175ZM69.5652 65.2175H65.2174V69.5653H69.5652V65.2175ZM78.2608 65.2175H82.6087V69.5653H78.2608V65.2175ZM95.6522 65.2175H91.3043V69.5653H95.6522V65.2175ZM104.348 65.2175H108.696V69.5653H104.348V65.2175ZM121.739 65.2175H117.391V69.5653H121.739V65.2175ZM130.435 65.2175H134.783V69.5653H130.435V65.2175ZM147.826 65.2175H143.478V69.5653H147.826V65.2175ZM156.522 65.2175H160.87V69.5653H156.522V65.2175ZM13.0435 78.2609H17.3913V82.6087H13.0435V78.2609ZM3.18216e-05 78.2609H4.34786V82.6087H3.18216e-05V78.2609ZM30.4348 78.2609H26.087V82.6087H30.4348V78.2609ZM39.1304 78.2609H43.4783V82.6087H39.1304V78.2609ZM56.5218 78.2609H52.1739V82.6087H56.5218V78.2609ZM65.2174 78.2609H69.5652V82.6087H65.2174V78.2609ZM82.6087 78.2609H78.2608V82.6087H82.6087V78.2609ZM91.3043 78.2609H95.6522V82.6087H91.3043V78.2609ZM108.696 78.2609H104.348V82.6087H108.696V78.2609ZM117.391 78.2609H121.739V82.6087H117.391V78.2609ZM134.783 78.2609H130.435V82.6087H134.783V78.2609ZM143.478 78.2609H147.826V82.6087H143.478V78.2609ZM160.87 78.2609H156.522V82.6087H160.87V78.2609ZM4.34786 91.3043H3.18216e-05V95.6522H4.34786V91.3043ZM17.3913 91.3043H13.0435V95.6522H17.3913V91.3043ZM26.087 91.3043H30.4348V95.6522H26.087V91.3043ZM43.4783 91.3043H39.1304V95.6522H43.4783V91.3043ZM52.1739 91.3043H56.5218V95.6522H52.1739V91.3043ZM69.5652 91.3043H65.2174V95.6522H69.5652V91.3043ZM78.2608 91.3043H82.6087V95.6522H78.2608V91.3043ZM95.6522 91.3043H91.3043V95.6522H95.6522V91.3043ZM104.348 91.3043H108.696V95.6522H104.348V91.3043ZM121.739 91.3043H117.391V95.6522H121.739V91.3043ZM130.435 91.3043H134.783V95.6522H130.435V91.3043ZM147.826 91.3043H143.478V95.6522H147.826V91.3043ZM156.522 91.3043H160.87V95.6522H156.522V91.3043ZM3.18216e-05 104.348H4.34786V108.696H3.18216e-05V104.348ZM13.0435 104.348H17.3913V108.696H13.0435V104.348ZM30.4348 104.348H26.087V108.696H30.4348V104.348ZM39.1304 104.348H43.4783V108.696H39.1304V104.348ZM56.5218 104.348H52.1739V108.696H56.5218V104.348ZM65.2174 104.348H69.5652V108.696H65.2174V104.348ZM82.6087 104.348H78.2608V108.696H82.6087V104.348ZM91.3043 104.348H95.6522V108.696H91.3043V104.348ZM108.696 104.348H104.348V108.696H108.696V104.348ZM117.391 104.348H121.739V108.696H117.391V104.348ZM134.783 104.348H130.435V108.696H134.783V104.348ZM143.478 104.348H147.826V108.696H143.478V104.348ZM160.87 104.348H156.522V108.696H160.87V104.348ZM17.3913 117.391H13.0435V121.739H17.3913V117.391ZM4.34786 117.391H3.18216e-05V121.739H4.34786V117.391ZM26.087 117.391H30.4348V121.739H26.087V117.391ZM43.4783 117.391H39.1304V121.739H43.4783V117.391ZM52.1739 117.391H56.5218V121.739H52.1739V117.391ZM69.5652 117.391H65.2174V121.739H69.5652V117.391ZM78.2608 117.391H82.6087V121.739H78.2608V117.391ZM95.6522 117.391H91.3043V121.739H95.6522V117.391ZM104.348 117.391H108.696V121.739H104.348V117.391ZM121.739 117.391H117.391V121.739H121.739V117.391ZM130.435 117.391H134.783V121.739H130.435V117.391ZM147.826 117.391H143.478V121.739H147.826V117.391ZM156.522 117.391H160.87V121.739H156.522V117.391ZM3.18216e-05 130.435H4.34786V134.783H3.18216e-05V130.435ZM13.0435 130.435H17.3913V134.783H13.0435V130.435ZM30.4348 130.435H26.087V134.783H30.4348V130.435ZM39.1304 130.435H43.4783V134.783H39.1304V130.435ZM56.5218 130.435H52.1739V134.783H56.5218V130.435ZM65.2174 130.435H69.5652V134.783H65.2174V130.435ZM82.6087 130.435H78.2608V134.783H82.6087V130.435ZM91.3043 130.435H95.6522V134.783H91.3043V130.435ZM108.696 130.435H104.348V134.783H108.696V130.435ZM117.391 130.435H121.739V134.783H117.391V130.435ZM134.783 130.435H130.435V134.783H134.783V130.435ZM143.478 130.435H147.826V134.783H143.478V130.435ZM160.87 130.435H156.522V134.783H160.87V130.435ZM17.3913 143.478H13.0435V147.826H17.3913V143.478ZM4.34786 143.478H3.18216e-05V147.826H4.34786V143.478ZM26.087 143.478H30.4348V147.826H26.087V143.478ZM43.4783 143.478H39.1304V147.826H43.4783V143.478ZM52.1739 143.478H56.5218V147.826H52.1739V143.478ZM69.5652 143.478H65.2174V147.826H69.5652V143.478ZM78.2608 143.478H82.6087V147.826H78.2608V143.478ZM95.6522 143.478H91.3043V147.826H95.6522V143.478ZM104.348 143.478H108.696V147.826H104.348V143.478ZM121.739 143.478H117.391V147.826H121.739V143.478ZM130.435 143.478H134.783V147.826H130.435V143.478ZM147.826 143.478H143.478V147.826H147.826V143.478ZM156.522 143.478H160.87V147.826H156.522V143.478ZM3.18216e-05 156.522H4.34786V160.87H3.18216e-05V156.522ZM13.0435 156.522H17.3913V160.87H13.0435V156.522ZM30.4348 156.522H26.087V160.87H30.4348V156.522ZM39.1304 156.522H43.4783V160.87H39.1304V156.522ZM56.5218 156.522H52.1739V160.87H56.5218V156.522ZM65.2174 156.522H69.5652V160.87H65.2174V156.522ZM82.6087 156.522H78.2608V160.87H82.6087V156.522ZM91.3043 156.522H95.6522V160.87H91.3043V156.522ZM108.696 156.522H104.348V160.87H108.696V156.522ZM117.391 156.522H121.739V160.87H117.391V156.522ZM134.783 156.522H130.435V160.87H134.783V156.522ZM143.478 156.522H147.826V160.87H143.478V156.522ZM160.87 156.522H156.522V160.87H160.87V156.522ZM4.34786 169.565H3.18216e-05V173.913H4.34786V169.565ZM17.3913 169.565H13.0435V173.913H17.3913V169.565ZM26.087 169.565H30.4348V173.913H26.087V169.565ZM43.4783 169.565H39.1304V173.913H43.4783V169.565ZM52.1739 169.565H56.5218V173.913H52.1739V169.565ZM69.5652 169.565H65.2174V173.913H69.5652V169.565ZM78.2608 169.565H82.6087V173.913H78.2608V169.565ZM95.6522 169.565H91.3043V173.913H95.6522V169.565ZM104.348 169.565H108.696V173.913H104.348V169.565ZM121.739 169.565H117.391V173.913H121.739V169.565ZM130.435 169.565H134.783V173.913H130.435V169.565ZM147.826 169.565H143.478V173.913H147.826V169.565ZM156.522 169.565H160.87V173.913H156.522V169.565ZM3.18216e-05 182.609H4.34786V186.956H3.18216e-05V182.609ZM13.0435 182.609H17.3913V186.956H13.0435V182.609ZM30.4348 182.609H26.087V186.956H30.4348V182.609ZM39.1304 182.609H43.4783V186.956H39.1304V182.609ZM56.5218 182.609H52.1739V186.956H56.5218V182.609ZM65.2174 182.609H69.5652V186.956H65.2174V182.609ZM82.6087 182.609H78.2608V186.956H82.6087V182.609ZM91.3043 182.609H95.6522V186.956H91.3043V182.609ZM108.696 182.609H104.348V186.956H108.696V182.609ZM117.391 182.609H121.739V186.956H117.391V182.609ZM134.783 182.609H130.435V186.956H134.783V182.609ZM143.478 182.609H147.826V186.956H143.478V182.609ZM160.87 182.609H156.522V186.956H160.87V182.609ZM4.34786 195.652H3.18216e-05V200H4.34786V195.652ZM17.3913 195.652H13.0435V200H17.3913V195.652ZM26.087 195.652H30.4348V200H26.087V195.652ZM43.4783 195.652H39.1304V200H43.4783V195.652ZM52.1739 195.652H56.5218V200H52.1739V195.652ZM69.5652 195.652H65.2174V200H69.5652V195.652ZM78.2608 195.652H82.6087V200H78.2608V195.652ZM95.6522 195.652H91.3043V200H95.6522V195.652ZM104.348 195.652H108.696V200H104.348V195.652ZM121.739 195.652H117.391V200H121.739V195.652ZM130.435 195.652H134.783V200H130.435V195.652ZM147.826 195.652H143.478V200H147.826V195.652ZM156.522 195.652H160.87V200H156.522V195.652Z" fill="#FFD401"/>
<path fill-rule="evenodd" clip-rule="evenodd" d="M4.34782 0H0V4.34782H4.34782V0ZM17.3914 6.10352e-05H13.0435V4.34788H17.3914V6.10352e-05ZM26.087 6.10352e-05H30.4348V4.34788H26.087V6.10352e-05ZM43.4783 6.10352e-05H39.1305V4.34788H43.4783V6.10352e-05ZM52.174 6.10352e-05H56.5218V4.34788H52.174V6.10352e-05ZM69.5653 6.10352e-05H65.2174V4.34788H69.5653V6.10352e-05ZM78.2609 6.10352e-05H82.6087V4.34788H78.2609V6.10352e-05ZM95.6522 6.10352e-05H91.3044V4.34788H95.6522V6.10352e-05ZM104.348 6.10352e-05H108.696V4.34788H104.348V6.10352e-05ZM121.739 6.10352e-05H117.391V4.34788H121.739V6.10352e-05ZM130.435 6.10352e-05H134.783V4.34788H130.435V6.10352e-05ZM147.826 6.10352e-05H143.478V4.34788H147.826V6.10352e-05ZM156.522 6.10352e-05H160.87V4.34788H156.522V6.10352e-05ZM17.3913 13.0435H13.0435V17.3913H17.3913V13.0435ZM4.34786 13.0435H3.18216e-05V17.3913H4.34786V13.0435ZM26.087 13.0435H30.4348V17.3913H26.087V13.0435ZM43.4783 13.0435H39.1304V17.3913H43.4783V13.0435ZM52.1739 13.0435H56.5218V17.3913H52.1739V13.0435ZM69.5652 13.0435H65.2174V17.3913H69.5652V13.0435ZM78.2608 13.0435H82.6087V17.3913H78.2608V13.0435ZM95.6522 13.0435H91.3043V17.3913H95.6522V13.0435ZM104.348 13.0435H108.696V17.3913H104.348V13.0435ZM121.739 13.0435H117.391V17.3913H121.739V13.0435ZM130.435 13.0435H134.783V17.3913H130.435V13.0435ZM147.826 13.0435H143.478V17.3913H147.826V13.0435ZM156.522 13.0435H160.87V17.3913H156.522V13.0435ZM13.0435 26.087H17.3913V30.4349H13.0435V26.087ZM3.18216e-05 26.087H4.34786V30.4349H3.18216e-05V26.087ZM30.4348 26.087H26.087V30.4349H30.4348V26.087ZM39.1304 26.087H43.4783V30.4349H39.1304V26.087ZM56.5218 26.087H52.1739V30.4349H56.5218V26.087ZM65.2174 26.087H69.5652V30.4349H65.2174V26.087ZM82.6087 26.087H78.2608V30.4349H82.6087V26.087ZM91.3043 26.087H95.6522V30.4349H91.3043V26.087ZM108.696 26.087H104.348V30.4349H108.696V26.087ZM117.391 26.087H121.739V30.4349H117.391V26.087ZM134.783 26.087H130.435V30.4349H134.783V26.087ZM143.478 26.087H147.826V30.4349H143.478V26.087ZM160.87 26.087H156.522V30.4349H160.87V26.087ZM4.34786 39.1305H3.18216e-05V43.4783H4.34786V39.1305ZM17.3913 39.1305H13.0435V43.4783H17.3913V39.1305ZM26.087 39.1305H30.4348V43.4783H26.087V39.1305ZM43.4783 39.1305H39.1304V43.4783H43.4783V39.1305ZM52.1739 39.1305H56.5218V43.4783H52.1739V39.1305ZM69.5652 39.1305H65.2174V43.4783H69.5652V39.1305ZM78.2608 39.1305H82.6087V43.4783H78.2608V39.1305ZM95.6522 39.1305H91.3043V43.4783H95.6522V39.1305ZM104.348 39.1305H108.696V43.4783H104.348V39.1305ZM121.739 39.1305H117.391V43.4783H121.739V39.1305ZM130.435 39.1305H134.783V43.4783H130.435V39.1305ZM147.826 39.1305H143.478V43.4783H147.826V39.1305ZM156.522 39.1305H160.87V43.4783H156.522V39.1305ZM3.18216e-05 52.1739H4.34786V56.5217H3.18216e-05V52.1739ZM13.0435 52.1739H17.3913V56.5217H13.0435V52.1739ZM30.4348 52.1739H26.087V56.5217H30.4348V52.1739ZM39.1304 52.1739H43.4783V56.5217H39.1304V52.1739ZM56.5218 52.1739H52.1739V56.5217H56.5218V52.1739ZM65.2174 52.1739H69.5652V56.5217H65.2174V52.1739ZM82.6087 52.1739H78.2608V56.5217H82.6087V52.1739ZM91.3043 52.1739H95.6522V56.5217H91.3043V52.1739ZM108.696 52.1739H104.348V56.5217H108.696V52.1739ZM117.391 52.1739H121.739V56.5217H117.391V52.1739ZM134.783 52.1739H130.435V56.5217H134.783V52.1739ZM143.478 52.1739H147.826V56.5217H143.478V52.1739ZM160.87 52.1739H156.522V56.5217H160.87V52.1739ZM4.34786 65.2174H3.18216e-05V69.5652H4.34786V65.2174ZM17.3913 65.2175H13.0435V69.5653H17.3913V65.2175ZM26.087 65.2175H30.4348V69.5653H26.087V65.2175ZM43.4783 65.2175H39.1304V69.5653H43.4783V65.2175ZM52.1739 65.2175H56.5218V69.5653H52.1739V65.2175ZM69.5652 65.2175H65.2174V69.5653H69.5652V65.2175ZM78.2608 65.2175H82.6087V69.5653H78.2608V65.2175ZM95.6522 65.2175H91.3043V69.5653H95.6522V65.2175ZM104.348 65.2175H108.696V69.5653H104.348V65.2175ZM121.739 65.2175H117.391V69.5653H121.739V65.2175ZM130.435 65.2175H134.783V69.5653H130.435V65.2175ZM147.826 65.2175H143.478V69.5653H147.826V65.2175ZM156.522 65.2175H160.87V69.5653H156.522V65.2175ZM13.0435 78.2609H17.3913V82.6087H13.0435V78.2609ZM3.18216e-05 78.2609H4.34786V82.6087H3.18216e-05V78.2609ZM30.4348 78.2609H26.087V82.6087H30.4348V78.2609ZM39.1304 78.2609H43.4783V82.6087H39.1304V78.2609ZM56.5218 78.2609H52.1739V82.6087H56.5218V78.2609ZM65.2174 78.2609H69.5652V82.6087H65.2174V78.2609ZM82.6087 78.2609H78.2608V82.6087H82.6087V78.2609ZM91.3043 78.2609H95.6522V82.6087H91.3043V78.2609ZM108.696 78.2609H104.348V82.6087H108.696V78.2609ZM117.391 78.2609H121.739V82.6087H117.391V78.2609ZM134.783 78.2609H130.435V82.6087H134.783V78.2609ZM143.478 78.2609H147.826V82.6087H143.478V78.2609ZM160.87 78.2609H156.522V82.6087H160.87V78.2609ZM4.34786 91.3043H3.18216e-05V95.6522H4.34786V91.3043ZM17.3913 91.3043H13.0435V95.6522H17.3913V91.3043ZM26.087 91.3043H30.4348V95.6522H26.087V91.3043ZM43.4783 91.3043H39.1304V95.6522H43.4783V91.3043ZM52.1739 91.3043H56.5218V95.6522H52.1739V91.3043ZM69.5652 91.3043H65.2174V95.6522H69.5652V91.3043ZM78.2608 91.3043H82.6087V95.6522H78.2608V91.3043ZM95.6522 91.3043H91.3043V95.6522H95.6522V91.3043ZM104.348 91.3043H108.696V95.6522H104.348V91.3043ZM121.739 91.3043H117.391V95.6522H121.739V91.3043ZM130.435 91.3043H134.783V95.6522H130.435V91.3043ZM147.826 91.3043H143.478V95.6522H147.826V91.3043ZM156.522 91.3043H160.87V95.6522H156.522V91.3043ZM3.18216e-05 104.348H4.34786V108.696H3.18216e-05V104.348ZM13.0435 104.348H17.3913V108.696H13.0435V104.348ZM30.4348 104.348H26.087V108.696H30.4348V104.348ZM39.1304 104.348H43.4783V108.696H39.1304V104.348ZM56.5218 104.348H52.1739V108.696H56.5218V104.348ZM65.2174 104.348H69.5652V108.696H65.2174V104.348ZM82.6087 104.348H78.2608V108.696H82.6087V104.348ZM91.3043 104.348H95.6522V108.696H91.3043V104.348ZM108.696 104.348H104.348V108.696H108.696V104.348ZM117.391 104.348H121.739V108.696H117.391V104.348ZM134.783 104.348H130.435V108.696H134.783V104.348ZM143.478 104.348H147.826V108.696H143.478V104.348ZM160.87 104.348H156.522V108.696H160.87V104.348ZM17.3913 117.391H13.0435V121.739H17.3913V117.391ZM4.34786 117.391H3.18216e-05V121.739H4.34786V117.391ZM26.087 117.391H30.4348V121.739H26.087V117.391ZM43.4783 117.391H39.1304V121.739H43.4783V117.391ZM52.1739 117.391H56.5218V121.739H52.1739V117.391ZM69.5652 117.391H65.2174V121.739H69.5652V117.391ZM78.2608 117.391H82.6087V121.739H78.2608V117.391ZM95.6522 117.391H91.3043V121.739H95.6522V117.391ZM104.348 117.391H108.696V121.739H104.348V117.391ZM121.739 117.391H117.391V121.739H121.739V117.391ZM130.435 117.391H134.783V121.739H130.435V117.391ZM147.826 117.391H143.478V121.739H147.826V117.391ZM156.522 117.391H160.87V121.739H156.522V117.391ZM3.18216e-05 130.435H4.34786V134.783H3.18216e-05V130.435ZM13.0435 130.435H17.3913V134.783H13.0435V130.435ZM30.4348 130.435H26.087V134.783H30.4348V130.435ZM39.1304 130.435H43.4783V134.783H39.1304V130.435ZM56.5218 130.435H52.1739V134.783H56.5218V130.435ZM65.2174 130.435H69.5652V134.783H65.2174V130.435ZM82.6087 130.435H78.2608V134.783H82.6087V130.435ZM91.3043 130.435H95.6522V134.783H91.3043V130.435ZM108.696 130.435H104.348V134.783H108.696V130.435ZM117.391 130.435H121.739V134.783H117.391V130.435ZM134.783 130.435H130.435V134.783H134.783V130.435ZM143.478 130.435H147.826V134.783H143.478V130.435ZM160.87 130.435H156.522V134.783H160.87V130.435ZM17.3913 143.478H13.0435V147.826H17.3913V143.478ZM4.34786 143.478H3.18216e-05V147.826H4.34786V143.478ZM26.087 143.478H30.4348V147.826H26.087V143.478ZM43.4783 143.478H39.1304V147.826H43.4783V143.478ZM52.1739 143.478H56.5218V147.826H52.1739V143.478ZM69.5652 143.478H65.2174V147.826H69.5652V143.478ZM78.2608 143.478H82.6087V147.826H78.2608V143.478ZM95.6522 143.478H91.3043V147.826H95.6522V143.478ZM104.348 143.478H108.696V147.826H104.348V143.478ZM121.739 143.478H117.391V147.826H121.739V143.478ZM130.435 143.478H134.783V147.826H130.435V143.478ZM147.826 143.478H143.478V147.826H147.826V143.478ZM156.522 143.478H160.87V147.826H156.522V143.478ZM3.18216e-05 156.522H4.34786V160.87H3.18216e-05V156.522ZM13.0435 156.522H17.3913V160.87H13.0435V156.522ZM30.4348 156.522H26.087V160.87H30.4348V156.522ZM39.1304 156.522H43.4783V160.87H39.1304V156.522ZM56.5218 156.522H52.1739V160.87H56.5218V156.522ZM65.2174 156.522H69.5652V160.87H65.2174V156.522ZM82.6087 156.522H78.2608V160.87H82.6087V156.522ZM91.3043 156.522H95.6522V160.87H91.3043V156.522ZM108.696 156.522H104.348V160.87H108.696V156.522ZM117.391 156.522H121.739V160.87H117.391V156.522ZM134.783 156.522H130.435V160.87H134.783V156.522ZM143.478 156.522H147.826V160.87H143.478V156.522ZM160.87 156.522H156.522V160.87H160.87V156.522ZM4.34786 169.565H3.18216e-05V173.913H4.34786V169.565ZM17.3913 169.565H13.0435V173.913H17.3913V169.565ZM26.087 169.565H30.4348V173.913H26.087V169.565ZM43.4783 169.565H39.1304V173.913H43.4783V169.565ZM52.1739 169.565H56.5218V173.913H52.1739V169.565ZM69.5652 169.565H65.2174V173.913H69.5652V169.565ZM78.2608 169.565H82.6087V173.913H78.2608V169.565ZM95.6522 169.565H91.3043V173.913H95.6522V169.565ZM104.348 169.565H108.696V173.913H104.348V169.565ZM121.739 169.565H117.391V173.913H121.739V169.565ZM130.435 169.565H134.783V173.913H130.435V169.565ZM147.826 169.565H143.478V173.913H147.826V169.565ZM156.522 169.565H160.87V173.913H156.522V169.565ZM3.18216e-05 182.609H4.34786V186.956H3.18216e-05V182.609ZM13.0435 182.609H17.3913V186.956H13.0435V182.609ZM30.4348 182.609H26.087V186.956H30.4348V182.609ZM39.1304 182.609H43.4783V186.956H39.1304V182.609ZM56.5218 182.609H52.1739V186.956H56.5218V182.609ZM65.2174 182.609H69.5652V186.956H65.2174V182.609ZM82.6087 182.609H78.2608V186.956H82.6087V182.609ZM91.3043 182.609H95.6522V186.956H91.3043V182.609ZM108.696 182.609H104.348V186.956H108.696V182.609ZM117.391 182.609H121.739V186.956H117.391V182.609ZM134.783 182.609H130.435V186.956H134.783V182.609ZM143.478 182.609H147.826V186.956H143.478V182.609ZM160.87 182.609H156.522V186.956H160.87V182.609ZM4.34786 195.652H3.18216e-05V200H4.34786V195.652ZM17.3913 195.652H13.0435V200H17.3913V195.652ZM26.087 195.652H30.4348V200H26.087V195.652ZM43.4783 195.652H39.1304V200H43.4783V195.652ZM52.1739 195.652H56.5218V200H52.1739V195.652ZM69.5652 195.652H65.2174V200H69.5652V195.652ZM78.2608 195.652H82.6087V200H78.2608V195.652ZM95.6522 195.652H91.3043V200H95.6522V195.652ZM104.348 195.652H108.696V200H104.348V195.652ZM121.739 195.652H117.391V200H121.739V195.652ZM130.435 195.652H134.783V200H130.435V195.652ZM147.826 195.652H143.478V200H147.826V195.652ZM156.522 195.652H160.87V200H156.522V195.652Z" fill="url(#paint0_linear)"/>
<defs>
<linearGradient id="paint0_linear" x1="161" y1="100" x2="2.2625e-06" y2="100" gradientUnits="userSpaceOnUse">
<stop stop-color="white"/>
<stop stop-color="white" stop-opacity="0.821562"/>
<stop offset="1" stop-color="white" stop-opacity="0"/>
</linearGradient>
</defs>
</svg>
