<svg width="11" height="24" fill="none" xmlns="http://www.w3.org/2000/svg"><path d="M5.456 21.943c-1.805 0-3.273-1.384-3.273-3.084 0-1.701 1.468-3.085 3.273-3.085 1.804 0 3.272 1.384 3.272 3.085 0 1.7-1.468 3.084-3.272 3.084z" fill="#fff"/><path d="M5.455 16.246c-.301 0-.546-.232-.546-.515v-6.17c0-.282.245-.513.546-.513.3 0 .545.231.545.514v6.17c0 .282-.244.514-.545.514z" fill="#fff"/><path d="M5.455 24C2.447 24 0 21.695 0 18.859c0-1.84 1.036-3.51 2.727-4.433V2.57C2.727 1.153 3.951 0 5.455 0c1.503 0 2.727 1.153 2.727 2.57v11.857c1.69.921 2.727 2.592 2.727 4.433 0 2.835-2.447 5.14-5.454 5.14zm0-22.972c-.903 0-1.637.692-1.637 1.543v12.164a.51.51 0 0 1-.3.458C2.02 15.9 1.09 17.302 1.09 18.857c0 2.269 1.957 4.113 4.364 4.113 2.406 0 4.363-1.844 4.363-4.113 0-1.557-.93-2.959-2.427-3.664a.512.512 0 0 1-.3-.458V2.571c0-.852-.734-1.543-1.636-1.543z" fill="#fff"/></svg>