<svg width="15" height="24" fill="none" xmlns="http://www.w3.org/2000/svg"><path d="M1.61 22.999l.075-.067-.075.067c.33.362.786.589 1.29.589h9.197c.505 0 .961-.227 1.29-.589.328-.362.531-.86.531-1.406V2.895c0-.546-.203-1.044-.531-1.406A1.741 1.741 0 0 0 12.097.9H2.9a1.74 1.74 0 0 0-1.29.589h0c-.33.362-.532.86-.532 1.406v18.698c0 .546.203 1.044.532 1.406zM12.637 2.286h0c.141.155.23.37.23.609v18.698a.905.905 0 0 1-.23.609l.074.067-.074-.067a.73.73 0 0 1-.54.249H2.9a.73.73 0 0 1-.54-.249.905.905 0 0 1-.23-.609V2.895a.9.9 0 0 1 .23-.609.73.73 0 0 1 .54-.249h9.196c.207 0 .399.094.54.249z" fill="#fff" stroke="#fff" stroke-width=".2"/><path d="M10.954.67V.62H4.522h0-.476v1.358c0 .372.138.711.362.958.224.246.534.4.877.4h4.43c.343 0 .653-.154.877-.4.224-.247.362-.586.362-.958V.669zm2.743 5.341h0c-.2 0-.353.177-.353.384v2.37c0 .207.154.383.353.383h0c.2 0 .353-.176.353-.383v-2.37c0-.207-.154-.384-.353-.384zM1.303 8.554h0c-.2 0-.353.176-.353.383v2.37c0 .207.154.384.353.384h0c.2 0 .353-.177.353-.384v-2.37c0-.207-.154-.383-.353-.383z" fill="#fff" stroke="#fff" stroke-width=".1"/><path d="M1.303 5.482h0c-.2 0-.353.177-.353.384v2.37c0 .207.154.383.353.383h0c.2 0 .353-.176.353-.383v-2.37c0-.207-.154-.384-.353-.384zm0-1.844h0c-.2 0-.353.176-.353.384v1.035c0 .207.154.383.353.383h0c.2 0 .353-.176.353-.383V4.022c0-.208-.154-.384-.353-.384z" fill="#fff" stroke="#fff" stroke-width=".1"/></svg>