<svg xmlns="http://www.w3.org/2000/svg" viewBox="0 0 31.52 28.03"><defs><style>.cls-1{fill:#fff;stroke:#fff;stroke-miterlimit:10;stroke-width:.5px}</style></defs><g id="Слой_2" data-name="Слой 2"><g id="Слой_1-2" data-name="Слой 1"><g id="Слой_2-2" data-name="Слой 2"><g id="Слой_1-2-2" data-name="Слой 1-2"><path class="cls-1" d="M11.77 2.23a6.76 6.76 0 0 0-9.56 9.56.51.51 0 0 0 .71 0l8.85-8.86a.5.5 0 0 0 0-.7zm-9.19 8.48a5.76 5.76 0 0 1 8.12-8.12zm26.71-8.48a6.76 6.76 0 0 0-9.56 0 .49.49 0 0 0 0 .68l8.86 8.86a.51.51 0 0 0 .71 0 6.77 6.77 0 0 0-.01-9.54zm-.37 8.49l-8.15-8.13a5.76 5.76 0 0 1 8.12 8.12z"/><path class="cls-1" d="M24.07 23.25a11.21 11.21 0 1 0-16.56 0L3.9 26.9a.5.5 0 0 0 0 .71.51.51 0 0 0 .71 0L8.22 24a11.17 11.17 0 0 0 15.15 0L27 27.64a.51.51 0 0 0 .71 0 .5.5 0 0 0 0-.71zM15.77 26a10.19 10.19 0 1 1 .05 0z"/><path class="cls-1" d="M20.39 11l-3.86 3.86-5.7-5.66a.5.5 0 1 0-.71.71l6 6 .08.05a.51.51 0 0 0 .71 0l4.24-4.25a.5.5 0 1 0-.71-.71h-.05z"/></g></g></g></g></svg>