<svg width="24" height="24" fill="none" xmlns="http://www.w3.org/2000/svg"><path d="M11.553 20.46v-1.677c-2.46-.299-3.876-1.528-4.062-4.1l1.677-.298c.223 1.379.82 2.832 2.385 2.981v-5.254a9.026 9.026 0 0 1-2.087-.895C6.596 9.652 7.304 4.77 11.553 4.36v-.782h1.006v.782c2.012.187 3.354 1.342 3.615 3.392l-1.714.26c-.15-1.192-.671-1.975-1.901-2.236v4.845c1.08.261 2.124.522 2.944 1.342 2.31 2.273.708 6.633-2.944 6.82v1.677h-1.006zm0-14.72c-2.572.41-3.093 3.838 0 4.62V5.74zm1.006 11.626c2.422-.298 3.652-4.062 0-5.03v5.03zM12 0c6.634 0 12 5.404 12 12 0 6.634-5.366 12-12 12-6.596 0-12-5.366-12-12C0 5.404 5.404 0 12 0zm0 1.267C6.075 1.267 1.267 6.075 1.267 12c0 5.925 4.808 10.733 10.733 10.733 5.925 0 10.733-4.808 10.733-10.733 0-5.925-4.808-10.733-10.733-10.733z" fill="#fff"/></svg>