<svg xmlns="http://www.w3.org/2000/svg" viewBox="0 0 124.85 102.12"><defs><style>.cls-2{fill:none;stroke:#000;stroke-linecap:round;stroke-linejoin:round;stroke-width:1.99px}</style></defs><g id="Слой_2" data-name="Слой 2"><g id="Слой_2-2" data-name="Слой 2"><path fill="#666" d="M1 1h120.33v17.67H1z"/><path class="cls-2" d="M113.21 73.71a6.94 6.94 0 1 1-5.09-6.89m-4.39 5.12l2.88 2.96 5.86-6.04m4.19-50.19v8.5m-109 61.9v-70.4M1 1h120.33v17.67H1zm80.87 97.25H4.29v-8.17h77.2m-26.66 4.09h7.83m-45.9-61h65.11m-65.11 14.5h65.11m-65.11 14.5h65.11M16.76 76.66h65.11m24.41-15.03v-5.18m8.32 7.26l2.77-4.32m-18.25 4.84l-2.77-4.32"/><rect class="cls-2" x="89.19" y="34.01" width="34.67" height="67.11" rx="3.77" ry="3.77"/><path class="cls-2" d="M103.64 38.54h5.76"/></g></g></svg>