<svg width="17" height="16" viewBox="0 0 19 18" fill="none" xmlns="http://www.w3.org/2000/svg"><path d="M6.597 1.947a3.295 3.295 0 0 0-4.635.01 3.255 3.255 0 0 0-.01 4.606.243.243 0 0 0 .345 0l4.3-4.278a.24.24 0 0 0 0-.338zM2.132 6.042a2.771 2.771 0 0 1 .151-3.771 2.807 2.807 0 0 1 3.794-.15L2.132 6.04zm14.906-4.09a3.29 3.29 0 0 0-4.633 0 .24.24 0 0 0 0 .342l4.293 4.27a.242.242 0 0 0 .265.052.244.244 0 0 0 .08-.053 3.253 3.253 0 0 0-.005-4.61zm-.18 4.091l-3.95-3.917a2.801 2.801 0 0 1 3.785.15 2.769 2.769 0 0 1 .15 3.762l.015.005zm-2.372 8.487a6.545 6.545 0 0 0 1.67-3.381 6.48 6.48 0 0 0-.485-3.727 6.633 6.633 0 0 0-2.481-2.864 6.825 6.825 0 0 0-3.673-1.07 6.828 6.828 0 0 0-3.674 1.07 6.632 6.632 0 0 0-2.481 2.864 6.479 6.479 0 0 0-.484 3.727 6.545 6.545 0 0 0 1.67 3.382L2.38 16.677a.295.295 0 0 0-.088.209.29.29 0 0 0 .088.209.303.303 0 0 0 .329.064.303.303 0 0 0 .097-.064l2.167-2.124a6.765 6.765 0 0 0 4.546 1.746 6.765 6.765 0 0 0 4.545-1.746l2.185 2.141a.304.304 0 0 0 .426 0 .292.292 0 0 0 0-.417l-2.19-2.166zm-4.981 1.618a6.214 6.214 0 0 1-3.401-1.01 6.035 6.035 0 0 1-2.257-2.691 5.899 5.899 0 0 1-.354-3.467 5.971 5.971 0 0 1 1.669-3.076A6.165 6.165 0 0 1 8.29 4.253a6.24 6.24 0 0 1 3.538.33 6.104 6.104 0 0 1 2.755 2.2 5.925 5.925 0 0 1 1.048 3.329 5.913 5.913 0 0 1-.46 2.307 6.006 6.006 0 0 1-1.326 1.958 6.142 6.142 0 0 1-1.99 1.31 6.238 6.238 0 0 1-2.351.461z" fill="#1B1B1B"/><path d="M11.677 7.293L9.36 9.564 5.94 6.211a.304.304 0 0 0-.426 0 .292.292 0 0 0 0 .417l3.6 3.53.048.03a.301.301 0 0 0 .329.064.301.301 0 0 0 .097-.064l2.527-2.477a.292.292 0 0 0 0-.418.304.304 0 0 0-.426 0h-.012z" fill="#1B1B1B"/><path d="M6.597 1.947l.143-.14-.002-.003-.14.143zm-4.635.01l-.141-.143.141.142zM1 4.256l.2.001H1zm.952 2.306l-.141.142.141-.142zm.08.053l-.077.185.076-.185zm.186 0l.077.185-.077-.185zm.08-.053l-.142-.141.141.141zm4.3-4.278l.14.141.002-.001-.143-.14zM2.131 6.042l-.152.13.14.163.153-.151-.14-.142zm-.666-1.915l-.2-.008.2.008zm.817-1.856l.141.142-.14-.142zm3.794-.15l.141.141.155-.153-.166-.141-.13.152zm10.96-.169l.142-.142-.141.142zm-4.632 0l.14.142-.14-.142zm-.053.078l.184.078-.184-.078zm0 .186l-.185.077.185-.077zm.053.078l.14-.142-.14.142zm4.293 4.27l.142-.142-.142.141zm.08.052l.076-.185-.077.185zm.186 0l-.077-.185.076.185zm.078-.053l-.14-.141H16.9l.141.141zM18 4.257h-.2.2zm-1.142 1.786l-.063.19L17 5.9l-.14.142zm-3.95-3.917l-.128-.153-.167.14.155.155.14-.142zm1.922-.661l.008-.2-.008.2zm1.863.81l.14-.141-.14.142zm.815 1.853l-.2.008.2-.008zm-.664 1.91l-.152-.13-.194.226.283.094.063-.19zm-2.359 8.492l-.146-.136-.132.142.138.137.14-.143zm1.67-3.381l-.197-.033.198.033zm-.484-3.727l.183-.082-.183.082zM13.19 4.558l-.108.169.108-.169zm-3.673-1.07v.2-.2zm-3.674 1.07l.108.169-.108-.169zM3.362 7.422l-.183-.082.183.082zm-.484 3.727l.197-.033-.197.033zm1.67 3.382l.14.141.138-.136-.132-.142-.146.136zM2.38 16.677l.14.143h.001l-.14-.143zm-.088.209h.2-.2zm.023.113l.184-.078-.184.078zm.065.096l.14-.143-.14.143zm.426 0l-.14-.143.14.143zm2.167-2.124l.134-.148-.14-.127-.134.132.14.143zm9.091 0l.14-.143-.134-.132-.14.127.134.148zm2.185 2.141l.14-.142-.14.142zm.426 0l-.14-.142.14.142zm0-.417l-.14.142.14-.142zm-7.171-.548v.2-.2zm-5.658-3.701l.184-.078-.184.078zM3.493 8.98l-.196-.04.196.04zm1.669-3.076l.14.142-.14-.142zM8.29 4.253l.039.196-.04-.196zm3.538.33l.074-.186-.074.186zm2.755 2.2l.165-.114-.165.113zm1.048 3.329l.2-.001h-.2zm-1.786 4.265l-.14-.143.14.143zm-1.99 1.31l.075.185-.076-.185zm-.18-8.394v-.2h-.081l-.058.057.14.143zM9.36 9.564l-.14.143.14.137.14-.137-.14-.143zM5.94 6.211l.14-.143-.14.143zm-.426 0l.14.142-.14-.142zm0 .417l.14-.142-.14.142zm3.6 3.53l-.14.144.016.015.02.012.104-.17zm.048.03l.14-.142-.016-.016-.02-.012-.104.17zm.329.064l-.076-.185.076.185zm.097-.064l-.14-.143.14.143zm2.527-2.477l-.14-.143.14.143zm0-.418l-.14.143.14-.143zm-.426 0v.2h.081l.059-.057-.14-.143zM6.738 1.804A3.495 3.495 0 0 0 4.278.8v.4c.816-.002 1.6.318 2.179.889l.28-.285zM4.278.8A3.495 3.495 0 0 0 1.82 1.814l.282.284A3.095 3.095 0 0 1 4.278 1.2V.8zM1.82 1.814A3.455 3.455 0 0 0 .8 4.257l.4.001c.002-.81.326-1.587.903-2.16l-.282-.284zM.8 4.257a3.454 3.454 0 0 0 1.01 2.448l.284-.283A3.054 3.054 0 0 1 1.2 4.258H.8zm1.01 2.448c.042.04.09.074.145.096l.153-.37a.043.043 0 0 1-.014-.009l-.283.283zm.145.096a.444.444 0 0 0 .17.034v-.4a.044.044 0 0 1-.017-.004l-.153.37zm.17.034a.444.444 0 0 0 .17-.034l-.153-.37a.044.044 0 0 1-.017.004v.4zm.17-.034a.443.443 0 0 0 .144-.096l-.283-.283a.043.043 0 0 1-.014.01l.153.369zm.143-.096l4.3-4.279-.282-.283-4.3 4.279.282.283zm4.302-4.28a.44.44 0 0 0 .127-.31h-.4a.04.04 0 0 1-.012.03l.285.28zm.127-.31a.44.44 0 0 0-.127-.309l-.285.281a.04.04 0 0 1 .012.029h.4zM2.284 5.913a2.571 2.571 0 0 1-.618-1.777l-.4-.016c-.03.75.225 1.482.714 2.053l.304-.26zm-.618-1.777a2.574 2.574 0 0 1 .758-1.722l-.282-.284a2.974 2.974 0 0 0-.876 1.99l.4.016zm.758-1.722a2.607 2.607 0 0 1 1.735-.755l-.016-.4c-.753.03-1.467.34-2 .87l.281.285zm1.735-.755a2.61 2.61 0 0 1 1.79.615l.258-.305a3.01 3.01 0 0 0-2.064-.71l.016.4zm1.777.32L1.991 5.9l.282.284 3.945-3.922-.282-.283zm11.242-.168A3.49 3.49 0 0 0 14.721.8v.4a3.09 3.09 0 0 1 2.176.894l.281-.284zM14.721.8a3.49 3.49 0 0 0-2.457 1.01l.282.284A3.09 3.09 0 0 1 14.72 1.2V.8zm-2.457 1.01a.442.442 0 0 0-.097.143l.37.155a.04.04 0 0 1 .008-.014l-.28-.284zm-.097.143a.44.44 0 0 0-.034.17h.4l.003-.015-.369-.155zm-.034.17a.44.44 0 0 0 .034.17l.37-.155a.039.039 0 0 1-.004-.015h-.4zm.034.17a.442.442 0 0 0 .097.144l.281-.285a.04.04 0 0 1-.009-.014l-.369.155zm.097.143l4.293 4.27.282-.284-4.293-4.27-.282.284zm4.293 4.269c.04.04.09.074.144.096l.153-.37a.043.043 0 0 1-.014-.009l-.283.283zm.144.096a.443.443 0 0 0 .17.034v-.4a.043.043 0 0 1-.017-.004l-.153.37zm.17.034a.444.444 0 0 0 .17-.034l-.154-.37a.044.044 0 0 1-.017.004v.4zm.17-.034a.443.443 0 0 0 .143-.096l-.283-.283a.043.043 0 0 1-.014.01l.153.369zm.143-.096A3.453 3.453 0 0 0 18.2 4.257h-.4c0 .811-.322 1.59-.899 2.165l.283.283zM18.2 4.257a3.453 3.453 0 0 0-1.021-2.447l-.282.284c.577.574.902 1.352.903 2.163h.4zM17 5.9l-3.95-3.917-.282.284 3.95 3.917.281-.284zm-3.962-3.623a2.601 2.601 0 0 1 1.784-.613l.016-.4a3.001 3.001 0 0 0-2.058.708l.258.305zm1.784-.613a2.599 2.599 0 0 1 1.73.752l.282-.283a2.999 2.999 0 0 0-1.996-.869l-.016.4zm1.73.752c.46.458.73 1.072.756 1.719l.4-.016a2.968 2.968 0 0 0-.874-1.986l-.282.283zm.756 1.719a2.566 2.566 0 0 1-.616 1.772l.304.26c.488-.57.742-1.3.712-2.048l-.4.016zm-.527 2.092l.014.005.126-.38-.014-.005-.126.38zm-2.15 8.439a6.745 6.745 0 0 0 1.722-3.485l-.395-.066a6.344 6.344 0 0 1-1.619 3.278l.293.273zm1.722-3.485a6.679 6.679 0 0 0-.5-3.842l-.364.164a6.29 6.29 0 0 1 .47 3.612l.394.066zm-.5-3.842a6.833 6.833 0 0 0-2.555-2.95l-.216.337a6.433 6.433 0 0 1 2.407 2.777l.365-.164zm-2.555-2.95a7.025 7.025 0 0 0-3.781-1.102v.4a6.62 6.62 0 0 1 3.565 1.039l.216-.337zM9.517 3.288A7.024 7.024 0 0 0 5.735 4.39l.216.337a6.624 6.624 0 0 1 3.566-1.039v-.4zM5.735 4.39A6.832 6.832 0 0 0 3.18 7.34l.365.164a6.432 6.432 0 0 1 2.407-2.777l-.216-.337zM3.18 7.34a6.678 6.678 0 0 0-.499 3.842l.395-.066a6.278 6.278 0 0 1 .47-3.612L3.18 7.34zm-.499 3.842a6.744 6.744 0 0 0 1.721 3.485l.293-.273a6.345 6.345 0 0 1-1.62-3.278l-.394.066zm1.727 3.206L2.24 16.536l.282.284 2.166-2.148-.281-.284zM2.24 16.535a.495.495 0 0 0-.11.161l.37.156a.095.095 0 0 1 .02-.031l-.28-.286zm-.11.161a.49.49 0 0 0-.038.191h.4a.09.09 0 0 1 .007-.035l-.368-.156zm-.038.191c0 .066.013.13.039.19l.368-.155a.09.09 0 0 1-.007-.035h-.4zm.039.19a.47.47 0 0 0 .11.162l.28-.286a.094.094 0 0 1-.022-.03l-.368.155zm.11.162a.502.502 0 0 0 .162.106l.15-.37a.1.1 0 0 1-.033-.022l-.28.286zm.162.106c.06.025.125.037.19.037v-.4a.107.107 0 0 1-.04-.007l-.15.37zm.19.037c.066 0 .13-.012.19-.037l-.15-.37a.107.107 0 0 1-.04.007v.4zm.19-.037a.502.502 0 0 0 .163-.106l-.28-.286a.1.1 0 0 1-.033.022l.15.37zm.163-.106l2.167-2.124-.28-.286-2.167 2.124.28.286zm1.892-2.12a6.966 6.966 0 0 0 4.68 1.8v-.4a6.565 6.565 0 0 1-4.41-1.695l-.27.296zm4.68 1.8a6.965 6.965 0 0 0 4.68-1.8l-.268-.295a6.565 6.565 0 0 1-4.411 1.694v.4zm4.406-1.804l2.185 2.141.28-.285-2.185-2.142-.28.286zm2.185 2.141a.504.504 0 0 0 .353.144V17a.104.104 0 0 1-.073-.03l-.28.286zm.353.144a.504.504 0 0 0 .353-.144l-.28-.285a.105.105 0 0 1-.073.029v.4zm.353-.144a.493.493 0 0 0 .148-.351h-.4c0 .024-.01.047-.028.066l.28.285zm.148-.351a.493.493 0 0 0-.148-.352l-.28.286a.093.093 0 0 1 .028.066h.4zm-.147-.352l-2.19-2.165-.282.285 2.19 2.165.282-.285zm-7.312-.605a6.015 6.015 0 0 1-3.292-.977l-.219.335a6.415 6.415 0 0 0 3.51 1.043v-.4zm-3.292-.977a5.835 5.835 0 0 1-2.182-2.602l-.368.156a6.235 6.235 0 0 0 2.331 2.78l.22-.334zM4.03 12.369a5.698 5.698 0 0 1-.342-3.35l-.392-.079a6.098 6.098 0 0 0 .366 3.585l.368-.156zm-.342-3.35a5.771 5.771 0 0 1 1.613-2.973l-.28-.285a6.171 6.171 0 0 0-1.725 3.18l.392.078zm1.613-2.973A5.965 5.965 0 0 1 8.33 4.449l-.078-.393a6.365 6.365 0 0 0-3.23 1.705l.28.285zM8.33 4.449a6.04 6.04 0 0 1 3.424.32l.15-.372a6.441 6.441 0 0 0-3.652-.34l.078.392zm3.424.32a5.904 5.904 0 0 1 2.666 2.127l.33-.227a6.304 6.304 0 0 0-2.847-2.272l-.149.371zm2.666 2.127a5.725 5.725 0 0 1 1.012 3.217l.4-.002a6.125 6.125 0 0 0-1.083-3.442l-.33.227zm1.012 3.217a5.712 5.712 0 0 1-.444 2.229l.369.154a6.112 6.112 0 0 0 .475-2.385l-.4.002zm-.444 2.229a5.806 5.806 0 0 1-1.282 1.892l.28.285a6.204 6.204 0 0 0 1.37-2.023l-.368-.155zm-1.282 1.892a5.941 5.941 0 0 1-1.926 1.268l.15.37a6.34 6.34 0 0 0 2.056-1.353l-.28-.285zm-1.926 1.268a6.038 6.038 0 0 1-2.276.446v.4c.833 0 1.658-.162 2.427-.476l-.151-.37zm-.243-8.352L9.22 9.422l.28.285 2.317-2.271-.28-.286zM9.5 9.422L6.08 6.068l-.28.285 3.42 3.354.28-.285zM6.08 6.068a.504.504 0 0 0-.353-.144v.4c.028 0 .054.011.073.03l.28-.286zm-.353-.144a.504.504 0 0 0-.353.144l.28.285a.104.104 0 0 1 .073-.029v-.4zm-.353.144a.492.492 0 0 0-.149.351h.4c0-.024.01-.047.029-.066l-.28-.285zm-.149.351c0 .133.054.26.149.352l.28-.285a.093.093 0 0 1-.029-.067h-.4zm.149.352l3.6 3.53.28-.285-3.6-3.53-.28.285zM9.01 10.33l.048.03.209-.341-.048-.03-.21.341zm.012.001a.498.498 0 0 0 .162.108l.152-.37a.1.1 0 0 1-.033-.022l-.281.284zm.162.108a.52.52 0 0 0 .191.037v-.4a.105.105 0 0 1-.04-.008l-.15.37zm.191.037a.52.52 0 0 0 .191-.037l-.151-.37a.105.105 0 0 1-.04.007v.4zm.191-.037a.498.498 0 0 0 .163-.108l-.281-.284a.1.1 0 0 1-.033.021l.151.37zm.162-.107l2.527-2.477-.28-.286-2.527 2.477.28.286zm2.527-2.477a.493.493 0 0 0 .148-.352h-.4c0 .024-.01.048-.028.066l.28.286zm.148-.352a.493.493 0 0 0-.148-.352l-.28.286a.093.093 0 0 1 .028.066h.4zm-.148-.352a.504.504 0 0 0-.353-.143v.4c.028 0 .054.01.073.029l.28-.286zm-.353-.143a.504.504 0 0 0-.353.143l.28.286a.104.104 0 0 1 .073-.03v-.4zm-.213.086h-.012v.4h.012v-.4z" fill="#1B1B1B" mask="url(#path-1-outside-1)"/></svg>