<svg width="22" height="19" fill="none" xmlns="http://www.w3.org/2000/svg"><path d="M19.981 2.014a3.474 3.474 0 0 0-4.905 0 .257.257 0 0 0 0 .364l4.546 4.546a.258.258 0 0 0 .364 0 3.474 3.474 0 0 0-.005-4.91zm-.19 4.356L15.61 2.198a2.955 2.955 0 0 1 4.166 4.167l.015.005zM2.019 2.014a3.474 3.474 0 0 1 4.905 0 .256.256 0 0 1 0 .364L2.378 6.924a.256.256 0 0 1-.364 0 3.474 3.474 0 0 1 .005-4.91zm.19 4.356L6.39 2.198a2.955 2.955 0 0 0-4.166 4.167l-.015.005zm14.146 8.664a7.372 7.372 0 0 0 1.794-3.758 7.424 7.424 0 0 0-.52-4.141 7.303 7.303 0 0 0-2.666-3.181 7.154 7.154 0 0 0-3.945-1.19 7.154 7.154 0 0 0-3.947 1.19 7.303 7.303 0 0 0-2.665 3.181 7.424 7.424 0 0 0-.52 4.142 7.371 7.371 0 0 0 1.794 3.757L3.353 17.42a.328.328 0 0 0-.07.358.329.329 0 0 0 .175.178.32.32 0 0 0 .352-.071l2.327-2.36a7.133 7.133 0 0 0 4.884 1.94c1.81 0 3.554-.693 4.883-1.94l2.346 2.38a.322.322 0 0 0 .458 0 .33.33 0 0 0 0-.465l-2.353-2.406zm-5.35 1.798c-1.3 0-2.572-.39-3.654-1.123a6.656 6.656 0 0 1-2.424-2.99 6.763 6.763 0 0 1-.38-3.852 6.706 6.706 0 0 1 1.792-3.419 6.555 6.555 0 0 1 3.362-1.834 6.496 6.496 0 0 1 3.8.366 6.602 6.602 0 0 1 2.96 2.444 6.741 6.741 0 0 1-.793 8.44 6.583 6.583 0 0 1-2.138 1.455 6.51 6.51 0 0 1-2.525.513z" fill="#3A50C5" stroke="#3A50C5" stroke-width=".75"/><path d="M13.337 6.992L10.85 9.516 7.175 5.789a.321.321 0 0 0-.458 0 .33.33 0 0 0 0 .465l3.868 3.922.051.033a.323.323 0 0 0 .353.072.322.322 0 0 0 .105-.072l2.714-2.752a.33.33 0 0 0 0-.465.321.321 0 0 0-.458 0h-.013z" fill="#3A50C5" stroke="#3A50C5" stroke-width=".75"/></svg>