<svg width="22" height="22" fill="none" xmlns="http://www.w3.org/2000/svg"><path fill-rule="evenodd" clip-rule="evenodd" d="M11.005 12.415l8.582 8.581 1.415-1.414-8.582-8.58 8.584-8.584-1.414-1.414-8.585 8.583L2.42 1.002 1.005 2.416l8.586 8.585-8.583 8.583 1.414 1.414 8.583-8.583z" fill="#1B1B1B"/><path d="M19.587 20.996l-.353.354.353.353.354-.353-.354-.354zm-8.582-8.58l.354-.354-.354-.354-.353.354.354.353zm9.997 7.166l.353.354.354-.354-.354-.354-.353.354zm-8.582-8.58l-.354-.354-.353.353.353.354.354-.354zm8.584-8.584l.354.354.353-.354-.353-.354-.354.354zM19.59 1.004l.354-.354-.354-.353-.353.353.353.354zm-8.585 8.583l-.353.354.354.353.353-.353-.354-.354zM2.42 1.002l.354-.354L2.42.295l-.354.353.354.354zM1.005 2.416L.65 2.063l-.353.353.353.354.354-.354zm8.586 8.585l.354.354.353-.354-.353-.353L9.59 11zm-8.583 8.583l-.354-.354-.354.354.354.353.354-.353zm1.414 1.414l-.354.354.354.353.353-.353-.353-.354zm17.519-.355l-8.582-8.581-.707.707 8.582 8.581.707-.707zm.707-1.415l-1.414 1.415.707.707 1.414-1.414-.707-.707zm-8.582-7.873l8.582 8.58.707-.706-8.582-8.581-.707.707zm.707 0l8.585-8.583-.707-.708-8.585 8.584.707.707zm8.585-9.29L19.944.65l-.707.707 1.414 1.414.707-.707zM19.237.65l-8.585 8.584.707.707 8.585-8.584-.707-.707zm-17.172.705l8.587 8.586.707-.707L2.773.648l-.708.707zM1.358 2.77l1.415-1.415-.708-.707L.651 2.063l.707.707zm8.587 7.878L1.358 2.063l-.707.707 8.587 8.585.707-.707zm-.707 0L.654 19.23l.707.707 8.584-8.582-.707-.707zm-8.584 9.29l1.414 1.414.707-.707-1.414-1.415-.707.707zm2.121 1.414l8.584-8.583-.707-.707-8.584 8.583.707.707z" fill="#1B1B1B"/></svg>