<svg width="52" height="12" fill="none" xmlns="http://www.w3.org/2000/svg"><path d="M9.151 0h-2.56c0 2.172-.965 4.154-2.64 5.46l-1.011.783 3.926 5.531h3.227L6.476 6.682C8.186 4.926 9.151 2.552 9.151 0zM2.618 0H0v11.774h2.618V0zm10.701 0H10.85v11.774h2.469V0zm21.653 3.407c-.941 0-1.837.296-2.434 1.139v-.914h-2.342v8.143h2.377V7.502c0-1.235.803-1.84 1.768-1.84 1.033 0 1.63.64 1.63 1.828v4.296h2.354V6.6c0-1.899-1.458-3.192-3.353-3.192zm-14.19.225v.522a4.007 4.007 0 0 0-2.342-.747c-2.297 0-4.157 1.922-4.157 4.296 0 2.374 1.86 4.297 4.157 4.297.872 0 1.676-.273 2.342-.748v.522h2.354V3.633h-2.354zm-2.147 6.16c-1.183 0-2.136-.937-2.136-2.089 0-1.151.953-2.089 2.136-2.089 1.183 0 2.135.938 2.135 2.09 0 1.15-.952 2.088-2.135 2.088zm8.151-5.104V3.632h-2.411v8.142h2.422V7.976c0-1.282 1.344-1.97 2.274-1.97h.023V3.632c-.953 0-1.837.427-2.308 1.056zM45.65 3.632v.522a4.008 4.008 0 0 0-2.342-.747c-2.296 0-4.156 1.922-4.156 4.296 0 2.374 1.86 4.297 4.156 4.297.873 0 1.676-.273 2.342-.748v.522h2.354V3.633H45.65zm-2.147 6.16c-1.182 0-2.136-.937-2.136-2.089 0-1.151.954-2.089 2.136-2.089 1.183 0 2.136.938 2.136 2.09.011 1.15-.953 2.088-2.136 2.088zm6.327-5.923c0-.119-.08-.19-.206-.19h-.218v.617h.103v-.225h.115l.092.225h.115l-.104-.249c.07-.036.104-.095.104-.178zm-.206.095h-.115v-.19h.115c.069 0 .103.036.103.095 0 .06-.023.095-.103.095z" fill="#000"/><path d="M49.588 3.418a.573.573 0 0 0-.562.582c.011.32.252.582.562.582.31 0 .563-.261.563-.582a.573.573 0 0 0-.563-.582zm0 1.057c-.252 0-.447-.214-.447-.475s.206-.475.447-.475c.253 0 .448.214.448.475s-.207.475-.448.475zm.931 4.415c-.815 0-1.481.689-1.481 1.531 0 .843.666 1.531 1.481 1.531.815 0 1.481-.688 1.481-1.53 0-.855-.666-1.532-1.481-1.532z" fill="#000"/></svg>