<svg width="40" height="26" fill="none" xmlns="http://www.w3.org/2000/svg"><rect x=".5" y=".5" width="39" height="25" rx="1.5" stroke="#C2C0C1" stroke-opacity=".6"/><path d="M10.28 10H8.802a3.758 3.758 0 0 1-1.523 3.033l-.583.436 2.265 3.072h1.862l-2.087-2.829A5.187 5.187 0 0 0 10.28 10zm-3.77 0H5v6.541h1.51V10zm6.174 0H11.26v6.541h1.424V10zm12.493 1.893c-.544 0-1.06.164-1.405.633v-.508h-1.351v4.523h1.371v-2.373c0-.686.464-1.022 1.02-1.022.596 0 .94.355.94 1.015v2.387h1.359v-2.882c0-1.055-.841-1.773-1.934-1.773zm-8.187.125v.29a2.373 2.373 0 0 0-1.352-.415 2.392 2.392 0 0 0-2.398 2.387 2.392 2.392 0 0 0 2.398 2.387c.504 0 .967-.152 1.351-.416v.29h1.358v-4.523H16.99zm-1.24 3.422c-.681 0-1.231-.52-1.231-1.16 0-.64.55-1.16 1.232-1.16.682 0 1.232.52 1.232 1.16 0 .64-.55 1.16-1.232 1.16zm4.704-2.835v-.587h-1.391v4.523h1.397v-2.11c0-.712.775-1.094 1.312-1.094h.013v-1.32c-.55 0-1.06.238-1.331.588zm10.883-.587v.29a2.373 2.373 0 0 0-1.352-.415 2.392 2.392 0 0 0-2.398 2.387 2.392 2.392 0 0 0 2.398 2.387c.504 0 .968-.152 1.352-.416v.29h1.358v-4.523h-1.358zm-1.239 3.422c-.682 0-1.232-.52-1.232-1.16 0-.64.55-1.16 1.232-1.16.682 0 1.232.52 1.232 1.16.007.64-.55 1.16-1.232 1.16zm3.65-3.29c0-.066-.046-.106-.119-.106h-.126v.343h.06v-.125h.066l.053.125h.066l-.06-.139c.04-.02.06-.052.06-.098zm-.119.052h-.066v-.105h.066c.04 0 .06.02.06.053 0 .032-.014.052-.06.052z" fill="#000"/><path d="M33.609 11.899a.324.324 0 0 0-.325.323.329.329 0 0 0 .325.323.324.324 0 0 0 .324-.323.324.324 0 0 0-.324-.323zm0 .587a.26.26 0 0 1-.259-.264c0-.145.12-.264.259-.264a.26.26 0 0 1 .258.264c0 .145-.12.264-.258.264zm.537 2.453a.855.855 0 0 0-.855.85.855.855 0 0 0 1.71 0 .85.85 0 0 0-.855-.85z" fill="#000"/></svg>