<svg width="40" height="26" fill="none" xmlns="http://www.w3.org/2000/svg"><path d="M34 13.4c0 4.622-3.733 8.4-8.4 8.4-4.622 0-8.4-3.778-8.4-8.4S20.933 5 25.555 5C30.267 5 34 8.778 34 13.4z" fill="#FFB600"/><path d="M14.311 5C9.733 5.044 6 8.778 6 13.4s3.733 8.4 8.4 8.4c2.178 0 4.133-.844 5.644-2.178.312-.266.578-.578.845-.889h-1.733a10.224 10.224 0 0 1-.623-.844h2.978A5.67 5.67 0 0 0 22 17h-3.956a5.302 5.302 0 0 1-.355-.889h4.622c.267-.844.445-1.733.445-2.667 0-.622-.09-1.2-.178-1.777h-5.156c.045-.311.134-.578.222-.89h4.623a5.303 5.303 0 0 0-.356-.888H18c.133-.311.311-.578.489-.889h2.978a4.226 4.226 0 0 0-.667-.889h-1.644A7.57 7.57 0 0 1 20 7.267c-1.467-1.378-3.467-2.178-5.644-2.178 0-.089 0-.089-.045-.089z" fill="#FF5050"/><path d="M17.378 15.533l.133-.755c-.044 0-.133.044-.222.044-.311 0-.356-.178-.311-.267L17.244 13h.49l.133-.845h-.445l.09-.533h-.89s-.533 2.933-.533 3.289c0 .533.311.755.711.755.267 0 .489-.088.578-.133zm.311-1.422c0 1.244.844 1.556 1.555 1.556.667 0 .934-.134.934-.134l.178-.844s-.49.222-.934.222c-.977 0-.8-.711-.8-.711h1.823s.133-.578.133-.8c0-.578-.311-1.289-1.29-1.289-.932-.089-1.6.889-1.6 2zm1.555-1.289c.49 0 .4.578.4.622h-.977c0-.044.089-.622.577-.622zm5.645 2.711l.178-.977s-.445.222-.756.222c-.622 0-.889-.49-.889-1.023 0-1.066.534-1.644 1.156-1.644.444 0 .8.267.8.267l.133-.934s-.533-.222-1.022-.222c-1.022 0-2.044.89-2.044 2.578 0 1.111.533 1.867 1.6 1.867.355 0 .844-.134.844-.134zm-12.4-3.51c-.622 0-1.067.177-1.067.177l-.133.756s.4-.178.978-.178c.31 0 .578.044.578.311 0 .178-.045.222-.045.222h-.4c-.755 0-1.6.312-1.6 1.334 0 .8.533.978.845.978.622 0 .888-.4.933-.4l-.045.355h.8l.356-2.444c0-1.067-.889-1.111-1.2-1.111zm.178 2c0 .133-.09.844-.623.844-.266 0-.355-.222-.355-.356 0-.222.133-.533.8-.533.133.045.178.045.178.045zm1.866 1.599c.223 0 1.334.044 1.334-1.156 0-1.11-1.067-.888-1.067-1.333 0-.222.178-.311.489-.311.133 0 .622.044.622.044l.133-.8s-.31-.089-.844-.089c-.667 0-1.333.267-1.333 1.156 0 1.022 1.11.933 1.11 1.333 0 .267-.31.312-.533.312-.4 0-.8-.134-.8-.134l-.133.8c.045.09.267.178 1.022.178zm17.734-4.311l-.178 1.2s-.356-.444-.845-.444c-.8 0-1.51.977-1.51 2.133 0 .711.355 1.467 1.11 1.467.534 0 .845-.356.845-.356l-.045.311h.89l.666-4.267-.933-.044zm-.4 2.356c0 .489-.223 1.11-.711 1.11-.312 0-.49-.266-.49-.71 0-.712.312-1.156.712-1.156.31 0 .489.222.489.756zM7.644 15.578l.534-3.2.089 3.2h.622l1.155-3.2-.488 3.2h.933l.711-4.267H9.733l-.889 2.622-.044-2.622H7.511L6.8 15.578h.844zm13.778 0c.267-1.467.311-2.667.934-2.445.088-.578.222-.8.31-1.022h-.177c-.4 0-.711.533-.711.533l.089-.489h-.845l-.577 3.467h.977v-.044zm5.511-3.555c-.622 0-1.066.177-1.066.177l-.134.756s.4-.178.978-.178c.311 0 .578.044.578.311 0 .178-.045.222-.045.222h-.4c-.755 0-1.6.312-1.6 1.334 0 .8.534.978.845.978.622 0 .889-.4.933-.4l-.044.355h.8l.355-2.444c.045-1.067-.889-1.111-1.2-1.111zm.223 2c0 .133-.09.844-.623.844-.266 0-.355-.222-.355-.356 0-.222.133-.533.8-.533.133.045.133.045.178.045zm1.733 1.555c.267-1.467.311-2.667.933-2.445.09-.578.223-.8.311-1.022h-.177c-.4 0-.712.533-.712.533l.09-.489h-.845l-.578 3.467h.978v-.044z" fill="#fff"/><rect x=".5" y=".5" width="39" height="25" rx="1.5" stroke="#C2C0C1" stroke-opacity=".6"/></svg>