<svg width="11" height="18" fill="none" xmlns="http://www.w3.org/2000/svg"><mask id="a" maskUnits="userSpaceOnUse" x="0" y="0" width="11" height="18" fill="#000"><path fill="#fff" d="M0 0h11v18H0z"/><path d="M2.316 1.232h6.366c.328 0 .626.15.842.39.216.24.35.573.35.938v13.111c0 .366-.134.698-.35.939a1.13 1.13 0 0 1-.842.39H2.316a1.13 1.13 0 0 1-.842-.39 1.405 1.405 0 0 1-.35-.939V2.561c0-.366.134-.699.35-.94.216-.24.514-.39.842-.39zm6.366.657H2.316a.571.571 0 0 0-.426.197.71.71 0 0 0-.177.474v13.111a.71.71 0 0 0 .177.474c.11.122.26.198.426.198h6.366a.571.571 0 0 0 .425-.198.71.71 0 0 0 .178-.474V2.561a.71.71 0 0 0-.178-.475.571.571 0 0 0-.425-.197z"/><path d="M7.857 1v.917a.97.97 0 0 1-.242.648.78.78 0 0 1-.581.27H3.966a.78.78 0 0 1-.581-.27.97.97 0 0 1-.242-.648V1h4.714zM9.79 4.78c-.116 0-.21.105-.21.235v1.661c0 .13.094.234.21.234.116 0 .21-.105.21-.234V5.015c0-.13-.094-.234-.21-.234zM1.21 6.563c-.116 0-.21.105-.21.234V8.46c0 .129.094.234.21.234.116 0 .21-.105.21-.234V6.797c0-.129-.094-.234-.21-.234zm0-2.153c-.116 0-.21.104-.21.234v1.661c0 .13.094.234.21.234.116 0 .21-.105.21-.234V4.644c0-.13-.094-.234-.21-.234zm0-1.293c-.116 0-.21.104-.21.233v.726c0 .13.094.234.21.234.116 0 .21-.104.21-.234V3.35c0-.129-.094-.233-.21-.233z"/></mask><path d="M2.316 1.232h6.366c.328 0 .626.15.842.39.216.24.35.573.35.938v13.111c0 .366-.134.698-.35.939a1.13 1.13 0 0 1-.842.39H2.316a1.13 1.13 0 0 1-.842-.39 1.405 1.405 0 0 1-.35-.939V2.561c0-.366.134-.699.35-.94.216-.24.514-.39.842-.39zm6.366.657H2.316a.571.571 0 0 0-.426.197.71.71 0 0 0-.177.474v13.111a.71.71 0 0 0 .177.474c.11.122.26.198.426.198h6.366a.571.571 0 0 0 .425-.198.71.71 0 0 0 .178-.474V2.561a.71.71 0 0 0-.178-.475.571.571 0 0 0-.425-.197z" fill="#1B1B1B"/><path d="M7.857 1v.917a.97.97 0 0 1-.242.648.78.78 0 0 1-.581.27H3.966a.78.78 0 0 1-.581-.27.97.97 0 0 1-.242-.648V1h4.714zM9.79 4.78c-.116 0-.21.105-.21.235v1.661c0 .13.094.234.21.234.116 0 .21-.105.21-.234V5.015c0-.13-.094-.234-.21-.234zM1.21 6.563c-.116 0-.21.105-.21.234V8.46c0 .129.094.234.21.234.116 0 .21-.105.21-.234V6.797c0-.129-.094-.234-.21-.234zm0-2.153c-.116 0-.21.104-.21.234v1.661c0 .13.094.234.21.234.116 0 .21-.105.21-.234V4.644c0-.13-.094-.234-.21-.234zm0-1.293c-.116 0-.21.104-.21.233v.726c0 .13.094.234.21.234.116 0 .21-.104.21-.234V3.35c0-.129-.094-.233-.21-.233z" fill="#1B1B1B"/><path d="M9.524 1.622l-.223.2.223-.2zm0 14.988l-.223-.2.223.2zm-8.05 0l-.224.2.224-.2zm0-14.988l-.224-.2.224.2zm.416.464l-.223-.2.223.2zm0 14.06l-.223.2.223-.2zm7.217 0l-.223-.2.223.2zm0-14.06l-.223.2.223-.2zM7.857 1h.3V.7h-.3V1zm-.242 1.565l-.223-.2.223.2zm-4.23 0l.223-.2-.223.2zM3.143 1V.7h-.3V1h.3zm-.827.532h6.366v-.6H2.316v.6zm6.366 0a.83.83 0 0 1 .619.29l.446-.4a1.43 1.43 0 0 0-1.065-.49v.6zm.619.29c.166.185.273.446.273.738h.6c0-.438-.16-.842-.427-1.139l-.446.401zm.273.738v13.111h.6V2.561h-.6zm0 13.111c0 .293-.107.554-.273.739l.446.4c.266-.296.427-.7.427-1.139h-.6zm-.273.739a.83.83 0 0 1-.619.29v.6c.423 0 .8-.193 1.065-.49l-.446-.4zm-.619.29H2.316v.6h6.366v-.6zm-6.366 0a.83.83 0 0 1-.619-.29l-.447.4c.267.297.643.49 1.066.49v-.6zm-.619-.29a1.105 1.105 0 0 1-.273-.739h-.6c0 .44.16.843.426 1.14l.447-.401zm-.273-.739V2.561h-.6v13.11h.6zm0-13.11c0-.293.107-.554.273-.739l-.447-.4c-.265.296-.426.7-.426 1.138h.6zm.273-.739a.831.831 0 0 1 .619-.29v-.6c-.423 0-.8.193-1.066.49l.447.4zm6.985-.233H2.316v.6h6.366v-.6zm-6.366 0c-.26 0-.49.12-.649.297l.447.4a.272.272 0 0 1 .202-.097v-.6zm-.649.297a1.01 1.01 0 0 0-.254.674h.6c0-.11.041-.207.1-.273l-.446-.401zm-.254.674v13.111h.6V2.561h-.6zm0 13.111c0 .258.095.498.254.675l.447-.4a.41.41 0 0 1-.1-.275h-.6zm.254.675c.16.177.388.297.649.297v-.6a.272.272 0 0 1-.202-.098l-.447.4zm.649.297h6.366v-.6H2.316v.6zm6.366 0c.26 0 .49-.12.649-.297l-.447-.4a.272.272 0 0 1-.202.097v.6zm.649-.297a1.01 1.01 0 0 0 .254-.675h-.6a.41.41 0 0 1-.1.274l.446.4zm.254-.675V2.561h-.6v13.11h.6zm0-13.11a1.01 1.01 0 0 0-.254-.675l-.447.4c.06.067.1.164.1.274h.6zm-.254-.675a.871.871 0 0 0-.649-.297v.6a.27.27 0 0 1 .202.098l.447-.401zm-1.774.031a.67.67 0 0 1-.165.448l.446.4a1.27 1.27 0 0 0 .319-.848h-.6zm-.165.448a.481.481 0 0 1-.358.17v.6c.32 0 .605-.147.804-.37l-.446-.4zm-.358.17H3.966v.6h3.068v-.6zm-3.068 0a.481.481 0 0 1-.358-.17l-.446.4c.199.223.483.37.804.37v-.6zm-.358-.17a.67.67 0 0 1-.165-.448h-.6c0 .326.12.627.319.849l.446-.4zM9.79 4.481c-.311 0-.51.27-.51.534h.6a.054.054 0 0 1-.015.035.102.102 0 0 1-.075.03v-.6zm-.51.534v1.661h.6V5.015h-.6zm0 1.661c0 .264.199.534.51.534v-.6a.1.1 0 0 1 .075.031.053.053 0 0 1 .016.035h-.6zm.51.534c.312 0 .51-.27.51-.534h-.6c0-.008.003-.021.015-.035a.102.102 0 0 1 .075-.03v.6zm.51-.534V5.015h-.6v1.661h.6zm0-1.661c0-.264-.198-.534-.51-.534v.6a.102.102 0 0 1-.075-.031.053.053 0 0 1-.015-.035h.6zM1.21 6.263c-.312 0-.51.27-.51.534h.6a.054.054 0 0 1-.015.035.102.102 0 0 1-.075.031v-.6zm-.51.534V8.46h.6V6.797H.7zm0 1.662c0 .263.198.534.51.534v-.6c.036 0 .062.017.075.03a.054.054 0 0 1 .015.036H.7zm.51.534c.311 0 .51-.27.51-.534h-.6c0-.008.003-.021.015-.035a.101.101 0 0 1 .075-.031v.6zm.51-.534V6.797h-.6V8.46h.6zm0-1.662c0-.263-.199-.534-.51-.534v.6a.102.102 0 0 1-.075-.03.054.054 0 0 1-.015-.036h.6zM1.21 4.11c-.312 0-.51.27-.51.534h.6a.054.054 0 0 1-.015.035.102.102 0 0 1-.075.03v-.6zm-.51.534v1.661h.6V4.644H.7zm0 1.661c0 .264.198.534.51.534v-.6c.036 0 .062.017.075.031a.054.054 0 0 1 .015.035H.7zm.51.534c.311 0 .51-.27.51-.534h-.6c0-.008.003-.021.015-.035a.101.101 0 0 1 .075-.03v.6zm.51-.534V4.644h-.6v1.661h.6zm0-1.661c0-.264-.199-.534-.51-.534v.6a.102.102 0 0 1-.075-.031.054.054 0 0 1-.015-.035h.6zm-.51-1.827c-.312 0-.51.27-.51.533h.6a.054.054 0 0 1-.015.035.102.102 0 0 1-.075.032v-.6zM.7 3.35v.726h.6V3.35H.7zm0 .726c0 .264.198.534.51.534v-.6c.036 0 .062.017.075.031a.054.054 0 0 1 .015.035H.7zm.51.534c.311 0 .51-.27.51-.534h-.6c0-.008.003-.02.015-.035a.102.102 0 0 1 .075-.03v.6zm.51-.534V3.35h-.6v.726h.6zm0-.726c0-.263-.199-.533-.51-.533v.6a.102.102 0 0 1-.075-.032.054.054 0 0 1-.015-.035h.6zM3.143 1.3h4.714V.7H3.143v.6zM7.557 1v.917h.6V1h-.6zm-4.114.917V1h-.6v.917h.6z" fill="#1B1B1B" mask="url(#a)"/></svg>