<svg width="26" height="20" fill="none" xmlns="http://www.w3.org/2000/svg"><path d="M12.32 1.964a12.041 12.041 0 0 0-3.069.866 12.681 12.681 0 0 0-2.645 1.665 9.27 9.27 0 0 0-1.952 2.241c-.523.863-.876 1.757-1.03 2.689-.094.565-.092 1.08.035 1.55s.32.712.604.765c.284.053.522.029.742-.067.221-.096.442-.192.668-.32.226-.13.475-.22.753-.306.277-.085.628-.088 1.054-.008.88.165 1.579.708 2.065 1.656.515.954.65 2.077.44 3.341-.22 1.331-.834 2.382-1.862 3.116-1.029.733-2.155 1.002-3.432.763-.823-.154-1.555-.497-2.165-1.057a6.5 6.5 0 0 1-1.58-2.114c-.417-.833-.699-1.778-.85-2.801-.153-1.023-.118-2.114.07-3.246.292-1.763.846-3.34 1.634-4.736.815-1.39 1.768-2.55 2.915-3.467A10.916 10.916 0 0 1 8.475.455a10.033 10.033 0 0 1 4.16-.387l-.315 1.896zm13.365 0a12.042 12.042 0 0 0-3.068.866 12.683 12.683 0 0 0-2.646 1.665 9.27 9.27 0 0 0-1.951 2.241c-.523.863-.876 1.757-1.031 2.689-.094.565-.091 1.08.035 1.55.127.47.321.712.605.765.283.053.521.029.742-.067.22-.096.441-.192.667-.32.227-.13.476-.22.753-.306.277-.085.629-.088 1.054-.008.88.165 1.58.708 2.066 1.656.514.954.65 2.077.44 3.341-.221 1.331-.834 2.382-1.863 3.116-1.028.733-2.155 1.002-3.431.763-.823-.154-1.556-.497-2.165-1.057a6.5 6.5 0 0 1-1.58-2.114c-.417-.833-.7-1.778-.851-2.801-.152-1.023-.117-2.114.07-3.246.293-1.763.847-3.34 1.634-4.736.816-1.39 1.769-2.55 2.915-3.467A10.916 10.916 0 0 1 21.84.455 10.032 10.032 0 0 1 26 .068l-.315 1.896z" fill="#3A50C5"/></svg>