<svg width="20" height="20" viewBox="0 0 20 20" fill="none" xmlns="http://www.w3.org/2000/svg">
<path d="M9.50898 9.16667L11.4257 7.25834C11.5038 7.18087 11.5658 7.0887 11.6081 6.98715C11.6504 6.8856 11.6722 6.77668 11.6722 6.66667C11.6722 6.55666 11.6504 6.44774 11.6081 6.34619C11.5658 6.24464 11.5038 6.15247 11.4257 6.075C11.3482 5.9969 11.256 5.9349 11.1545 5.89259C11.0529 5.85028 10.944 5.8285 10.834 5.8285C10.724 5.8285 10.6151 5.85028 10.5135 5.89259C10.412 5.9349 10.3198 5.9969 10.2423 6.075L6.90898 9.40833C6.83312 9.48759 6.77365 9.58104 6.73398 9.68334C6.65064 9.88622 6.65064 10.1138 6.73398 10.3167C6.77365 10.419 6.83312 10.5124 6.90898 10.5917L10.2423 13.925C10.32 14.0027 10.4123 14.0643 10.5138 14.1064C10.6153 14.1484 10.7241 14.1701 10.834 14.1701C10.9439 14.1701 11.0527 14.1484 11.1542 14.1064C11.2557 14.0643 11.348 14.0027 11.4257 13.925C11.5033 13.8473 11.565 13.7551 11.607 13.6535C11.6491 13.552 11.6707 13.4432 11.6707 13.3333C11.6707 13.2235 11.6491 13.1146 11.607 13.0131C11.565 12.9116 11.5033 12.8194 11.4257 12.7417L9.50898 10.8333L17.5007 10.8333C17.7217 10.8333 17.9336 10.7455 18.0899 10.5893C18.2462 10.433 18.334 10.221 18.334 10C18.334 9.77899 18.2462 9.56703 18.0899 9.41075C17.9336 9.25447 17.7217 9.16667 17.5007 9.16667L9.50898 9.16667ZM10.0007 18.3333C11.5581 18.3403 13.0863 17.9107 14.4119 17.0932C15.7376 16.2757 16.8076 15.1031 17.5007 13.7083C17.6001 13.5094 17.6165 13.2791 17.5461 13.0682C17.4758 12.8572 17.3246 12.6828 17.1257 12.5833C16.9267 12.4839 16.6965 12.4675 16.4855 12.5378C16.2745 12.6082 16.1001 12.7594 16.0007 12.9583C15.4738 14.0222 14.6725 14.9262 13.6794 15.5767C12.6863 16.2272 11.5375 16.6007 10.3517 16.6587C9.16591 16.7166 7.98617 16.4569 6.93439 15.9062C5.8826 15.3556 4.99693 14.5341 4.36889 13.5267C3.74086 12.5192 3.39325 11.3623 3.36198 10.1755C3.33072 8.98873 3.61694 7.81513 4.19106 6.77599C4.76517 5.73685 5.60637 4.86987 6.6277 4.26465C7.64904 3.65942 8.81347 3.33791 10.0007 3.33334C11.2433 3.32795 12.4622 3.67303 13.5176 4.32896C14.573 4.98489 15.422 5.9251 15.9673 7.04167C16.0668 7.24058 16.2412 7.39184 16.4522 7.46216C16.6631 7.53249 16.8934 7.51612 17.0923 7.41667C17.2912 7.31721 17.4425 7.14281 17.5128 6.93183C17.5831 6.72086 17.5668 6.49058 17.4673 6.29167C16.8066 4.96208 15.8027 3.83314 14.5594 3.02163C13.3161 2.21012 11.8786 1.74551 10.3956 1.67585C8.91249 1.60619 7.43775 1.93401 6.12386 2.62541C4.80998 3.31681 3.70467 4.34668 2.92226 5.60848C2.13985 6.87029 1.70876 8.31822 1.67357 9.8025C1.63838 11.2868 2.00038 12.7535 2.72211 14.051C3.44385 15.3484 4.49912 16.4295 5.77876 17.1824C7.0584 17.9353 8.51595 18.3326 10.0007 18.3333Z" fill="#DE0606"/>
</svg>
