<svg width="8" height="17" fill="none" xmlns="http://www.w3.org/2000/svg"><path d="M4.001 15.543c-1.323 0-2.4-.98-2.4-2.185s1.077-2.185 2.4-2.185 2.4.98 2.4 2.185-1.077 2.185-2.4 2.185z" fill="#1B1B1B"/><path d="M4 11.507c-.22 0-.4-.164-.4-.364v-4.37c0-.2.18-.364.4-.364.221 0 .4.164.4.364v4.37c0 .2-.179.364-.4.364z" fill="#1B1B1B"/><path d="M4 17c-2.206 0-4-1.633-4-3.642 0-1.303.76-2.486 2-3.14V1.821C2 .816 2.898 0 4 0c1.102 0 2 .816 2 1.82v8.399c1.24.653 2 1.836 2 3.14C8 15.367 6.206 17 4 17zM4 .728c-.662 0-1.2.49-1.2 1.093v8.616a.36.36 0 0 1-.22.325c-1.098.5-1.78 1.493-1.78 2.595 0 1.607 1.435 2.913 3.2 2.913 1.765 0 3.2-1.306 3.2-2.913 0-1.103-.682-2.096-1.78-2.595a.362.362 0 0 1-.22-.325V1.821C5.2 1.218 4.662.728 4 .728z" fill="#1B1B1B"/></svg>