<svg width="15" height="25" fill="none" xmlns="http://www.w3.org/2000/svg"><circle cx="7.5" cy="9.5" r="7.5" fill="#fff"/><path d="M6.452 10.46c0-.296.024-.528.072-.696a.834.834 0 0 1 .24-.384c.104-.096.252-.188.444-.276l.348-.144c.2-.088.344-.168.432-.24a.608.608 0 0 0 .18-.3c.04-.12.06-.304.06-.552 0-.28-.04-.48-.12-.6a.532.532 0 0 0-.372-.24c-.168-.04-.432-.06-.792-.06a13.04 13.04 0 0 0-1.548.12V5.852c.296-.056.644-.104 1.044-.144.408-.04.772-.06 1.092-.06.792 0 1.364.168 1.716.504.352.336.528.884.528 1.644 0 .536-.072.952-.216 1.248-.144.296-.384.524-.72.684l-.384.144a2.988 2.988 0 0 0-.48.252.383.383 0 0 0-.156.228 2.385 2.385 0 0 0-.036.504v.564H6.452v-.96zM6.332 14v-1.5h1.596V14H6.332z" fill="#3A50C5"/></svg>