<svg width="34" height="34" fill="none" xmlns="http://www.w3.org/2000/svg"><path d="M17 6.915a5.352 5.352 0 0 0-5.346 5.345 5.352 5.352 0 0 0 5.347 5.346 5.351 5.351 0 0 0 5.345-5.346A5.351 5.351 0 0 0 17 6.915z" fill="#1B1B1B"/><path d="M27.045 28.163v1.16l.844-.797c3.061-2.893 4.979-6.988 4.979-11.526C32.868 8.25 25.75 1.132 17 1.132S1.132 8.25 1.132 17c0 4.538 1.918 8.633 4.98 11.526l.843.797V27.83c0-2.58.978-4.674 2.694-6.13 1.724-1.463 4.236-2.317 7.352-2.317 3.115 0 5.627.854 7.35 2.317 1.716 1.456 2.694 3.55 2.694 6.13v.334zM.5 17C.5 7.903 7.902.5 17 .5 26.098.5 33.5 7.903 33.5 17c0 9.098-7.402 16.5-16.5 16.5C7.902 33.5.5 26.098.5 17z" fill="#1B1B1B" stroke="#1B1B1B"/></svg>