<svg width="40" height="26" fill="none" xmlns="http://www.w3.org/2000/svg"><rect x=".5" y=".5" width="39" height="25" rx="1.5" stroke="#C2C0C1" stroke-opacity=".6"/><path d="M16 16.857l1.524-8.571h2.38l-1.476 8.571H16zM27.048 8.38c-.477-.19-1.238-.38-2.19-.38-2.382 0-4.096 1.19-4.096 2.905 0 1.286 1.19 1.952 2.143 2.38.952.43 1.238.715 1.238 1.096 0 .571-.762.857-1.429.857-.952 0-1.476-.143-2.285-.476l-.334-.143-.333 1.952c.571.238 1.619.477 2.714.477 2.524 0 4.19-1.19 4.19-3 0-1-.618-1.762-2.047-2.381-.857-.429-1.38-.667-1.38-1.096 0-.38.428-.761 1.38-.761.81 0 1.381.142 1.81.333l.238.095.38-1.857zm4.095-.094c-.572 0-1 .047-1.238.619l-3.572 7.952h2.572l.476-1.428h3.047l.286 1.428H35l-2-8.571h-1.857zM30.047 14c.143-.429.953-2.524.953-2.524s.19-.524.333-.857l.143.81s.476 2.142.572 2.618h-2V14zm-18.428.285l-.238-1.238c-.429-1.428-1.81-3-3.334-3.762l2.143 7.62h2.572l3.857-8.572h-2.572l-2.428 5.952z" fill="#3C58BF"/><path d="M5 8.286l.429.095c3.047.714 5.142 2.524 5.952 4.666L10.524 9c-.143-.572-.572-.714-1.095-.714H5z" fill="#FFBC00"/></svg>