<svg width="180" height="60" viewBox="0 0 180 60" fill="none" xmlns="http://www.w3.org/2000/svg">
<rect width="180" height="60" fill="#1B1B1B"/>
<path d="M57.948 15.744H60.336C61.328 15.744 62.032 15.852 62.448 16.068C62.872 16.284 63.14 16.66 63.252 17.196C63.364 17.724 63.42 18.616 63.42 19.872C63.42 21.128 63.364 22.024 63.252 22.56C63.14 23.088 62.872 23.46 62.448 23.676C62.032 23.892 61.328 24 60.336 24H57.948V15.744ZM60.252 22.932C60.924 22.932 61.376 22.884 61.608 22.788C61.848 22.692 62.004 22.452 62.076 22.068C62.148 21.676 62.184 20.944 62.184 19.872C62.184 18.808 62.144 18.084 62.064 17.7C61.992 17.308 61.836 17.064 61.596 16.968C61.364 16.864 60.916 16.812 60.252 16.812H59.184V22.932H60.252ZM68.0727 24.096C67.1207 24.096 66.4407 23.984 66.0327 23.76C65.6247 23.536 65.3647 23.152 65.2527 22.608C65.1487 22.064 65.0967 21.152 65.0967 19.872C65.0967 18.592 65.1487 17.68 65.2527 17.136C65.3647 16.592 65.6247 16.208 66.0327 15.984C66.4407 15.76 67.1207 15.648 68.0727 15.648C69.0327 15.648 69.7167 15.76 70.1247 15.984C70.5327 16.208 70.7927 16.592 70.9047 17.136C71.0167 17.68 71.0727 18.592 71.0727 19.872C71.0727 21.152 71.0167 22.064 70.9047 22.608C70.7927 23.152 70.5327 23.536 70.1247 23.76C69.7167 23.984 69.0327 24.096 68.0727 24.096ZM68.0727 23.028C68.6727 23.028 69.0807 22.976 69.2967 22.872C69.5127 22.768 69.6527 22.516 69.7167 22.116C69.7887 21.708 69.8247 20.96 69.8247 19.872C69.8247 18.784 69.7887 18.04 69.7167 17.64C69.6527 17.232 69.5127 16.976 69.2967 16.872C69.0807 16.768 68.6727 16.716 68.0727 16.716C67.4727 16.716 67.0647 16.768 66.8487 16.872C66.6407 16.976 66.5007 17.232 66.4287 17.64C66.3647 18.04 66.3327 18.784 66.3327 19.872C66.3327 20.96 66.3647 21.708 66.4287 22.116C66.5007 22.516 66.6407 22.768 66.8487 22.872C67.0647 22.976 67.4727 23.028 68.0727 23.028ZM78.5178 24L77.0538 17.688H77.0058L75.5418 24H73.9818L72.1698 15.744H73.4298L74.7978 22.44H74.8578L76.3818 15.744H77.7258L79.2618 22.44H79.3338L80.6538 15.744H81.8898L80.0778 24H78.5178ZM87.7534 24L84.5134 18.096H84.4654V24H83.2654V15.744H84.5614L87.7174 21.468H87.7654V15.744H88.9534V24H87.7534ZM91.076 24V15.744H92.312V22.896H95.42V24H91.076ZM99.6069 24.096C98.6549 24.096 97.9749 23.984 97.5669 23.76C97.1589 23.536 96.8989 23.152 96.7869 22.608C96.6829 22.064 96.6309 21.152 96.6309 19.872C96.6309 18.592 96.6829 17.68 96.7869 17.136C96.8989 16.592 97.1589 16.208 97.5669 15.984C97.9749 15.76 98.6549 15.648 99.6069 15.648C100.567 15.648 101.251 15.76 101.659 15.984C102.067 16.208 102.327 16.592 102.439 17.136C102.551 17.68 102.607 18.592 102.607 19.872C102.607 21.152 102.551 22.064 102.439 22.608C102.327 23.152 102.067 23.536 101.659 23.76C101.251 23.984 100.567 24.096 99.6069 24.096ZM99.6069 23.028C100.207 23.028 100.615 22.976 100.831 22.872C101.047 22.768 101.187 22.516 101.251 22.116C101.323 21.708 101.359 20.96 101.359 19.872C101.359 18.784 101.323 18.04 101.251 17.64C101.187 17.232 101.047 16.976 100.831 16.872C100.615 16.768 100.207 16.716 99.6069 16.716C99.0069 16.716 98.5989 16.768 98.3829 16.872C98.1749 16.976 98.0349 17.232 97.9629 17.64C97.8989 18.04 97.8669 18.784 97.8669 19.872C97.8669 20.96 97.8989 21.708 97.9629 22.116C98.0349 22.516 98.1749 22.768 98.3829 22.872C98.5989 22.976 99.0069 23.028 99.6069 23.028ZM109.185 24L108.561 21.912H105.633L105.021 24H103.773L106.293 15.744H107.937L110.457 24H109.185ZM107.121 17.004H107.061L105.933 20.856H108.249L107.121 17.004ZM111.858 15.744H114.246C115.238 15.744 115.942 15.852 116.358 16.068C116.782 16.284 117.05 16.66 117.162 17.196C117.274 17.724 117.33 18.616 117.33 19.872C117.33 21.128 117.274 22.024 117.162 22.56C117.05 23.088 116.782 23.46 116.358 23.676C115.942 23.892 115.238 24 114.246 24H111.858V15.744ZM114.162 22.932C114.834 22.932 115.286 22.884 115.518 22.788C115.758 22.692 115.914 22.452 115.986 22.068C116.058 21.676 116.094 20.944 116.094 19.872C116.094 18.808 116.054 18.084 115.974 17.7C115.902 17.308 115.746 17.064 115.506 16.968C115.274 16.864 114.826 16.812 114.162 16.812H113.094V22.932H114.162ZM124.836 24.096C123.884 24.096 123.204 23.984 122.796 23.76C122.388 23.536 122.128 23.152 122.016 22.608C121.912 22.064 121.86 21.152 121.86 19.872C121.86 18.592 121.912 17.68 122.016 17.136C122.128 16.592 122.388 16.208 122.796 15.984C123.204 15.76 123.884 15.648 124.836 15.648C125.796 15.648 126.48 15.76 126.888 15.984C127.296 16.208 127.556 16.592 127.668 17.136C127.78 17.68 127.836 18.592 127.836 19.872C127.836 21.152 127.78 22.064 127.668 22.608C127.556 23.152 127.296 23.536 126.888 23.76C126.48 23.984 125.796 24.096 124.836 24.096ZM124.836 23.028C125.436 23.028 125.844 22.976 126.06 22.872C126.276 22.768 126.416 22.516 126.48 22.116C126.552 21.708 126.588 20.96 126.588 19.872C126.588 18.784 126.552 18.04 126.48 17.64C126.416 17.232 126.276 16.976 126.06 16.872C125.844 16.768 125.436 16.716 124.836 16.716C124.236 16.716 123.828 16.768 123.612 16.872C123.404 16.976 123.264 17.232 123.192 17.64C123.128 18.04 123.096 18.784 123.096 19.872C123.096 20.96 123.128 21.708 123.192 22.116C123.264 22.516 123.404 22.768 123.612 22.872C123.828 22.976 124.236 23.028 124.836 23.028ZM134.211 24L130.971 18.096H130.923V24H129.723V15.744H131.019L134.175 21.468H134.223V15.744H135.411V24H134.211ZM141.815 24V16.848H139.679V15.744H145.199V16.848H143.063V24H141.815ZM151.055 24V20.388H147.863V24H146.615V15.744H147.863V19.284H151.055V15.744H152.291V24H151.055ZM154.425 24V15.744H159.177V16.812H155.661V19.296H158.697V20.364H155.661V22.932H159.177V24H154.425Z" fill="white"/>
<path d="M63.96 45L63.4 42.792H60.152L59.624 45H57.128L60.072 33.992H63.56L66.488 45H63.96ZM61.816 36.232H61.72L60.648 40.744H62.904L61.816 36.232ZM67.969 33.992H72.433C73.3183 33.992 73.985 34.136 74.433 34.424C74.881 34.7013 75.1797 35.1013 75.329 35.624C75.489 36.1467 75.569 36.8453 75.569 37.72C75.569 38.552 75.4943 39.2293 75.345 39.752C75.2063 40.2747 74.9077 40.6907 74.449 41C73.9903 41.3093 73.313 41.464 72.417 41.464H70.449V45H67.969V33.992ZM71.569 39.4C72.0383 39.4 72.3743 39.3627 72.577 39.288C72.7797 39.2027 72.913 39.0533 72.977 38.84C73.041 38.616 73.073 38.2427 73.073 37.72C73.073 37.1973 73.041 36.8293 72.977 36.616C72.913 36.392 72.7797 36.2427 72.577 36.168C72.3743 36.0933 72.0383 36.056 71.569 36.056H70.449V39.4H71.569ZM77.3671 33.992H81.8311C82.7165 33.992 83.3831 34.136 83.8311 34.424C84.2791 34.7013 84.5778 35.1013 84.7271 35.624C84.8871 36.1467 84.9671 36.8453 84.9671 37.72C84.9671 38.552 84.8925 39.2293 84.7431 39.752C84.6045 40.2747 84.3058 40.6907 83.8471 41C83.3885 41.3093 82.7111 41.464 81.8151 41.464H79.8471V45H77.3671V33.992ZM80.9671 39.4C81.4365 39.4 81.7725 39.3627 81.9751 39.288C82.1778 39.2027 82.3111 39.0533 82.3751 38.84C82.4391 38.616 82.4711 38.2427 82.4711 37.72C82.4711 37.1973 82.4391 36.8293 82.3751 36.616C82.3111 36.392 82.1778 36.2427 81.9751 36.168C81.7725 36.0933 81.4365 36.056 80.9671 36.056H79.8471V39.4H80.9671ZM93.9616 45.128C92.6283 45.128 91.4496 45.0373 90.4256 44.856V42.904C91.7483 43.0107 92.687 43.064 93.2416 43.064C93.679 43.064 94.0203 43.0427 94.2656 43C94.511 42.9573 94.687 42.8827 94.7936 42.776C94.8896 42.68 94.9483 42.5627 94.9696 42.424C95.0016 42.2853 95.0176 42.088 95.0176 41.832C95.0176 41.4907 94.9963 41.2507 94.9536 41.112C94.911 40.9627 94.8203 40.856 94.6816 40.792C94.5536 40.728 94.3296 40.6693 94.0096 40.616L92.2336 40.36C91.423 40.2427 90.8736 39.928 90.5856 39.416C90.2976 38.904 90.1536 38.168 90.1536 37.208C90.1536 36.28 90.3083 35.5707 90.6176 35.08C90.927 34.5893 91.3483 34.264 91.8816 34.104C92.415 33.944 93.0923 33.864 93.9136 33.864C94.927 33.864 95.967 33.9707 97.0336 34.184V36.104C96.0736 35.9867 95.2203 35.928 94.4736 35.928C93.6843 35.928 93.1776 36.0027 92.9536 36.152C92.8256 36.2267 92.7456 36.3333 92.7136 36.472C92.6816 36.6 92.6656 36.8027 92.6656 37.08C92.6656 37.3893 92.6816 37.608 92.7136 37.736C92.7456 37.864 92.815 37.96 92.9216 38.024C93.039 38.0773 93.2363 38.1253 93.5136 38.168L95.4176 38.44C95.8443 38.504 96.1963 38.6107 96.4736 38.76C96.7616 38.9093 96.9963 39.1653 97.1776 39.528C97.4016 39.9973 97.5136 40.6693 97.5136 41.544C97.5136 42.568 97.3696 43.3413 97.0816 43.864C96.7936 44.3867 96.399 44.728 95.8976 44.888C95.407 45.048 94.7616 45.128 93.9616 45.128ZM101.259 45V36.136H98.6674V33.992H106.363V36.136H103.755V45H101.259ZM111.785 45.128C110.451 45.128 109.497 44.968 108.921 44.648C108.355 44.3173 107.998 43.7947 107.849 43.08C107.71 42.3547 107.641 41.16 107.641 39.496C107.641 37.832 107.71 36.6427 107.849 35.928C107.998 35.2027 108.355 34.68 108.921 34.36C109.497 34.0293 110.451 33.864 111.785 33.864C113.129 33.864 114.083 34.0293 114.649 34.36C115.225 34.68 115.582 35.1973 115.721 35.912C115.859 36.6267 115.929 37.8213 115.929 39.496C115.929 41.1707 115.859 42.3653 115.721 43.08C115.582 43.7947 115.225 44.3173 114.649 44.648C114.083 44.968 113.129 45.128 111.785 45.128ZM111.785 43.064C112.361 43.064 112.745 43.0053 112.937 42.888C113.139 42.7707 113.267 42.4933 113.321 42.056C113.374 41.6187 113.401 40.7653 113.401 39.496C113.401 38.2267 113.374 37.3733 113.321 36.936C113.267 36.4987 113.139 36.2213 112.937 36.104C112.745 35.9867 112.361 35.928 111.785 35.928C111.209 35.928 110.819 35.9867 110.617 36.104C110.425 36.2213 110.302 36.4987 110.249 36.936C110.195 37.3733 110.169 38.2267 110.169 39.496C110.169 40.7653 110.195 41.6187 110.249 42.056C110.302 42.4933 110.425 42.7707 110.617 42.888C110.819 43.0053 111.209 43.064 111.785 43.064ZM123.39 45L122.11 41.144H120.51V45H118.03V33.992H122.558C123.464 33.992 124.147 34.1307 124.606 34.408C125.064 34.6747 125.368 35.0587 125.518 35.56C125.678 36.0613 125.758 36.728 125.758 37.56C125.758 38.3387 125.672 39.0053 125.502 39.56C125.331 40.104 124.984 40.504 124.462 40.76L125.998 45H123.39ZM121.758 39.096C122.227 39.096 122.558 39.0587 122.75 38.984C122.952 38.9093 123.086 38.776 123.15 38.584C123.214 38.3813 123.246 38.0453 123.246 37.576C123.246 37.096 123.214 36.76 123.15 36.568C123.096 36.3653 122.968 36.232 122.766 36.168C122.574 36.0933 122.243 36.056 121.774 36.056H120.51V39.096H121.758ZM127.818 45V33.992H134.442V36.056H130.298V38.408H133.85V40.472H130.298V42.936H134.442V45H127.818Z" fill="white"/>
<path d="M14.6753 24.866C11.7164 30.0007 13.5974 37.7929 16.8695 42.5175C18.5028 44.8796 20.1564 46.9999 22.4213 46.9999C22.464 46.9999 22.5068 46.9991 22.5506 46.9974C23.6147 46.9549 24.3837 46.6273 25.1272 46.3107C25.9619 45.955 26.8252 45.5872 28.1793 45.5872C29.4675 45.5872 30.2896 45.943 31.0847 46.2871C31.8682 46.6261 32.6753 46.9767 33.8678 46.9544C36.419 46.9069 37.9854 44.6189 39.3674 42.6005C40.8095 40.493 41.5329 38.4468 41.777 37.6649L41.7869 37.6338C41.8333 37.4949 41.7677 37.3431 41.6345 37.282C41.6308 37.2803 41.6172 37.2746 41.6135 37.273C41.1642 37.0893 37.2233 35.341 37.1819 30.576C37.1434 26.7046 40.1383 24.6546 40.7389 24.283L40.7669 24.2655C40.832 24.2237 40.8773 24.1572 40.8927 24.0812C40.9081 24.0054 40.892 23.9264 40.8484 23.8626C38.7812 20.8375 35.6129 20.3816 34.3373 20.3267C34.1522 20.3082 33.9611 20.299 33.7692 20.299C32.271 20.299 30.8358 20.8648 29.6827 21.3195C28.8868 21.6333 28.1993 21.9044 27.7251 21.9044C27.1923 21.9044 26.5009 21.63 25.7003 21.3123C24.6296 20.8874 23.4161 20.4059 22.1314 20.4059C22.1008 20.4059 22.0706 20.4062 22.0409 20.4068C19.0538 20.4508 16.2314 22.1597 14.6753 24.866Z" fill="white"/>
<path d="M34.34 12.0002C32.5312 12.0739 30.3613 13.1874 29.0643 14.7065C27.9621 15.9833 26.8854 18.1123 27.1691 20.2582C27.1868 20.3924 27.2961 20.496 27.4312 20.5065C27.5533 20.516 27.6779 20.5208 27.802 20.5209C29.5707 20.5209 31.4788 19.5424 32.7818 17.9669C34.1532 16.3032 34.8467 14.168 34.6369 12.2555C34.6204 12.1057 34.4885 11.9944 34.34 12.0002Z" fill="white"/>
</svg>
