<svg width="180" height="60" viewBox="0 0 180 60" fill="none" xmlns="http://www.w3.org/2000/svg">
<rect width="180" height="60" fill="#1B1B1B"/>
<path d="M60.612 20.496V19.464H63.156V23.856C62.82 23.928 62.432 23.984 61.992 24.024C61.552 24.072 61.16 24.096 60.816 24.096C59.928 24.096 59.268 23.988 58.836 23.772C58.412 23.548 58.12 23.148 57.96 22.572C57.8 21.988 57.72 21.088 57.72 19.872C57.72 18.68 57.8 17.792 57.96 17.208C58.128 16.624 58.428 16.22 58.86 15.996C59.292 15.764 59.948 15.648 60.828 15.648C61.212 15.648 61.624 15.676 62.064 15.732C62.512 15.78 62.868 15.836 63.132 15.9V16.884C62.86 16.844 62.544 16.808 62.184 16.776C61.832 16.736 61.544 16.716 61.32 16.716C60.56 16.716 60.032 16.768 59.736 16.872C59.44 16.976 59.236 17.24 59.124 17.664C59.012 18.08 58.956 18.816 58.956 19.872C58.956 20.84 58.996 21.54 59.076 21.972C59.164 22.396 59.336 22.684 59.592 22.836C59.848 22.988 60.264 23.064 60.84 23.064C61.24 23.064 61.616 23.036 61.968 22.98V20.496H60.612ZM65.1607 24V15.744H69.9127V16.812H66.3967V19.296H69.4327V20.364H66.3967V22.932H69.9127V24H65.1607ZM73.0982 24V16.848H70.9622V15.744H76.4822V16.848H74.3462V24H73.0982ZM80.5997 24V15.744H81.8357V24H80.5997ZM85.408 24V16.848H83.272V15.744H88.792V16.848H86.656V24H85.408ZM95.6455 24.096C94.6935 24.096 94.0135 23.984 93.6055 23.76C93.1975 23.536 92.9375 23.152 92.8255 22.608C92.7215 22.064 92.6695 21.152 92.6695 19.872C92.6695 18.592 92.7215 17.68 92.8255 17.136C92.9375 16.592 93.1975 16.208 93.6055 15.984C94.0135 15.76 94.6935 15.648 95.6455 15.648C96.6055 15.648 97.2895 15.76 97.6975 15.984C98.1055 16.208 98.3655 16.592 98.4775 17.136C98.5895 17.68 98.6455 18.592 98.6455 19.872C98.6455 21.152 98.5895 22.064 98.4775 22.608C98.3655 23.152 98.1055 23.536 97.6975 23.76C97.2895 23.984 96.6055 24.096 95.6455 24.096ZM95.6455 23.028C96.2455 23.028 96.6535 22.976 96.8695 22.872C97.0855 22.768 97.2255 22.516 97.2895 22.116C97.3615 21.708 97.3975 20.96 97.3975 19.872C97.3975 18.784 97.3615 18.04 97.2895 17.64C97.2255 17.232 97.0855 16.976 96.8695 16.872C96.6535 16.768 96.2455 16.716 95.6455 16.716C95.0455 16.716 94.6375 16.768 94.4215 16.872C94.2135 16.976 94.0735 17.232 94.0015 17.64C93.9375 18.04 93.9055 18.784 93.9055 19.872C93.9055 20.96 93.9375 21.708 94.0015 22.116C94.0735 22.516 94.2135 22.768 94.4215 22.872C94.6375 22.976 95.0455 23.028 95.6455 23.028ZM105.02 24L101.78 18.096H101.732V24H100.532V15.744H101.828L104.984 21.468H105.032V15.744H106.22V24H105.02Z" fill="white"/>
<path d="M61.816 40.568V38.6H65.416V44.76C64.9467 44.8667 64.3973 44.952 63.768 45.016C63.1493 45.0907 62.5787 45.128 62.056 45.128C60.8293 45.128 59.9173 44.984 59.32 44.696C58.7333 44.3973 58.3227 43.8587 58.088 43.08C57.864 42.3013 57.752 41.1067 57.752 39.496C57.752 37.96 57.8693 36.7973 58.104 36.008C58.3387 35.2187 58.76 34.664 59.368 34.344C59.9867 34.024 60.9093 33.864 62.136 33.864C62.7333 33.864 63.3467 33.9067 63.976 33.992C64.6053 34.0667 65.0693 34.1413 65.368 34.216V36.136C64.2587 35.9973 63.4587 35.928 62.968 35.928C62.0613 35.928 61.4427 35.9867 61.112 36.104C60.7813 36.2213 60.5573 36.5147 60.44 36.984C60.3227 37.4427 60.264 38.28 60.264 39.496C60.264 40.6053 60.3013 41.4 60.376 41.88C60.4613 42.36 60.6267 42.6853 60.872 42.856C61.128 43.0267 61.5493 43.112 62.136 43.112C62.392 43.112 62.712 43.1013 63.096 43.08V40.568H61.816ZM71.5441 45.128C70.2108 45.128 69.2561 44.968 68.6801 44.648C68.1148 44.3173 67.7575 43.7947 67.6081 43.08C67.4695 42.3547 67.4001 41.16 67.4001 39.496C67.4001 37.832 67.4695 36.6427 67.6081 35.928C67.7575 35.2027 68.1148 34.68 68.6801 34.36C69.2561 34.0293 70.2108 33.864 71.5441 33.864C72.8881 33.864 73.8428 34.0293 74.4081 34.36C74.9841 34.68 75.3415 35.1973 75.4801 35.912C75.6188 36.6267 75.6881 37.8213 75.6881 39.496C75.6881 41.1707 75.6188 42.3653 75.4801 43.08C75.3415 43.7947 74.9841 44.3173 74.4081 44.648C73.8428 44.968 72.8881 45.128 71.5441 45.128ZM71.5441 43.064C72.1201 43.064 72.5041 43.0053 72.6961 42.888C72.8988 42.7707 73.0268 42.4933 73.0801 42.056C73.1335 41.6187 73.1601 40.7653 73.1601 39.496C73.1601 38.2267 73.1335 37.3733 73.0801 36.936C73.0268 36.4987 72.8988 36.2213 72.6961 36.104C72.5041 35.9867 72.1201 35.928 71.5441 35.928C70.9681 35.928 70.5788 35.9867 70.3761 36.104C70.1841 36.2213 70.0615 36.4987 70.0081 36.936C69.9548 37.3733 69.9281 38.2267 69.9281 39.496C69.9281 40.7653 69.9548 41.6187 70.0081 42.056C70.0615 42.4933 70.1841 42.7707 70.3761 42.888C70.5788 43.0053 70.9681 43.064 71.5441 43.064ZM81.661 45.128C80.3277 45.128 79.373 44.968 78.797 44.648C78.2317 44.3173 77.8743 43.7947 77.725 43.08C77.5863 42.3547 77.517 41.16 77.517 39.496C77.517 37.832 77.5863 36.6427 77.725 35.928C77.8743 35.2027 78.2317 34.68 78.797 34.36C79.373 34.0293 80.3277 33.864 81.661 33.864C83.005 33.864 83.9597 34.0293 84.525 34.36C85.101 34.68 85.4583 35.1973 85.597 35.912C85.7357 36.6267 85.805 37.8213 85.805 39.496C85.805 41.1707 85.7357 42.3653 85.597 43.08C85.4583 43.7947 85.101 44.3173 84.525 44.648C83.9597 44.968 83.005 45.128 81.661 45.128ZM81.661 43.064C82.237 43.064 82.621 43.0053 82.813 42.888C83.0157 42.7707 83.1437 42.4933 83.197 42.056C83.2503 41.6187 83.277 40.7653 83.277 39.496C83.277 38.2267 83.2503 37.3733 83.197 36.936C83.1437 36.4987 83.0157 36.2213 82.813 36.104C82.621 35.9867 82.237 35.928 81.661 35.928C81.085 35.928 80.6957 35.9867 80.493 36.104C80.301 36.2213 80.1783 36.4987 80.125 36.936C80.0717 37.3733 80.045 38.2267 80.045 39.496C80.045 40.7653 80.0717 41.6187 80.125 42.056C80.1783 42.4933 80.301 42.7707 80.493 42.888C80.6957 43.0053 81.085 43.064 81.661 43.064ZM91.6979 40.568V38.6H95.2979V44.76C94.8285 44.8667 94.2792 44.952 93.6499 45.016C93.0312 45.0907 92.4605 45.128 91.9379 45.128C90.7112 45.128 89.7992 44.984 89.2019 44.696C88.6152 44.3973 88.2045 43.8587 87.9699 43.08C87.7459 42.3013 87.6339 41.1067 87.6339 39.496C87.6339 37.96 87.7512 36.7973 87.9859 36.008C88.2205 35.2187 88.6419 34.664 89.2499 34.344C89.8685 34.024 90.7912 33.864 92.0179 33.864C92.6152 33.864 93.2285 33.9067 93.8579 33.992C94.4872 34.0667 94.9512 34.1413 95.2499 34.216V36.136C94.1405 35.9973 93.3405 35.928 92.8499 35.928C91.9432 35.928 91.3245 35.9867 90.9939 36.104C90.6632 36.2213 90.4392 36.5147 90.3219 36.984C90.2045 37.4427 90.1459 38.28 90.1459 39.496C90.1459 40.6053 90.1832 41.4 90.2579 41.88C90.3432 42.36 90.5085 42.6853 90.7539 42.856C91.0099 43.0267 91.4312 43.112 92.0179 43.112C92.2739 43.112 92.5939 43.1013 92.9779 43.08V40.568H91.6979ZM97.554 45V33.992H100.034V42.856H103.682V45H97.554ZM105.327 45V33.992H111.951V36.056H107.807V38.408H111.359V40.472H107.807V42.936H111.951V45H105.327ZM117.842 33.992H122.306C123.191 33.992 123.858 34.136 124.306 34.424C124.754 34.7013 125.053 35.1013 125.202 35.624C125.362 36.1467 125.442 36.8453 125.442 37.72C125.442 38.552 125.367 39.2293 125.218 39.752C125.079 40.2747 124.781 40.6907 124.322 41C123.863 41.3093 123.186 41.464 122.29 41.464H120.322V45H117.842V33.992ZM121.442 39.4C121.911 39.4 122.247 39.3627 122.45 39.288C122.653 39.2027 122.786 39.0533 122.85 38.84C122.914 38.616 122.946 38.2427 122.946 37.72C122.946 37.1973 122.914 36.8293 122.85 36.616C122.786 36.392 122.653 36.2427 122.45 36.168C122.247 36.0933 121.911 36.056 121.442 36.056H120.322V39.4H121.442ZM127.24 45V33.992H129.72V42.856H133.368V45H127.24ZM140.949 45L140.389 42.792H137.141L136.613 45H134.117L137.061 33.992H140.549L143.477 45H140.949ZM138.805 36.232H138.709L137.637 40.744H139.893L138.805 36.232ZM146.134 45V41.208L142.966 33.992H145.526L147.366 38.68H147.494L149.286 33.992H151.782L148.63 41.208V45H146.134Z" fill="white"/>
<g clip-path="url(#clip0)">
<path d="M16.7051 12.446C15.8035 11.9033 14.7288 11.8547 13.7916 12.3066L29.5055 28.054L34.6435 22.8921L16.7051 12.446ZM12.3479 13.764C12.1496 14.1838 12.043 14.6507 12.043 15.1312V43.9368C12.043 44.4194 12.1503 44.8795 12.3506 45.2903L28.0584 29.508L12.3479 13.764ZM29.5077 30.96L13.819 46.7231C14.2353 46.9159 14.6783 47 15.1206 47C15.6668 47 16.2116 46.8694 16.7052 46.5727L34.647 36.1109L29.5077 30.96ZM41.4755 26.8707C41.4693 26.8666 41.4625 26.8625 41.4563 26.8591L36.4756 23.9586L30.9542 29.506L36.479 35.0425C36.479 35.0425 41.4693 32.1331 41.4755 32.1296C42.4017 31.567 42.9548 30.584 42.9548 29.4998C42.9548 28.4156 42.4017 27.4326 41.4755 26.8707Z" fill="white"/>
</g>
<defs>
<clipPath id="clip0">
<rect width="35" height="35" fill="white" transform="translate(10 12)"/>
</clipPath>
</defs>
</svg>
