<svg width="260" height="79" viewBox="0 0 260 79" fill="none" xmlns="http://www.w3.org/2000/svg">
<path d="M27.1371 0C28.0768 0 29.0165 -4.40281e-07 29.9562 0.0108259C29.9671 0.833624 29.9743 1.66003 29.9851 2.48643C29.0237 2.50809 28.0623 2.51531 27.101 2.5117C27.1082 1.67446 27.1154 0.837234 27.1371 0Z" fill="#1B1B1B"/>
<path d="M31.4055 0.317573C32.3921 -0.0324787 33.4294 -0.028873 34.4197 0.303135C34.3872 1.00685 34.3728 1.71777 34.2969 2.42149C33.3861 2.55501 32.4427 2.62718 31.5464 2.39622C31.4814 1.70334 31.4524 1.00685 31.4055 0.317573Z" fill="#1B1B1B"/>
<path d="M11.8669 4.69504C13.0993 4.62648 14.3354 4.62286 15.5715 4.62286C16.5835 8.31825 17.0244 12.1616 18.3256 15.774C18.7195 14.9873 19.0665 14.1717 19.2363 13.3092C19.8146 10.4186 20.5303 7.5568 21.1085 4.66617C22.3193 4.63008 23.5301 4.63008 24.7409 4.64813C23.5698 9.95303 22.1133 15.193 20.8808 20.487C19.1604 20.5267 17.4401 20.5376 15.7197 20.4798C14.639 15.1713 13.1897 9.94581 11.8669 4.69504Z" fill="#1B1B1B"/>
<path d="M87.1265 4.63007C88.3409 4.63367 89.5517 4.63729 90.7661 4.63368C92.2298 7.26808 93.4081 10.0613 95.0815 12.5766C95.2983 9.93136 94.9767 7.26448 95.3019 4.62646C96.4151 4.62646 97.5283 4.63729 98.6415 4.6445C98.6957 9.93497 98.6957 15.2218 98.6451 20.5087C97.5608 20.5087 96.473 20.5123 95.3923 20.5195C93.8092 17.5964 92.331 14.6228 90.7914 11.678C90.3866 14.6155 90.4408 17.5711 90.4335 20.5303C89.3276 20.5195 88.2252 20.5195 87.1265 20.5159C87.112 15.2218 87.1084 9.92414 87.1265 4.63007Z" fill="#1B1B1B"/>
<path d="M117.624 4.64812C119.355 4.62286 121.086 4.62285 122.821 4.65894C123.746 7.9718 124.371 11.3785 125.582 14.6047C126.623 11.3099 127.216 7.8888 128.358 4.62646C130.024 4.63007 131.69 4.61564 133.356 4.65894C133.367 9.94219 133.403 15.229 133.342 20.5123C132.207 20.5123 131.076 20.5195 129.945 20.5159C129.666 16.8422 129.999 13.154 129.706 9.48026C128.9 13.1901 127.809 16.8313 126.854 20.5051C125.918 20.5123 124.986 20.5159 124.053 20.5159C122.951 16.8999 122.272 13.1648 121.007 9.59935C120.602 13.219 120.902 16.8746 120.801 20.5087C119.799 20.5159 118.798 20.5231 117.801 20.5411C117.32 18.4589 117.591 16.3117 117.53 14.1969C117.577 11.014 117.425 7.82384 117.624 4.64812Z" fill="#1B1B1B"/>
<path d="M187.628 4.65172C188.857 4.63007 190.086 4.63007 191.315 4.63729C192.912 7.30417 194.054 10.2273 195.829 12.7931C195.919 10.0721 195.829 7.35108 195.894 4.63007C197.003 4.63007 198.113 4.64089 199.226 4.65172C199.212 9.93135 199.233 15.2074 199.215 20.487C198.146 20.5051 197.079 20.5123 196.013 20.5339C194.246 17.7407 193.1 14.6083 191.289 11.8404C191.094 14.7238 191.268 17.618 191.156 20.5015C189.977 20.5123 188.803 20.5195 187.628 20.5051C187.606 15.2182 187.61 9.93496 187.628 4.65172Z" fill="#1B1B1B"/>
<path d="M225.932 4.6481C229.633 4.61923 233.334 4.61923 237.035 4.64449C237.075 5.58999 237.1 6.53549 237.165 7.48099C235.915 7.71195 234.653 7.85269 233.385 7.85991C232.973 12.0605 233.334 16.2972 233.182 20.5123C232.051 20.5159 230.92 20.5195 229.792 20.5267C229.405 16.3189 229.702 12.0786 229.619 7.85991C228.372 7.8563 227.136 7.75164 225.914 7.53872C225.921 6.57518 225.925 5.61165 225.932 4.6481Z" fill="#1B1B1B"/>
<path d="M28.2539 4.62286C29.9092 4.62647 31.5609 4.63008 33.2163 4.6409C34.6547 9.9061 36.1872 15.1605 37.3835 20.487C36.2522 20.5159 35.121 20.5231 33.9897 20.5484C33.5705 19.5127 33.2885 18.43 33.0934 17.333C31.5284 17.2824 29.9634 17.3005 28.4021 17.286C28.0949 18.3326 27.8491 19.3972 27.6901 20.4798C26.4323 20.5267 25.1709 20.5231 23.9095 20.4906C25.4311 15.2218 26.6817 9.87724 28.2539 4.62286ZM30.4911 8.2569C30.1044 10.3067 29.4068 12.2951 29.1864 14.3774C30.1116 14.3774 31.0405 14.3702 31.9693 14.3521C31.9621 12.2843 31.2031 10.3319 30.9573 8.3002C30.8417 8.28938 30.6068 8.26773 30.4911 8.2569Z" fill="#1B1B1B"/>
<path d="M38.6918 4.64085C41.1711 4.64085 43.6541 4.58311 46.1335 4.65529C47.4997 4.69138 49.0249 5.38787 49.4586 6.77725C50.2429 9.48383 50.055 12.674 48.0563 14.8284C48.837 16.6689 49.5309 18.5455 50.0333 20.4834C48.8261 20.5195 47.6154 20.5231 46.4046 20.5159C45.7721 18.7367 45.1143 16.9612 44.6697 15.1207C43.8674 15.0702 43.065 15.045 42.2663 15.0269C42.2337 16.8674 42.4108 18.7295 42.006 20.5447C40.9001 20.5231 39.7977 20.5159 38.699 20.4978C38.6484 15.2146 38.6592 9.9241 38.6918 4.64085ZM42.2771 7.79853C42.2626 9.16265 42.2626 10.5304 42.2735 11.8981C43.524 11.9198 44.8071 11.9703 46.0034 11.53C45.9998 10.3138 45.9889 9.09769 45.9347 7.88154C44.7167 7.79853 43.4951 7.77688 42.2771 7.79853Z" fill="#1B1B1B"/>
<path d="M51.8044 4.65532C52.9862 4.62645 54.1681 4.62284 55.3536 4.63367C55.415 8.93532 55.3355 13.237 55.4006 17.5386C57.1715 17.5423 58.9461 17.517 60.7207 17.5747C60.7244 18.5491 60.7244 19.5235 60.7207 20.4978C57.7462 20.5339 54.7717 20.5339 51.7971 20.4978C51.7863 15.2182 51.7755 9.93856 51.8044 4.65532Z" fill="#1B1B1B"/>
<path d="M62.1737 4.66614C64.4145 4.63005 66.659 4.57953 68.8962 4.66614C70.3852 4.75997 72.1454 5.25798 72.7779 6.75923C73.5188 8.66105 73.367 10.7505 73.3923 12.7534C73.3706 14.6733 73.5044 16.687 72.749 18.4986C72.0695 19.9493 70.331 20.3751 68.8709 20.4942C66.6445 20.5664 64.4181 20.5086 62.1917 20.5123C62.1484 15.229 62.1773 9.94938 62.1737 4.66614ZM66.0879 7.78051L65.8421 8.01869C65.7807 11.0501 65.7879 14.085 65.8385 17.1164C66.3156 17.9572 67.3854 17.5494 68.1625 17.5098C69.4528 17.4412 69.7238 15.9796 69.7455 14.9439C69.76 13.2478 69.7961 11.5481 69.7238 9.85194C69.6263 9.0111 69.4383 7.85269 68.4299 7.67946C67.6854 7.5712 66.7204 7.29693 66.0879 7.78051Z" fill="#1B1B1B"/>
<path d="M75.5355 4.66614C78.6871 4.60118 81.8424 4.63727 84.9976 4.64449C85.0085 5.60803 85.0049 6.57518 84.994 7.54233C83.0459 7.55677 81.0942 7.55677 79.1461 7.55316C79.1208 8.6394 79.1172 9.72564 79.1353 10.8119C80.8015 11.1547 82.511 11.0753 84.2025 11.0861C84.2314 11.9523 84.2531 12.822 84.2929 13.6953C82.6122 14.2005 80.8485 13.9696 79.1245 14.002C79.1172 15.1965 79.1136 16.391 79.1498 17.5892C81.0942 17.5892 83.0387 17.6 84.9868 17.5783C85.0013 18.5563 85.0012 19.5379 85.0012 20.5195C81.8532 20.5195 78.7016 20.5231 75.55 20.5123C75.5066 15.229 75.5391 9.94577 75.5355 4.66614Z" fill="#1B1B1B"/>
<path d="M100.535 8.3976C100.6 6.70148 101.717 4.83214 103.546 4.65531C105.812 4.46043 108.122 4.46043 110.362 4.9007C110.355 5.79568 110.352 6.68704 110.337 7.58563C108.508 7.7372 106.593 6.80253 104.854 7.60007C103.81 8.1089 104.207 9.39363 104.146 10.3175C105.725 10.7253 107.359 10.8624 108.946 11.2521C110.272 11.5012 111.093 12.8869 111.031 14.1716C110.991 15.8172 111.382 17.6722 110.37 19.1121C109.853 19.9421 108.917 20.5411 107.923 20.5375C105.689 20.6458 103.452 20.5411 101.218 20.4978C100.846 19.5487 100.788 18.5238 101.121 17.5567C103.069 17.5892 105.042 17.8382 106.983 17.5458C107.771 16.7844 107.29 15.5105 107.402 14.5361C105.61 14.0273 103.654 14.1067 101.959 13.2875C100.412 12.2013 100.438 10.0829 100.535 8.3976Z" fill="#1B1B1B"/>
<path d="M137.386 5.07753C139.009 4.31968 140.87 4.60478 142.609 4.55786C144.214 4.52177 146.227 4.88986 146.87 6.58238C147.492 8.3182 147.423 10.2092 147.448 12.0316C147.423 14.1283 147.578 16.2792 146.968 18.3145C146.545 19.7003 145.106 20.5411 143.704 20.5447C141.922 20.5917 140.119 20.6747 138.351 20.4329C136.768 20.1333 135.691 18.6465 135.576 17.0947C135.409 14.5686 135.496 12.028 135.507 9.49467C135.482 7.87432 135.771 5.87867 137.386 5.07753ZM139.204 8.82343C139.103 11.3207 139.125 13.8288 139.197 16.3261C139.157 17.185 139.985 17.8165 140.813 17.6794C141.723 17.6433 143.31 17.9753 143.498 16.7158C143.671 13.7999 143.577 10.8732 143.509 7.95732C142.602 7.57479 141.633 6.9613 140.614 7.30775C139.909 7.48458 139.15 8.01145 139.204 8.82343Z" fill="#1B1B1B"/>
<path d="M149.588 4.64447C151.963 4.65891 154.348 4.53621 156.719 4.72387C158.042 4.87544 159.61 5.37705 160.131 6.73756C161.027 9.49827 160.832 12.4394 160.774 15.2976C160.514 16.77 160.561 18.5996 159.227 19.5812C158.078 20.3679 156.636 20.552 155.273 20.5231C153.394 20.5195 151.515 20.505 149.635 20.5195C149.086 15.2507 149.451 9.92772 149.588 4.64447ZM153.246 7.97898C153.177 11.1078 153.242 14.2366 153.228 17.3654C154.373 17.1489 156.282 17.9103 156.842 16.5426C157.12 13.7819 156.947 10.9851 156.878 8.21356C155.776 7.78772 154.232 6.97213 153.246 7.97898Z" fill="#1B1B1B"/>
<path d="M162.719 4.70224C165.943 4.5615 169.17 4.63006 172.398 4.65532C172.405 5.61526 172.409 6.57158 172.412 7.53513C170.392 7.57843 168.368 7.53873 166.347 7.57482C166.337 8.73684 166.333 9.89887 166.351 11.0609C168.032 11.0753 169.716 11.0753 171.4 11.0717C171.501 12.0028 172.105 13.2659 171.176 13.9515C169.568 14.085 167.949 13.9587 166.337 14.0309C166.333 15.211 166.337 16.3947 166.351 17.5747C168.368 17.6 170.385 17.5675 172.401 17.6216C172.405 18.578 172.401 19.5343 172.394 20.4906C169.922 20.5375 167.45 20.5051 164.981 20.5267C164.201 20.5484 163.438 20.4293 162.697 20.2091C162.751 15.0414 162.711 9.87 162.719 4.70224Z" fill="#1B1B1B"/>
<path d="M174.57 4.63005C177.06 4.65892 179.547 4.57592 182.037 4.66614C183.306 4.72027 184.719 5.3121 185.217 6.56795C185.929 8.31821 185.958 10.3355 185.489 12.1471C185.264 13.2009 184.209 13.8938 184.032 14.9223C184.57 16.8097 185.445 18.5924 185.955 20.4942C184.708 20.5195 183.465 20.5159 182.221 20.505C181.628 18.6826 181.039 16.8566 180.378 15.0558C179.644 15.0522 178.918 15.0522 178.188 15.0522C178.177 16.8674 178.191 18.6862 178.119 20.5014C176.93 20.5231 175.744 20.5267 174.559 20.5195C174.523 15.2218 174.501 9.92411 174.57 4.63005ZM178.354 7.63976C177.971 9.00388 178.264 10.469 178.177 11.8765C179.391 11.8981 180.606 11.8765 181.82 11.8151C181.921 10.516 181.921 9.21679 181.842 7.92124C180.703 7.67585 179.514 7.36549 178.354 7.63976Z" fill="#1B1B1B"/>
<path d="M204.698 4.65169C206.339 4.61922 207.98 4.63365 209.621 4.63004C210.868 8.40843 211.739 12.2951 212.794 16.1276C213.195 17.5639 213.575 19.0146 213.77 20.5014C212.631 20.5195 211.497 20.5195 210.362 20.5267C210.018 19.4477 209.697 18.3614 209.324 17.2968C207.853 17.2968 206.382 17.2968 204.915 17.2896C204.568 18.3362 204.272 19.3971 204.08 20.4834C202.877 20.5267 201.673 20.5303 200.469 20.5086C201.749 15.1929 203.177 9.90607 204.698 4.65169ZM205.594 14.3882C206.628 14.4098 207.68 14.4026 208.692 14.1283C208.208 12.2554 207.821 10.3572 207.253 8.50587C206.274 10.3211 205.934 12.3817 205.594 14.3882Z" fill="#1B1B1B"/>
<path d="M214.638 8.05837C214.583 6.33338 216.015 4.72748 217.749 4.63365C219.997 4.49651 222.296 4.42795 224.501 4.96566C224.483 5.83177 224.472 6.70148 224.454 7.5712C222.383 7.57841 220.279 6.84943 218.313 7.83102C218.295 8.67547 218.295 9.52354 218.31 10.3752C220.088 10.884 221.982 10.8913 223.727 11.4975C225.191 12.3456 224.913 14.2077 224.945 15.6404C224.844 16.8385 225.188 18.2496 224.331 19.2456C223.731 20.0287 222.788 20.5736 221.783 20.5483C219.542 20.6386 217.301 20.5447 215.064 20.4762C215.028 19.509 215.017 18.5419 215.017 17.5783C217.077 17.6325 219.141 17.7335 221.201 17.6036C221.447 16.6797 221.584 15.7306 221.642 14.7779C219.806 13.8721 217.627 14.1861 215.827 13.2189C214.254 12.01 214.648 9.79058 214.638 8.05837Z" fill="#1B1B1B"/>
<path d="M238.296 4.65531C241.524 4.62283 244.755 4.59035 247.986 4.68057C247.871 5.5972 248.225 6.68705 247.733 7.49902C245.789 7.64698 243.837 7.50984 241.893 7.5748C241.882 8.73322 241.882 9.89524 241.896 11.0573C243.588 11.0789 245.279 11.0717 246.974 11.0609C247.18 12.0425 247.115 13.0457 246.916 14.0237C245.236 13.9948 243.555 13.9876 241.875 14.0381C241.871 15.2146 241.878 16.391 241.896 17.5675C243.92 17.6 245.944 17.5603 247.972 17.6216C247.809 18.5599 248.416 19.8771 247.459 20.487C244.408 20.5772 241.354 20.5231 238.304 20.4906C238.268 15.211 238.282 9.93494 238.296 4.65531Z" fill="#1B1B1B"/>
<path d="M182.525 29.213C183.378 29.2202 184.234 29.2275 185.095 29.2311C185.116 30.0647 185.131 30.8983 185.145 31.7356C184.242 31.7428 183.345 31.7464 182.449 31.7464C182.312 30.8983 182.351 30.0466 182.525 29.213Z" fill="#1B1B1B"/>
<path d="M178.444 29.2672C179.247 29.1084 180.042 29.379 180.83 29.5198C180.768 30.2271 180.743 30.938 180.685 31.649C179.828 31.7464 178.968 31.7536 178.112 31.8114C177.992 30.9741 177.421 29.7435 178.444 29.2672Z" fill="#1B1B1B"/>
<path d="M12.7306 33.6121C15.9293 33.6229 19.1279 33.6013 22.3229 33.6229C22.3373 34.7453 22.3373 35.8712 22.3229 36.9935C20.3929 37.0332 18.4629 37.0152 16.5365 37.0188C16.5184 38.0365 16.5148 39.0542 16.5256 40.0754C18.1303 40.0826 19.7315 40.0826 21.3362 40.0754C21.3687 41.122 21.3723 42.1721 21.3615 43.2187C19.6664 43.2403 17.9749 43.2331 16.2835 43.2584C16.2618 44.3554 16.2509 45.4525 16.2256 46.5532C18.1593 47.0043 20.1579 46.7733 22.1241 46.813C22.1277 47.791 22.1205 48.769 22.106 49.7469C18.9616 49.7397 15.8172 49.7433 12.6692 49.7433C12.68 44.3663 12.5572 38.9856 12.7306 33.6121Z" fill="#1B1B1B"/>
<path d="M110.825 34.453C113.579 33.0528 116.778 33.576 119.673 34.204C119.676 35.0701 119.684 35.9326 119.691 36.7987C117.71 36.7951 115.715 36.5677 113.745 36.8384C111.942 37.7081 112.527 40.0177 112.394 41.6272C112.556 43.2981 111.931 45.4092 113.297 46.7047C114.273 47.0909 115.379 46.878 116.409 46.9249C116.402 45.7304 116.398 44.5359 116.384 43.345C115.791 43.3053 115.198 43.2656 114.613 43.2295C114.595 42.3778 114.584 41.5298 114.569 40.6817C116.261 40.3389 118.01 40.3353 119.709 40.6564C119.705 43.5651 119.705 46.4738 119.698 49.3824C117.389 49.9887 114.974 49.8191 112.614 49.765C111.208 49.7433 109.856 48.8303 109.347 47.5167C108.436 45.3009 108.863 42.8506 108.772 40.5265C108.725 38.3865 108.859 35.7738 110.825 34.453Z" fill="#1B1B1B"/>
<path d="M251.835 34.1823C254.438 33.0564 257.239 33.8178 259.935 33.9946C259.971 34.9293 259.986 35.8604 260 36.7987C258.099 36.7734 256.191 36.6146 254.297 36.8023C253.006 37.1595 252.949 38.7149 252.775 39.8012C252.66 41.703 252.573 43.6445 253.025 45.5138C253.115 46.0119 253.386 46.481 253.791 46.7986C254.814 47.0115 255.873 46.9213 256.913 46.8996C256.903 45.8386 256.906 44.7776 256.91 43.7167C256.201 43.446 255.428 43.2584 254.857 42.7351C254.839 41.952 254.983 41.1833 255.132 40.4219C256.74 40.4327 258.348 40.4399 259.957 40.4291C260.015 43.4099 259.953 46.3908 259.989 49.3752C257.897 49.9779 255.699 49.8047 253.552 49.7938C251.998 49.8335 250.368 49.0252 249.79 47.5275C248.774 45.088 249.139 42.3742 249.11 39.8012C249.24 37.7297 249.584 35.0159 251.835 34.1823Z" fill="#1B1B1B"/>
<path d="M56.3439 33.8575C59.9943 33.8791 63.6483 33.8611 67.2986 33.8683C67.3059 34.8607 67.3059 35.8531 67.3059 36.8455C66.1059 37.0621 64.8807 37.0765 63.6663 37.0873C63.6013 41.2988 63.6772 45.5138 63.6302 49.7288C62.4303 49.7433 61.2267 49.7505 60.0232 49.7505C60.0051 45.5282 60.0159 41.306 60.0195 37.0837C58.8124 37.0549 57.6089 37.0476 56.4017 37.0585C56.221 35.9975 56.1921 34.9221 56.3439 33.8575Z" fill="#1B1B1B"/>
<path d="M159.816 33.8755C160.998 33.8611 162.18 33.8647 163.362 33.8864C163.376 39.166 163.376 44.4456 163.366 49.7252C162.26 49.7433 161.157 49.7505 160.055 49.7577C159.177 48.1951 158.342 46.6109 157.554 45.005C156.871 43.6625 156.318 42.2046 155.197 41.1508C155.056 44.009 155.187 46.8743 155.111 49.7361C154.005 49.7397 152.902 49.7397 151.8 49.7361C151.742 44.4492 151.749 39.1624 151.804 33.8755C152.975 33.8539 154.153 33.8539 155.327 33.8539C156.856 36.3331 157.854 39.1299 159.686 41.4179C159.914 38.9098 159.748 36.3872 159.816 33.8755Z" fill="#1B1B1B"/>
<path d="M215.505 33.8719C216.698 33.8647 217.894 33.8647 219.09 33.8683C220.724 36.5099 221.808 39.4619 223.619 41.9953C223.767 39.2851 223.622 36.5677 223.706 33.8575C224.801 33.8611 225.899 33.8683 226.998 33.8827C227.027 39.0974 227.067 44.3193 226.987 49.534C226.012 49.949 224.862 49.7613 223.825 49.6928C221.945 46.997 220.901 43.778 219.072 41.0317C218.769 43.8574 219.235 46.7336 218.819 49.5412C217.789 49.9779 216.578 49.6603 215.48 49.7325C215.461 44.4456 215.418 39.1552 215.505 33.8719Z" fill="#1B1B1B"/>
<path d="M229.557 33.8575C230.728 33.8611 231.896 33.8647 233.07 33.8755C233.157 37.7802 233.081 41.6885 233.114 45.5932C233.106 46.9898 233.204 48.4117 232.842 49.7758C231.733 49.7505 230.627 49.7505 229.525 49.7361C229.506 44.442 229.441 39.1479 229.557 33.8575Z" fill="#1B1B1B"/>
<path d="M235.676 33.8539C236.825 33.9044 238.014 33.7167 239.142 34.009C240.66 36.4089 241.712 39.0758 243.201 41.4972C244.029 39.0541 243.439 36.4233 243.624 33.8936C244.741 33.8791 245.857 33.8755 246.978 33.8827C247.495 37.5384 246.71 41.2122 247.072 44.8714C247.209 46.4882 247.166 48.1193 246.974 49.7325C245.901 49.7433 244.831 49.7433 243.765 49.7469C242.106 46.896 240.884 43.7924 239.023 41.0606C238.838 43.9476 238.983 46.8418 238.925 49.7361C237.83 49.7397 236.731 49.7469 235.64 49.7613C235.195 47.4337 235.434 45.0591 235.383 42.7062C235.463 39.7542 235.148 36.777 235.676 33.8539Z" fill="#1B1B1B"/>
<path d="M0.0554515 37.3797C0.236164 35.7738 1.32767 34.0524 3.06613 33.8864C5.36479 33.6987 7.70683 33.6807 9.97297 34.1426C10.1248 35.0267 10.0959 35.9253 9.87538 36.7987C7.97428 36.8131 6.02981 36.5063 4.15763 36.8997C3.46008 37.6034 3.72392 38.6536 3.66971 39.5413C5.35034 39.9708 7.09963 40.0754 8.76219 40.577C10.0127 40.974 10.6524 42.3562 10.5946 43.6012C10.5982 44.9328 10.75 46.3258 10.3236 47.6105C9.83924 48.7581 8.75857 49.783 7.45021 49.7794C5.28889 49.8299 3.1095 49.8841 0.959015 49.6531C-0.0204478 49.0685 0.54699 47.7549 0.416877 46.8202C2.58543 46.7553 4.8335 47.2461 6.93338 46.5135C6.94061 45.6474 6.95145 44.7849 6.96229 43.9224C5.22022 43.1068 3.17094 43.4027 1.47224 42.5077C-0.103576 41.3385 -0.0746617 39.1407 0.0554515 37.3797Z" fill="#1B1B1B"/>
<path d="M24.2565 33.9044C25.4564 33.8683 26.6599 33.8683 27.8599 33.8755C27.9069 38.0906 27.8743 42.3092 27.8852 46.5279C29.4791 46.6109 31.091 46.4124 32.6705 46.6578C33.827 47.228 33.0644 48.7834 32.9524 49.7686C30.126 49.682 27.296 49.8371 24.4769 49.7036C24.1589 49.2453 24.289 48.6499 24.242 48.1302C24.2709 43.3883 24.2456 38.6463 24.2565 33.9044Z" fill="#1B1B1B"/>
<path d="M34.6836 33.8792C37.7015 33.8611 40.723 33.8539 43.7445 33.89C43.759 34.8463 43.7662 35.8026 43.7662 36.759C41.9699 36.8239 40.1664 36.7193 38.3773 36.8744C40.0688 37.1198 41.7856 36.9719 43.4879 37.1198C41.7603 37.1992 40.0327 37.091 38.3087 37.026C38.2978 38.17 38.2942 39.314 38.2906 40.4616C39.87 40.4796 41.4495 40.4688 43.0289 40.476C43.0759 41.5262 43.0867 42.5835 43.0831 43.6373C41.4965 43.6589 39.9098 43.6517 38.3231 43.6661C38.2725 45.6835 38.2978 47.7008 38.2978 49.7181C37.0979 49.7469 35.898 49.7505 34.7017 49.7686C34.586 44.4745 34.6258 39.1768 34.6836 33.8792Z" fill="#1B1B1B"/>
<path d="M44.8433 38.004C44.8252 36.1779 45.9167 34.074 47.919 33.89C50.1707 33.7095 52.4766 33.659 54.6958 34.1642C54.6813 35.0375 54.6704 35.9109 54.656 36.7914C52.8344 36.7806 51.002 36.5929 49.1912 36.8167C48.0527 37.5204 48.1829 39.9274 49.784 39.9166C51.6598 40.1945 54.2548 40.0249 55.1801 42.0674C55.5415 43.5687 55.4294 45.1493 55.3427 46.6794C55.2596 48.2637 53.8862 49.7469 52.2634 49.7685C50.0984 49.8335 47.919 49.8732 45.7649 49.6675C44.8397 49.0396 45.3782 47.7585 45.2264 46.831C47.3949 46.7877 49.596 47.1233 51.7429 46.6614C51.779 45.6798 51.779 44.6946 51.7248 43.7166C49.943 43.2547 48.0274 43.2836 46.3251 42.5366C44.9011 41.5369 44.7638 39.5918 44.8433 38.004Z" fill="#1B1B1B"/>
<path d="M70.5016 34.3152C72.2292 33.8569 74.0544 34.0302 75.8254 34.041C77.3326 34.0302 79.0566 34.7194 79.5517 36.264C80.1734 38.3066 79.8987 40.4718 79.9674 42.5757C79.8987 44.4812 80.1734 46.5237 79.324 48.3029C78.4458 49.934 76.3892 50.1 74.752 50.266C72.9015 50.2877 70.8269 50.2299 69.2908 49.0679C67.9608 47.7724 68.0403 45.7334 68.0078 44.0192C68.0186 41.9695 67.9499 39.9197 68.0873 37.8771C68.2391 36.4047 68.933 34.7303 70.5016 34.3152ZM72.1063 37.029C71.8678 38.0142 71.622 39.0067 71.6618 40.0279C71.7305 42.3592 71.416 44.741 72.0991 47.0109C73.2593 47.0975 74.4412 47.2347 75.5977 47.0145C76.5663 46.0329 76.288 44.5497 76.3459 43.3047C76.2627 41.1936 76.6531 38.9778 75.7495 36.9857C74.5351 36.9533 73.3171 36.9533 72.1063 37.029Z" fill="#1B1B1B"/>
<path d="M82.4062 33.8972C85.0121 33.8756 87.6288 33.789 90.2347 33.9261C91.731 33.9658 93.0719 35.0304 93.3755 36.5064C93.9466 39.0145 93.8562 42.0025 91.8358 43.8755C92.4973 45.8242 93.3177 47.7224 93.8128 49.7289C92.584 49.7542 91.3551 49.7542 90.1299 49.7253C89.5842 47.9137 88.8902 46.1526 88.4204 44.3194C87.6216 44.3013 86.8265 44.2941 86.0313 44.3013C86.0422 46.1129 86.0422 47.9245 86.0313 49.7361C84.8278 49.747 83.6206 49.7506 82.4171 49.7361C82.3665 44.4565 82.399 39.1769 82.4062 33.8972ZM86.0639 36.7879C86.0313 38.2314 86.035 39.6713 86.035 41.1148C87.206 41.1112 88.3915 41.205 89.5516 40.9885C90.0793 39.9383 90.0938 38.6933 89.8444 37.571C88.9372 36.4125 87.3252 36.8817 86.0639 36.7879Z" fill="#1B1B1B"/>
<path d="M98.7065 33.843C100.286 33.8683 101.869 33.8755 103.452 33.8358C104.366 36.0227 104.811 38.3612 105.451 40.6347C106.206 43.6697 107.124 46.6614 107.825 49.7144C106.654 49.7469 105.483 49.7974 104.316 49.6892C103.879 48.6715 103.615 47.5997 103.315 46.5423C101.8 46.5279 100.286 46.5315 98.7752 46.5351C98.5005 47.6033 98.2042 48.6679 97.9042 49.7361C96.7042 49.7469 95.5043 49.7469 94.3044 49.7289C95.8694 44.46 96.9825 39.0613 98.7065 33.843ZM99.6571 43.63C100.579 43.6156 101.5 43.6084 102.426 43.5939C102.335 41.6055 101.804 39.6568 101.03 37.8307C100.308 39.6856 99.7077 41.6235 99.6571 43.63Z" fill="#1B1B1B"/>
<path d="M122.181 33.8756C125.326 33.8683 128.474 33.8323 131.618 33.8972C131.618 34.8572 131.622 35.8171 131.629 36.7806C129.677 36.7915 127.722 36.7951 125.77 36.7842C125.738 37.9571 125.738 39.1335 125.77 40.31C127.382 40.292 128.99 40.3064 130.606 40.292C130.613 41.1942 130.613 42.0964 130.61 42.9985C129.008 43.0022 127.411 43.013 125.813 42.9985C125.727 44.2688 125.723 45.5427 125.774 46.813C127.718 46.813 129.666 46.8094 131.614 46.8383C131.622 47.8054 131.618 48.769 131.607 49.7361C128.466 49.7686 125.329 49.7506 122.192 49.747C122.127 44.4565 122.134 39.166 122.181 33.8756Z" fill="#1B1B1B"/>
<path d="M141.402 33.8683C143.035 33.8647 144.669 33.8575 146.306 33.8791C147.839 39.1191 149.205 44.4168 150.524 49.7181C149.397 49.7469 148.265 49.7505 147.141 49.7722C146.707 48.7112 146.339 47.625 145.977 46.5387C144.51 46.5279 143.046 46.5243 141.582 46.5171C141.225 47.5853 140.903 48.6643 140.599 49.7469C139.479 49.7433 138.355 49.7505 137.238 49.7397C137.408 47.8054 138.062 45.9685 138.543 44.1028C139.515 40.6961 140.285 37.2317 141.402 33.8683ZM143.729 37.6864C143.039 39.599 142.522 41.5875 142.316 43.6156C143.241 43.6192 144.174 43.612 145.103 43.5904C145.059 41.5514 144.543 39.5485 143.729 37.6864Z" fill="#1B1B1B"/>
<path d="M165.86 33.8935C166.962 33.8719 168.064 33.8611 169.17 33.8394C169.34 34.7344 169.506 35.6402 169.492 36.5604C169.47 39.8877 169.481 43.2186 169.477 46.5495C171.006 46.5459 172.531 46.5567 174.06 46.5351C174.451 47.0223 174.837 47.5095 175.231 48.0003C176.377 43.9115 177.429 39.7975 178.52 35.6943C178.744 35.0592 178.788 34.2436 179.456 33.8899C180.96 33.8033 182.471 33.8899 183.978 33.8539C185.189 37.3219 185.897 40.9343 186.92 44.4564C187.386 46.1923 187.986 47.9136 188.112 49.7216C187.003 49.7397 185.897 49.7469 184.795 49.7469C184.328 48.6967 184.278 47.3904 183.414 46.5712C182.059 46.4629 180.696 46.5531 179.337 46.517C178.947 47.5564 178.658 48.6318 178.433 49.718C174.263 49.7541 170.088 49.7505 165.917 49.7469C165.802 48.8483 165.628 47.9569 165.653 47.0511C166.022 42.6737 165.737 38.2782 165.86 33.8935ZM180.23 43.6192C181.177 43.6408 182.134 43.612 183.056 43.3594C182.604 41.3204 182.019 39.3139 181.639 37.2569C180.812 39.2814 180.244 41.4215 180.23 43.6192Z" fill="#1B1B1B"/>
<path d="M189.815 36.1346C190.393 34.7922 191.788 33.9188 193.237 33.8503C195.478 33.7095 197.763 33.7023 199.967 34.1859C199.967 35.0592 199.964 35.9325 199.964 36.8095C198.016 36.7734 196.053 36.5966 194.116 36.8347C193.465 37.1667 192.966 37.7874 192.883 38.5272C192.576 40.2667 192.75 42.053 192.731 43.8141C192.793 44.8534 192.807 46.1309 193.751 46.8022C194.792 47.0115 195.865 46.914 196.92 46.8779C196.913 45.7989 196.913 44.7235 196.92 43.6481C196.237 43.4713 195.554 43.3016 194.875 43.1429C194.893 42.2334 194.922 41.3277 195.001 40.4218C196.736 40.4327 198.478 40.4254 200.217 40.4471C200.249 43.3919 200.209 46.3366 200.249 49.2814C198.091 50.0103 195.782 49.7938 193.545 49.7974C192.099 49.8046 190.487 49.1839 189.869 47.7873C189.28 46.4196 189.045 44.922 189.059 43.4424C189.049 40.9956 188.89 38.4587 189.815 36.1346Z" fill="#1B1B1B"/>
<path d="M202.985 35.7918C203.625 34.4638 205.164 33.8827 206.56 33.8286C208.699 33.7276 210.875 33.7059 212.982 34.1606C212.975 35.0376 212.975 35.9217 212.968 36.8058C211.023 36.7734 209.064 36.5929 207.127 36.8347C205.833 37.3869 205.815 38.9675 205.743 40.162C205.761 41.9303 205.576 43.7311 205.981 45.4705C206.129 46.1381 206.588 46.9682 207.387 46.8924C208.233 46.9609 209.086 46.914 209.939 46.8815C209.924 45.8025 209.924 44.7235 209.932 43.6481C209.252 43.4676 208.569 43.2944 207.89 43.1356C207.915 42.2298 207.969 41.324 208.085 40.4254C209.798 40.4399 211.515 40.4327 213.235 40.4543C213.242 43.4316 213.25 46.4052 213.221 49.3824C210.933 49.9598 208.551 49.8155 206.22 49.7794C204.94 49.7902 203.614 49.1515 203.025 47.9858C202.262 46.4738 202.045 44.7488 202.074 43.0743C202.067 40.6311 201.922 38.0653 202.985 35.7918Z" fill="#1B1B1B"/>
<path d="M56.3475 58.3719C57.3053 58.2131 58.4583 57.7512 59.2353 58.6101C59.3293 59.2885 59.1052 59.9525 58.9896 60.6165C58.1185 60.6021 57.2547 60.5949 56.3873 60.5841C56.3728 59.8443 56.3584 59.1045 56.3475 58.3719Z" fill="#1B1B1B"/>
<path d="M60.6846 58.4297C61.6677 58.1085 62.6905 58.1229 63.6772 58.4261C63.6375 59.1153 63.6303 59.8118 63.5616 60.5047C62.6653 60.6058 61.7219 60.7465 60.8473 60.4686C60.7497 59.7902 60.7244 59.1081 60.6846 58.4297Z" fill="#1B1B1B"/>
<path d="M57.5401 62.6772C59.5099 62.273 61.5953 62.3379 63.5145 62.9586C64.8735 63.3917 65.777 64.7594 65.8095 66.1596C65.9541 68.9275 65.9107 71.7063 65.8565 74.4814C65.871 75.9069 65.3578 77.5273 63.9843 78.1913C61.6423 79.1115 58.9858 79.1476 56.5824 78.4186C55.3752 78.0613 54.4608 76.9498 54.2548 75.7229C53.7741 73.1606 53.9548 70.5371 53.9729 67.946C54.1138 66.6576 54.103 65.2358 54.9017 64.1423C55.5017 63.2762 56.5281 62.836 57.5401 62.6772ZM58.7798 65.6363C58.1618 65.6797 57.7787 66.304 57.8474 66.885C57.7606 69.5194 57.7028 72.1718 57.8871 74.8062C57.9666 75.7553 59.1015 75.7878 59.8352 75.777C60.6809 75.7481 61.9567 75.9286 62.1302 74.8026C62.2856 72.0527 62.2893 69.2812 62.1375 66.5349C61.5953 65.1889 59.9111 65.5714 58.7798 65.6363Z" fill="#1B1B1B"/>
<path d="M177.888 63.666C177.804 63.103 178.216 62.5076 178.816 62.5292C181.213 62.3307 183.613 62.5761 185.998 62.8143C186.967 62.9695 187.961 63.417 188.477 64.2939C189.366 65.7266 189.03 67.4913 189.077 69.0864C189.16 70.5118 188.275 71.7027 187.422 72.7493C187.982 74.7052 188.9 76.5565 189.244 78.5738C188.101 78.6063 186.963 78.6135 185.828 78.6316C185.019 76.8957 184.57 75.0264 183.876 73.2509C183.096 73.0668 182.29 73.121 181.498 73.1174C181.505 74.947 181.513 76.7767 181.484 78.6099C180.277 78.6243 179.059 78.6388 177.87 78.4187C177.909 73.4999 177.859 68.5811 177.888 63.666ZM181.563 66.1993C181.375 67.4768 181.509 68.776 181.762 70.0391C182.984 70.0174 184.223 70.0102 185.402 69.6421C185.293 68.3069 186.074 66.0225 184.184 65.6905C183.313 65.7086 182.102 65.2935 181.563 66.1993Z" fill="#1B1B1B"/>
<path d="M93.2816 62.7458C94.5032 62.7313 95.7248 62.7349 96.9501 62.7349C98.497 65.4379 99.6535 68.3718 101.475 70.916C101.584 68.1806 101.461 65.4379 101.558 62.7025C102.675 62.7025 103.806 62.7241 104.898 63.0128C104.833 68.2022 104.901 73.3953 104.858 78.5883C103.785 78.5991 102.715 78.6027 101.645 78.6244C99.8812 75.8384 98.6994 72.7385 96.9501 69.9453C96.6681 72.8251 97.0404 75.7265 96.6971 78.6027C95.555 78.6063 94.4128 78.6027 93.2744 78.5883C93.2491 73.3086 93.2346 68.0254 93.2816 62.7458Z" fill="#1B1B1B"/>
<path d="M110.312 62.7385C111.971 62.7241 113.633 62.7241 115.292 62.7385C116.872 67.9784 118.061 73.3266 119.622 78.5702C118.401 78.6027 117.179 78.6135 115.957 78.6135C115.636 77.567 115.347 76.5096 115.151 75.4306C113.579 75.3836 112.007 75.3873 110.435 75.4125C110.178 76.4951 109.871 77.567 109.517 78.6243C108.385 78.6099 107.258 78.6063 106.13 78.581C107.316 73.2545 108.841 67.9965 110.312 62.7385ZM112.658 66.7911C111.985 68.6244 111.49 70.5226 111.244 72.4642C112.264 72.4714 113.283 72.4642 114.302 72.4425C113.85 70.5335 113.623 68.5306 112.658 66.7911Z" fill="#1B1B1B"/>
<path d="M120.757 62.7458C123.341 62.7422 125.929 62.6844 128.513 62.753C130.23 62.7746 131.687 64.2073 131.867 65.8926C132.016 67.8161 132.254 69.9814 131.054 71.645C130.653 72.2405 130.201 72.9117 130.526 73.6587C131.043 75.2971 131.777 76.8705 132.128 78.563C130.982 78.5991 129.836 78.6063 128.69 78.6352C127.743 76.9102 127.512 74.8929 126.565 73.1787C125.846 73.0921 125.123 73.1102 124.408 73.0957C124.368 74.929 124.382 76.7623 124.371 78.5991C123.164 78.6027 121.961 78.6063 120.757 78.5955C120.728 73.3123 120.728 68.029 120.757 62.7458ZM124.397 65.6472C124.371 67.0871 124.364 68.5342 124.379 69.9778C125.665 70.3025 126.966 70.0608 128.239 69.7973C128.123 68.4873 128.918 66.5963 127.53 65.788C126.507 65.5426 125.438 65.6761 124.397 65.6472Z" fill="#1B1B1B"/>
<path d="M150.47 62.7349C151.645 62.7457 152.826 62.6663 154.001 62.7818C155.848 65.2719 156.755 68.3501 158.595 70.8691C158.725 68.1589 158.598 65.4451 158.689 62.7349C159.78 62.7277 160.872 62.7313 161.963 62.7349C161.996 67.8702 162.025 73.0091 161.949 78.1408C161.168 79.0249 159.827 78.4583 158.797 78.6171C157.03 75.8095 155.895 72.6518 154.03 69.9055C153.86 72.7998 154.019 75.7012 153.914 78.5955C152.772 78.6027 151.634 78.6063 150.495 78.5991C150.38 73.3122 150.43 68.0217 150.47 62.7349Z" fill="#1B1B1B"/>
<path d="M202.493 62.7276C203.802 62.724 205.11 62.724 206.422 62.7313C206.531 66.3436 206.09 69.938 205.627 73.5142C204.828 73.5106 204.033 73.507 203.242 73.4998C202.996 69.9091 202.41 66.3364 202.493 62.7276Z" fill="#1B1B1B"/>
<path d="M68.0179 62.7493C70.4792 62.724 72.9405 62.6807 75.4019 62.7421C77.0969 62.7421 78.727 64.099 78.839 65.824C78.9438 67.3577 78.9691 68.9059 78.8318 70.4396C78.6945 71.9264 77.4548 73.1389 76.0127 73.4168C74.5597 73.6803 73.0743 73.5034 71.6069 73.5756C71.5816 75.1743 71.672 76.773 71.5563 78.3681C70.4865 78.8589 69.1926 78.5052 68.0396 78.599C67.9601 73.3158 67.9999 68.0289 68.0179 62.7493ZM71.5708 65.9647C71.5961 67.4263 71.5924 68.8914 71.596 70.3566C72.6261 70.3782 73.667 70.436 74.6935 70.3024C75.4561 69.9163 75.2103 69.0177 75.2717 68.3321C75.2392 67.6067 75.344 66.838 75.0621 66.156C74.0176 65.4198 72.7129 65.6002 71.5708 65.9647Z" fill="#1B1B1B"/>
<path d="M80.628 64.7089C80.6786 64.0305 80.4293 63.186 81.116 62.7493C83.3098 62.6772 85.5073 62.7277 87.7011 62.7385C89.0962 62.7169 90.6901 63.334 91.2178 64.7306C91.9479 66.5747 91.9117 68.6533 91.4997 70.5732C91.2901 71.6089 90.6793 72.641 89.6817 73.0849C87.9903 73.8608 86.082 73.4494 84.2929 73.5721C84.264 75.2465 84.2712 76.9246 84.2604 78.5991C83.0641 78.6063 81.8714 78.6063 80.675 78.6027C80.5847 73.9726 80.6786 69.3426 80.628 64.7089ZM84.2568 65.9576C84.2893 67.3397 84.1881 68.7291 84.329 70.1113C85.1278 71.1181 86.6711 70.5263 87.6867 70.1473C88.2939 69.0034 88.4059 67.4913 87.8023 66.3329C86.9132 65.3188 85.3989 65.6436 84.2568 65.9576Z" fill="#1B1B1B"/>
<path d="M138.59 64.3841C139.183 63.3701 140.325 62.6952 141.507 62.6989C143.632 62.6519 145.811 62.5076 147.889 63.0561C147.882 63.9186 147.875 64.7811 147.864 65.6436C145.829 65.5786 143.787 65.5101 141.76 65.7049C141.713 66.6216 141.691 67.5418 141.702 68.4657C143.379 68.8626 145.128 68.9312 146.773 69.4797C147.925 69.8839 148.496 71.1325 148.543 72.2837C148.598 73.7525 148.739 75.3043 148.146 76.69C147.636 77.6861 146.689 78.5738 145.518 78.6171C143.158 78.8012 140.791 78.6424 138.438 78.5305C138.409 77.585 138.398 76.6359 138.402 75.694C140.336 75.6615 142.284 75.8889 144.21 75.6543C145.41 75.1527 144.868 73.6046 144.915 72.5977C143.491 72.2946 142.045 72.0997 140.617 71.8362C139.146 71.6233 137.983 70.187 138.059 68.7111C138.08 67.2712 137.791 65.6761 138.59 64.3841Z" fill="#1B1B1B"/>
<path d="M167.681 62.6916C169.253 62.7277 170.829 62.7241 172.405 62.7096C173.493 65.9034 174.169 69.2199 175.115 72.4569C175.625 74.4887 176.33 76.4843 176.568 78.5774C175.441 78.5991 174.32 78.6063 173.196 78.6135C172.82 77.5669 172.502 76.506 172.246 75.4269C170.677 75.3872 169.109 75.3836 167.54 75.4269C167.341 76.5168 167.03 77.585 166.654 78.6315C165.527 78.6027 164.406 78.5991 163.286 78.5738C163.893 75.5677 164.869 72.6554 165.585 69.6782C166.257 67.3433 166.694 64.9254 167.681 62.6916ZM168.342 72.2512C169.365 72.5435 170.449 72.5399 171.469 72.2151C171.082 70.418 170.663 68.6244 170.037 66.8994C169.022 68.5161 168.819 70.4432 168.342 72.2512Z" fill="#1B1B1B"/>
<path d="M190.115 65.9395C190.173 64.8966 189.811 63.6949 190.332 62.7602C193.888 62.6736 197.452 62.7602 201.008 62.7313C201.03 63.7093 201.044 64.6873 201.051 65.6653C199.812 65.6689 198.583 65.7735 197.361 65.954C197.34 70.169 197.401 74.3877 197.318 78.6027C196.143 78.6027 194.969 78.6063 193.798 78.6027C193.696 74.3841 193.798 70.1618 193.74 65.9431C192.529 65.9323 191.322 65.9323 190.115 65.9395Z" fill="#1B1B1B"/>
<path d="M202.754 75.3801C203.957 75.3801 205.164 75.3837 206.372 75.4053C206.375 76.4627 206.375 77.5201 206.375 78.581C205.161 78.5991 203.946 78.6027 202.736 78.6027C202.721 77.5273 202.728 76.4519 202.754 75.3801Z" fill="#1B1B1B"/>
</svg>
