<svg width="116" height="20" fill="none" xmlns="http://www.w3.org/2000/svg"><path d="M60.813 0h-9.52v4.653h9.52V0zm0 15.366h-9.52v4.653h9.52v-4.653zM50.574 5.356h-4.77v9.288h4.77V5.356zm15.728 0h-4.769v9.288h4.77V5.356zm-62.019.779c-.643 0-.915.437-.915 1.215v5.338c0 .854.33 1.215.915 1.215.584 0 .992-.418.954-2.013h3.23c.118 4.425-2.257 5.356-4.165 5.356a4.14 4.14 0 0 1-1.773-.262A4.055 4.055 0 0 1 1.047 16a3.93 3.93 0 0 1-.902-1.512A3.858 3.858 0 0 1 0 12.745v-5.47a3.877 3.877 0 0 1 .145-1.746 3.948 3.948 0 0 1 .902-1.515 4.073 4.073 0 0 1 1.481-.99 4.16 4.16 0 0 1 1.774-.27c1.947 0 4.244.912 4.166 5.147H5.237c.038-1.33-.273-1.766-.954-1.766zm5.45-2.963h3.27v10.37h3.465v3.286H9.733V3.172zm7.787 0h3.387v13.656H17.52V3.172zm8.974 2.963c-.662 0-.935.437-.935 1.215v5.338c0 .854.331 1.215.935 1.215.603 0 .992-.418.954-2.013h3.231c.097 4.425-2.278 5.356-4.166 5.356a4.14 4.14 0 0 1-1.779-.256 4.055 4.055 0 0 1-1.49-.982 3.93 3.93 0 0 1-.907-1.515 3.857 3.857 0 0 1-.145-1.748v-5.47a3.878 3.878 0 0 1 .146-1.751 3.95 3.95 0 0 1 .906-1.518 4.074 4.074 0 0 1 1.49-.988 4.16 4.16 0 0 1 1.78-.264c1.946 0 4.243.912 4.165 5.147h-3.231c.038-1.33-.195-1.766-.954-1.766zm8.837 4.026v6.667h-3.465V3.172h3.368V8.87l1.947-5.698h3.698l-2.258 6.097 2.823 7.483h-3.796l-2.317-6.59zm19.876-.284v4.292H53.26V5.831h2.18l1.538 3.894V5.83h1.947v8.338h-2.103l-1.615-4.292zm17.889 1.025a4.998 4.998 0 0 1-1.87-1.859 4.843 4.843 0 0 1-.64-2.528A3.814 3.814 0 0 1 70.937 5c.22-.477.538-.906.932-1.26a4.01 4.01 0 0 1 1.363-.804 4.082 4.082 0 0 1 1.576-.22c2.083 0 4.186 1.12 4.088 4.843H75.92c0-1.234-.253-1.899-1.032-1.899a.877.877 0 0 0-.706.219.836.836 0 0 0-.267.674c.017.276.102.545.247.783.146.238.348.438.59.584l1.947 1.349a4.648 4.648 0 0 1 1.68 1.718c.397.707.596 1.503.578 2.308a3.83 3.83 0 0 1-.315 1.564 3.905 3.905 0 0 1-.927 1.312c-.398.37-.87.657-1.386.842a4.101 4.101 0 0 1-1.616.233c-2.239 0-4.302-1.159-4.205-4.824h2.998c0 1.31.331 1.899 1.09 1.899a.836.836 0 0 0 .737-.273.79.79 0 0 0 .159-.753c0-.303 0-.778-.838-1.367l-1.557-1.026zm6.58-7.73h8.254v3.19h-2.395v10.466h-3.387V6.363h-2.472V3.172zm9.13 4.178a4.33 4.33 0 0 1 1.317-3.102 4.554 4.554 0 0 1 3.18-1.285c1.192 0 2.336.462 3.18 1.285a4.334 4.334 0 0 1 1.316 3.102v5.319c0 1.163-.474 2.28-1.317 3.102a4.554 4.554 0 0 1-3.18 1.285 4.554 4.554 0 0 1-3.18-1.285 4.334 4.334 0 0 1-1.316-3.102V7.35zm5.606 0c0-.93-.506-1.31-1.11-1.31-.603 0-1.129.38-1.129 1.31v5.262c0 .911.526 1.272 1.13 1.272.603 0 1.109-.36 1.109-1.272V7.35zm4.73 9.478V3.172h4.03c3.27 0 4.282 1.9 4.282 3.609a3.414 3.414 0 0 1-.541 1.783c-.342.535-.828.97-1.405 1.256a2.87 2.87 0 0 1 1.541 1.185c.355.558.499 1.221.405 1.872v3.8h-3.192v-3.8c0-.911-.311-1.367-1.149-1.367h-.584v5.128l-3.387.19zm3.387-8.091h.487c.837 0 1.168-.57 1.168-1.406 0-.835-.35-1.234-1.109-1.234h-.546v2.64zm6.307-5.565h7.086v3.267h-3.698v1.747h3.523v3.077h-3.523v2.28H116v3.285h-7.164V3.172z" fill="#000"/></svg>