<svg width="12" height="21" viewBox="0 0 12 21" fill="none" xmlns="http://www.w3.org/2000/svg">
<path fill-rule="evenodd" clip-rule="evenodd" d="M0.685173 20.4515C0.985347 20.7703 1.40013 20.9703 1.85858 20.9703H10.2243C10.6837 20.9703 11.0985 20.7703 11.3978 20.4515C11.6961 20.1326 11.8808 19.694 11.8808 19.213V9.16655C11.9542 9.10404 12 9.00841 12 8.9038V6.81626C12 6.71183 11.954 6.61606 11.8808 6.5533V2.74355C11.8808 2.26263 11.6961 1.82398 11.3978 1.50513C11.2507 1.34377 11.0702 1.21418 10.8681 1.1248C10.6659 1.03541 10.4466 0.988235 10.2243 0.986328H1.85858C1.63634 0.98818 1.41699 1.03533 1.21482 1.12472C1.01265 1.21411 0.832182 1.34372 0.685173 1.50513C0.384999 1.82398 0.201256 2.26263 0.201256 2.74355V3.47431C0.128984 3.53694 0.0839844 3.63201 0.0839844 3.73619V4.64784C0.0839844 4.75134 0.129119 4.84604 0.201256 4.90858V5.09883C0.128984 5.16161 0.0839844 5.25675 0.0839844 5.36043V7.44798C0.0839844 7.55148 0.129119 7.64618 0.201256 7.70872V8.79423C0.128984 8.85677 0.0839844 8.95162 0.0839844 9.0553V11.1428C0.0839844 11.2463 0.129119 11.3413 0.201256 11.4041V19.213C0.201256 19.694 0.385908 20.1326 0.685173 20.4515ZM10.7155 2.20714C10.8438 2.34366 10.9248 2.53304 10.9248 2.74355V19.213C10.9261 19.4108 10.8516 19.602 10.7155 19.7495C10.6541 19.8173 10.5787 19.872 10.494 19.9097C10.4094 19.9475 10.3175 19.9676 10.2243 19.9688H1.85858C1.7654 19.9676 1.6735 19.9475 1.58888 19.9097C1.50425 19.872 1.42878 19.8173 1.36739 19.7495C1.23135 19.602 1.15679 19.4108 1.15817 19.213V2.74355C1.15635 2.54573 1.23097 2.3544 1.36739 2.20714C1.42878 2.13925 1.50425 2.08464 1.58888 2.04685C1.6735 2.00906 1.7654 1.98895 1.85858 1.98781H2.75V2V3C2.75 3.34929 2.90323 3.66328 3.14369 3.88807L3.14406 3.88842C3.38438 4.11218 3.71432 4.25 4.07614 4.25H7.92386C8.28568 4.25 8.61562 4.11218 8.85594 3.88842L8.85631 3.88807C9.09677 3.66328 9.25 3.34929 9.25 3V2.03682V2V1.98781H10.2234C10.4117 1.98781 10.5864 2.07061 10.7146 2.20714H10.7155ZM3.25 3V2.25H3.41343H8.75V3C8.75 3.1985 8.66357 3.38372 8.51501 3.52267C8.36623 3.6611 8.15775 3.75 7.92386 3.75H4.07614C3.84223 3.75 3.63375 3.66109 3.48496 3.52265C3.33642 3.3837 3.25 3.19849 3.25 3ZM6.7 18C6.7 18.3866 6.3866 18.7 6 18.7C5.6134 18.7 5.3 18.3866 5.3 18C5.3 17.6134 5.6134 17.3 6 17.3C6.3866 17.3 6.7 17.6134 6.7 18ZM7 18C7 18.5523 6.55228 19 6 19C5.44772 19 5 18.5523 5 18C5 17.4477 5.44772 17 6 17C6.55228 17 7 17.4477 7 18ZM2.55929 14.6069L2.41218 14.8091C2.57718 14.9292 2.78032 15 3 15H5.4V14.75V14.5H3C2.88954 14.5 2.78879 14.4648 2.7064 14.4048L2.55929 14.6069ZM6.6 14.75V15H9C9.21968 15 9.42282 14.9292 9.58782 14.8091L9.44071 14.6069L9.2936 14.4048C9.21121 14.4648 9.11046 14.5 9 14.5H6.6V14.75ZM9.75 9.8H10V7C10 6.78032 9.92916 6.57718 9.80908 6.41218L9.60695 6.55929L9.40481 6.7064C9.46477 6.78879 9.5 6.88954 9.5 7V9.8H9.75ZM3 6H5.4V6.25V6.5H3C2.88954 6.5 2.78879 6.53523 2.7064 6.59519L2.55929 6.39305L2.41218 6.19092C2.57718 6.07084 2.78032 6 3 6ZM2.25 11.2H2V14C2 14.2197 2.07084 14.4228 2.19092 14.5878L2.39306 14.4407L2.59519 14.2936C2.53523 14.2112 2.5 14.1105 2.5 14V11.2H2.25ZM2.25 9.8H2V7C2 6.78032 2.07084 6.57718 2.19092 6.41218L2.39306 6.55929L2.59519 6.7064C2.53523 6.78879 2.5 6.88954 2.5 7V9.8H2.25ZM6.6 6.25V6H9C9.21968 6 9.42282 6.07084 9.58782 6.19092L9.44071 6.39306L9.2936 6.59519C9.21121 6.53523 9.11046 6.5 9 6.5H6.6V6.25ZM9.75 11.2H10V14C10 14.2197 9.92916 14.4228 9.80908 14.5878L9.60695 14.4407L9.40481 14.2936C9.46477 14.2112 9.5 14.1105 9.5 14V11.2H9.75Z" fill="black"/>
</svg>
