<svg width="371" height="461" fill="none" xmlns="http://www.w3.org/2000/svg"><path fill-rule="evenodd" clip-rule="evenodd" d="M.438.194h10v10h-10v-10zm30 0h10v10h-10v-10zm40 0h-10v10h10v-10zm20 0h10v10h-10v-10zm40 0h-10v10h10v-10zm20 0h10v10h-10v-10zm40 0h-10v10h10v-10zm20 0h10v10h-10v-10zm40 0h-10v10h10v-10zm20 0h10v10h-10v-10zm40 0h-10v10h10v-10zm20 0h10v10h-10v-10zm40 0h-10v10h10v-10zm-370 30h10v10h-10v-10zm30 0h10v10h-10v-10zm40 0h-10v10h10v-10zm20 0h10v10h-10v-10zm40 0h-10v10h10v-10zm20 0h10v10h-10v-10zm40 0h-10v10h10v-10zm20 0h10v10h-10v-10zm40 0h-10v10h10v-10zm20 0h10v10h-10v-10zm40 0h-10v10h10v-10zm20 0h10v10h-10v-10zm40 0h-10v10h10v-10zm-370 30h10v10h-10v-10zm30 0h10v10h-10v-10zm40 0h-10v10h10v-10zm20 0h10v10h-10v-10zm40 0h-10v10h10v-10zm20 0h10v10h-10v-10zm40 0h-10v10h10v-10zm20 0h10v10h-10v-10zm40 0h-10v10h10v-10zm20 0h10v10h-10v-10zm40 0h-10v10h10v-10zm20 0h10v10h-10v-10zm40 0h-10v10h10v-10zm-370 30h10v10h-10v-10zm30 0h10v10h-10v-10zm40 0h-10v10h10v-10zm20 0h10v10h-10v-10zm40 0h-10v10h10v-10zm20 0h10v10h-10v-10zm40 0h-10v10h10v-10zm20 0h10v10h-10v-10zm40 0h-10v10h10v-10zm20 0h10v10h-10v-10zm40 0h-10v10h10v-10zm20 0h10v10h-10v-10zm40 0h-10v10h10v-10zm-370 30h10v10h-10v-10zm30 0h10v10h-10v-10zm40 0h-10v10h10v-10zm20 0h10v10h-10v-10zm40 0h-10v10h10v-10zm20 0h10v10h-10v-10zm40 0h-10v10h10v-10zm20 0h10v10h-10v-10zm40 0h-10v10h10v-10zm20 0h10v10h-10v-10zm40 0h-10v10h10v-10zm20 0h10v10h-10v-10zm40 0h-10v10h10v-10zm-370 30h10v10h-10v-10zm30 0h10v10h-10v-10zm40 0h-10v10h10v-10zm20 0h10v10h-10v-10zm40 0h-10v10h10v-10zm20 0h10v10h-10v-10zm40 0h-10v10h10v-10zm20 0h10v10h-10v-10zm40 0h-10v10h10v-10zm20 0h10v10h-10v-10zm40 0h-10v10h10v-10zm20 0h10v10h-10v-10zm40 0h-10v10h10v-10zm-370 30h10v10h-10v-10zm30 0h10v10h-10v-10zm40 0h-10v10h10v-10zm20 0h10v10h-10v-10zm40 0h-10v10h10v-10zm20 0h10v10h-10v-10zm40 0h-10v10h10v-10zm20 0h10v10h-10v-10zm40 0h-10v10h10v-10zm20 0h10v10h-10v-10zm40 0h-10v10h10v-10zm20 0h10v10h-10v-10zm40 0h-10v10h10v-10zm-370 30h10v10h-10v-10zm30 0h10v10h-10v-10zm40 0h-10v10h10v-10zm20 0h10v10h-10v-10zm40 0h-10v10h10v-10zm20 0h10v10h-10v-10zm40 0h-10v10h10v-10zm20 0h10v10h-10v-10zm40 0h-10v10h10v-10zm20 0h10v10h-10v-10zm40 0h-10v10h10v-10zm20 0h10v10h-10v-10zm40 0h-10v10h10v-10zm-370 30h10v10h-10v-10zm30 0h10v10h-10v-10zm40 0h-10v10h10v-10zm20 0h10v10h-10v-10zm40 0h-10v10h10v-10zm20 0h10v10h-10v-10zm40 0h-10v10h10v-10zm20 0h10v10h-10v-10zm40 0h-10v10h10v-10zm20 0h10v10h-10v-10zm40 0h-10v10h10v-10zm20 0h10v10h-10v-10zm40 0h-10v10h10v-10zm-370 30h10v10h-10v-10zm30 0h10v10h-10v-10zm40 0h-10v10h10v-10zm20 0h10v10h-10v-10zm40 0h-10v10h10v-10zm20 0h10v10h-10v-10zm40 0h-10v10h10v-10zm20 0h10v10h-10v-10zm40 0h-10v10h10v-10zm20 0h10v10h-10v-10zm40 0h-10v10h10v-10zm20 0h10v10h-10v-10zm40 0h-10v10h10v-10zm-370 30h10v10h-10v-10zm30 0h10v10h-10v-10zm40 0h-10v10h10v-10zm20 0h10v10h-10v-10zm40 0h-10v10h10v-10zm20 0h10v10h-10v-10zm40 0h-10v10h10v-10zm20 0h10v10h-10v-10zm40 0h-10v10h10v-10zm20 0h10v10h-10v-10zm40 0h-10v10h10v-10zm20 0h10v10h-10v-10zm40 0h-10v10h10v-10zm-370 30h10v10h-10v-10zm30 0h10v10h-10v-10zm40 0h-10v10h10v-10zm20 0h10v10h-10v-10zm40 0h-10v10h10v-10zm20 0h10v10h-10v-10zm40 0h-10v10h10v-10zm20 0h10v10h-10v-10zm40 0h-10v10h10v-10zm20 0h10v10h-10v-10zm40 0h-10v10h10v-10zm20 0h10v10h-10v-10zm40 0h-10v10h10v-10zm-370 30h10v10h-10v-10zm30 0h10v10h-10v-10zm40 0h-10v10h10v-10zm20 0h10v10h-10v-10zm40 0h-10v10h10v-10zm20 0h10v10h-10v-10zm40 0h-10v10h10v-10zm20 0h10v10h-10v-10zm40 0h-10v10h10v-10zm20 0h10v10h-10v-10zm40 0h-10v10h10v-10zm20 0h10v10h-10v-10zm40 0h-10v10h10v-10zm-370 30h10v10h-10v-10zm30 0h10v10h-10v-10zm40 0h-10v10h10v-10zm20 0h10v10h-10v-10zm40 0h-10v10h10v-10zm20 0h10v10h-10v-10zm40 0h-10v10h10v-10zm20 0h10v10h-10v-10zm40 0h-10v10h10v-10zm20 0h10v10h-10v-10zm40 0h-10v10h10v-10zm20 0h10v10h-10v-10zm40 0h-10v10h10v-10zm-370 30h10v10h-10v-10zm30 0h10v10h-10v-10zm40 0h-10v10h10v-10zm20 0h10v10h-10v-10zm40 0h-10v10h10v-10zm20 0h10v10h-10v-10zm40 0h-10v10h10v-10zm20 0h10v10h-10v-10zm40 0h-10v10h10v-10zm20 0h10v10h-10v-10zm40 0h-10v10h10v-10zm20 0h10v10h-10v-10zm40 0h-10v10h10v-10zm-370 30h10v10h-10v-10zm30 0h10v10h-10v-10zm40 0h-10v10h10v-10zm20 0h10v10h-10v-10zm40 0h-10v10h10v-10zm20 0h10v10h-10v-10zm40 0h-10v10h10v-10zm20 0h10v10h-10v-10zm40 0h-10v10h10v-10zm20 0h10v10h-10v-10zm40 0h-10v10h10v-10zm20 0h10v10h-10v-10zm40 0h-10v10h10v-10z" fill="#FFD401"/></svg>