<svg width="40" height="40" fill="none" xmlns="http://www.w3.org/2000/svg"><rect width="40" height="40" rx="4" fill="#3A50C5"/><path d="M10 21.956C10 27.46 14.49 32 19.996 32c5.505 0 10.044-4.49 10.044-10.044 0-2.222-.724-4.25-1.931-5.892l1.497-1.497a.438.438 0 0 0 .144-.338.438.438 0 0 0-.144-.338l-1.497-1.497a.467.467 0 0 0-.676 0l-1.497 1.497a9.796 9.796 0 0 0-4.443-1.835v-1.159h.966c.29 0 .483-.193.483-.482V8.482c0-.29-.194-.483-.483-.483H17.58c-.29 0-.482.193-.482.483v1.931c0 .29.193.483.482.483h.966v1.16C13.718 12.731 10 16.884 10 21.955zm9.996 9.03c-4.974 0-9.03-4.056-9.03-9.079a9.016 9.016 0 0 1 9.03-9.03c4.974 0 9.078 4.057 9.078 9.079s-4.104 9.03-9.078 9.03zm7.726-17.578l.821.821-1.062 1.063c-.242-.29-.531-.531-.821-.821l1.062-1.063zm-9.658-4.442h3.864v.966h-3.864v-.966zm1.45 1.931h.965v1.063c-.145 0-.338-.049-.483-.049-.145 0-.338 0-.483.049v-1.063z" fill="#fff"/><path d="M27.578 21.907c0-4.152-3.43-7.581-7.582-7.581a7.564 7.564 0 0 0-7.581 7.581v.097c0 4.153 3.428 7.581 7.581 7.581a7.564 7.564 0 0 0 7.582-7.581c0-.048.048-.048 0-.097.048 0 0 0 0 0zm-7.1 6.664v-.917c0-.29-.192-.483-.482-.483s-.483.193-.483.483v.917a6.635 6.635 0 0 1-6.133-6.132h.918c.29 0 .483-.194.483-.483 0-.29-.194-.483-.483-.483h-.918a6.635 6.635 0 0 1 6.133-6.133v.918c0 .29.193.482.483.482s.483-.193.483-.482v-.918a6.635 6.635 0 0 1 6.133 6.133h-.918c-.29 0-.483.193-.483.483s.193.483.483.483h.918c-.242 3.235-2.85 5.891-6.133 6.132z" fill="#fff"/><path d="M22.748 18.527l-1.931 1.932c-.628-.338-1.497-.242-1.98.29-.338.338-.483.724-.483 1.207 0 .29.097.58.193.82l-1.931 1.932a.467.467 0 0 0 0 .676.522.522 0 0 0 .338.145.522.522 0 0 0 .338-.145l1.931-1.931c.242.145.532.193.821.193.435 0 .87-.193 1.207-.483.338-.338.483-.724.483-1.207 0-.29-.096-.58-.193-.821l1.932-1.932a.467.467 0 0 0 0-.676.525.525 0 0 0-.725 0zm-2.22 3.912a.7.7 0 0 1-1.208-.483c0-.193.096-.387.241-.531a.692.692 0 0 1 .483-.194c.145 0 .386.097.531.242a.692.692 0 0 1 .194.483c-.049.193-.145.338-.242.483z" fill="#fff"/></svg>