<svg width="40" height="40" fill="none" xmlns="http://www.w3.org/2000/svg"><rect width="40" height="40" rx="4" fill="#3A50C5"/><path d="M19.492 8a.792.792 0 0 0-.784.808v1.096C13.852 10.297 10 14.252 10 19.092a.79.79 0 0 0 1.46.412c.406-.65.932-1.203 2.234-1.203 1.303 0 1.829.553 2.235 1.203a.792.792 0 0 0 1.336 0c.311-.498.696-.933 1.443-1.112v3.865a.791.791 0 1 0 1.584 0v-3.865c.747.179 1.131.614 1.443 1.112a.792.792 0 0 0 1.336 0c.406-.65.932-1.203 2.235-1.203 1.302 0 1.828.553 2.234 1.203a.792.792 0 0 0 1.46-.412c0-4.84-3.852-8.795-8.708-9.188V8.808a.791.791 0 0 0-.8-.808zm.008 3.445c.1 0 .264.05.52.354.256.305.541.828.783 1.508.362 1.02.636 2.39.75 3.931a4.111 4.111 0 0 0-2.053-.52c-.822 0-1.5.208-2.053.52.114-1.541.388-2.911.75-3.93.242-.68.527-1.204.784-1.509.255-.305.42-.354.519-.354zm-2.383.362c-.15.302-.287.62-.413.973-.44 1.24-.737 2.801-.849 4.524a4.091 4.091 0 0 0-2.16-.585c-.719 0-1.306.182-1.823.428.69-2.535 2.671-4.553 5.245-5.34zm4.766 0c2.574.787 4.555 2.805 5.245 5.34a4.125 4.125 0 0 0-1.822-.428c-.877 0-1.588.238-2.161.585-.112-1.723-.409-3.284-.85-4.524a8.794 8.794 0 0 0-.412-.973zm-2.391 12.28a.792.792 0 0 0-.784.807v4.483a2.387 2.387 0 0 0 2.375 2.373 2.387 2.387 0 0 0 2.375-2.373.79.79 0 0 0-1.355-.567.791.791 0 0 0-.228.567c0 .452-.34.79-.792.79a.773.773 0 0 1-.791-.79v-4.483a.79.79 0 0 0-.8-.808z" fill="#fff"/></svg>