<svg width="40" height="40" fill="none" xmlns="http://www.w3.org/2000/svg"><rect width="40" height="40" rx="4" fill="#3A50C5"/><path d="M27.494 18.133h-.259v-3.41a6.86 6.86 0 0 0-13.718 0 .867.867 0 1 0 1.733 0 5.135 5.135 0 1 1 10.27 0v3.41H13.26A2.252 2.252 0 0 0 11 20.382v9.371A2.252 2.252 0 0 0 13.25 32h14.233a2.252 2.252 0 0 0 2.26-2.252v-9.372a2.246 2.246 0 0 0-2.249-2.243zm.513 11.604a.514.514 0 0 1-.513.515H13.26a.513.513 0 0 1-.515-.515v-9.372a.512.512 0 0 1 .515-.515h14.223a.513.513 0 0 1 .515.515v9.372h.009z" fill="#fff"/><path d="M20.625 22.62a1.427 1.427 0 0 0-1.628 1.773c.086.314.28.588.548.774a.297.297 0 0 1 .132.276v1.85a.722.722 0 0 0 1.072.63.645.645 0 0 0 .342-.62V25.46a.313.313 0 0 1 .152-.303 1.363 1.363 0 0 0 .581-1.152 1.444 1.444 0 0 0-1.199-1.384z" fill="#fff"/></svg>