<svg width="40" height="40" fill="none" xmlns="http://www.w3.org/2000/svg"><rect width="40" height="40" rx="4" fill="#3A50C5"/><path d="M22.109 8h-5.272c-.924 0-1.74.76-1.74 1.738v2.009H9.229c-1.25 0-2.228.977-2.228 2.226v5.647c0 .326.217.543.543.543h.924v9.61c0 1.25.979 2.227 2.229 2.227h17.608c1.25 0 2.229-.977 2.229-2.226v-9.611h.923c.327 0 .544-.217.544-.543v-5.647a2.203 2.203 0 0 0-2.228-2.226h-5.924v-2.01c0-.977-.761-1.737-1.74-1.737zm-5.87 1.738a.66.66 0 0 1 .652-.652h5.272a.66.66 0 0 1 .652.652v2.009H16.24v-2.01zm13.207 20.036c0 .651-.49 1.14-1.142 1.14H10.696a1.114 1.114 0 0 1-1.142-1.14v-9.611h2.663v3.53c0 .325.218.542.544.542h2.391c.326 0 .544-.217.544-.543v-3.53h7.608v3.53c0 .326.218.543.544.543h2.446c.326 0 .543-.217.543-.543v-3.53H29.5v9.612h-.054zM13.25 20.163h1.359v2.986H13.25v-2.986zm11.141 0h1.359v2.986h-1.359v-2.986zm6.522-6.19v5.104H8.087v-5.104c0-.652.49-1.14 1.141-1.14h20.544c.652 0 1.141.488 1.141 1.14z" fill="#fff"/></svg>