<svg width="40" height="40" fill="none" xmlns="http://www.w3.org/2000/svg"><rect width="40" height="40" rx="4" fill="#3A50C5"/><path d="M23.033 19c.766 0 1.531-.29 2.106-.871A3.02 3.02 0 0 0 26 16c0-.823-.335-1.597-.861-2.129-1.149-1.161-3.063-1.161-4.26 0-1.196 1.161-1.148 3.097 0 4.306.575.533 1.388.823 2.154.823zm-1.484-4.5c.383-.387.91-.58 1.436-.58.527 0 1.053.193 1.436.58.383.387.622.92.622 1.452 0 .532-.191 1.064-.622 1.451-.814.823-2.106.823-2.872 0-.765-.774-.765-2.129 0-2.903z" fill="#fff"/><path d="M7.019 27.092c-.05.2 0 .4.152.5.151.15.353.2.505.1.505-.2 1.212-.4 1.87-.55-.658.75-1.315 1.853-1.213 3.205 0 .25.202.45.454.45.101 0 1.667.101 3.183-1.151-.151.701-.354 1.302-.556 1.502-.202.15-.202.451-.1.652.1.15.252.2.403.2.102 0 .152 0 .253-.05.152-.1 3.94-2.204 3.79-5.51.96-.1 2.172-.3 3.485-.6.303 1.452 0 3.005-.858 4.307-.102.15-.102.35 0 .55.1.151.252.251.404.251h.05c.96-.15 1.92-.45 2.779-1.002a6.966 6.966 0 0 0 3.183-6.41 17.995 17.995 0 0 0 2.223-1.754c5.355-5.309 5.002-13.974 4.951-14.324a.45.45 0 0 0-.455-.451c-.353 0-9.144-.4-14.399 4.858a12.117 12.117 0 0 0-1.768 2.204c-2.526-.2-5.052 1.002-6.467 3.156-.555.851-.91 1.753-1.01 2.754-.05.2.05.401.252.501.101.05.203.1.253.1a.39.39 0 0 0 .253-.1c1.313-.851 2.88-1.102 4.345-.851-.354 1.302-.506 2.504-.607 3.506-1.212.05-4.345.701-5.355 3.957zm5.911 2.955c.202-.802.253-1.603.303-1.954 0-.25-.1-.45-.353-.5-.051 0-.102-.05-.152-.05-.152 0-.303.1-.404.25-.96 1.502-2.274 1.853-2.93 1.953.202-1.653 1.869-2.805 1.869-2.805.151-.1.252-.3.202-.5a.546.546 0 0 0-.404-.401c-.607-.15-1.769.15-2.678.4 1.162-2.003 3.436-2.354 4.193-2.404l1.87 1.854.353.4c.203 1.553-.858 2.905-1.869 3.757zm11.014-5.96a5.868 5.868 0 0 1-2.728 4.958c-.404.25-.86.5-1.314.651.556-1.302.707-2.755.404-4.107.05 0 .101-.05.152-.05.202-.05.455-.15.657-.2.151-.05.252-.1.404-.15l.455-.151c.151-.05.303-.1.454-.2.101-.05.253-.1.354-.15.151-.1.354-.15.505-.251l.303-.15c.101-.1.202-.15.354-.2zm7.073-16.128c0 .851-.05 2.654-.505 4.858-2.223-.5-3.84-2.104-4.345-4.307a21.53 21.53 0 0 1 4.85-.551zm-13.186 4.558c2.122-2.104 4.85-3.206 7.326-3.807.606 2.604 2.475 4.508 5.102 5.109-.606 2.454-1.768 5.159-3.84 7.262-.757.752-1.566 1.352-2.475 1.904-.202.15-.455.25-.707.4-.05.05-.152.1-.202.1-.304.15-.607.3-.96.451-.101.05-.152.05-.253.1-.354.15-.657.25-1.01.401-.405.15-.809.25-1.213.35-1.516.401-2.98.652-4.092.752l-.303-.3-1.82-1.854a22.42 22.42 0 0 1 .81-4.207c.05-.25.15-.45.201-.701.05-.2.152-.451.253-.651.05-.2.151-.351.202-.551.05-.15.152-.3.202-.501.101-.25.202-.501.354-.701.1-.15.151-.351.252-.501.101-.15.202-.3.253-.451a9.978 9.978 0 0 1 1.92-2.604zm-4.598 6.06a6.897 6.897 0 0 0-4.143.4c.152-.45.354-.901.657-1.302a6.01 6.01 0 0 1 5.002-2.704c-.101.2-.202.35-.303.55a3.866 3.866 0 0 0-.354.802c-.354.701-.606 1.453-.859 2.254z" fill="#fff"/></svg>