<svg width="40" height="40" fill="none" xmlns="http://www.w3.org/2000/svg"><rect width="40" height="40" rx="4" fill="#3A50C5"/><path fill-rule="evenodd" clip-rule="evenodd" d="M30.667 30a.667.667 0 0 1-.667.667H10A.667.667 0 0 1 9.333 30V10c0-.368.3-.667.667-.667h20c.368 0 .667.3.667.667v20zM30 8H10a2 2 0 0 0-2 2v20a2 2 0 0 0 2 2h20a2 2 0 0 0 2-2V10c0-1.103-.896-2-2-2z" fill="#fff"/><path fill-rule="evenodd" clip-rule="evenodd" d="M22.923 19.333a2.987 2.987 0 0 0-.386-.927l1.195-1.196c.457.61.767 1.335.881 2.123h-1.69zm-.386 2.261a2.98 2.98 0 0 0 .386-.927h1.69a4.641 4.641 0 0 1-.88 2.123l-1.196-1.196zm-1.87 1.329a2.98 2.98 0 0 0 .927-.386l1.195 1.195a4.634 4.634 0 0 1-2.123.881v-1.69zm-2.261-.386c.281.178.593.31.927.386v1.69a4.634 4.634 0 0 1-2.123-.88l1.196-1.196zm-1.329-1.87c.076.334.208.645.386.927l-1.196 1.195a4.63 4.63 0 0 1-.88-2.122h1.69zm.386-2.261c-.178.281-.31.594-.386.927h-1.69a4.627 4.627 0 0 1 .88-2.122l1.196 1.195zm1.87-1.329a2.98 2.98 0 0 0-.927.386l-1.196-1.195a4.63 4.63 0 0 1 2.123-.881v1.69zm2.261.386a2.983 2.983 0 0 0-.928-.386v-1.69a4.63 4.63 0 0 1 2.123.88l-1.195 1.196zM20 21.667A1.669 1.669 0 0 1 18.333 20c0-.919.748-1.667 1.667-1.667s1.666.748 1.666 1.667-.747 1.667-1.666 1.667zM20 14c-3.308 0-6 2.692-6 6s2.692 6 6 6 6-2.692 6-6-2.692-6-6-6z" fill="#fff"/></svg>