<svg xmlns="http://www.w3.org/2000/svg" viewBox="0 0 143.41 94.8"><defs><style>.cls-1{fill:none;stroke:#000;stroke-linecap:round;stroke-linejoin:round;stroke-width:1.99px}</style></defs><g id="Слой_2" data-name="Слой 2"><g id="Слой_2-2" data-name="Слой 2"><path class="cls-1" d="M112.13 60.56l-2 12.25a2.49 2.49 0 0 1-2.86 2.06l-24.79-4A2.49 2.49 0 0 1 80.42 68l8.41-51.63a2.49 2.49 0 0 1 2.86-2.06l24.79 4a2.48 2.48 0 0 1 2.06 2.86L114 49"/><path class="cls-1" d="M124 59l-10-10-10.2-2a2.4 2.4 0 0 0-2.8 2.48c.1 2.19 1.53 5.17 7.59 7.22l.7.22 6.34 7.34s-2.09 8.58 2.33 13.08m24.45 1.83S121.08 48 120.16 46.51s-5.07-4.11-5.07-4.11m6.99 51.27s-15.19-2.25-24.25-12.12a27.38 27.38 0 0 0-11.38-2.94c-6.87.06-10.94-1.43-11.25-4.5s2.63-4.81 5.94-4.06m4.81 8.12v-3m-4.44-19.01s-5-1.15-5.81 2.1c-1.25 4.83 4.82 6.35 4.82 6.35m1.6-11.77s-5-1.08-4.3-6c.59-4.06 5.82-2.09 5.82-2.09m.27-4.05s-5.39-1.16-4.3-6c.88-3.91 5.82-2.09 5.82-2.09M31.28 60.69l2 12.25A2.49 2.49 0 0 0 36.14 75l24.79-4A2.49 2.49 0 0 0 63 68.1l-8.42-51.63a2.5 2.5 0 0 0-2.87-2.06l-24.79 4a2.49 2.49 0 0 0-2.06 2.86l4.55 27.83m14.14-28.35l-6.69 1.09m62.63-1.81l6.69 1.09"/><path class="cls-1" d="M19.41 59.14l10-10 10.21-2a2.39 2.39 0 0 1 2.83 2.46c-.1 2.19-1.52 5.17-7.58 7.22l-.71.22-6.33 7.34S29.91 73 25.5 77.47M1 79.3s21.33-31.16 22.25-32.66 5.09-4 5.09-4M21.33 93.8s15.19-2.25 24.25-12.12A27.37 27.37 0 0 1 57 78.74c6.88.06 11-1.44 11.25-4.5s-2.62-4.81-5.93-4.06m-4.87 8.12v-3m4.45-19.01s5-1.15 5.81 2.1c1.25 4.83-4.82 6.35-4.82 6.35M61.29 53s5-1.08 4.3-6c-.59-4.06-5.82-2.1-5.82-2.1m-.27-4.07s5.39-1.16 4.29-6c-.88-3.94-5.79-2.12-5.79-2.12m58.43-20.85V6.8m9.06 10.54l4.05-3.37m-2.71 13.45h4.25M27.64 11.86V6.8m-9.06 10.54l-4.04-3.37m2.7 13.45h-4.25M77.2 7.62A6.63 6.63 0 1 1 70.58 1a6.72 6.72 0 0 1 1.75.23"/><path class="cls-1" d="M68.14 5.97l2.75 2.75 7.33-7.33"/></g></g></svg>