<svg xmlns="http://www.w3.org/2000/svg" viewBox="0 0 135.08 99.33"><defs><style>.cls-1{fill:none;stroke:#000;stroke-linecap:round;stroke-linejoin:round;stroke-width:1.99px}</style></defs><g id="Слой_2" data-name="Слой 2"><g id="Слой_2-2" data-name="Слой 2"><path class="cls-1" d="M107.86 60.06s0 10.5 6.39 14.25m8.58 23.98s-15.09 1.19-27.43-8.46c0 0-7.06-2.37-13.68-1.21-7.92 1.39-12.9.44-13.84-3s2.11-6 6.07-5.82m-1.23-16.11s-6-.38-6.3 3.52c-.51 5.81 6.77 6.41 6.77 6.41m-.41-13.88s-6-.29-6.1-6.12c-.1-4.8 6.3-3.53 6.3-3.53m-.46-4.7s-6.43-.3-6.1-6.12c.27-4.68 6.3-3.53 6.3-3.53m2.94-29.68V1m-8.1 8.16l-3.41-2.85m1.76 11.52h-4.25"/><path stroke-width="1.93" fill="none" stroke="#000" stroke-linecap="round" stroke-linejoin="round" d="M81.72 88.62v-3.44"/><rect class="cls-1" x="73.19" y="13.3" width="34.67" height="67.11" rx="3.77" ry="3.77"/><path class="cls-1" d="M86.81 17.83h5.76m-69.74 29.4h5.76m8.37-12.86h5.76m18.32 7.87H34.98v37.2h28.78"/><path class="cls-1" transform="rotate(-180 20.585 70.14)" d="M6.19 60.84h28.79v18.6H6.19z"/><path class="cls-1" transform="rotate(-180 25.68 51.54)" d="M16.38 42.24h18.6v18.6h-18.6z"/><path class="cls-1" transform="rotate(-180 39.525 36.235)" d="M28.19 30.24h22.67v12H28.19z"/><path class="cls-1" d="M6.19 79.44H1m5.19-12.26h28.79m13.35-19.95h8.29m51.24 15.66l1.29-10.82a31 31 0 0 0-.05-7.64l-.9-6.91a9.51 9.51 0 0 1 1.33-6.34 8 8 0 0 1 2.47-2.44 2.89 2.89 0 0 1 4.41 2.31c.13 2.71.33 6.58.49 10a19.27 19.27 0 0 0 5.3 12.34 49 49 0 0 1 11.89 21"/><path d="M86.62 38.3h8.43v4.22h-8.43zm0 13.94h8.43v4.22h-8.43zm-4.86-9.08h4.21v8.44h-4.21zm13.94 0h4.22v8.44H95.7z"/></g></g></svg>